<svg xmlns="http://www.w3.org/2000/svg" height="22" width="22">
    <path d="M10.632 2.028a9.038 9.038 0 0 0-2.75.598 9.022 9.022 0 0 0-4.174 3.32l-.265.045c-.987.17-1.78.45-2.38.878C.46 7.297.051 7.924.004 8.622-.075 9.82.751 10.929 2.135 12v.08l.098-.004c.199.15.37.303.592.451 3.66 2.465 9.658 4.109 14.191 3.903 2.267-.102 3.888-.6 4.646-1.771.378-.586.436-1.344.189-2.03-.247-.685-.746-1.33-1.47-1.976l-.21-.187a9.026 9.026 0 0 0-2.13-5.277 9.055 9.055 0 0 0-7.41-3.16zm.083 1.412a7.63 7.63 0 0 1 6.251 2.668 7.628 7.628 0 0 1 .783 8.804l-.008.012c-.26.032-.5.076-.798.09C12.823 15.2 6.9 13.566 3.61 11.35c-.031-.021-.048-.04-.079-.062a7.627 7.627 0 0 1 7.185-7.848zM2.813 7.616a9 9 0 0 0-.65 2.49c-.524-.585-.767-1.087-.748-1.38.017-.243.119-.447.47-.698.21-.149.54-.287.928-.412zm17.27 4.773c.213.269.368.517.44.717.129.357.098.549-.05.776-.132.204-.468.432-.957.632a8.977 8.977 0 0 0 .566-2.125zM3.895 13.523l-1.294.576.29.647a9.05 9.05 0 0 0 13.59 3.635l.571-.417-.833-1.147-.573.417A7.631 7.631 0 0 1 4.184 14.17z" fill="#ffffdf"/>
</svg>
