<svg xmlns="http://www.w3.org/2000/svg" height="22" width="22">
    <path d="M17.519.002L10.92.006H4.328l-.225.152a1.325 1.325 0 0 0-.38.404c-.142.237-.149.285-.149.68 0 .269.018.445.053.48.035.034.202.057.434.057s.403-.023.438-.057c.034-.034.053-.198.053-.419V.938h12.7v.37c0 .258.023.383.069.422.042.034.211.046.475.038l.415-.012v-.544c0-.52-.004-.548-.133-.735a1.547 1.547 0 0 0-.35-.334l-.21-.141zM11.02 2.011c-8.941 0-8.946.002-9.135.099a1.857 1.857 0 0 0-.746.753l-.137.274.016 8.835c.014 6.856.027 8.882.072 9.044.07.254.312.553.605.757.213.147.236.153.826.179.334.013 4.395.033 9.025.038l8.416.008.259-.145c.339-.191.508-.369.677-.704l.14-.274-.011-8.907-.016-8.906-.114-.225c-.133-.26-.467-.587-.742-.727l-.19-.099H11.02zM2.265 3.274H19.73v17.46H2.265v-8.732zm5.103 3.173c-.073 0-.437.625-.457.784-.016.127.01.151.388.37.223.127 1.998 1.15 3.942 2.274 3.31 1.915 3.539 2.055 3.588 2.203a.553.553 0 0 1-.156.567 7.932 7.932 0 0 1-.617.411c-.282.175-1.599 1.02-2.925 1.876-1.327.856-2.451 1.556-2.496 1.556a.31.31 0 0 1-.168-.08c-.08-.073-.084-.207-.084-2.393 0-1.74-.015-2.332-.057-2.374-.076-.076-.886-.076-.962 0-.09.089-.079 4.662.011 4.961.13.432.445.75.876.89.262.086.723.054.962-.068.1-.051.55-.332.997-.624 1.08-.707 3.852-2.487 4.497-2.888.605-.376.87-.615 1.043-.944.114-.216.125-.287.125-.73 0-.468-.006-.502-.156-.78-.188-.347-.04-.25-2.362-1.59-4.643-2.679-5.943-3.42-5.99-3.42z" fill="#ffffdf"/>
</svg>
