<svg xmlns="http://www.w3.org/2000/svg" height="22" width="22">
    <path d="M11.412 0c-.16-.004-.328.02-.485.087-1.37.54-2.107 1.805-2.634 2.846-.264.522-.482 1.006-.662 1.327-.117.207-.201.282-.204.303a.37.37 0 0 1 .047.002c-.04.008-.049.006-.047-.002-.947-.058-1.971-.143-2.898-.123-1 .022-1.951.066-2.582.818l-.015.019-.015.021c-.021.03-.127.117-.253.341a1.524 1.524 0 0 0-.156.858c.06.626.345 1.404 1.063 2.996l1.302-.587c-.698-1.55-.921-2.313-.943-2.544-.004-.039-.005-.036-.006-.043 0 0-.015.02-.014.017.01-.016.01-.03.014-.017.004 0 .047-.051.118-.144.052-.062.64-.29 1.52-.308.88-.02 1.98.074 3.018.133l.099.005.094-.022c.64-.142.868-.605 1.102-1.023.235-.418.449-.9.693-1.383.472-.932 1.059-1.772 1.817-2.11.04.024.078.041.158.115.232.213.552.618.875 1.105.648.974 1.334 2.28 1.836 3.258l1.27-.652c-.507-.986-1.202-2.321-1.915-3.395-.357-.538-.712-1.01-1.1-1.367a2.154 2.154 0 0 0-.657-.44 1.287 1.287 0 0 0-.44-.09zm5.332 4.408l-.142 1.42c1.692.17 2.466.359 2.677.455l.038.017s-.01-.024-.008-.022c.01.017.022.027.008.022-.002.004.022.066.067.173.027.078-.07.701-.493 1.472-.424.771-1.055 1.677-1.624 2.546l-.054.081-.03.094c-.196.626.093 1.055.337 1.467.245.413.556.838.852 1.292.57.874 1.006 1.803.92 2.63-.042.022-.076.043-.18.076-.3.094-.81.172-1.394.208-1.168.074-2.643.015-3.74-.038l-.07 1.424c1.108.054 2.612.12 3.9.038.643-.04 1.227-.112 1.73-.27a2.16 2.16 0 0 0 .71-.35 1.24 1.24 0 0 0 .466-.795c.218-1.458-.51-2.727-1.148-3.704-.32-.49-.63-.92-.819-1.238-.122-.206-.142-.318-.159-.328l-.028.04c.012-.035.021-.044.028-.04.523-.79 1.107-1.635 1.553-2.447.482-.878.919-1.725.583-2.647l-.008-.023-.011-.024c-.015-.033-.036-.167-.167-.388-.131-.22-.381-.434-.667-.564-.572-.26-1.39-.403-3.127-.577zM4.208 10.171c-.6.932-1.409 2.201-1.982 3.357-.287.577-.518 1.12-.633 1.636-.057.258-.09.51-.051.787.038.273.186.596.457.802 1.153.919 2.616.924 3.78.86.586-.032 1.114-.086 1.483-.09.234-.004.343.033.364.026l-.021-.045c.027.031.031.042.021.045.424.848.863 1.777 1.343 2.57.52.855 1.033 1.656 1.999 1.827l.026.005.025.002c.037.004.164.05.42.047.258-.004.566-.112.822-.294.512-.365 1.043-1.001 2.063-2.42l-1.158-.831c-.992 1.38-1.544 1.954-1.733 2.089-.03.021-.026.02-.032.025l.022.005c-.02 0-.033.005-.022-.005.01-.004-.043-.016-.234-.036l.05.006c-.08-.015-.571-.41-1.028-1.163s-.926-1.749-1.394-2.676l-.045-.09-.066-.073c-.444-.484-.958-.448-1.437-.442-.48.005-1.004.062-1.544.092-1.042.057-2.065-.03-2.737-.517 0-.047-.004-.088.021-.195.07-.307.26-.789.52-1.313.52-1.048 1.307-2.293 1.902-3.217l-1.201-.774z" fill="#ffffdf"/>
</svg>
