<svg xmlns="http://www.w3.org/2000/svg" height="22" width="22">
    <path d="M10.748.005C5.428.124.87 4.088.109 9.458c-.811 5.728 2.972 11.12 8.634 12.307 5.662 1.187 11.292-2.232 12.85-7.804C23.151 8.39 20.11 2.55 14.653.628l-.532 1.507a9.39 9.39 0 0 1 5.929 11.398 9.383 9.383 0 0 1-10.978 6.664A9.386 9.386 0 0 1 1.696 9.682a9.38 9.38 0 0 1 8.634-8.047l-.114 14.283.002-.026-.002.077.058.247.204.282.291.151s.166.027.224.024c.116-.006.177-.029.224-.046.185-.067.191-.096.233-.127.083-.062.149-.12.238-.2.178-.159.418-.387.711-.67.588-.568 1.379-1.355 2.193-2.174.814-.819 1.652-1.671 2.327-2.368.675-.697 1.157-1.201 1.375-1.462l-1.13-.947c-.102.123-.638.692-1.307 1.382-.67.691-1.5 1.54-2.31 2.354-.686.69-1.302 1.295-1.84 1.82l.11-13.99h-.011l.016-.211c-.361-.027-.72-.037-1.075-.03zm-5.21 9.203l-.945.755 4.082 5.126-.074-2.032-3.063-3.849z" fill="#ffffdf"/>
</svg>
