<svg xmlns="http://www.w3.org/2000/svg" height="22" width="22">
    <path d="M4.329.006c-.124 0-.285-.004-.479.023a1.953 1.953 0 0 0-.61.19c-.434.219-.76.6-.887 1.094l-.028.104v2.176H.526V5.32h3.527V1.753c.011-.004.015-.006.037-.008.042-.006.123-.012.239-.012h15.015l.042-.006c-.004-.002.008.008.015.02a.319.319 0 0 1 .039.11c.011.062.015.171.015.326v10.603s.015.06-.104.21c-.746.942-3.013 3.408-3.013 3.408l1.271 1.172s2.217-2.393 3.099-3.506c.484-.613.478-1.326.478-1.326V2.184c0-.165 0-.377-.044-.63a1.987 1.987 0 0 0-.304-.771 1.77 1.77 0 0 0-.694-.609c-.29-.14-.61-.199-.934-.166l.09-.002H4.328zM2.057 7.068v1.931H.58v1.728h3.207v-3.66zm-.024 5.27v2.252H.5v1.728h3.262v-3.98zm-.106 5.511s-.017.275-.002.606c.013.284.061.644.176.943.553 1.43 2.082 2.61 3.34 2.602l15.325-.088v-1.729l-15.073.04c-.93.012-1.834-.635-2.04-1.846-.009-.227 0-.416 0-.416l-1.726-.112z" fill="#ffffdf"/>
</svg>
