<svg xmlns="http://www.w3.org/2000/svg" height="22" width="22">
    <path d="M4.406 18.216a5.224 5.224 0 0 1-2.743-1.402C.865 16.047.364 15.182.115 14.137c-.178-.744-.145-2.072.069-2.74.58-1.812 1.912-3.123 3.693-3.634.535-.154.63-.162 1.612-.136.932.025 1.097.046 1.544.2a5.398 5.398 0 0 1 3.154 2.79c.283.593.505 1.38.505 1.792v.271H9.38l-.033-.172c-.217-1.145-.506-1.74-1.163-2.402-.388-.39-.583-.53-1.064-.76-.69-.332-1.06-.419-1.777-.419-.713 0-1.088.088-1.751.407a3.963 3.963 0 0 0-2.07 2.363c-.208.647-.236 1.6-.064 2.229.363 1.325 1.296 2.326 2.62 2.81l.452.166 6.63.019c4.768.012 6.735-.001 7.005-.052.817-.155 1.644-.74 2.063-1.46.516-.885.535-2.09.046-3.005-.223-.418-.846-1.044-1.235-1.24-.563-.286-.932-.36-1.784-.36h-.794l-.039-.234a3.757 3.757 0 0 1-.04-.493c0-.455-.292-1.443-.591-2.005-.576-1.081-1.36-1.844-2.433-2.365-1.235-.6-2.75-.714-4.012-.304-.396.13-1.128.49-1.387.685l-.198.149-.86-.136-.858-.136.437-.417c.74-.706 1.763-1.263 2.866-1.562.78-.212 2.115-.24 2.97-.064 1.36.28 2.378.826 3.382 1.816.993.98 1.514 1.863 1.845 3.127l.14.532.272.05c.761.141 1.13.252 1.585.477 2.152 1.062 3.062 3.646 2.04 5.79-.484 1.014-1.1 1.636-2.102 2.126-1 .488-.691.47-8.081.464-5.101-.003-6.652-.024-6.992-.087z" fill="#ffffdf"/>
</svg>
