<svg xmlns="http://www.w3.org/2000/svg" height="22" width="22">
    <path d="M21.99 2.459l-10.14.025c-10.114.023-10.14.022-10.54.207-.22.102-.547.334-.725.517-.602.62-.585.347-.585 8.774v7.563h1.403V4.383l.214-.218.218-.214H21.99v-.746zm-2.112 3.883c-.314.029-.63.105-.871.222-.22.106-1.858 1.438-3.637 2.962-3.876 3.32-3.709 3.189-4.152 3.248-.415.056-.032.386-4.022-3.458L4.619 6.835l-.214.2c-.119.11-.332.345-.472.52l-.253.322 3.027 2.92c1.664 1.607 3.191 3.02 3.394 3.14.507.302 1.495.315 2.081.026.219-.108 1.856-1.444 3.637-2.97 3.747-3.21 3.827-3.273 4.198-3.273.601 0 .583-.112.578 3.241-.009 5.801-.086 6.24-1.174 6.814l-.454.239-7.381.021-7.378.025v1.4l7.292-.004c7.839-.001 7.693.009 8.61-.457.567-.289 1.219-.99 1.51-1.624.224-.492.231-.55.292-3.041.124-5.047.118-6.544-.025-6.878-.168-.393-.743-.911-1.164-1.05-.224-.074-.532-.093-.845-.064z" fill="#ffffdf"/>
</svg>
