<svg xmlns="http://www.w3.org/2000/svg" height="22" width="22">
    <path d="M.555 3.001A.553.553 0 0 0 0 3.556v.603c0 .308.247.555.555.555h.605a.553.553 0 0 0 .555-.555v-.603a.553.553 0 0 0-.555-.555zm20.287 0a.553.553 0 0 0-.555.555v.603c0 .308.247.555.555.555h.603A.553.553 0 0 0 22 4.159v-.603a.553.553 0 0 0-.555-.555zM6.565 4.188l-.357.621c-.197.342-.35.637-.339.656.012.019 2.255 1.321 4.984 2.896 2.806 1.618 4.983 2.902 5.012 2.955.028.051.052.2.052.33.002.458.15.35-3.992 2.952-2.067 1.299-3.813 2.368-3.879 2.377-.079.012-.161-.018-.248-.093l-.132-.114-.036-2.88c-.02-1.584-.04-2.885-.048-2.889-.007-.003-.337.002-.735.012l-.723.016.025 2.784c.014 1.532.045 2.918.07 3.08a1.838 1.838 0 0 0 1.329 1.493c.3.084.798.065 1.094-.041.27-.097 7.71-4.769 7.992-5.018.603-.535.891-1.391.716-2.136-.088-.377-.256-.729-.455-.96-.11-.13-1.408-.897-5.239-3.106L6.566 4.19zM.555 8.022A.553.553 0 0 0 0 8.577v.602c0 .308.247.556.555.556h.605a.553.553 0 0 0 .555-.556v-.602a.553.553 0 0 0-.555-.555zm20.287 0a.553.553 0 0 0-.555.555v.602c0 .308.247.556.555.556h.603A.553.553 0 0 0 22 9.179v-.602a.553.553 0 0 0-.555-.555zM.555 12.553a.553.553 0 0 0-.555.555v.603c0 .308.247.555.555.555h.605a.553.553 0 0 0 .555-.555v-.603a.553.553 0 0 0-.555-.555zm20.287 0a.553.553 0 0 0-.555.555v.603c0 .308.247.555.555.555h.603a.553.553 0 0 0 .555-.555v-.603a.553.553 0 0 0-.555-.555zM.555 17.287a.553.553 0 0 0-.555.555v.603c0 .308.247.555.555.555h.605a.553.553 0 0 0 .555-.555v-.603a.553.553 0 0 0-.555-.555zm20.287 0a.553.553 0 0 0-.555.555v.603c0 .308.247.555.555.555h.603a.553.553 0 0 0 .555-.555v-.603a.553.553 0 0 0-.555-.555z" fill="#ffffdf"/>
</svg>
