<svg xmlns="http://www.w3.org/2000/svg" height="22" width="22">
    <path d="M6.43.915c-.45 0-.9.029-1.202.088-1.902.373-3.449 1.48-4.405 3.15a6.68 6.68 0 0 0-.4.862c-.91 2.509-.352 5.083 1.679 7.776 1.255 1.664 2.584 3.009 6.693 6.75C9.98 20.617 10.971 21.5 11 21.5c.016 0 .932-.852 1.33-1.206l-1.326-1.159-.004.004c-.063 0-3.074-2.75-4.29-3.916-3.729-3.578-5.047-5.732-4.945-8.088.031-.714.148-1.207.425-1.8.584-1.249 1.59-2.106 2.934-2.504.624-.186 1.618-.223 2.284-.084 1.245.26 2.156.82 3.083 1.9.266.31.497.557.513.552.014-.004.259-.274.545-.6.91-1.04 1.83-1.602 3.038-1.852.668-.139 1.662-.102 2.288.084 2.052.608 3.368 2.368 3.371 4.509.002 1.689-.814 3.414-2.549 5.394-.618.706-1.3 1.412-2.192 2.277l.757 1.707.048-.044c2.535-2.415 3.909-4.067 4.742-5.695.876-1.714 1.135-3.278.817-4.926-.496-2.572-2.475-4.532-5.102-5.05-.648-.128-1.854-.116-2.509.024a7.437 7.437 0 0 0-2.83 1.267L11 2.618l-.428-.32c-.811-.609-1.888-1.085-2.942-1.295-.3-.06-.75-.088-1.2-.088z" fill="#ffffdf"/>
</svg>
