<svg xmlns="http://www.w3.org/2000/svg" height="22" width="22">
    <path d="M3.481 21.828a1.795 1.795 0 0 1-.883-.9c-.08-.19-.098-1.34-.098-6.08 0-5.78.002-5.85.152-6.161.187-.385.626-.773 1.004-.886.204-.062 1.877-.085 6.02-.085h5.74l-.033-1.767c-.029-1.573-.05-1.815-.188-2.193a3.989 3.989 0 0 0-1.09-1.662c-2.313-2.176-6.161-1.09-6.94 1.96l-.079.31H6.002l.045-.237a4.8 4.8 0 0 1 1.405-2.606C8.112.873 8.612.562 9.478.263c.531-.184.786-.227 1.515-.256 1.064-.042 1.775.108 2.731.578.845.415 1.812 1.37 2.203 2.175.45.927.501 1.226.546 3.189l.04 1.767h.993c1.167.001 1.449.065 1.84.419.616.556.573.06.573 6.724 0 5.691-.004 5.92-.14 6.184-.189.37-.661.785-1.002.88-.188.052-2.662.077-7.604.077H3.848l-.367-.171zm8.533-3c.582-.151 1.134-.494 1.595-.99 1.552-1.669 1.032-4.311-1.043-5.302-.542-.26-.574-.265-1.43-.265-.86 0-.883.004-1.423.269-1.331.65-2.094 2.066-1.89 3.507.28 1.972 2.255 3.282 4.191 2.78z" fill="#ffffdf"/>
</svg>
