<?xml version="1.0" encoding="UTF-8" standalone="no"?>
<svg
   xmlns:dc="http://purl.org/dc/elements/1.1/"
   xmlns:cc="http://creativecommons.org/ns#"
   xmlns:rdf="http://www.w3.org/1999/02/22-rdf-syntax-ns#"
   xmlns:svg="http://www.w3.org/2000/svg"
   xmlns="http://www.w3.org/2000/svg"
   xmlns:sodipodi="http://sodipodi.sourceforge.net/DTD/sodipodi-0.dtd"
   xmlns:inkscape="http://www.inkscape.org/namespaces/inkscape"
   viewBox="0 0 22 22"
   version="1.1"
   id="svg4"
   sodipodi:docname="myfolder.svg"
   inkscape:version="0.92.4 5da689c313, 2019-01-14">
  <metadata
     id="metadata10">
    <rdf:RDF>
      <cc:Work
         rdf:about="">
        <dc:format>image/svg+xml</dc:format>
        <dc:type
           rdf:resource="http://purl.org/dc/dcmitype/StillImage" />
        <dc:title></dc:title>
      </cc:Work>
    </rdf:RDF>
  </metadata>
  <defs
     id="defs8" />
  <sodipodi:namedview
     pagecolor="#ffffff"
     bordercolor="#666666"
     borderopacity="1"
     objecttolerance="10"
     gridtolerance="10"
     guidetolerance="10"
     inkscape:pageopacity="0"
     inkscape:pageshadow="2"
     inkscape:window-width="1366"
     inkscape:window-height="700"
     id="namedview6"
     showgrid="false"
     inkscape:pagecheckerboard="true"
     inkscape:zoom="11.313708"
     inkscape:cx="-6.8058348"
     inkscape:cy="11.553415"
     inkscape:window-x="0"
     inkscape:window-y="0"
     inkscape:window-maximized="1"
     inkscape:current-layer="svg4" />
  <path
     style="fill:#ffffdf;stroke-width:1.02219462"
     d="M 6.9191716,1.9901092 C 5.3538226,2.0090483 3.7848453,1.9685185 2.2217348,2.0123586 1.2634449,2.087805 0.40257078,2.8084479 0.13821991,3.7304353 -0.01729339,4.212081 -0.00420365,4.7225759 0.00485247,5.2252877 c 0.00549642,2.7308651 4.8784e-4,5.4617543 0.00228041,8.1926313 0,2.155958 0,4.311915 0,6.467874 0.43829859,0 0.87659727,0 1.31489612,0 C 1.3281415,14.7222 1.3088528,9.558278 1.3326359,4.3948953 1.3845722,3.938087 1.683757,3.4808125 2.1410432,3.3550285 2.6030372,3.2577325 3.0779776,3.341092 3.5435206,3.3122341 4.7400358,3.3159512 5.936713,3.2979418 7.1330888,3.3235476 7.2217498,3.3845255 7.3104104,3.4456484 7.4134123,3.478382 8.062161,3.7998241 8.61794,4.2722431 9.2231528,4.663919 10.012925,5.2165068 10.831386,5.7916169 11.79269,5.9831865 c 0.685296,0.1172405 1.385708,0.0292 2.078596,0.056373 2.203466,0 4.406931,0 6.610399,0 0.0035,0.4452881 0.0072,0.8905757 0.01061,1.335864 -5.768061,-0.027999 -11.5361177,-0.056 -17.3041759,-0.084001 -0.00201,0.4392177 -0.004,0.8784353 -0.006,1.317653 6.2127914,0.031376 12.4255839,0.062755 18.6383749,0.094131 -0.01221,-1.3281258 -0.02444,-2.6562515 -0.03665,-3.9843771 -3.17139,-0.00277 -6.34293,0.00602 -9.514226,-0.00538 C 11.587919,4.5830665 10.99746,4.191919 10.402552,3.8554342 9.4658596,3.2765877 8.6181688,2.5498962 7.615631,2.0827471 7.3915423,2.001681 7.1553876,1.9887126 6.9191563,1.9901073 Z M 20.576515,10.965811 c 0.0079,1.730777 0.200698,3.471339 -0.02719,5.195966 -0.0863,0.517044 -0.327598,1.01829 -0.729316,1.361393 -0.656371,0.648161 -1.517976,1.139469 -2.452741,1.185144 -0.665284,0.0262 -1.331141,-0.0086 -1.996629,0.0074 -3.710655,0 -7.4213078,0 -11.1319616,0 0,0.43986 0,0.87972 0,1.31958 4.4753678,-0.0063 8.9509496,0.01378 13.4261776,-0.01114 1.079402,-0.100737 2.059749,-0.665772 2.871862,-1.364596 0.544612,-0.476584 0.968787,-1.09882 1.153956,-1.801823 0.364646,-1.213369 0.323103,-2.498857 0.285311,-3.753497 -0.02852,-0.715343 -0.07228,-1.43018 -0.08417,-2.14611 -0.438444,0 -0.876887,0 -1.31533,0 z"
     id="path2"
     inkscape:connector-curvature="0" />
</svg>
