<svg xmlns="http://www.w3.org/2000/svg" height="22" width="22">
    <path d="M11 0C4.906 0 0 4.906 0 11s4.906 11 11 11 11-4.906 11-11S17.094 0 11 0zm0 1.833c5.485 0 9.167 3.682 9.167 9.167S16.485 20.167 11 20.167 1.833 16.485 1.833 11 5.515 1.833 11 1.833zM13.75 5.5a1.833 1.833 0 0 0-1.833 1.833 1.833 1.833 0 0 0 1.833 1.834 1.833 1.833 0 0 0 1.833-1.834A1.833 1.833 0 0 0 13.75 5.5zm-3.667 2.75a.917.917 0 0 0-.916.917.917.917 0 0 0 .916.916.917.917 0 0 0 .917-.916.917.917 0 0 0-.917-.917zm-3.666.917A1.833 1.833 0 0 0 4.583 11a1.833 1.833 0 0 0 1.834 1.833A1.833 1.833 0 0 0 8.25 11a1.833 1.833 0 0 0-1.833-1.833zm3.666 2.75a.917.917 0 0 0-.916.916.917.917 0 0 0 .916.917.917.917 0 0 0 .917-.917.917.917 0 0 0-.917-.916zm3.667.916a1.833 1.833 0 0 0-1.833 1.834A1.833 1.833 0 0 0 13.75 16.5a1.833 1.833 0 0 0 1.833-1.833 1.833 1.833 0 0 0-1.833-1.834z" fill="#ffffdf"/>
</svg>
