<svg xmlns="http://www.w3.org/2000/svg" height="22" width="22">
    <path d="M6.474 4.352a6.33 6.33 0 0 0-5.407 2.8c-1.26 1.876-1.416 4.332-.405 6.333a6.352 6.352 0 0 0 5.199 3.494 6.396 6.396 0 0 0 4.142-1.173 6.45 6.45 0 0 0 1.944-2.265l.152-.3h2.871V17h5.167v-3.758H22V8.075h-4.96l-4.959-.004-.137-.279A6.322 6.322 0 0 0 8.58 4.763a6.331 6.331 0 0 0-2.106-.412zm-.32 1.416a4.955 4.955 0 0 1 2.366.52c.47.234.813.486 1.24.913.596.596.898 1.076 1.205 1.913l.14.384 4.745.007 4.745.007v2.321H18.73v3.73h-2.324v-3.73h-5.305l-.12.345c-.066.19-.207.515-.313.726-.667 1.319-1.887 2.252-3.364 2.57-.394.086-1.33.108-1.73.043a4.917 4.917 0 0 1-4.04-3.793 5.923 5.923 0 0 1-.077-1.68A4.86 4.86 0 0 1 2.87 7.196c.34-.334.395-.377.726-.602a5.166 5.166 0 0 1 1.75-.733c.267-.054.537-.086.807-.095zm.161 3.127a1.666 1.666 0 0 0-1.666 1.666 1.666 1.666 0 0 0 1.666 1.666 1.666 1.666 0 0 0 1.667-1.666 1.666 1.666 0 0 0-1.667-1.666z" fill="#ffffdf"/>
</svg>
