<svg xmlns="http://www.w3.org/2000/svg" height="22" width="22">
    <path d="M11.844.152a.933.933 0 0 0-.61.025.886.886 0 0 0-.371.298c-.145.196-.18.34-.213.476-.067.27-.079.508-.08.7v.002c-.032 3.782.007 12.903.016 15.634 0 .183-.026.31-.046.382-.018.063.004.022.007.015-1.081 1.738-2.237 2.453-3.186 2.634-.95.181-1.745-.153-2.233-.707-.489-.554-.674-1.294-.33-2.108.344-.815 1.291-1.769 3.307-2.458l-.494-1.44c-2.286.782-3.652 1.97-4.216 3.305a3.52 3.52 0 0 0 .59 3.71c.841.953 2.206 1.472 3.662 1.195 1.457-.278 2.957-1.332 4.2-3.335l.002-.007.002-.005c.001-.002.104-.199.158-.394.054-.194.1-.462.099-.791-.01-2.692-.043-11.511-.015-15.369 3.456 1.336 4.85 3.168 5.152 4.715.325 1.663-.581 3.044-1.35 3.328l.526 1.428c1.708-.63 2.769-2.745 2.318-5.05-.45-2.303-2.486-4.725-6.896-6.183z" stroke="#ffffdf" stroke-width=".222" fill="#ffffdf"/>
</svg>
