<svg xmlns="http://www.w3.org/2000/svg" height="22" width="22">
    <path d="M4.73 1.173v3.171h12.544V1.173h-6.27zm6.027 5.937l-8.6.02-.423.171C1.15 7.536.446 8.235.211 8.82l-.166.426-.02 3.435L0 16.116h4.73v4.723h12.544v-4.723H22l-.021-3.508-.02-3.504-.208-.422a2.78 2.78 0 0 0-1.977-1.515c-.305-.058-2.785-.072-9.019-.057zm8.527.759c.518 0 1.178.294 1.486.658.835.988.55 2.507-.58 3.078-.25.125-.477.175-.837.186-.595.02-.826-.05-1.275-.39-.895-.676-1.027-1.996-.284-2.874.307-.364.972-.658 1.49-.658zM5.506 12.591h11.065l-.02 3.752-.017 3.752-5.466.021c-3.007.01-5.492-.002-5.518-.028-.026-.026-.045-1.725-.045-3.773z" fill="#ffffdf"/>
</svg>
