<svg xmlns="http://www.w3.org/2000/svg" width="16" height="16"><path d="M7.95 1.965c-1.516 0-2.888.222-3.923.605-.52.192-.957.418-1.289.707-.336.293-.582.676-.582 1.121 0 .442.246.829.582 1.118.332.289.77.52 1.29.71 1.035.38 2.406.602 3.921.602 1.516 0 2.89-.223 3.926-.601.52-.192.953-.422 1.29-.711.331-.29.577-.676.577-1.118 0-.445-.246-.828-.578-1.12-.336-.29-.77-.516-1.289-.708-1.035-.382-2.41-.605-3.926-.605zm0 .945c1.421 0 2.71.219 3.6.547.446.164.786.356.993.535.203.176.254.309.254.406 0 .098-.05.227-.254.407-.207.18-.547.37-.992.535-.89.324-2.18.543-3.602.543-1.422 0-2.707-.219-3.597-.543-.446-.164-.79-.36-.993-.535-.207-.18-.257-.309-.257-.407 0-.097.05-.23.257-.406.204-.18.547-.37.993-.535.89-.328 2.175-.547 3.597-.547zm5.726 4.496l-.906.266c.058.203.007.379-.332.66-.336.281-.95.574-1.766.777-1.637.41-3.79.414-5.43.004-.82-.203-1.433-.496-1.773-.777-.34-.281-.395-.461-.336-.656l-.91-.266c-.172.61.132 1.227.64 1.649.512.421 1.239.742 2.153.968 1.82.453 4.066.453 5.886-.004.91-.226 1.633-.547 2.141-.968.508-.426.812-1.047.633-1.653zm0 3.442l-.906.27c.058.198.007.374-.332.655-.336.286-.95.579-1.766.782-1.637.41-3.79.414-5.43.004-.82-.207-1.433-.496-1.773-.778-.34-.281-.395-.46-.336-.66l-.91-.262c-.172.61.132 1.227.64 1.649.512.422 1.239.742 2.153.969 1.82.453 4.066.453 5.886-.004.91-.23 1.633-.547 2.141-.973.508-.422.812-1.043.633-1.652zm0 0" fill="#ffffdf"/></svg>