<svg xmlns="http://www.w3.org/2000/svg" height="22" width="22">
    <path d="M11.347.341L.943 8.314v13.25h1.28V8.944l9.901-7.586zm3.41 2.87l-.817 1.048 5.989 4.663v9.228c-.006.572-.214 1.17-.59 1.594-.375.424-.89.702-1.665.684H5.554v1.329H17.66l-.016-.002c1.136.027 2.08-.436 2.693-1.13a3.769 3.769 0 0 0 .922-2.464V8.275l-6.5-5.062zM7.253 7.817v5.422h-.007c0 .035.007.068.007.102v.475h.035c.224 2.063 1.923 3.714 4.051 3.792a4.258 4.258 0 0 0 4.398-4.061 4.258 4.258 0 0 0-4.029-4.428l-.064 1.279a2.96 2.96 0 0 1 2.814 3.093 2.956 2.956 0 0 1-3.072 2.838 2.953 2.953 0 0 1-2.854-2.947V7.817z" stroke="#ffffdf" stroke-width=".487" fill="#ffffdf"/>
</svg>
