<svg xmlns="http://www.w3.org/2000/svg" height="22" width="22">
    <path d="M10.178 19.992c-2.267-.34-4.055-1.602-5.035-3.556a6.609 6.609 0 0 1-.635-3.835 6.61 6.61 0 0 1 1.839-3.695C7.4 7.852 8.66 7.239 10.219 7.02l.154-.022.024.172c.013.096.023.462.023.815v.642l-.27.048a4.938 4.938 0 0 0-3.988 3.854c-.116.54-.116 1.415 0 1.956.674 3.147 4.099 4.832 6.952 3.422.511-.253.835-.488 1.282-.932.95-.941 1.416-2.029 1.453-3.393.008-.288.016-3.011.016-6.053V2h1.603v6.076c0 5.857-.002 6.091-.072 6.5a6.674 6.674 0 0 1-1.224 2.866c-.281.385-1 1.086-1.426 1.39-.673.479-1.616.887-2.48 1.073-.302.065-.527.082-1.175.092a14.998 14.998 0 0 1-.913-.005z" fill="#ffffdf"/>
</svg>
