<svg xmlns="http://www.w3.org/2000/svg" width="16" height="16"><path d="M8.602 1.277c-2.149.024-3.454 1.399-4.043 2.77a5.333 5.333 0 0 0-.446 1.95c-.008.226.024.425.059.62-.031.016-.047 0-.078.024a1.449 1.449 0 0 0-.422.629c-.117.34-.133.707-.04 1.05.153.59.47.97.774 1.176.149.102.293.164.407.203.035.016.019.004.05.016.18.37.403.734.657 1.02.152.175.296.324.421.445-.05.8-.554 1.308-1.296 1.652-.786.367-1.801.465-2.45.344l-.172.933c.887.16 2.028.043 3.02-.418.781-.363 1.477-1 1.738-1.879.43.231.907.368 1.395.403 1.09.066 2.406-.512 3.187-2.3.043-.099.067-.145.07-.153l-.015.023c-.012.02-.059.067-.055.063a.819.819 0 0 0 .102-.137l.012-.027c.105-.04.238-.094.378-.188.301-.207.618-.586.77-1.176.094-.343.082-.71-.04-1.05a1.416 1.416 0 0 0-.42-.63c-.032-.027-.052-.007-.083-.023.008-.047.023-.086.027-.133a3.74 3.74 0 0 0-.066-1.16c-.168-.836-.598-1.781-1.434-2.398l-.558.761c.582.43.93 1.16 1.066 1.825.067.332.078.644.055.867-.024.219-.133.316-.043.25a.452.452 0 0 0-.07.066c-.028.032-.047.063-.07.094l-.036.086-.02.14.032.169.086.148.101.082.082.043s.079.023.106.027a.337.337 0 0 0 .058.004c.118.004.11-.008.133-.011l.086-.016c.031.039.051.059.078.129.047.125.07.281.016.492-.106.395-.258.543-.39.633a.842.842 0 0 1-.188.094c-.059.02-.07.007-.215.07l-.188.082-.07.195-.039.125-.023.04c-.04.07-.07.144-.102.214-.668 1.527-1.504 1.785-2.262 1.735a2.48 2.48 0 0 1-1.011-.293 1.806 1.806 0 0 1-.313-.207c-.07-.06-.098-.125-.066-.051l-.051.02.031-.044a6.046 6.046 0 0 1-.597-.586c-.274-.312-.543-.699-.63-.953l-.07-.195-.187-.082c-.145-.063-.156-.05-.215-.07a.842.842 0 0 1-.188-.094c-.132-.09-.285-.238-.39-.633a.787.787 0 0 1 .016-.492c.023-.074.05-.09.078-.133l.086.016c.02.007.011.015.113.015a.38.38 0 0 0 .148-.02l.09-.034.121-.098.106-.18.015-.207-.043-.144-.047-.075s-.05-.058-.066-.074c-.035-.031-.05-.039-.066-.047.086.051.035.043.004-.07a2.108 2.108 0 0 1-.043-.52 4.565 4.565 0 0 1 .367-1.601c.488-1.137 1.422-2.172 3.191-2.195zm2.347 11.04l-.652.687c.785.746 1.937 1.293 3.777 1.207l-.043-.945c-1.652.078-2.445-.344-3.082-.95zm0 0" fill="#ffffdf"/></svg>