<?xml version="1.0" encoding="UTF-8" standalone="no"?>
<svg
   xmlns:dc="http://purl.org/dc/elements/1.1/"
   xmlns:cc="http://creativecommons.org/ns#"
   xmlns:rdf="http://www.w3.org/1999/02/22-rdf-syntax-ns#"
   xmlns:svg="http://www.w3.org/2000/svg"
   xmlns="http://www.w3.org/2000/svg"
   xmlns:xlink="http://www.w3.org/1999/xlink"
   xmlns:sodipodi="http://sodipodi.sourceforge.net/DTD/sodipodi-0.dtd"
   xmlns:inkscape="http://www.inkscape.org/namespaces/inkscape"
   width="64"
   height="64"
   version="1.1"
   id="svg19"
   sodipodi:docname="folder-development.svg">
  <metadata
     id="metadata23">
    <rdf:RDF>
      <cc:Work
         rdf:about="">
        <dc:format>image/svg+xml</dc:format>
        <dc:type
           rdf:resource="http://purl.org/dc/dcmitype/StillImage" />
      </cc:Work>
    </rdf:RDF>
  </metadata>
  <sodipodi:namedview
     pagecolor="#ffffff"
     bordercolor="#666666"
     borderopacity="1"
     objecttolerance="10"
     gridtolerance="10"
     guidetolerance="10"
     inkscape:pageopacity="0"
     inkscape:pageshadow="2"
     inkscape:window-width="640"
     inkscape:window-height="480"
     id="namedview21" />
  <defs
     id="defs8">
    <linearGradient
       id="a">
      <stop
         offset="0"
         stop-color="#08ade5"
         id="stop2" />
      <stop
         offset="1"
         stop-color="#3fcbfb"
         id="stop4" />
    </linearGradient>
    <linearGradient
       xlink:href="#a"
       id="b"
       x1="414.571"
       y1="539.798"
       x2="414.571"
       y2="506.798"
       gradientUnits="userSpaceOnUse" />
  </defs>
  <path
     d="M427.571 490.298c-2.998 0-4.406.5-5.012 3h-28.558c-1.999 0-2.971 1.393-2.961 3l.02 3c-2.489.022-3.976 1.5-3.95 4-.087 2.8 0 4.513 0 7.425v29.099c-.002 1.921 1.65 3.476 3.684 3.476h51.593c2.035-.002 3.687-1.557 3.684-3.477V507.298c.03-2.5-1.5-4.046-4-4-.037-2 0-4 0-6l-.008-3c.045-2.5-1.492-4-3.992-4z"
     transform="translate(-384.571 -483.798)"
     clip-rule="evenodd"
     fill="url(#b)"
     fill-rule="evenodd"
     stroke="#067aa2"
     stroke-linecap="round"
     stroke-linejoin="round"
     id="path10" />
  <path
     d="M9.039 12v3l12.006-.02c2.03-.004 3.994 1.934 3.994 3.97h30l-.034-7z"
     fill="#fff"
     stroke="#383838"
     stroke-width=".1"
     stroke-opacity=".49"
     id="path12" />
  <path
     d="M61 45L47 59h10c2.526.172 4-1.194 4-3z"
     fill="#dfffff"
     fill-opacity=".078"
     id="path14" />
  <g
     transform="scale(1.1 1.1) translate(6 29)"
     id="g2522">
    <path
       d="M17.519.002L10.92.006H4.328l-.225.152a1.325 1.325 0 0 0-.38.404c-.142.237-.149.285-.149.68 0 .269.018.445.053.48.035.034.202.057.434.057s.403-.023.438-.057c.034-.034.053-.198.053-.419V.938h12.7v.37c0 .258.023.383.069.422.042.034.211.046.475.038l.415-.012v-.544c0-.52-.004-.548-.133-.735a1.547 1.547 0 0 0-.35-.334l-.21-.141zM11.02 2.011c-8.941 0-8.946.002-9.135.099a1.857 1.857 0 0 0-.746.753l-.137.274.016 8.835c.014 6.856.027 8.882.072 9.044.07.254.312.553.605.757.213.147.236.153.826.179.334.013 4.395.033 9.025.038l8.416.008.259-.145c.339-.191.508-.369.677-.704l.14-.274-.011-8.907-.016-8.906-.114-.225c-.133-.26-.467-.587-.742-.727l-.19-.099H11.02zM2.265 3.274H19.73v17.46H2.265v-8.732zm5.103 3.173c-.073 0-.437.625-.457.784-.016.127.01.151.388.37.223.127 1.998 1.15 3.942 2.274 3.31 1.915 3.539 2.055 3.588 2.203a.553.553 0 0 1-.156.567 7.932 7.932 0 0 1-.617.411c-.282.175-1.599 1.02-2.925 1.876-1.327.856-2.451 1.556-2.496 1.556a.31.31 0 0 1-.168-.08c-.08-.073-.084-.207-.084-2.393 0-1.74-.015-2.332-.057-2.374-.076-.076-.886-.076-.962 0-.09.089-.079 4.662.011 4.961.13.432.445.75.876.89.262.086.723.054.962-.068.1-.051.55-.332.997-.624 1.08-.707 3.852-2.487 4.497-2.888.605-.376.87-.615 1.043-.944.114-.216.125-.287.125-.73 0-.468-.006-.502-.156-.78-.188-.347-.04-.25-2.362-1.59-4.643-2.679-5.943-3.42-5.99-3.42z"
       fill="#ffffdf"
       id="path16" />
  </g>
</svg>
