<?xml version="1.0" encoding="UTF-8" standalone="no"?>
<svg
   xmlns:dc="http://purl.org/dc/elements/1.1/"
   xmlns:cc="http://creativecommons.org/ns#"
   xmlns:rdf="http://www.w3.org/1999/02/22-rdf-syntax-ns#"
   xmlns:svg="http://www.w3.org/2000/svg"
   xmlns="http://www.w3.org/2000/svg"
   xmlns:xlink="http://www.w3.org/1999/xlink"
   xmlns:sodipodi="http://sodipodi.sourceforge.net/DTD/sodipodi-0.dtd"
   xmlns:inkscape="http://www.inkscape.org/namespaces/inkscape"
   width="64"
   height="64"
   version="1.1"
   id="svg19"
   sodipodi:docname="folder-download.svg">
  <metadata
     id="metadata23">
    <rdf:RDF>
      <cc:Work
         rdf:about="">
        <dc:format>image/svg+xml</dc:format>
        <dc:type
           rdf:resource="http://purl.org/dc/dcmitype/StillImage" />
      </cc:Work>
    </rdf:RDF>
  </metadata>
  <sodipodi:namedview
     pagecolor="#ffffff"
     bordercolor="#666666"
     borderopacity="1"
     objecttolerance="10"
     gridtolerance="10"
     guidetolerance="10"
     inkscape:pageopacity="0"
     inkscape:pageshadow="2"
     inkscape:window-width="640"
     inkscape:window-height="480"
     id="namedview21" />
  <defs
     id="defs8">
    <linearGradient
       id="a">
      <stop
         offset="0"
         stop-color="#08ade5"
         id="stop2" />
      <stop
         offset="1"
         stop-color="#3fcbfb"
         id="stop4" />
    </linearGradient>
    <linearGradient
       xlink:href="#a"
       id="b"
       x1="414.571"
       y1="539.798"
       x2="414.571"
       y2="506.798"
       gradientUnits="userSpaceOnUse" />
  </defs>
  <path
     d="M427.571 490.298c-2.998 0-4.406.5-5.012 3h-28.558c-1.999 0-2.971 1.393-2.961 3l.02 3c-2.489.022-3.976 1.5-3.95 4-.087 2.8 0 4.513 0 7.425v29.099c-.002 1.921 1.65 3.476 3.684 3.476h51.593c2.035-.002 3.687-1.557 3.684-3.477V507.298c.03-2.5-1.5-4.046-4-4-.037-2 0-4 0-6l-.008-3c.045-2.5-1.492-4-3.992-4z"
     transform="translate(-384.571 -483.798)"
     clip-rule="evenodd"
     fill="url(#b)"
     fill-rule="evenodd"
     stroke="#067aa2"
     stroke-linecap="round"
     stroke-linejoin="round"
     id="path10" />
  <path
     d="M9.039 12v3l12.006-.02c2.03-.004 3.994 1.934 3.994 3.97h30l-.034-7z"
     fill="#fff"
     stroke="#383838"
     stroke-width=".1"
     stroke-opacity=".49"
     id="path12" />
  <path
     d="M61 45L47 59h10c2.526.172 4-1.194 4-3z"
     fill="#dfffff"
     fill-opacity=".078"
     id="path14" />
  <g
     transform="scale(1.1 1.1) translate(6 29)"
     id="g2522">
    <path
       d="M10.748.005C5.428.124.87 4.088.109 9.458c-.811 5.728 2.972 11.12 8.634 12.307 5.662 1.187 11.292-2.232 12.85-7.804C23.151 8.39 20.11 2.55 14.653.628l-.532 1.507a9.39 9.39 0 0 1 5.929 11.398 9.383 9.383 0 0 1-10.978 6.664A9.386 9.386 0 0 1 1.696 9.682a9.38 9.38 0 0 1 8.634-8.047l-.114 14.283.002-.026-.002.077.058.247.204.282.291.151s.166.027.224.024c.116-.006.177-.029.224-.046.185-.067.191-.096.233-.127.083-.062.149-.12.238-.2.178-.159.418-.387.711-.67.588-.568 1.379-1.355 2.193-2.174.814-.819 1.652-1.671 2.327-2.368.675-.697 1.157-1.201 1.375-1.462l-1.13-.947c-.102.123-.638.692-1.307 1.382-.67.691-1.5 1.54-2.31 2.354-.686.69-1.302 1.295-1.84 1.82l.11-13.99h-.011l.016-.211c-.361-.027-.72-.037-1.075-.03zm-5.21 9.203l-.945.755 4.082 5.126-.074-2.032-3.063-3.849z"
       fill="#ffffdf"
       id="path16" />
  </g>
</svg>
