<?xml version="1.0" encoding="UTF-8" standalone="no"?>
<svg
   xmlns:dc="http://purl.org/dc/elements/1.1/"
   xmlns:cc="http://creativecommons.org/ns#"
   xmlns:rdf="http://www.w3.org/1999/02/22-rdf-syntax-ns#"
   xmlns:svg="http://www.w3.org/2000/svg"
   xmlns="http://www.w3.org/2000/svg"
   xmlns:xlink="http://www.w3.org/1999/xlink"
   xmlns:sodipodi="http://sodipodi.sourceforge.net/DTD/sodipodi-0.dtd"
   xmlns:inkscape="http://www.inkscape.org/namespaces/inkscape"
   width="64"
   height="64"
   version="1.1"
   id="svg37"
   sodipodi:docname="folder-activities.svg">
  <metadata
     id="metadata41">
    <rdf:RDF>
      <cc:Work
         rdf:about="">
        <dc:format>image/svg+xml</dc:format>
        <dc:type
           rdf:resource="http://purl.org/dc/dcmitype/StillImage" />
      </cc:Work>
    </rdf:RDF>
  </metadata>
  <sodipodi:namedview
     pagecolor="#ffffff"
     bordercolor="#666666"
     borderopacity="1"
     objecttolerance="10"
     gridtolerance="10"
     guidetolerance="10"
     inkscape:pageopacity="0"
     inkscape:pageshadow="2"
     inkscape:window-width="640"
     inkscape:window-height="480"
     id="namedview39" />
  <defs
     id="defs8">
    <linearGradient
       id="a">
      <stop
         offset="0"
         stop-color="#08ade5"
         id="stop2" />
      <stop
         offset="1"
         stop-color="#3fcbfb"
         id="stop4" />
    </linearGradient>
    <linearGradient
       xlink:href="#a"
       id="b"
       x1="414.571"
       y1="539.798"
       x2="414.571"
       y2="506.798"
       gradientUnits="userSpaceOnUse" />
  </defs>
  <path
     d="M427.571 490.298c-2.998 0-4.406.5-5.012 3h-28.558c-1.999 0-2.971 1.393-2.961 3l.02 3c-2.489.022-3.976 1.5-3.95 4-.087 2.8 0 4.513 0 7.425v29.099c-.002 1.921 1.65 3.476 3.684 3.476h51.593c2.035-.002 3.687-1.557 3.684-3.477V507.298c.03-2.5-1.5-4.046-4-4-.037-2 0-4 0-6l-.008-3c.045-2.5-1.492-4-3.992-4z"
     transform="translate(-384.571 -483.798)"
     clip-rule="evenodd"
     fill="url(#b)"
     fill-rule="evenodd"
     stroke="#067aa2"
     stroke-linecap="round"
     stroke-linejoin="round"
     id="path10" />
  <path
     d="M9.039 12v3l12.006-.02c2.03-.004 3.994 1.934 3.994 3.97h30l-.034-7z"
     fill="#fff"
     stroke="#383838"
     stroke-width=".1"
     stroke-opacity=".49"
     id="path12" />
  <path
     d="M61 45L47 59h10c2.526.172 4-1.194 4-3z"
     fill="#dfffff"
     fill-opacity=".078"
     id="path14" />
  <g
     transform="scale(1.1 1.1) translate(6 29)"
     id="g2522">
    <g
       fill="none"
       stroke="#ffffdf"
       stroke-width=".785"
       transform="matrix(1.8642 0 0 1.95975 -9.23 -1979.377)"
       id="g34">
      <ellipse
         cx="6.663"
         cy="1011.888"
         rx="1.319"
         ry="1.255"
         id="ellipse16" />
      <ellipse
         cx="10.956"
         cy="1011.888"
         rx="1.319"
         ry="1.255"
         id="ellipse18" />
      <ellipse
         cx="15.041"
         cy="1011.888"
         rx="1.319"
         ry="1.255"
         id="ellipse20" />
      <ellipse
         cx="6.663"
         cy="1015.708"
         rx="1.319"
         ry="1.255"
         id="ellipse22" />
      <ellipse
         cx="10.956"
         cy="1015.708"
         rx="1.319"
         ry="1.255"
         id="ellipse24" />
      <ellipse
         cx="15.041"
         cy="1015.708"
         rx="1.319"
         ry="1.255"
         id="ellipse26" />
      <ellipse
         cx="6.663"
         cy="1019.594"
         rx="1.319"
         ry="1.255"
         id="ellipse28" />
      <ellipse
         cx="10.956"
         cy="1019.594"
         rx="1.319"
         ry="1.255"
         id="ellipse30" />
      <ellipse
         cx="15.041"
         cy="1019.594"
         rx="1.319"
         ry="1.255"
         id="ellipse32" />
    </g>
  </g>
</svg>
