<?xml version="1.0" encoding="UTF-8" standalone="no"?>
<svg
   xmlns:dc="http://purl.org/dc/elements/1.1/"
   xmlns:cc="http://creativecommons.org/ns#"
   xmlns:rdf="http://www.w3.org/1999/02/22-rdf-syntax-ns#"
   xmlns:svg="http://www.w3.org/2000/svg"
   xmlns="http://www.w3.org/2000/svg"
   xmlns:xlink="http://www.w3.org/1999/xlink"
   xmlns:sodipodi="http://sodipodi.sourceforge.net/DTD/sodipodi-0.dtd"
   xmlns:inkscape="http://www.inkscape.org/namespaces/inkscape"
   width="64"
   height="64"
   version="1.1"
   id="svg19"
   sodipodi:docname="folder-html.svg">
  <metadata
     id="metadata23">
    <rdf:RDF>
      <cc:Work
         rdf:about="">
        <dc:format>image/svg+xml</dc:format>
        <dc:type
           rdf:resource="http://purl.org/dc/dcmitype/StillImage" />
      </cc:Work>
    </rdf:RDF>
  </metadata>
  <sodipodi:namedview
     pagecolor="#ffffff"
     bordercolor="#666666"
     borderopacity="1"
     objecttolerance="10"
     gridtolerance="10"
     guidetolerance="10"
     inkscape:pageopacity="0"
     inkscape:pageshadow="2"
     inkscape:window-width="640"
     inkscape:window-height="480"
     id="namedview21" />
  <defs
     id="defs8">
    <linearGradient
       id="a">
      <stop
         offset="0"
         stop-color="#08ade5"
         id="stop2" />
      <stop
         offset="1"
         stop-color="#3fcbfb"
         id="stop4" />
    </linearGradient>
    <linearGradient
       xlink:href="#a"
       id="b"
       x1="414.571"
       y1="539.798"
       x2="414.571"
       y2="506.798"
       gradientUnits="userSpaceOnUse" />
  </defs>
  <path
     d="M427.571 490.298c-2.998 0-4.406.5-5.012 3h-28.558c-1.999 0-2.971 1.393-2.961 3l.02 3c-2.489.022-3.976 1.5-3.95 4-.087 2.8 0 4.513 0 7.425v29.099c-.002 1.921 1.65 3.476 3.684 3.476h51.593c2.035-.002 3.687-1.557 3.684-3.477V507.298c.03-2.5-1.5-4.046-4-4-.037-2 0-4 0-6l-.008-3c.045-2.5-1.492-4-3.992-4z"
     transform="translate(-384.571 -483.798)"
     clip-rule="evenodd"
     fill="url(#b)"
     fill-rule="evenodd"
     stroke="#067aa2"
     stroke-linecap="round"
     stroke-linejoin="round"
     id="path10" />
  <path
     d="M9.039 12v3l12.006-.02c2.03-.004 3.994 1.934 3.994 3.97h30l-.034-7z"
     fill="#fff"
     stroke="#383838"
     stroke-width=".1"
     stroke-opacity=".49"
     id="path12" />
  <path
     d="M61 45L47 59h10c2.526.172 4-1.194 4-3z"
     fill="#dfffff"
     fill-opacity=".078"
     id="path14" />
  <g
     transform="scale(1.1 1.1) translate(6 29)"
     id="g2522">
    <path
       d="M10.632 2.028a9.038 9.038 0 0 0-2.75.598 9.022 9.022 0 0 0-4.174 3.32l-.265.045c-.987.17-1.78.45-2.38.878C.46 7.297.051 7.924.004 8.622-.075 9.82.751 10.929 2.135 12v.08l.098-.004c.199.15.37.303.592.451 3.66 2.465 9.658 4.109 14.191 3.903 2.267-.102 3.888-.6 4.646-1.771.378-.586.436-1.344.189-2.03-.247-.685-.746-1.33-1.47-1.976l-.21-.187a9.026 9.026 0 0 0-2.13-5.277 9.055 9.055 0 0 0-7.41-3.16zm.083 1.412a7.63 7.63 0 0 1 6.251 2.668 7.628 7.628 0 0 1 .783 8.804l-.008.012c-.26.032-.5.076-.798.09C12.823 15.2 6.9 13.566 3.61 11.35c-.031-.021-.048-.04-.079-.062a7.627 7.627 0 0 1 7.185-7.848zM2.813 7.616a9 9 0 0 0-.65 2.49c-.524-.585-.767-1.087-.748-1.38.017-.243.119-.447.47-.698.21-.149.54-.287.928-.412zm17.27 4.773c.213.269.368.517.44.717.129.357.098.549-.05.776-.132.204-.468.432-.957.632a8.977 8.977 0 0 0 .566-2.125zM3.895 13.523l-1.294.576.29.647a9.05 9.05 0 0 0 13.59 3.635l.571-.417-.833-1.147-.573.417A7.631 7.631 0 0 1 4.184 14.17z"
       fill="#ffffdf"
       id="path16" />
  </g>
</svg>
