<?xml version="1.0" encoding="UTF-8" standalone="no"?>
<svg
   xmlns:dc="http://purl.org/dc/elements/1.1/"
   xmlns:cc="http://creativecommons.org/ns#"
   xmlns:rdf="http://www.w3.org/1999/02/22-rdf-syntax-ns#"
   xmlns:svg="http://www.w3.org/2000/svg"
   xmlns="http://www.w3.org/2000/svg"
   xmlns:xlink="http://www.w3.org/1999/xlink"
   xmlns:sodipodi="http://sodipodi.sourceforge.net/DTD/sodipodi-0.dtd"
   xmlns:inkscape="http://www.inkscape.org/namespaces/inkscape"
   width="64"
   height="64"
   version="1.1"
   id="svg19"
   sodipodi:docname="folder-network.svg">
  <metadata
     id="metadata23">
    <rdf:RDF>
      <cc:Work
         rdf:about="">
        <dc:format>image/svg+xml</dc:format>
        <dc:type
           rdf:resource="http://purl.org/dc/dcmitype/StillImage" />
      </cc:Work>
    </rdf:RDF>
  </metadata>
  <sodipodi:namedview
     pagecolor="#ffffff"
     bordercolor="#666666"
     borderopacity="1"
     objecttolerance="10"
     gridtolerance="10"
     guidetolerance="10"
     inkscape:pageopacity="0"
     inkscape:pageshadow="2"
     inkscape:window-width="640"
     inkscape:window-height="480"
     id="namedview21" />
  <defs
     id="defs8">
    <linearGradient
       id="a">
      <stop
         offset="0"
         stop-color="#08ade5"
         id="stop2" />
      <stop
         offset="1"
         stop-color="#3fcbfb"
         id="stop4" />
    </linearGradient>
    <linearGradient
       xlink:href="#a"
       id="b"
       x1="414.571"
       y1="539.798"
       x2="414.571"
       y2="506.798"
       gradientUnits="userSpaceOnUse" />
  </defs>
  <path
     d="M427.571 490.298c-2.998 0-4.406.5-5.012 3h-28.558c-1.999 0-2.971 1.393-2.961 3l.02 3c-2.489.022-3.976 1.5-3.95 4-.087 2.8 0 4.513 0 7.425v29.099c-.002 1.921 1.65 3.476 3.684 3.476h51.593c2.035-.002 3.687-1.557 3.684-3.477V507.298c.03-2.5-1.5-4.046-4-4-.037-2 0-4 0-6l-.008-3c.045-2.5-1.492-4-3.992-4z"
     transform="translate(-384.571 -483.798)"
     clip-rule="evenodd"
     fill="url(#b)"
     fill-rule="evenodd"
     stroke="#067aa2"
     stroke-linecap="round"
     stroke-linejoin="round"
     id="path10" />
  <path
     d="M9.039 12v3l12.006-.02c2.03-.004 3.994 1.934 3.994 3.97h30l-.034-7z"
     fill="#fff"
     stroke="#383838"
     stroke-width=".1"
     stroke-opacity=".49"
     id="path12" />
  <path
     d="M61 45L47 59h10c2.526.172 4-1.194 4-3z"
     fill="#dfffff"
     fill-opacity=".078"
     id="path14" />
  <g
     transform="scale(1.1 1.1) translate(6 29)"
     id="g2522">
    <path
       d="M11 0C4.906 0 0 4.906 0 11s4.906 11 11 11 11-4.906 11-11S17.094 0 11 0zm0 1.833c5.485 0 9.167 3.682 9.167 9.167S16.485 20.167 11 20.167 1.833 16.485 1.833 11 5.515 1.833 11 1.833zM13.75 5.5a1.833 1.833 0 0 0-1.833 1.833 1.833 1.833 0 0 0 1.833 1.834 1.833 1.833 0 0 0 1.833-1.834A1.833 1.833 0 0 0 13.75 5.5zm-3.667 2.75a.917.917 0 0 0-.916.917.917.917 0 0 0 .916.916.917.917 0 0 0 .917-.916.917.917 0 0 0-.917-.917zm-3.666.917A1.833 1.833 0 0 0 4.583 11a1.833 1.833 0 0 0 1.834 1.833A1.833 1.833 0 0 0 8.25 11a1.833 1.833 0 0 0-1.833-1.833zm3.666 2.75a.917.917 0 0 0-.916.916.917.917 0 0 0 .916.917.917.917 0 0 0 .917-.917.917.917 0 0 0-.917-.916zm3.667.916a1.833 1.833 0 0 0-1.833 1.834A1.833 1.833 0 0 0 13.75 16.5a1.833 1.833 0 0 0 1.833-1.833 1.833 1.833 0 0 0-1.833-1.834z"
       fill="#ffffdf"
       id="path16" />
  </g>
</svg>
