<?xml version="1.0" encoding="UTF-8" standalone="no"?>
<svg
   xmlns:dc="http://purl.org/dc/elements/1.1/"
   xmlns:cc="http://creativecommons.org/ns#"
   xmlns:rdf="http://www.w3.org/1999/02/22-rdf-syntax-ns#"
   xmlns:svg="http://www.w3.org/2000/svg"
   xmlns="http://www.w3.org/2000/svg"
   xmlns:xlink="http://www.w3.org/1999/xlink"
   xmlns:sodipodi="http://sodipodi.sourceforge.net/DTD/sodipodi-0.dtd"
   xmlns:inkscape="http://www.inkscape.org/namespaces/inkscape"
   width="64"
   height="64"
   version="1.1"
   id="svg19"
   sodipodi:docname="folder-unlocked.svg">
  <metadata
     id="metadata23">
    <rdf:RDF>
      <cc:Work
         rdf:about="">
        <dc:format>image/svg+xml</dc:format>
        <dc:type
           rdf:resource="http://purl.org/dc/dcmitype/StillImage" />
      </cc:Work>
    </rdf:RDF>
  </metadata>
  <sodipodi:namedview
     pagecolor="#ffffff"
     bordercolor="#666666"
     borderopacity="1"
     objecttolerance="10"
     gridtolerance="10"
     guidetolerance="10"
     inkscape:pageopacity="0"
     inkscape:pageshadow="2"
     inkscape:window-width="640"
     inkscape:window-height="480"
     id="namedview21" />
  <defs
     id="defs8">
    <linearGradient
       id="a">
      <stop
         offset="0"
         stop-color="#08ade5"
         id="stop2" />
      <stop
         offset="1"
         stop-color="#3fcbfb"
         id="stop4" />
    </linearGradient>
    <linearGradient
       xlink:href="#a"
       id="b"
       x1="414.571"
       y1="539.798"
       x2="414.571"
       y2="506.798"
       gradientUnits="userSpaceOnUse" />
  </defs>
  <path
     d="M427.571 490.298c-2.998 0-4.406.5-5.012 3h-28.558c-1.999 0-2.971 1.393-2.961 3l.02 3c-2.489.022-3.976 1.5-3.95 4-.087 2.8 0 4.513 0 7.425v29.099c-.002 1.921 1.65 3.476 3.684 3.476h51.593c2.035-.002 3.687-1.557 3.684-3.477V507.298c.03-2.5-1.5-4.046-4-4-.037-2 0-4 0-6l-.008-3c.045-2.5-1.492-4-3.992-4z"
     transform="translate(-384.571 -483.798)"
     clip-rule="evenodd"
     fill="url(#b)"
     fill-rule="evenodd"
     stroke="#067aa2"
     stroke-linecap="round"
     stroke-linejoin="round"
     id="path10" />
  <path
     d="M9.039 12v3l12.006-.02c2.03-.004 3.994 1.934 3.994 3.97h30l-.034-7z"
     fill="#fff"
     stroke="#383838"
     stroke-width=".1"
     stroke-opacity=".49"
     id="path12" />
  <path
     d="M61 45L47 59h10c2.526.172 4-1.194 4-3z"
     fill="#dfffff"
     fill-opacity=".078"
     id="path14" />
  <g
     transform="scale(1.1 1.1) translate(6 29)"
     id="g2522">
    <path
       d="M3.481 21.828a1.795 1.795 0 0 1-.883-.9c-.08-.19-.098-1.34-.098-6.08 0-5.78.002-5.85.152-6.161.187-.385.626-.773 1.004-.886.204-.062 1.877-.085 6.02-.085h5.74l-.033-1.767c-.029-1.573-.05-1.815-.188-2.193a3.989 3.989 0 0 0-1.09-1.662c-2.313-2.176-6.161-1.09-6.94 1.96l-.079.31H6.002l.045-.237a4.8 4.8 0 0 1 1.405-2.606C8.112.873 8.612.562 9.478.263c.531-.184.786-.227 1.515-.256 1.064-.042 1.775.108 2.731.578.845.415 1.812 1.37 2.203 2.175.45.927.501 1.226.546 3.189l.04 1.767h.993c1.167.001 1.449.065 1.84.419.616.556.573.06.573 6.724 0 5.691-.004 5.92-.14 6.184-.189.37-.661.785-1.002.88-.188.052-2.662.077-7.604.077H3.848l-.367-.171zm8.533-3c.582-.151 1.134-.494 1.595-.99 1.552-1.669 1.032-4.311-1.043-5.302-.542-.26-.574-.265-1.43-.265-.86 0-.883.004-1.423.269-1.331.65-2.094 2.066-1.89 3.507.28 1.972 2.255 3.282 4.191 2.78z"
       fill="#ffffdf"
       id="path16" />
  </g>
</svg>
