<?xml version="1.0" encoding="UTF-8" standalone="no"?>
<svg
   xmlns:dc="http://purl.org/dc/elements/1.1/"
   xmlns:cc="http://creativecommons.org/ns#"
   xmlns:rdf="http://www.w3.org/1999/02/22-rdf-syntax-ns#"
   xmlns:svg="http://www.w3.org/2000/svg"
   xmlns="http://www.w3.org/2000/svg"
   xmlns:xlink="http://www.w3.org/1999/xlink"
   xmlns:sodipodi="http://sodipodi.sourceforge.net/DTD/sodipodi-0.dtd"
   xmlns:inkscape="http://www.inkscape.org/namespaces/inkscape"
   width="64"
   height="64"
   version="1.1"
   id="svg19"
   sodipodi:docname="folder-temp.svg">
  <metadata
     id="metadata23">
    <rdf:RDF>
      <cc:Work
         rdf:about="">
        <dc:format>image/svg+xml</dc:format>
        <dc:type
           rdf:resource="http://purl.org/dc/dcmitype/StillImage" />
      </cc:Work>
    </rdf:RDF>
  </metadata>
  <sodipodi:namedview
     pagecolor="#ffffff"
     bordercolor="#666666"
     borderopacity="1"
     objecttolerance="10"
     gridtolerance="10"
     guidetolerance="10"
     inkscape:pageopacity="0"
     inkscape:pageshadow="2"
     inkscape:window-width="640"
     inkscape:window-height="480"
     id="namedview21" />
  <defs
     id="defs8">
    <linearGradient
       id="a">
      <stop
         offset="0"
         stop-color="#08ade5"
         id="stop2" />
      <stop
         offset="1"
         stop-color="#3fcbfb"
         id="stop4" />
    </linearGradient>
    <linearGradient
       xlink:href="#a"
       id="b"
       x1="414.571"
       y1="539.798"
       x2="414.571"
       y2="506.798"
       gradientUnits="userSpaceOnUse" />
  </defs>
  <path
     d="M427.571 490.298c-2.998 0-4.406.5-5.012 3h-28.558c-1.999 0-2.971 1.393-2.961 3l.02 3c-2.489.022-3.976 1.5-3.95 4-.087 2.8 0 4.513 0 7.425v29.099c-.002 1.921 1.65 3.476 3.684 3.476h51.593c2.035-.002 3.687-1.557 3.684-3.477V507.298c.03-2.5-1.5-4.046-4-4-.037-2 0-4 0-6l-.008-3c.045-2.5-1.492-4-3.992-4z"
     transform="translate(-384.571 -483.798)"
     clip-rule="evenodd"
     fill="url(#b)"
     fill-rule="evenodd"
     stroke="#067aa2"
     stroke-linecap="round"
     stroke-linejoin="round"
     id="path10" />
  <path
     d="M9.039 12v3l12.006-.02c2.03-.004 3.994 1.934 3.994 3.97h30l-.034-7z"
     fill="#fff"
     stroke="#383838"
     stroke-width=".1"
     stroke-opacity=".49"
     id="path12" />
  <path
     d="M61 45L47 59h10c2.526.172 4-1.194 4-3z"
     fill="#dfffff"
     fill-opacity=".078"
     id="path14" />
  <g
     transform="scale(1.1 1.1) translate(6 29)"
     id="g2522">
    <path
       d="M11.287.006A11.003 11.003 0 0 0 .03 11.814l.063.816 1.625-.121-.059-.817a9.357 9.357 0 0 1 6.47-9.608 9.361 9.361 0 0 1 10.863 4.033A9.357 9.357 0 0 1 17.63 17.62 9.36 9.36 0 0 1 6.125 19l-.695-.423-.852 1.395.696.422a11.013 11.013 0 0 0 13.511-1.618 11.01 11.01 0 0 0 1.602-13.511 11.017 11.017 0 0 0-9.1-5.26zm-1.125 4.583v7.967h.101l7.186 1.973.485-1.793-5.92-1.587V4.59h-1.852z"
       fill="#ffffdf"
       id="path16" />
  </g>
</svg>
