<?xml version="1.0" encoding="UTF-8" standalone="no"?>
<svg
   xmlns:dc="http://purl.org/dc/elements/1.1/"
   xmlns:cc="http://creativecommons.org/ns#"
   xmlns:rdf="http://www.w3.org/1999/02/22-rdf-syntax-ns#"
   xmlns:svg="http://www.w3.org/2000/svg"
   xmlns="http://www.w3.org/2000/svg"
   xmlns:xlink="http://www.w3.org/1999/xlink"
   xmlns:sodipodi="http://sodipodi.sourceforge.net/DTD/sodipodi-0.dtd"
   xmlns:inkscape="http://www.inkscape.org/namespaces/inkscape"
   width="64"
   height="64"
   version="1.1"
   id="svg19"
   sodipodi:docname="folder-templates.svg">
  <metadata
     id="metadata23">
    <rdf:RDF>
      <cc:Work
         rdf:about="">
        <dc:format>image/svg+xml</dc:format>
        <dc:type
           rdf:resource="http://purl.org/dc/dcmitype/StillImage" />
      </cc:Work>
    </rdf:RDF>
  </metadata>
  <sodipodi:namedview
     pagecolor="#ffffff"
     bordercolor="#666666"
     borderopacity="1"
     objecttolerance="10"
     gridtolerance="10"
     guidetolerance="10"
     inkscape:pageopacity="0"
     inkscape:pageshadow="2"
     inkscape:window-width="640"
     inkscape:window-height="480"
     id="namedview21" />
  <defs
     id="defs8">
    <linearGradient
       id="a">
      <stop
         offset="0"
         stop-color="#08ade5"
         id="stop2" />
      <stop
         offset="1"
         stop-color="#3fcbfb"
         id="stop4" />
    </linearGradient>
    <linearGradient
       xlink:href="#a"
       id="b"
       x1="414.571"
       y1="539.798"
       x2="414.571"
       y2="506.798"
       gradientUnits="userSpaceOnUse" />
  </defs>
  <path
     d="M427.571 490.298c-2.998 0-4.406.5-5.012 3h-28.558c-1.999 0-2.971 1.393-2.961 3l.02 3c-2.489.022-3.976 1.5-3.95 4-.087 2.8 0 4.513 0 7.425v29.099c-.002 1.921 1.65 3.476 3.684 3.476h51.593c2.035-.002 3.687-1.557 3.684-3.477V507.298c.03-2.5-1.5-4.046-4-4-.037-2 0-4 0-6l-.008-3c.045-2.5-1.492-4-3.992-4z"
     transform="translate(-384.571 -483.798)"
     clip-rule="evenodd"
     fill="url(#b)"
     fill-rule="evenodd"
     stroke="#067aa2"
     stroke-linecap="round"
     stroke-linejoin="round"
     id="path10" />
  <path
     d="M9.039 12v3l12.006-.02c2.03-.004 3.994 1.934 3.994 3.97h30l-.034-7z"
     fill="#fff"
     stroke="#383838"
     stroke-width=".1"
     stroke-opacity=".49"
     id="path12" />
  <path
     d="M61 45L47 59h10c2.526.172 4-1.194 4-3z"
     fill="#dfffff"
     fill-opacity=".078"
     id="path14" />
  <g
     transform="scale(1.1 1.1) translate(6 29)"
     id="g2522">
    <path
       d="M2.912 21.922c-.94-.032-1.09-.053-1.366-.188-.425-.21-1.003-.76-1.228-1.171-.183-.334-.188-.369-.232-1.59-.043-1.231-.07-3.9-.04-3.909.011-.002.593-.026 1.297-.053 1.088-.04 1.325-.068 1.577-.18a2.13 2.13 0 0 0 1.014-.995c.162-.324.194-.465.194-.847 0-.253-.046-.594-.103-.76-.139-.41-.642-.949-1.047-1.123-.34-.146-1.384-.259-2.429-.262H.011l.044-2.508L.1 5.828l.228-.435c.273-.52.692-.929 1.247-1.218l.409-.213 1.963-.021 1.964-.022.038-.49c.072-.927.156-1.317.386-1.782.28-.565.843-1.11 1.44-1.393.403-.19.45-.198 1.282-.198.834 0 .88.008 1.28.198.507.24 1.05.726 1.328 1.189.229.38.465 1.206.465 1.623 0 .148.019.403.041.566l.041.297 1.544.004c1.867.004 2.412.054 2.825.26.478.236.944.7 1.207 1.202l.234.445.041 1.983.042 1.983.55.042c1.142.086 1.783.311 2.351.825.645.583.983 1.336.983 2.184 0 .987-.243 1.617-.864 2.242-.6.601-1.423.925-2.369.93-.718.004-.645-.216-.692 2.09l-.041 2.018-.177.33c-.218.409-.858 1.068-1.212 1.248-.337.172-.619.193-3.264.238l-2.186.036-.04-.947c-.078-1.81-.173-2.152-.74-2.663a2.001 2.001 0 0 0-2.715.023c-.583.533-.734 1.125-.741 2.925l-.002.656-1.489-.012c-.818-.006-1.963-.028-2.544-.048zm2.882-1.716c0-.273.03-.695.065-.937.13-.9.832-1.834 1.747-2.323l.46-.245h1.984l.416.222c.239.127.61.414.87.672.74.734.979 1.377.985 2.647l.002.469 1.808-.02c1.793-.021 1.811-.023 2.087-.18a1.13 1.13 0 0 0 .416-.417c.133-.248.138-.341.158-2.77l.02-2.512h2.651l.319-.216c.746-.504.958-.866.958-1.64 0-.437-.028-.597-.14-.808-.223-.418-.447-.646-.812-.824-.321-.157-.41-.168-1.658-.206l-1.318-.039-.02-2.503c-.016-2.147-.035-2.535-.124-2.732a1.067 1.067 0 0 0-.688-.573c-.135-.04-1.241-.085-2.64-.107l-2.407-.038-.06-1.353c-.057-1.318-.063-1.361-.239-1.66-.185-.316-.597-.655-.956-.788-.277-.102-.983-.098-1.277.006-.358.128-.657.383-.943.804l-.257.378v2.612l-2.385.036c-2.79.042-2.942.067-3.279.55l-.194.277-.02 1.796c-.016 1.437-.004 1.807.064 1.85.046.03.286.055.533.055 1.121.004 1.87.304 2.545 1.018a4.1 4.1 0 0 1 .632.88c.215.435.216.44.216 1.367 0 .92-.002.934-.21 1.358a4.09 4.09 0 0 1-.544.795c-.636.696-1.353 1.025-2.367 1.086-.326.02-.66.049-.741.066l-.149.03.021 1.774c.016 1.547.035 1.8.133 1.98.152.278.423.522.656.59.105.031.977.06 1.936.063l1.745.006v-.497z"
       stroke="#ffffdf"
       stroke-width=".021"
       fill="#ffffdf"
       id="path16" />
  </g>
</svg>
