<?xml version="1.0" encoding="UTF-8" standalone="no"?>
<svg
   xmlns:dc="http://purl.org/dc/elements/1.1/"
   xmlns:cc="http://creativecommons.org/ns#"
   xmlns:rdf="http://www.w3.org/1999/02/22-rdf-syntax-ns#"
   xmlns:svg="http://www.w3.org/2000/svg"
   xmlns="http://www.w3.org/2000/svg"
   xmlns:xlink="http://www.w3.org/1999/xlink"
   xmlns:sodipodi="http://sodipodi.sourceforge.net/DTD/sodipodi-0.dtd"
   xmlns:inkscape="http://www.inkscape.org/namespaces/inkscape"
   width="64"
   height="64"
   version="1.1"
   id="svg19"
   sodipodi:docname="folder-cloud.svg">
  <metadata
     id="metadata23">
    <rdf:RDF>
      <cc:Work
         rdf:about="">
        <dc:format>image/svg+xml</dc:format>
        <dc:type
           rdf:resource="http://purl.org/dc/dcmitype/StillImage" />
      </cc:Work>
    </rdf:RDF>
  </metadata>
  <sodipodi:namedview
     pagecolor="#ffffff"
     bordercolor="#666666"
     borderopacity="1"
     objecttolerance="10"
     gridtolerance="10"
     guidetolerance="10"
     inkscape:pageopacity="0"
     inkscape:pageshadow="2"
     inkscape:window-width="640"
     inkscape:window-height="480"
     id="namedview21" />
  <defs
     id="defs8">
    <linearGradient
       id="a">
      <stop
         offset="0"
         stop-color="#08ade5"
         id="stop2" />
      <stop
         offset="1"
         stop-color="#3fcbfb"
         id="stop4" />
    </linearGradient>
    <linearGradient
       xlink:href="#a"
       id="b"
       x1="414.571"
       y1="539.798"
       x2="414.571"
       y2="506.798"
       gradientUnits="userSpaceOnUse" />
  </defs>
  <path
     d="M427.571 490.298c-2.998 0-4.406.5-5.012 3h-28.558c-1.999 0-2.971 1.393-2.961 3l.02 3c-2.489.022-3.976 1.5-3.95 4-.087 2.8 0 4.513 0 7.425v29.099c-.002 1.921 1.65 3.476 3.684 3.476h51.593c2.035-.002 3.687-1.557 3.684-3.477V507.298c.03-2.5-1.5-4.046-4-4-.037-2 0-4 0-6l-.008-3c.045-2.5-1.492-4-3.992-4z"
     transform="translate(-384.571 -483.798)"
     clip-rule="evenodd"
     fill="url(#b)"
     fill-rule="evenodd"
     stroke="#067aa2"
     stroke-linecap="round"
     stroke-linejoin="round"
     id="path10" />
  <path
     d="M9.039 12v3l12.006-.02c2.03-.004 3.994 1.934 3.994 3.97h30l-.034-7z"
     fill="#fff"
     stroke="#383838"
     stroke-width=".1"
     stroke-opacity=".49"
     id="path12" />
  <path
     d="M61 45L47 59h10c2.526.172 4-1.194 4-3z"
     fill="#dfffff"
     fill-opacity=".078"
     id="path14" />
  <g
     transform="scale(1.1 1.1) translate(6 29)"
     id="g2522">
    <path
       d="M4.406 18.216a5.224 5.224 0 0 1-2.743-1.402C.865 16.047.364 15.182.115 14.137c-.178-.744-.145-2.072.069-2.74.58-1.812 1.912-3.123 3.693-3.634.535-.154.63-.162 1.612-.136.932.025 1.097.046 1.544.2a5.398 5.398 0 0 1 3.154 2.79c.283.593.505 1.38.505 1.792v.271H9.38l-.033-.172c-.217-1.145-.506-1.74-1.163-2.402-.388-.39-.583-.53-1.064-.76-.69-.332-1.06-.419-1.777-.419-.713 0-1.088.088-1.751.407a3.963 3.963 0 0 0-2.07 2.363c-.208.647-.236 1.6-.064 2.229.363 1.325 1.296 2.326 2.62 2.81l.452.166 6.63.019c4.768.012 6.735-.001 7.005-.052.817-.155 1.644-.74 2.063-1.46.516-.885.535-2.09.046-3.005-.223-.418-.846-1.044-1.235-1.24-.563-.286-.932-.36-1.784-.36h-.794l-.039-.234a3.757 3.757 0 0 1-.04-.493c0-.455-.292-1.443-.591-2.005-.576-1.081-1.36-1.844-2.433-2.365-1.235-.6-2.75-.714-4.012-.304-.396.13-1.128.49-1.387.685l-.198.149-.86-.136-.858-.136.437-.417c.74-.706 1.763-1.263 2.866-1.562.78-.212 2.115-.24 2.97-.064 1.36.28 2.378.826 3.382 1.816.993.98 1.514 1.863 1.845 3.127l.14.532.272.05c.761.141 1.13.252 1.585.477 2.152 1.062 3.062 3.646 2.04 5.79-.484 1.014-1.1 1.636-2.102 2.126-1 .488-.691.47-8.081.464-5.101-.003-6.652-.024-6.992-.087z"
       fill="#ffffdf"
       id="path16" />
  </g>
</svg>
