<?xml version="1.0" encoding="UTF-8" standalone="no"?>
<svg
   xmlns:dc="http://purl.org/dc/elements/1.1/"
   xmlns:cc="http://creativecommons.org/ns#"
   xmlns:rdf="http://www.w3.org/1999/02/22-rdf-syntax-ns#"
   xmlns:svg="http://www.w3.org/2000/svg"
   xmlns="http://www.w3.org/2000/svg"
   xmlns:sodipodi="http://sodipodi.sourceforge.net/DTD/sodipodi-0.dtd"
   xmlns:inkscape="http://www.inkscape.org/namespaces/inkscape"
   height="48"
   width="48"
   version="1.1"
   id="svg37"
   sodipodi:docname="user-trash-full.svg">
  <metadata
     id="metadata43">
    <rdf:RDF>
      <cc:Work
         rdf:about="">
        <dc:format>image/svg+xml</dc:format>
        <dc:type
           rdf:resource="http://purl.org/dc/dcmitype/StillImage" />
      </cc:Work>
    </rdf:RDF>
  </metadata>
  <defs
     id="defs41" />
  <sodipodi:namedview
     pagecolor="#ffffff"
     bordercolor="#666666"
     borderopacity="1"
     objecttolerance="10"
     gridtolerance="10"
     guidetolerance="10"
     inkscape:pageopacity="0"
     inkscape:pageshadow="2"
     inkscape:window-width="640"
     inkscape:window-height="480"
     id="namedview39" />
  <filter
     id="a"
     color-interpolation-filters="sRGB"
     height="1.124"
     width="1.116"
     x="-.058"
     y="-.062">
    <feGaussianBlur
       stdDeviation=".448"
       id="feGaussianBlur2" />
  </filter>
  <path
     d="M18.79 16.184h10.465c2.291 0 4.247-1.597 4.623-3.776l2.225-8.056C32.92 2.426 28.184 2.44 24.15 2.44c-4.037 0-9.201.093-12.385 2.02l2.403 7.948c.377 2.179 2.332 3.776 4.623 3.776"
     fill="#3bb2d7"
     id="path5" />
  <g
     fill="none"
     fill-rule="evenodd"
     stroke-opacity=".224"
     stroke-width=".353"
     id="g21">
    <path
       d="M14.085 15.414s0 .915 1.604.915H26.71l-.59-3.389-12.36.228z"
       fill="#617b13"
       id="path7" />
    <path
       d="M20.45 9.853l11.23-4.622 3.497 2.84-11.367 5.301z"
       fill="#6d8700"
       id="path9" />
    <path
       d="M13.392 10.81l.537 3.537 5.976 1.18 6.513-9.057-8.29-1.946z"
       fill="#839928"
       id="path11" />
    <path
       d="M17.902 16.324l1.375.01 7.59-6.9-5.944-1.963-5.944 5.305z"
       fill="#748d10"
       id="path13" />
    <path
       d="M14.279 7.078l17.485 5.305-2.798 2.947-15.596-4.52-.385-2.357z"
       fill="#6d8700"
       id="path15" />
    <path
       d="M26.254 14.946l-1.136 1.383h7.025c1.604 0 1.766-.915 1.766-.915l1.22-6.785-3.4-.348z"
       fill="#869d29"
       id="path17" />
    <path
       d="M13.51 11.598l.124.917L25.32 16.09l2.809-3.375-12.452-3.87z"
       fill="#90a72f"
       id="path19" />
  </g>
  <path
     d="M3.181 18.056c-.04.542.025 1.07-.062 1.621l41.762-.066c-.086-.552.07-1.046-.03-1.588z"
     fill-rule="evenodd"
     opacity=".1"
     id="path23" />
  <path
     d="M12.547 4.045c-6.332 2.584-9.46 8.745-9.46 15.978v7.125c0 9.575 5.585 17.282 17.147 17.282h6.93C42.296 44.43 45 33.108 45 27.148v-7.125c0-4.735-1.784-12.674-9.27-15.877.125.068.253.133.374.206l-2.227 8.056c-.376 2.179-2.332 3.776-4.623 3.776H18.789c-2.291 0-4.245-1.597-4.623-3.776L11.764 4.46a8.86 8.86 0 0 1 .783-.414z"
     fill="#f2f2f2"
     stroke="#000"
     stroke-width=".334"
     stroke-linecap="square"
     stroke-linejoin="bevel"
     stroke-opacity=".196"
     id="path25" />
  <g
     fill="none"
     id="g35">
    <path
       d="M3 19h42m-25 4v19m8-19v19m8-19v15M12 23v15"
       stroke="#bdbdbd"
       stroke-width="2"
       id="path27" />
    <g
       fill-rule="evenodd"
       stroke-width=".975"
       id="g33">
      <path
         d="M74.983 31.745c-2.046-4.119-4.199-.802-4.199-.802l-1.63 2.823 3.358 1.915zm7.265-1.262l-1.81 1-.664-1.143s-.513-1.189-3.042-1.064c0 0-3.135.086-3.461.027 0 0 .888.17 1.33.842l2.001 3.455-1.462.805 4.908.104zm-12.03 9.963c-2.538 3.843 1.487 3.916 1.487 3.916l3.315-.107-.066-3.795zm-4.877-5.398l1.816.988-.658 1.146s-.773 1.048.65 3.088c0 0 1.709 2.571 1.822 2.873 0 0-.312-.828.047-1.547l1.986-3.463 1.466.797-2.46-4.142zm15.314 4.822c4.678.289 2.78-3.171 2.78-3.171l-1.714-2.776-3.362 1.91zm-4.962 2.94l2.51-4.117v1.641h4.065c.817-.044 1.407-.716 1.407-.716-.214.244-1.683 2.954-1.683 2.954-1.13 2.208-2.444 2.06-2.444 2.06h-1.346v2.028z"
         fill="#fff"
         filter="url(#a)"
         transform="translate(-50.655 -3.87)"
         id="path29" />
      <path
         d="M24.328 27.875c-2.046-4.119-4.199-.802-4.199-.802l-1.63 2.823 3.358 1.915zm7.265-1.262l-1.81 1-.664-1.143s-.513-1.189-3.042-1.064c0 0-3.135.086-3.461.027 0 0 .888.17 1.33.842l2.001 3.455-1.462.805 4.908.104zm-12.03 9.963c-2.538 3.843 1.487 3.916 1.487 3.916l3.315-.107-.066-3.795zm-4.877-5.398l1.816.988-.658 1.146s-.773 1.048.65 3.088c0 0 1.709 2.571 1.822 2.873 0 0-.312-.828.047-1.547l1.986-3.463 1.466.797-2.46-4.142zM30 36c4.678.289 2.78-3.171 2.78-3.171l-1.714-2.776-3.362 1.91zm-4.962 2.94l2.51-4.117v1.641h4.065c.817-.044 1.407-.716 1.407-.716-.214.244-1.683 2.954-1.683 2.954-1.13 2.208-2.444 2.06-2.444 2.06h-1.346v2.028z"
         fill="#da1800"
         id="path31" />
    </g>
  </g>
</svg>
