<?xml version="1.0" encoding="UTF-8" standalone="no"?>
<svg
   xmlns:dc="http://purl.org/dc/elements/1.1/"
   xmlns:cc="http://creativecommons.org/ns#"
   xmlns:rdf="http://www.w3.org/1999/02/22-rdf-syntax-ns#"
   xmlns:svg="http://www.w3.org/2000/svg"
   xmlns="http://www.w3.org/2000/svg"
   xmlns:xlink="http://www.w3.org/1999/xlink"
   xmlns:sodipodi="http://sodipodi.sourceforge.net/DTD/sodipodi-0.dtd"
   xmlns:inkscape="http://www.inkscape.org/namespaces/inkscape"
   width="32"
   height="32"
   version="1.1"
   id="svg17"
   sodipodi:docname="dex_32.svg"
   inkscape:version="0.92.4 5da689c313, 2019-01-14">
  <metadata
     id="metadata21">
    <rdf:RDF>
      <cc:Work
         rdf:about="">
        <dc:format>image/svg+xml</dc:format>
        <dc:type
           rdf:resource="http://purl.org/dc/dcmitype/StillImage" />
        <dc:title></dc:title>
      </cc:Work>
    </rdf:RDF>
  </metadata>
  <sodipodi:namedview
     pagecolor="#ffffff"
     bordercolor="#666666"
     borderopacity="1"
     objecttolerance="10"
     gridtolerance="10"
     guidetolerance="10"
     inkscape:pageopacity="0"
     inkscape:pageshadow="2"
     inkscape:window-width="1366"
     inkscape:window-height="695"
     id="namedview19"
     showgrid="true"
     inkscape:zoom="14.75"
     inkscape:cx="8.2956296"
     inkscape:cy="13.917089"
     inkscape:window-x="0"
     inkscape:window-y="0"
     inkscape:window-maximized="1"
     inkscape:current-layer="svg17">
    <inkscape:grid
       type="xygrid"
       id="grid831" />
  </sodipodi:namedview>
  <defs
     id="defs8">
    <linearGradient
       id="a">
      <stop
         offset="0"
         stop-color="#08ade5"
         id="stop2" />
      <stop
         offset="1"
         stop-color="#3fcbfb"
         id="stop4" />
    </linearGradient>
    <linearGradient
       xlink:href="#a"
       id="b"
       x1="414.57101"
       y1="539.79797"
       x2="414.57101"
       y2="506.798"
       gradientUnits="userSpaceOnUse"
       gradientTransform="matrix(0.49152418,0,0,0.49152232,-188.75515,-237.54281)" />
  </defs>
  <path
     d="m 21.406,3.5 c -1.473589,0 -2.608135,-0.2288058 -2.906,1 h -13 c -0.9825569,0 -2.0049152,1.1091236 -2,1.899 V 7.5 C 2.276596,7.510814 1.5059911,8.6105838 1.5187706,9.839389 c -0.042763,1.376263 0,2.218242 0,3.649554 v 14.302809 c -9.831e-4,0.944213 0.811015,1.70853 1.8107752,1.70853 H 28.688753 c 1.000252,-9.83e-4 1.812249,-0.765301 1.810775,-1.709022 V 11.805479 C 30.514268,10.576673 29.728811,9.4773898 28.5,9.5 28.48181,8.5169559 28.5,7.9830446 28.5,7 V 5.5 c 0.02209,-1.2288057 -0.771188,-2 -2,-2 z"
     id="path10"
     inkscape:connector-curvature="0"
     style="clip-rule:evenodd;fill:url(#b);fill-rule:evenodd;stroke:#067aa2;stroke-width:0.99998164;stroke-linecap:round;stroke-linejoin:round;stroke-miterlimit:4;stroke-dasharray:none"
     sodipodi:nodetypes="scscccscsccccccss" />
  <path
     d="m 5,6 v 1 h 6 c 0.997795,-0.00197 2,1 2,2 H 27 V 6 Z"
     id="path12"
     inkscape:connector-curvature="0"
     style="fill:#ffffff;stroke:#383838;stroke-width:0.04915233;stroke-opacity:0.49000005"
     sodipodi:nodetypes="ccccccc" />
  <path
     d="M 29.966095,22.118688 23.084757,29 H 28 c 1.24159,0.08454 1.966095,-0.586877 1.966095,-1.474566 z"
     id="path14"
     inkscape:connector-curvature="0"
     style="fill:#dfffff;fill-opacity:0.078;stroke-width:0.49152324" />
              <g
     transform="scale(0.7 0.7) translate(8 17)"
     id="g2522">

        <path d="M3.481 21.828a1.795 1.795 0 0 1-.883-.9c-.08-.19-.098-1.34-.098-6.08 0-5.78.002-5.85.152-6.161.187-.385.626-.773 1.004-.886.204-.062 1.877-.085 6.02-.085h5.74l-.033-1.767c-.029-1.573-.05-1.815-.188-2.193a3.989 3.989 0 0 0-1.09-1.662c-2.313-2.176-6.161-1.09-6.94 1.96l-.079.31H6.002l.045-.237a4.8 4.8 0 0 1 1.405-2.606C8.112.873 8.612.562 9.478.263c.531-.184.786-.227 1.515-.256 1.064-.042 1.775.108 2.731.578.845.415 1.812 1.37 2.203 2.175.45.927.501 1.226.546 3.189l.04 1.767h.993c1.167.001 1.449.065 1.84.419.616.556.573.06.573 6.724 0 5.691-.004 5.92-.14 6.184-.189.37-.661.785-1.002.88-.188.052-2.662.077-7.604.077H3.848l-.367-.171zm8.533-3c.582-.151 1.134-.494 1.595-.99 1.552-1.669 1.032-4.311-1.043-5.302-.542-.26-.574-.265-1.43-.265-.86 0-.883.004-1.423.269-1.331.65-2.094 2.066-1.89 3.507.28 1.972 2.255 3.282 4.191 2.78z" fill="#ffffdf"/>


  </g>
</svg>
