<?xml version="1.0" encoding="UTF-8" standalone="no"?>
<svg
   xmlns:dc="http://purl.org/dc/elements/1.1/"
   xmlns:cc="http://creativecommons.org/ns#"
   xmlns:rdf="http://www.w3.org/1999/02/22-rdf-syntax-ns#"
   xmlns:svg="http://www.w3.org/2000/svg"
   xmlns="http://www.w3.org/2000/svg"
   xmlns:xlink="http://www.w3.org/1999/xlink"
   xmlns:sodipodi="http://sodipodi.sourceforge.net/DTD/sodipodi-0.dtd"
   xmlns:inkscape="http://www.inkscape.org/namespaces/inkscape"
   width="32"
   height="32"
   version="1.1"
   id="svg17"
   sodipodi:docname="dex_32.svg"
   inkscape:version="0.92.4 5da689c313, 2019-01-14">
  <metadata
     id="metadata21">
    <rdf:RDF>
      <cc:Work
         rdf:about="">
        <dc:format>image/svg+xml</dc:format>
        <dc:type
           rdf:resource="http://purl.org/dc/dcmitype/StillImage" />
        <dc:title></dc:title>
      </cc:Work>
    </rdf:RDF>
  </metadata>
  <sodipodi:namedview
     pagecolor="#ffffff"
     bordercolor="#666666"
     borderopacity="1"
     objecttolerance="10"
     gridtolerance="10"
     guidetolerance="10"
     inkscape:pageopacity="0"
     inkscape:pageshadow="2"
     inkscape:window-width="1366"
     inkscape:window-height="695"
     id="namedview19"
     showgrid="true"
     inkscape:zoom="14.75"
     inkscape:cx="8.2956296"
     inkscape:cy="13.917089"
     inkscape:window-x="0"
     inkscape:window-y="0"
     inkscape:window-maximized="1"
     inkscape:current-layer="svg17">
    <inkscape:grid
       type="xygrid"
       id="grid831" />
  </sodipodi:namedview>
  <defs
     id="defs8">
    <linearGradient
       id="a">
      <stop
         offset="0"
         stop-color="#08ade5"
         id="stop2" />
      <stop
         offset="1"
         stop-color="#3fcbfb"
         id="stop4" />
    </linearGradient>
    <linearGradient
       xlink:href="#a"
       id="b"
       x1="414.57101"
       y1="539.79797"
       x2="414.57101"
       y2="506.798"
       gradientUnits="userSpaceOnUse"
       gradientTransform="matrix(0.49152418,0,0,0.49152232,-188.75515,-237.54281)" />
  </defs>
  <path
     d="m 21.406,3.5 c -1.473589,0 -2.608135,-0.2288058 -2.906,1 h -13 c -0.9825569,0 -2.0049152,1.1091236 -2,1.899 V 7.5 C 2.276596,7.510814 1.5059911,8.6105838 1.5187706,9.839389 c -0.042763,1.376263 0,2.218242 0,3.649554 v 14.302809 c -9.831e-4,0.944213 0.811015,1.70853 1.8107752,1.70853 H 28.688753 c 1.000252,-9.83e-4 1.812249,-0.765301 1.810775,-1.709022 V 11.805479 C 30.514268,10.576673 29.728811,9.4773898 28.5,9.5 28.48181,8.5169559 28.5,7.9830446 28.5,7 V 5.5 c 0.02209,-1.2288057 -0.771188,-2 -2,-2 z"
     id="path10"
     inkscape:connector-curvature="0"
     style="clip-rule:evenodd;fill:url(#b);fill-rule:evenodd;stroke:#067aa2;stroke-width:0.99998164;stroke-linecap:round;stroke-linejoin:round;stroke-miterlimit:4;stroke-dasharray:none"
     sodipodi:nodetypes="scscccscsccccccss" />
  <path
     d="m 5,6 v 1 h 6 c 0.997795,-0.00197 2,1 2,2 H 27 V 6 Z"
     id="path12"
     inkscape:connector-curvature="0"
     style="fill:#ffffff;stroke:#383838;stroke-width:0.04915233;stroke-opacity:0.49000005"
     sodipodi:nodetypes="ccccccc" />
  <path
     d="M 29.966095,22.118688 23.084757,29 H 28 c 1.24159,0.08454 1.966095,-0.586877 1.966095,-1.474566 z"
     id="path14"
     inkscape:connector-curvature="0"
     style="fill:#dfffff;fill-opacity:0.078;stroke-width:0.49152324" />
              <g
     transform="scale(0.7 0.7) translate(8 17)"
     id="g2522">

        <path d="M17.519.002L10.92.006H4.328l-.225.152a1.325 1.325 0 0 0-.38.404c-.142.237-.149.285-.149.68 0 .269.018.445.053.48.035.034.202.057.434.057s.403-.023.438-.057c.034-.034.053-.198.053-.419V.938h12.7v.37c0 .258.023.383.069.422.042.034.211.046.475.038l.415-.012v-.544c0-.52-.004-.548-.133-.735a1.547 1.547 0 0 0-.35-.334l-.21-.141zM11.02 2.011c-8.941 0-8.946.002-9.135.099a1.857 1.857 0 0 0-.746.753l-.137.274.016 8.835c.014 6.856.027 8.882.072 9.044.07.254.312.553.605.757.213.147.236.153.826.179.334.013 4.395.033 9.025.038l8.416.008.259-.145c.339-.191.508-.369.677-.704l.14-.274-.011-8.907-.016-8.906-.114-.225c-.133-.26-.467-.587-.742-.727l-.19-.099H11.02zM2.265 3.274H19.73v17.46H2.265v-8.732zm5.103 3.173c-.073 0-.437.625-.457.784-.016.127.01.151.388.37.223.127 1.998 1.15 3.942 2.274 3.31 1.915 3.539 2.055 3.588 2.203a.553.553 0 0 1-.156.567 7.932 7.932 0 0 1-.617.411c-.282.175-1.599 1.02-2.925 1.876-1.327.856-2.451 1.556-2.496 1.556a.31.31 0 0 1-.168-.08c-.08-.073-.084-.207-.084-2.393 0-1.74-.015-2.332-.057-2.374-.076-.076-.886-.076-.962 0-.09.089-.079 4.662.011 4.961.13.432.445.75.876.89.262.086.723.054.962-.068.1-.051.55-.332.997-.624 1.08-.707 3.852-2.487 4.497-2.888.605-.376.87-.615 1.043-.944.114-.216.125-.287.125-.73 0-.468-.006-.502-.156-.78-.188-.347-.04-.25-2.362-1.59-4.643-2.679-5.943-3.42-5.99-3.42z" fill="#ffffdf"/>


  </g>
</svg>
