<?xml version="1.0" encoding="UTF-8" standalone="no"?>
<svg
   xmlns:dc="http://purl.org/dc/elements/1.1/"
   xmlns:cc="http://creativecommons.org/ns#"
   xmlns:rdf="http://www.w3.org/1999/02/22-rdf-syntax-ns#"
   xmlns:svg="http://www.w3.org/2000/svg"
   xmlns="http://www.w3.org/2000/svg"
   xmlns:xlink="http://www.w3.org/1999/xlink"
   xmlns:sodipodi="http://sodipodi.sourceforge.net/DTD/sodipodi-0.dtd"
   xmlns:inkscape="http://www.inkscape.org/namespaces/inkscape"
   width="32"
   height="32"
   version="1.1"
   id="svg17"
   sodipodi:docname="dex_32.svg"
   inkscape:version="0.92.4 5da689c313, 2019-01-14">
  <metadata
     id="metadata21">
    <rdf:RDF>
      <cc:Work
         rdf:about="">
        <dc:format>image/svg+xml</dc:format>
        <dc:type
           rdf:resource="http://purl.org/dc/dcmitype/StillImage" />
        <dc:title></dc:title>
      </cc:Work>
    </rdf:RDF>
  </metadata>
  <sodipodi:namedview
     pagecolor="#ffffff"
     bordercolor="#666666"
     borderopacity="1"
     objecttolerance="10"
     gridtolerance="10"
     guidetolerance="10"
     inkscape:pageopacity="0"
     inkscape:pageshadow="2"
     inkscape:window-width="1366"
     inkscape:window-height="695"
     id="namedview19"
     showgrid="true"
     inkscape:zoom="14.75"
     inkscape:cx="8.2956296"
     inkscape:cy="13.917089"
     inkscape:window-x="0"
     inkscape:window-y="0"
     inkscape:window-maximized="1"
     inkscape:current-layer="svg17">
    <inkscape:grid
       type="xygrid"
       id="grid831" />
  </sodipodi:namedview>
  <defs
     id="defs8">
    <linearGradient
       id="a">
      <stop
         offset="0"
         stop-color="#08ade5"
         id="stop2" />
      <stop
         offset="1"
         stop-color="#3fcbfb"
         id="stop4" />
    </linearGradient>
    <linearGradient
       xlink:href="#a"
       id="b"
       x1="414.57101"
       y1="539.79797"
       x2="414.57101"
       y2="506.798"
       gradientUnits="userSpaceOnUse"
       gradientTransform="matrix(0.49152418,0,0,0.49152232,-188.75515,-237.54281)" />
  </defs>
  <path
     d="m 21.406,3.5 c -1.473589,0 -2.608135,-0.2288058 -2.906,1 h -13 c -0.9825569,0 -2.0049152,1.1091236 -2,1.899 V 7.5 C 2.276596,7.510814 1.5059911,8.6105838 1.5187706,9.839389 c -0.042763,1.376263 0,2.218242 0,3.649554 v 14.302809 c -9.831e-4,0.944213 0.811015,1.70853 1.8107752,1.70853 H 28.688753 c 1.000252,-9.83e-4 1.812249,-0.765301 1.810775,-1.709022 V 11.805479 C 30.514268,10.576673 29.728811,9.4773898 28.5,9.5 28.48181,8.5169559 28.5,7.9830446 28.5,7 V 5.5 c 0.02209,-1.2288057 -0.771188,-2 -2,-2 z"
     id="path10"
     inkscape:connector-curvature="0"
     style="clip-rule:evenodd;fill:url(#b);fill-rule:evenodd;stroke:#067aa2;stroke-width:0.99998164;stroke-linecap:round;stroke-linejoin:round;stroke-miterlimit:4;stroke-dasharray:none"
     sodipodi:nodetypes="scscccscsccccccss" />
  <path
     d="m 5,6 v 1 h 6 c 0.997795,-0.00197 2,1 2,2 H 27 V 6 Z"
     id="path12"
     inkscape:connector-curvature="0"
     style="fill:#ffffff;stroke:#383838;stroke-width:0.04915233;stroke-opacity:0.49000005"
     sodipodi:nodetypes="ccccccc" />
  <path
     d="M 29.966095,22.118688 23.084757,29 H 28 c 1.24159,0.08454 1.966095,-0.586877 1.966095,-1.474566 z"
     id="path14"
     inkscape:connector-curvature="0"
     style="fill:#dfffff;fill-opacity:0.078;stroke-width:0.49152324" />
              <g
     transform="scale(0.7 0.7) translate(8 17)"
     id="g2522">

        <path d="M6.474 4.352a6.33 6.33 0 0 0-5.407 2.8c-1.26 1.876-1.416 4.332-.405 6.333a6.352 6.352 0 0 0 5.199 3.494 6.396 6.396 0 0 0 4.142-1.173 6.45 6.45 0 0 0 1.944-2.265l.152-.3h2.871V17h5.167v-3.758H22V8.075h-4.96l-4.959-.004-.137-.279A6.322 6.322 0 0 0 8.58 4.763a6.331 6.331 0 0 0-2.106-.412zm-.32 1.416a4.955 4.955 0 0 1 2.366.52c.47.234.813.486 1.24.913.596.596.898 1.076 1.205 1.913l.14.384 4.745.007 4.745.007v2.321H18.73v3.73h-2.324v-3.73h-5.305l-.12.345c-.066.19-.207.515-.313.726-.667 1.319-1.887 2.252-3.364 2.57-.394.086-1.33.108-1.73.043a4.917 4.917 0 0 1-4.04-3.793 5.923 5.923 0 0 1-.077-1.68A4.86 4.86 0 0 1 2.87 7.196c.34-.334.395-.377.726-.602a5.166 5.166 0 0 1 1.75-.733c.267-.054.537-.086.807-.095zm.161 3.127a1.666 1.666 0 0 0-1.666 1.666 1.666 1.666 0 0 0 1.666 1.666 1.666 1.666 0 0 0 1.667-1.666 1.666 1.666 0 0 0-1.667-1.666z" fill="#ffffdf"/>


  </g>
</svg>
