<?xml version="1.0" encoding="UTF-8" standalone="no"?>
<svg
   xmlns:dc="http://purl.org/dc/elements/1.1/"
   xmlns:cc="http://creativecommons.org/ns#"
   xmlns:rdf="http://www.w3.org/1999/02/22-rdf-syntax-ns#"
   xmlns:svg="http://www.w3.org/2000/svg"
   xmlns="http://www.w3.org/2000/svg"
   xmlns:sodipodi="http://sodipodi.sourceforge.net/DTD/sodipodi-0.dtd"
   xmlns:inkscape="http://www.inkscape.org/namespaces/inkscape"
   width="64"
   height="64"
   viewBox="0 0 16.933 16.933"
   version="1.1"
   id="svg31"
   sodipodi:docname="start-here-kde.svg">
  <metadata
     id="metadata136">
    <rdf:RDF>
      <cc:Work
         rdf:about="">
        <dc:format>image/svg+xml</dc:format>
        <dc:type
           rdf:resource="http://purl.org/dc/dcmitype/StillImage" />
      </cc:Work>
    </rdf:RDF>
  </metadata>
  <sodipodi:namedview
     pagecolor="#ffffff"
     bordercolor="#666666"
     borderopacity="1"
     objecttolerance="10"
     gridtolerance="10"
     guidetolerance="10"
     inkscape:pageopacity="0"
     inkscape:pageshadow="2"
     inkscape:window-width="640"
     inkscape:window-height="480"
     id="namedview134" />
  <defs
     id="defs14">
    <style
       id="style4552" />
    <style
       type="text/css"
       id="current-color-scheme" />
    <style
       id="style4552-3" />
    <style
       id="current-color-scheme-3"
       type="text/css" />
  </defs>
  <path
     id="path28"
     d="M.211 4.909c-.037.26-.079.52-.079.792v5.531a5.57 5.57 0 0 0 5.595 5.569H11.2a5.57 5.57 0 0 0 5.596-5.569l.005-5.165"
     fill="#1d99f3"
     fill-opacity="1"
     stroke="#0085c4"
     stroke-width=".265"
     stroke-miterlimit="4"
     stroke-dasharray="none"
     stroke-opacity="1" />
  <path
     d="M16.796 6.1v-.396A5.57 5.57 0 0 0 11.2.134L5.727.132C2.953.125.592 2.202.204 4.949"
     id="path16"
     stroke-miterlimit="4"
     fill="#1d99f3"
     fill-opacity="1"
     stroke="#0085c4"
     stroke-width=".265"
     stroke-dasharray="none"
     stroke-opacity="1" />
  <style
     type="text/css"
     id="style4485" />
  <style
     id="style4485-7"
     type="text/css" />
  <g
     id="g1070"
     transform="translate(-10.525 1.943) scale(1.00006)">
    <g
       transform="translate(-29.273 -3.158) scale(.60245)"
       id="g959">
      <path
         d="M81.606 5.345l-3.617.346v14.896l3.579-.539v-6.35l4.811 7.043 3.772-1.193-4.926-6.775 4.965-6.39-3.85-.883-4.773 6.39zm-8.2 3.63a.184.184 0 0 0-.11.053l-1.42 1.42a.184.184 0 0 0-.028.224l1.663 2.738a7.105 7.105 0 0 0-.7 1.594l-3.052.635a.184.184 0 0 0-.146.18v2.007c0 .085.058.159.14.179l2.962.724c.158.653.403 1.272.726 1.84l-1.714 2.615a.184.184 0 0 0 .023.23l1.42 1.42c.06.06.153.072.225.028l2.687-1.632a7.104 7.104 0 0 0 1.699.707l.626 3.014a.183.183 0 0 0 .18.146h2.008a.183.183 0 0 0 .178-.14l.739-3.02a7.076 7.076 0 0 0 1.747-.736l2.647 1.736c.073.048.17.039.231-.023l1.42-1.42c.06-.06.07-.153.027-.225l-.967-1.593-.313.099a.108.108 0 0 1-.122-.042l-1.412-2.068a5.753 5.753 0 1 1-7.482-7.862v-1.484a7.087 7.087 0 0 0-1.05.463l-.002-.002-2.71-1.777a.184.184 0 0 0-.12-.03z"
         id="path957"
         fill="#efffff"
         fill-opacity="1"
         stroke-width=".605" />
    </g>
  </g>
</svg>
