<svg xmlns="http://www.w3.org/2000/svg" height="48" width="48"><path d="M18.79 16.184h10.465c2.291 0 4.247-1.597 4.623-3.776l2.225-8.056C32.92 2.426 28.184 2.44 24.15 2.44c-4.037 0-9.201.093-12.385 2.02l2.403 7.948c.377 2.179 2.332 3.776 4.623 3.776" fill="#3bb2d7"/><g fill="none" fill-rule="evenodd" stroke-opacity=".224" stroke-width=".353"><path d="M14.085 15.414s0 .915 1.604.915H26.71l-.59-3.389-12.36.228z" fill="#617b13"/><path d="M20.45 9.853l11.23-4.622 3.497 2.84-11.367 5.301z" fill="#6d8700"/><path d="M13.392 10.81l.537 3.537 5.976 1.18 6.513-9.057-8.29-1.946z" fill="#839928"/><path d="M17.902 16.324l1.375.01 7.59-6.9-5.944-1.963-5.944 5.305z" fill="#748d10"/><path d="M14.279 7.078l17.485 5.305-2.798 2.947-15.596-4.52-.385-2.357z" fill="#6d8700"/><path d="M26.254 14.946l-1.136 1.383h7.025c1.604 0 1.766-.915 1.766-.915l1.22-6.785-3.4-.348z" fill="#869d29"/><path d="M13.51 11.598l.124.917L25.32 16.09l2.809-3.375-12.452-3.87z" fill="#90a72f"/></g><path d="M3.181 18.056c-.04.542.025 1.07-.062 1.621l41.762-.066c-.086-.552.07-1.046-.03-1.588z" fill-rule="evenodd" opacity=".1"/><path d="M12.547 4.045c-6.332 2.584-9.46 8.745-9.46 15.978v7.125c0 9.575 5.585 17.282 17.147 17.282h6.93C42.296 44.43 45 33.108 45 27.148v-7.125c0-4.735-1.784-12.674-9.27-15.877.125.068.253.133.374.206l-2.227 8.056c-.376 2.179-2.332 3.776-4.623 3.776H18.789c-2.291 0-4.245-1.597-4.623-3.776L11.764 4.46a8.86 8.86 0 01.783-.414z" fill="#f2f2f2" stroke="#000" stroke-width=".334" stroke-linecap="square" stroke-linejoin="bevel" stroke-opacity=".196"/><path d="M3 19h42m-25 4v19m8-19v19m8-19v15M12 23v15" fill="none" stroke="#bdbdbd" stroke-width="2"/></svg>