<?xml version="1.0" encoding="UTF-8" standalone="no"?>
<svg
   xmlns:dc="http://purl.org/dc/elements/1.1/"
   xmlns:cc="http://creativecommons.org/ns#"
   xmlns:rdf="http://www.w3.org/1999/02/22-rdf-syntax-ns#"
   xmlns:svg="http://www.w3.org/2000/svg"
   xmlns="http://www.w3.org/2000/svg"
   xmlns:xlink="http://www.w3.org/1999/xlink"
   xmlns:sodipodi="http://sodipodi.sourceforge.net/DTD/sodipodi-0.dtd"
   xmlns:inkscape="http://www.inkscape.org/namespaces/inkscape"
   width="32"
   height="32"
   version="1.1"
   id="svg17"
   sodipodi:docname="dex_32.svg"
   inkscape:version="0.92.4 5da689c313, 2019-01-14">
  <metadata
     id="metadata21">
    <rdf:RDF>
      <cc:Work
         rdf:about="">
        <dc:format>image/svg+xml</dc:format>
        <dc:type
           rdf:resource="http://purl.org/dc/dcmitype/StillImage" />
        <dc:title></dc:title>
      </cc:Work>
    </rdf:RDF>
  </metadata>
  <sodipodi:namedview
     pagecolor="#ffffff"
     bordercolor="#666666"
     borderopacity="1"
     objecttolerance="10"
     gridtolerance="10"
     guidetolerance="10"
     inkscape:pageopacity="0"
     inkscape:pageshadow="2"
     inkscape:window-width="1366"
     inkscape:window-height="695"
     id="namedview19"
     showgrid="true"
     inkscape:zoom="14.75"
     inkscape:cx="8.2956296"
     inkscape:cy="13.917089"
     inkscape:window-x="0"
     inkscape:window-y="0"
     inkscape:window-maximized="1"
     inkscape:current-layer="svg17">
    <inkscape:grid
       type="xygrid"
       id="grid831" />
  </sodipodi:namedview>
  <defs
     id="defs8">
    <linearGradient
       id="a">
      <stop
         offset="0"
         stop-color="#08ade5"
         id="stop2" />
      <stop
         offset="1"
         stop-color="#3fcbfb"
         id="stop4" />
    </linearGradient>
    <linearGradient
       xlink:href="#a"
       id="b"
       x1="414.57101"
       y1="539.79797"
       x2="414.57101"
       y2="506.798"
       gradientUnits="userSpaceOnUse"
       gradientTransform="matrix(0.49152418,0,0,0.49152232,-188.75515,-237.54281)" />
  </defs>
  <path
     d="m 21.406,3.5 c -1.473589,0 -2.608135,-0.2288058 -2.906,1 h -13 c -0.9825569,0 -2.0049152,1.1091236 -2,1.899 V 7.5 C 2.276596,7.510814 1.5059911,8.6105838 1.5187706,9.839389 c -0.042763,1.376263 0,2.218242 0,3.649554 v 14.302809 c -9.831e-4,0.944213 0.811015,1.70853 1.8107752,1.70853 H 28.688753 c 1.000252,-9.83e-4 1.812249,-0.765301 1.810775,-1.709022 V 11.805479 C 30.514268,10.576673 29.728811,9.4773898 28.5,9.5 28.48181,8.5169559 28.5,7.9830446 28.5,7 V 5.5 c 0.02209,-1.2288057 -0.771188,-2 -2,-2 z"
     id="path10"
     inkscape:connector-curvature="0"
     style="clip-rule:evenodd;fill:url(#b);fill-rule:evenodd;stroke:#067aa2;stroke-width:0.99998164;stroke-linecap:round;stroke-linejoin:round;stroke-miterlimit:4;stroke-dasharray:none"
     sodipodi:nodetypes="scscccscsccccccss" />
  <path
     d="m 5,6 v 1 h 6 c 0.997795,-0.00197 2,1 2,2 H 27 V 6 Z"
     id="path12"
     inkscape:connector-curvature="0"
     style="fill:#ffffff;stroke:#383838;stroke-width:0.04915233;stroke-opacity:0.49000005"
     sodipodi:nodetypes="ccccccc" />
  <path
     d="M 29.966095,22.118688 23.084757,29 H 28 c 1.24159,0.08454 1.966095,-0.586877 1.966095,-1.474566 z"
     id="path14"
     inkscape:connector-curvature="0"
     style="fill:#dfffff;fill-opacity:0.078;stroke-width:0.49152324" />
              <g
     transform="scale(0.7 0.7) translate(8 17)"
     id="g2522">

        <path d="M11.347.341L.943 8.314v13.25h1.28V8.944l9.901-7.586zm3.41 2.87l-.817 1.048 5.989 4.663v9.228c-.006.572-.214 1.17-.59 1.594-.375.424-.89.702-1.665.684H5.554v1.329H17.66l-.016-.002c1.136.027 2.08-.436 2.693-1.13a3.769 3.769 0 0 0 .922-2.464V8.275l-6.5-5.062zM7.253 7.817v5.422h-.007c0 .035.007.068.007.102v.475h.035c.224 2.063 1.923 3.714 4.051 3.792a4.258 4.258 0 0 0 4.398-4.061 4.258 4.258 0 0 0-4.029-4.428l-.064 1.279a2.96 2.96 0 0 1 2.814 3.093 2.956 2.956 0 0 1-3.072 2.838 2.953 2.953 0 0 1-2.854-2.947V7.817z" stroke="#ffffdf" stroke-width=".487" fill="#ffffdf"/>


  </g>
</svg>
