<?xml version="1.0" encoding="UTF-8" standalone="no"?>
<svg
   xmlns:dc="http://purl.org/dc/elements/1.1/"
   xmlns:cc="http://creativecommons.org/ns#"
   xmlns:rdf="http://www.w3.org/1999/02/22-rdf-syntax-ns#"
   xmlns:svg="http://www.w3.org/2000/svg"
   xmlns="http://www.w3.org/2000/svg"
   xmlns:xlink="http://www.w3.org/1999/xlink"
   xmlns:sodipodi="http://sodipodi.sourceforge.net/DTD/sodipodi-0.dtd"
   xmlns:inkscape="http://www.inkscape.org/namespaces/inkscape"
   width="48"
   height="48"
   version="1.1"
   id="svg16"
   sodipodi:docname="folder-publicshare.svg"
   inkscape:version="0.92.4 5da689c313, 2019-01-14">
  <metadata
     id="metadata20">
    <rdf:RDF>
      <cc:Work
         rdf:about="">
        <dc:format>image/svg+xml</dc:format>
        <dc:type
           rdf:resource="http://purl.org/dc/dcmitype/StillImage" />
        <dc:title />
      </cc:Work>
    </rdf:RDF>
  </metadata>
  <sodipodi:namedview
     pagecolor="#ffffff"
     bordercolor="#666666"
     borderopacity="1"
     objecttolerance="10"
     gridtolerance="10"
     guidetolerance="10"
     inkscape:pageopacity="0"
     inkscape:pageshadow="2"
     inkscape:window-width="1366"
     inkscape:window-height="695"
     id="namedview18"
     showgrid="true"
     inkscape:zoom="21.478368"
     inkscape:cx="33.792198"
     inkscape:cy="8.639312"
     inkscape:window-x="0"
     inkscape:window-y="0"
     inkscape:window-maximized="1"
     inkscape:current-layer="svg16">
    <inkscape:grid
       type="xygrid"
       id="grid827" />
  </sodipodi:namedview>
  <defs
     id="defs8">
    <linearGradient
       id="a">
      <stop
         offset="0"
         stop-color="#08ade5"
         id="stop2" />
      <stop
         offset="1"
         stop-color="#3fcbfb"
         id="stop4" />
    </linearGradient>
    <linearGradient
       xlink:href="#a"
       id="b"
       x1="414.57101"
       y1="539.79797"
       x2="414.57101"
       y2="506.798"
       gradientUnits="userSpaceOnUse"
       gradientTransform="matrix(0.76271188,0,0,0.75471924,-293.7239,-364.5374)" />
  </defs>
  <path
     d="m 32.38957,5.4999396 c -2.28661,0 -3.360509,0.1132622 -3.822713,2.0000604 H 6.7853318 C 5.2606707,7.5 4.492373,8.8151663 4.5,10.028 V 12.5 c -1.89839,0.01662 -3.0198303,0.924202 -3,2.811 -0.066356,2.113214 0,3.406259 0,5.604 v 21.962 c -0.00152,1.449816 1.2879585,2.62306 2.8393145,2.62306 H 43.689909 c 1.552118,-0.0015 2.812119,-1.175098 2.809831,-2.624157 V 18.330167 C 46.52262,16.443368 45.406779,15.465282 43.5,15.5 c -0.02823,-1.509441 0,-3.207561 0,-4.717 V 8.519 C 43.53432,6.632202 42.304819,5.4999396 40.39804,5.4999396 Z"
     id="path10"
     inkscape:connector-curvature="0"
     style="clip-rule:evenodd;fill:url(#b);fill-rule:evenodd;stroke:#067aa2;stroke-width:0.99987906;stroke-linecap:round;stroke-linejoin:round;stroke-miterlimit:4;stroke-dasharray:none"
     sodipodi:nodetypes="scscccscsccccccss" />
  <path
     d="m 7,10 v 2 h 9 c 1.548305,-0.0031 3,1.463391 3,3 h 22 v -5 z"
     id="path12"
     inkscape:connector-curvature="0"
     style="fill:#ffffff;stroke:#383838;stroke-width:0.07587051;stroke-opacity:0.49000005"
     sodipodi:nodetypes="ccccccc" />
  <path
     d="M 46,35 35,45 h 8 c 1.926609,0.129811 2.846478,-0.417545 2.868313,-1.780392 z"
     id="path14"
     inkscape:connector-curvature="0"
     style="fill:#dfffff;fill-opacity:0.078;stroke-width:0.75870508"
     sodipodi:nodetypes="cccsc" />
  <g
     transform="scale(0.9 0.9) translate(7 23)"
     id="g2522">
    <path
       d="M12.18 0C8.524.046 6.308 2.378 5.307 4.707c-.5 1.165-.733 2.334-.758 3.315-.01.388.04.723.101 1.053-.052.03-.076-.001-.133.045-.29.24-.54.583-.714 1.067a3.03 3.03 0 0 0-.068 1.79c.26.995.796 1.643 1.311 1.993.257.175.502.282.69.348.066.023.034.006.087.024.308.63.684 1.248 1.116 1.736.262.297.504.548.721.755-.088 1.357-.947 2.223-2.208 2.81-1.33.62-3.06.786-4.162.585L1 21.808c1.508.276 3.446.076 5.13-.709 1.327-.618 2.507-1.699 2.955-3.191a5.863 5.863 0 0 0 2.37.683c1.85.116 4.089-.87 5.415-3.909a4.9 4.9 0 0 1 .12-.26l-.023.036c-.025.035-.103.12-.092.109.012-.012.134-.16.169-.23.013-.025.011-.03.02-.045.181-.067.403-.16.641-.322.515-.35 1.052-.997 1.311-1.994a3.033 3.033 0 0 0-.065-1.788c-.175-.485-.426-.827-.717-1.067-.057-.047-.085-.016-.137-.046.011-.077.037-.144.045-.222.066-.586.031-1.258-.113-1.97-.289-1.425-1.016-3.03-2.44-4.075l-.95 1.294c.988.725 1.585 1.97 1.814 3.1.114.565.136 1.096.094 1.47-.042.373-.226.54-.073.427-.028.02-.062.044-.123.11-.03.034-.113.16-.113.16l-.063.15-.034.234.05.29.15.246.17.145.14.072s.138.04.18.046c.044.006.075.01.1.01.2.006.188-.013.227-.021l.147-.027c.05.067.088.096.133.22.075.21.115.476.021.837-.174.669-.433.92-.656 1.072a1.36 1.36 0 0 1-.321.16c-.101.035-.123.013-.365.12l-.321.14-.116.334-.072.212-.039.068a5.425 5.425 0 0 0-.171.364c-1.132 2.594-2.555 3.03-3.844 2.948a4.345 4.345 0 0 1-1.719-.5 3.18 3.18 0 0 1-.533-.352c-.12-.102-.166-.212-.113-.09l-.082.034.053-.07a10.14 10.14 0 0 1-1.02-1c-.465-.526-.92-1.185-1.069-1.614l-.116-.333-.32-.14c-.242-.107-.265-.086-.365-.121a1.35 1.35 0 0 1-.321-.16c-.224-.152-.485-.403-.66-1.071a1.36 1.36 0 0 1 .022-.838c.046-.126.088-.158.138-.225l.142.027c.035.006.022.02.193.024.022 0 .049.001.087-.002.039-.004.169-.031.17-.031l.149-.063.205-.16.179-.31.029-.353-.073-.24-.082-.132s-.085-.098-.113-.123c-.057-.05-.087-.065-.111-.08.143.09.057.072.008-.118a3.427 3.427 0 0 1-.075-.883c.02-.754.21-1.757.625-2.724.831-1.932 2.415-3.694 5.42-3.732zm3.988 18.765l-1.106 1.166c1.334 1.27 3.288 2.2 6.417 2.054l-.073-1.605c-2.805.13-4.158-.587-5.238-1.615z"
       fill="#ffffdf"
       id="path13" />
  </g>
</svg>
