<?xml version="1.0" encoding="UTF-8" standalone="no"?>
<svg
   xmlns:dc="http://purl.org/dc/elements/1.1/"
   xmlns:cc="http://creativecommons.org/ns#"
   xmlns:rdf="http://www.w3.org/1999/02/22-rdf-syntax-ns#"
   xmlns:svg="http://www.w3.org/2000/svg"
   xmlns="http://www.w3.org/2000/svg"
   xmlns:xlink="http://www.w3.org/1999/xlink"
   xmlns:sodipodi="http://sodipodi.sourceforge.net/DTD/sodipodi-0.dtd"
   xmlns:inkscape="http://www.inkscape.org/namespaces/inkscape"
   width="48"
   height="48"
   version="1.1"
   id="svg16"
   sodipodi:docname="folder-html.svg"
   inkscape:version="0.92.4 5da689c313, 2019-01-14">
  <metadata
     id="metadata20">
    <rdf:RDF>
      <cc:Work
         rdf:about="">
        <dc:format>image/svg+xml</dc:format>
        <dc:type
           rdf:resource="http://purl.org/dc/dcmitype/StillImage" />
        <dc:title />
      </cc:Work>
    </rdf:RDF>
  </metadata>
  <sodipodi:namedview
     pagecolor="#ffffff"
     bordercolor="#666666"
     borderopacity="1"
     objecttolerance="10"
     gridtolerance="10"
     guidetolerance="10"
     inkscape:pageopacity="0"
     inkscape:pageshadow="2"
     inkscape:window-width="1366"
     inkscape:window-height="695"
     id="namedview18"
     showgrid="true"
     inkscape:zoom="21.478368"
     inkscape:cx="33.792198"
     inkscape:cy="8.639312"
     inkscape:window-x="0"
     inkscape:window-y="0"
     inkscape:window-maximized="1"
     inkscape:current-layer="svg16">
    <inkscape:grid
       type="xygrid"
       id="grid827" />
  </sodipodi:namedview>
  <defs
     id="defs8">
    <linearGradient
       id="a">
      <stop
         offset="0"
         stop-color="#08ade5"
         id="stop2" />
      <stop
         offset="1"
         stop-color="#3fcbfb"
         id="stop4" />
    </linearGradient>
    <linearGradient
       xlink:href="#a"
       id="b"
       x1="414.57101"
       y1="539.79797"
       x2="414.57101"
       y2="506.798"
       gradientUnits="userSpaceOnUse"
       gradientTransform="matrix(0.76271188,0,0,0.75471924,-293.7239,-364.5374)" />
  </defs>
  <path
     d="m 32.38957,5.4999396 c -2.28661,0 -3.360509,0.1132622 -3.822713,2.0000604 H 6.7853318 C 5.2606707,7.5 4.492373,8.8151663 4.5,10.028 V 12.5 c -1.89839,0.01662 -3.0198303,0.924202 -3,2.811 -0.066356,2.113214 0,3.406259 0,5.604 v 21.962 c -0.00152,1.449816 1.2879585,2.62306 2.8393145,2.62306 H 43.689909 c 1.552118,-0.0015 2.812119,-1.175098 2.809831,-2.624157 V 18.330167 C 46.52262,16.443368 45.406779,15.465282 43.5,15.5 c -0.02823,-1.509441 0,-3.207561 0,-4.717 V 8.519 C 43.53432,6.632202 42.304819,5.4999396 40.39804,5.4999396 Z"
     id="path10"
     inkscape:connector-curvature="0"
     style="clip-rule:evenodd;fill:url(#b);fill-rule:evenodd;stroke:#067aa2;stroke-width:0.99987906;stroke-linecap:round;stroke-linejoin:round;stroke-miterlimit:4;stroke-dasharray:none"
     sodipodi:nodetypes="scscccscsccccccss" />
  <path
     d="m 7,10 v 2 h 9 c 1.548305,-0.0031 3,1.463391 3,3 h 22 v -5 z"
     id="path12"
     inkscape:connector-curvature="0"
     style="fill:#ffffff;stroke:#383838;stroke-width:0.07587051;stroke-opacity:0.49000005"
     sodipodi:nodetypes="ccccccc" />
  <path
     d="M 46,35 35,45 h 8 c 1.926609,0.129811 2.846478,-0.417545 2.868313,-1.780392 z"
     id="path14"
     inkscape:connector-curvature="0"
     style="fill:#dfffff;fill-opacity:0.078;stroke-width:0.75870508"
     sodipodi:nodetypes="cccsc" />
  <g
     transform="scale(0.9 0.9) translate(7 23)"
     id="g2522">
    <path
       d="M10.632 2.028a9.038 9.038 0 0 0-2.75.598 9.022 9.022 0 0 0-4.174 3.32l-.265.045c-.987.17-1.78.45-2.38.878C.46 7.297.051 7.924.004 8.622-.075 9.82.751 10.929 2.135 12v.08l.098-.004c.199.15.37.303.592.451 3.66 2.465 9.658 4.109 14.191 3.903 2.267-.102 3.888-.6 4.646-1.771.378-.586.436-1.344.189-2.03-.247-.685-.746-1.33-1.47-1.976l-.21-.187a9.026 9.026 0 0 0-2.13-5.277 9.055 9.055 0 0 0-7.41-3.16zm.083 1.412a7.63 7.63 0 0 1 6.251 2.668 7.628 7.628 0 0 1 .783 8.804l-.008.012c-.26.032-.5.076-.798.09C12.823 15.2 6.9 13.566 3.61 11.35c-.031-.021-.048-.04-.079-.062a7.627 7.627 0 0 1 7.185-7.848zM2.813 7.616a9 9 0 0 0-.65 2.49c-.524-.585-.767-1.087-.748-1.38.017-.243.119-.447.47-.698.21-.149.54-.287.928-.412zm17.27 4.773c.213.269.368.517.44.717.129.357.098.549-.05.776-.132.204-.468.432-.957.632a8.977 8.977 0 0 0 .566-2.125zM3.895 13.523l-1.294.576.29.647a9.05 9.05 0 0 0 13.59 3.635l.571-.417-.833-1.147-.573.417A7.631 7.631 0 0 1 4.184 14.17z"
       fill="#ffffdf"
       id="path13" />
  </g>
</svg>
