<?xml version="1.0" encoding="UTF-8" standalone="no"?>
<svg
   xmlns:dc="http://purl.org/dc/elements/1.1/"
   xmlns:cc="http://creativecommons.org/ns#"
   xmlns:rdf="http://www.w3.org/1999/02/22-rdf-syntax-ns#"
   xmlns:svg="http://www.w3.org/2000/svg"
   xmlns="http://www.w3.org/2000/svg"
   xmlns:xlink="http://www.w3.org/1999/xlink"
   xmlns:sodipodi="http://sodipodi.sourceforge.net/DTD/sodipodi-0.dtd"
   xmlns:inkscape="http://www.inkscape.org/namespaces/inkscape"
   width="48"
   height="48"
   version="1.1"
   id="svg16"
   sodipodi:docname="folder-pictures.svg"
   inkscape:version="0.92.4 5da689c313, 2019-01-14">
  <metadata
     id="metadata20">
    <rdf:RDF>
      <cc:Work
         rdf:about="">
        <dc:format>image/svg+xml</dc:format>
        <dc:type
           rdf:resource="http://purl.org/dc/dcmitype/StillImage" />
        <dc:title />
      </cc:Work>
    </rdf:RDF>
  </metadata>
  <sodipodi:namedview
     pagecolor="#ffffff"
     bordercolor="#666666"
     borderopacity="1"
     objecttolerance="10"
     gridtolerance="10"
     guidetolerance="10"
     inkscape:pageopacity="0"
     inkscape:pageshadow="2"
     inkscape:window-width="1366"
     inkscape:window-height="695"
     id="namedview18"
     showgrid="true"
     inkscape:zoom="21.478368"
     inkscape:cx="33.792198"
     inkscape:cy="8.639312"
     inkscape:window-x="0"
     inkscape:window-y="0"
     inkscape:window-maximized="1"
     inkscape:current-layer="svg16">
    <inkscape:grid
       type="xygrid"
       id="grid827" />
  </sodipodi:namedview>
  <defs
     id="defs8">
    <linearGradient
       id="a">
      <stop
         offset="0"
         stop-color="#08ade5"
         id="stop2" />
      <stop
         offset="1"
         stop-color="#3fcbfb"
         id="stop4" />
    </linearGradient>
    <linearGradient
       xlink:href="#a"
       id="b"
       x1="414.57101"
       y1="539.79797"
       x2="414.57101"
       y2="506.798"
       gradientUnits="userSpaceOnUse"
       gradientTransform="matrix(0.76271188,0,0,0.75471924,-293.7239,-364.5374)" />
  </defs>
  <path
     d="m 32.38957,5.4999396 c -2.28661,0 -3.360509,0.1132622 -3.822713,2.0000604 H 6.7853318 C 5.2606707,7.5 4.492373,8.8151663 4.5,10.028 V 12.5 c -1.89839,0.01662 -3.0198303,0.924202 -3,2.811 -0.066356,2.113214 0,3.406259 0,5.604 v 21.962 c -0.00152,1.449816 1.2879585,2.62306 2.8393145,2.62306 H 43.689909 c 1.552118,-0.0015 2.812119,-1.175098 2.809831,-2.624157 V 18.330167 C 46.52262,16.443368 45.406779,15.465282 43.5,15.5 c -0.02823,-1.509441 0,-3.207561 0,-4.717 V 8.519 C 43.53432,6.632202 42.304819,5.4999396 40.39804,5.4999396 Z"
     id="path10"
     inkscape:connector-curvature="0"
     style="clip-rule:evenodd;fill:url(#b);fill-rule:evenodd;stroke:#067aa2;stroke-width:0.99987906;stroke-linecap:round;stroke-linejoin:round;stroke-miterlimit:4;stroke-dasharray:none"
     sodipodi:nodetypes="scscccscsccccccss" />
  <path
     d="m 7,10 v 2 h 9 c 1.548305,-0.0031 3,1.463391 3,3 h 22 v -5 z"
     id="path12"
     inkscape:connector-curvature="0"
     style="fill:#ffffff;stroke:#383838;stroke-width:0.07587051;stroke-opacity:0.49000005"
     sodipodi:nodetypes="ccccccc" />
  <path
     d="M 46,35 35,45 h 8 c 1.926609,0.129811 2.846478,-0.417545 2.868313,-1.780392 z"
     id="path14"
     inkscape:connector-curvature="0"
     style="fill:#dfffff;fill-opacity:0.078;stroke-width:0.75870508"
     sodipodi:nodetypes="cccsc" />
  <g
     transform="scale(0.9 0.9) translate(7 23)"
     id="g2522">
    <path
       d="M11.412 0c-.16-.004-.328.02-.485.087-1.37.54-2.107 1.805-2.634 2.846-.264.522-.482 1.006-.662 1.327-.117.207-.201.282-.204.303a.37.37 0 0 1 .047.002c-.04.008-.049.006-.047-.002-.947-.058-1.971-.143-2.898-.123-1 .022-1.951.066-2.582.818l-.015.019-.015.021c-.021.03-.127.117-.253.341a1.524 1.524 0 0 0-.156.858c.06.626.345 1.404 1.063 2.996l1.302-.587c-.698-1.55-.921-2.313-.943-2.544-.004-.039-.005-.036-.006-.043 0 0-.015.02-.014.017.01-.016.01-.03.014-.017.004 0 .047-.051.118-.144.052-.062.64-.29 1.52-.308.88-.02 1.98.074 3.018.133l.099.005.094-.022c.64-.142.868-.605 1.102-1.023.235-.418.449-.9.693-1.383.472-.932 1.059-1.772 1.817-2.11.04.024.078.041.158.115.232.213.552.618.875 1.105.648.974 1.334 2.28 1.836 3.258l1.27-.652c-.507-.986-1.202-2.321-1.915-3.395-.357-.538-.712-1.01-1.1-1.367a2.154 2.154 0 0 0-.657-.44 1.287 1.287 0 0 0-.44-.09zm5.332 4.408l-.142 1.42c1.692.17 2.466.359 2.677.455l.038.017s-.01-.024-.008-.022c.01.017.022.027.008.022-.002.004.022.066.067.173.027.078-.07.701-.493 1.472-.424.771-1.055 1.677-1.624 2.546l-.054.081-.03.094c-.196.626.093 1.055.337 1.467.245.413.556.838.852 1.292.57.874 1.006 1.803.92 2.63-.042.022-.076.043-.18.076-.3.094-.81.172-1.394.208-1.168.074-2.643.015-3.74-.038l-.07 1.424c1.108.054 2.612.12 3.9.038.643-.04 1.227-.112 1.73-.27a2.16 2.16 0 0 0 .71-.35 1.24 1.24 0 0 0 .466-.795c.218-1.458-.51-2.727-1.148-3.704-.32-.49-.63-.92-.819-1.238-.122-.206-.142-.318-.159-.328l-.028.04c.012-.035.021-.044.028-.04.523-.79 1.107-1.635 1.553-2.447.482-.878.919-1.725.583-2.647l-.008-.023-.011-.024c-.015-.033-.036-.167-.167-.388-.131-.22-.381-.434-.667-.564-.572-.26-1.39-.403-3.127-.577zM4.208 10.171c-.6.932-1.409 2.201-1.982 3.357-.287.577-.518 1.12-.633 1.636-.057.258-.09.51-.051.787.038.273.186.596.457.802 1.153.919 2.616.924 3.78.86.586-.032 1.114-.086 1.483-.09.234-.004.343.033.364.026l-.021-.045c.027.031.031.042.021.045.424.848.863 1.777 1.343 2.57.52.855 1.033 1.656 1.999 1.827l.026.005.025.002c.037.004.164.05.42.047.258-.004.566-.112.822-.294.512-.365 1.043-1.001 2.063-2.42l-1.158-.831c-.992 1.38-1.544 1.954-1.733 2.089-.03.021-.026.02-.032.025l.022.005c-.02 0-.033.005-.022-.005.01-.004-.043-.016-.234-.036l.05.006c-.08-.015-.571-.41-1.028-1.163s-.926-1.749-1.394-2.676l-.045-.09-.066-.073c-.444-.484-.958-.448-1.437-.442-.48.005-1.004.062-1.544.092-1.042.057-2.065-.03-2.737-.517 0-.047-.004-.088.021-.195.07-.307.26-.789.52-1.313.52-1.048 1.307-2.293 1.902-3.217l-1.201-.774z"
       fill="#ffffdf"
       id="path13" />
  </g>
</svg>
