<?xml version="1.0" encoding="UTF-8" standalone="no"?>
<svg
   xmlns:dc="http://purl.org/dc/elements/1.1/"
   xmlns:cc="http://creativecommons.org/ns#"
   xmlns:rdf="http://www.w3.org/1999/02/22-rdf-syntax-ns#"
   xmlns:svg="http://www.w3.org/2000/svg"
   xmlns="http://www.w3.org/2000/svg"
   xmlns:xlink="http://www.w3.org/1999/xlink"
   xmlns:sodipodi="http://sodipodi.sourceforge.net/DTD/sodipodi-0.dtd"
   xmlns:inkscape="http://www.inkscape.org/namespaces/inkscape"
   width="48"
   height="48"
   version="1.1"
   id="svg16"
   sodipodi:docname="folder-development.svg"
   inkscape:version="0.92.4 5da689c313, 2019-01-14">
  <metadata
     id="metadata20">
    <rdf:RDF>
      <cc:Work
         rdf:about="">
        <dc:format>image/svg+xml</dc:format>
        <dc:type
           rdf:resource="http://purl.org/dc/dcmitype/StillImage" />
        <dc:title />
      </cc:Work>
    </rdf:RDF>
  </metadata>
  <sodipodi:namedview
     pagecolor="#ffffff"
     bordercolor="#666666"
     borderopacity="1"
     objecttolerance="10"
     gridtolerance="10"
     guidetolerance="10"
     inkscape:pageopacity="0"
     inkscape:pageshadow="2"
     inkscape:window-width="1366"
     inkscape:window-height="695"
     id="namedview18"
     showgrid="true"
     inkscape:zoom="21.478368"
     inkscape:cx="33.792198"
     inkscape:cy="8.639312"
     inkscape:window-x="0"
     inkscape:window-y="0"
     inkscape:window-maximized="1"
     inkscape:current-layer="svg16">
    <inkscape:grid
       type="xygrid"
       id="grid827" />
  </sodipodi:namedview>
  <defs
     id="defs8">
    <linearGradient
       id="a">
      <stop
         offset="0"
         stop-color="#08ade5"
         id="stop2" />
      <stop
         offset="1"
         stop-color="#3fcbfb"
         id="stop4" />
    </linearGradient>
    <linearGradient
       xlink:href="#a"
       id="b"
       x1="414.57101"
       y1="539.79797"
       x2="414.57101"
       y2="506.798"
       gradientUnits="userSpaceOnUse"
       gradientTransform="matrix(0.76271188,0,0,0.75471924,-293.7239,-364.5374)" />
  </defs>
  <path
     d="m 32.38957,5.4999396 c -2.28661,0 -3.360509,0.1132622 -3.822713,2.0000604 H 6.7853318 C 5.2606707,7.5 4.492373,8.8151663 4.5,10.028 V 12.5 c -1.89839,0.01662 -3.0198303,0.924202 -3,2.811 -0.066356,2.113214 0,3.406259 0,5.604 v 21.962 c -0.00152,1.449816 1.2879585,2.62306 2.8393145,2.62306 H 43.689909 c 1.552118,-0.0015 2.812119,-1.175098 2.809831,-2.624157 V 18.330167 C 46.52262,16.443368 45.406779,15.465282 43.5,15.5 c -0.02823,-1.509441 0,-3.207561 0,-4.717 V 8.519 C 43.53432,6.632202 42.304819,5.4999396 40.39804,5.4999396 Z"
     id="path10"
     inkscape:connector-curvature="0"
     style="clip-rule:evenodd;fill:url(#b);fill-rule:evenodd;stroke:#067aa2;stroke-width:0.99987906;stroke-linecap:round;stroke-linejoin:round;stroke-miterlimit:4;stroke-dasharray:none"
     sodipodi:nodetypes="scscccscsccccccss" />
  <path
     d="m 7,10 v 2 h 9 c 1.548305,-0.0031 3,1.463391 3,3 h 22 v -5 z"
     id="path12"
     inkscape:connector-curvature="0"
     style="fill:#ffffff;stroke:#383838;stroke-width:0.07587051;stroke-opacity:0.49000005"
     sodipodi:nodetypes="ccccccc" />
  <path
     d="M 46,35 35,45 h 8 c 1.926609,0.129811 2.846478,-0.417545 2.868313,-1.780392 z"
     id="path14"
     inkscape:connector-curvature="0"
     style="fill:#dfffff;fill-opacity:0.078;stroke-width:0.75870508"
     sodipodi:nodetypes="cccsc" />
  <g
     transform="scale(0.9 0.9) translate(7 23)"
     id="g2522">
    <path
       d="M17.519.002L10.92.006H4.328l-.225.152a1.325 1.325 0 0 0-.38.404c-.142.237-.149.285-.149.68 0 .269.018.445.053.48.035.034.202.057.434.057s.403-.023.438-.057c.034-.034.053-.198.053-.419V.938h12.7v.37c0 .258.023.383.069.422.042.034.211.046.475.038l.415-.012v-.544c0-.52-.004-.548-.133-.735a1.547 1.547 0 0 0-.35-.334l-.21-.141zM11.02 2.011c-8.941 0-8.946.002-9.135.099a1.857 1.857 0 0 0-.746.753l-.137.274.016 8.835c.014 6.856.027 8.882.072 9.044.07.254.312.553.605.757.213.147.236.153.826.179.334.013 4.395.033 9.025.038l8.416.008.259-.145c.339-.191.508-.369.677-.704l.14-.274-.011-8.907-.016-8.906-.114-.225c-.133-.26-.467-.587-.742-.727l-.19-.099H11.02zM2.265 3.274H19.73v17.46H2.265v-8.732zm5.103 3.173c-.073 0-.437.625-.457.784-.016.127.01.151.388.37.223.127 1.998 1.15 3.942 2.274 3.31 1.915 3.539 2.055 3.588 2.203a.553.553 0 0 1-.156.567 7.932 7.932 0 0 1-.617.411c-.282.175-1.599 1.02-2.925 1.876-1.327.856-2.451 1.556-2.496 1.556a.31.31 0 0 1-.168-.08c-.08-.073-.084-.207-.084-2.393 0-1.74-.015-2.332-.057-2.374-.076-.076-.886-.076-.962 0-.09.089-.079 4.662.011 4.961.13.432.445.75.876.89.262.086.723.054.962-.068.1-.051.55-.332.997-.624 1.08-.707 3.852-2.487 4.497-2.888.605-.376.87-.615 1.043-.944.114-.216.125-.287.125-.73 0-.468-.006-.502-.156-.78-.188-.347-.04-.25-2.362-1.59-4.643-2.679-5.943-3.42-5.99-3.42z"
       fill="#ffffdf"
       id="path13" />
  </g>
</svg>
