<?xml version="1.0" encoding="UTF-8" standalone="no"?>
<svg
   xmlns:dc="http://purl.org/dc/elements/1.1/"
   xmlns:cc="http://creativecommons.org/ns#"
   xmlns:rdf="http://www.w3.org/1999/02/22-rdf-syntax-ns#"
   xmlns:svg="http://www.w3.org/2000/svg"
   xmlns="http://www.w3.org/2000/svg"
   xmlns:sodipodi="http://sodipodi.sourceforge.net/DTD/sodipodi-0.dtd"
   xmlns:inkscape="http://www.inkscape.org/namespaces/inkscape"
   height="48"
   width="48"
   version="1.1"
   id="svg10"
   sodipodi:docname="user-trash-empty-opened.svg">
  <metadata
     id="metadata16">
    <rdf:RDF>
      <cc:Work
         rdf:about="">
        <dc:format>image/svg+xml</dc:format>
        <dc:type
           rdf:resource="http://purl.org/dc/dcmitype/StillImage" />
      </cc:Work>
    </rdf:RDF>
  </metadata>
  <defs
     id="defs14" />
  <sodipodi:namedview
     pagecolor="#ffffff"
     bordercolor="#666666"
     borderopacity="1"
     objecttolerance="10"
     gridtolerance="10"
     guidetolerance="10"
     inkscape:pageopacity="0"
     inkscape:pageshadow="2"
     inkscape:window-width="640"
     inkscape:window-height="480"
     id="namedview12" />
  <path
     d="M18.79 16.184h10.465c2.291 0 4.247-1.597 4.623-3.776l2.225-8.056C32.92 2.426 28.184 2.44 24.15 2.44c-4.037 0-9.201.093-12.385 2.02l2.403 7.948c.377 2.179 2.332 3.776 4.623 3.776"
     fill="#3bb2d7"
     id="path2" />
  <path
     d="M3.181 18.056c-.04.542.025 1.07-.062 1.621l41.762-.066c-.086-.552.07-1.046-.03-1.588z"
     fill-rule="evenodd"
     opacity=".1"
     id="path4" />
  <path
     d="M12.547 4.045c-6.332 2.584-9.46 8.745-9.46 15.978v7.125c0 9.575 5.585 17.282 17.147 17.282h6.93C42.296 44.43 45 33.108 45 27.148v-7.125c0-4.735-1.784-12.674-9.27-15.877.125.068.253.133.374.206l-2.227 8.056c-.376 2.179-2.332 3.776-4.623 3.776H18.789c-2.291 0-4.245-1.597-4.623-3.776L11.764 4.46a8.86 8.86 0 0 1 .783-.414z"
     fill="#f2f2f2"
     stroke="#000"
     stroke-width=".334"
     stroke-linecap="square"
     stroke-linejoin="bevel"
     stroke-opacity=".196"
     id="path6" />
  <path
     d="M3 19h42m-25 4v19m8-19v19m8-19v15M12 23v15"
     fill="none"
     stroke="#bdbdbd"
     stroke-width="2"
     id="path8" />
</svg>
