<svg xmlns="http://www.w3.org/2000/svg" viewBox="0 0 16 16"><defs id="defs3051"><style type="text/css" id="current-color-scheme">.ColorScheme-Text{color:#ffffdf}</style></defs><path d="M8 2a6 6 0 1 0 0 12v-1a5 5 0 1 1 5-5h1a6 6 0 0 0-6-6zm0 4a2 2 0 1 0 0 4V9a1 1 0 1 1 1-1h1a2 2 0 0 0-2-2zm1 3v5h2l1-1 1-1V9H9zm1 1h2v2h-1v1h-1v-3z" class="ColorScheme-Text" fill="currentColor"/><path d="M8 2a6 6 0 1 0 0 12v-1a5 5 0 1 1 5-5h1a6 6 0 0 0-6-6zm0 4a2 2 0 1 0 0 4V9a1 1 0 1 1 1-1h1a2 2 0 0 0-2-2zm1 3v5h2l1-1 1-1V9H9zm1 1h2v2h-1v1h-1v-3z" class="ColorScheme-Text" fill="currentColor"/></svg>