<svg xmlns="http://www.w3.org/2000/svg" viewBox="0 0 16 16"><path d="M8 2A14.95 14.95 0 0 0 .168 4.21l.63.788A13.95 13.95 0 0 1 8 3c2.64 0 5.098.737 7.201 1.998l.631-.787A14.95 14.95 0 0 0 8 2zm0 3a10.96 10.96 0 0 0-5.852 1.688l.631.785A9.97 9.97 0 0 1 8 6a9.97 9.97 0 0 1 5.22 1.473l.632-.785A10.96 10.96 0 0 0 8 5zm0 3a6.984 6.984 0 0 0-3.871 1.162l.63.787A5.978 5.978 0 0 1 8 9c.607 0 1.191.09 1.742.258l.774-.774A6.971 6.971 0 0 0 8 8zm0 3a1.5 1.5 0 0 0-1.5 1.5A1.5 1.5 0 0 0 8 14a1.5 1.5 0 0 0 1.5-1.5A1.5 1.5 0 0 0 8 11z" fill="currentColor" fill-opacity=".5" color="#ffffdf"/><path d="M10.707 9L10 9.707l1.793 1.793L10 13.293l.707.707 1.793-1.793L14.293 14l.707-.707-1.793-1.793L15 9.707 14.293 9 12.5 10.793 10.707 9z" fill="currentColor" color="#da4453"/></svg>