<svg xmlns="http://www.w3.org/2000/svg" viewBox="0 0 16 16"><defs id="defs3051"><style type="text/css" id="current-color-scheme">.ColorScheme-Text{color:#ffffdf}</style></defs><path d="M8 2A14.95 14.95 0 0 0 .168 4.21l.63.788A13.95 13.95 0 0 1 8 3c2.64 0 5.098.737 7.201 1.998l.631-.787A14.95 14.95 0 0 0 8 2zm0 3a10.96 10.96 0 0 0-5.852 1.688l.631.785A9.97 9.97 0 0 1 8 6a9.97 9.97 0 0 1 5.22 1.473l.632-.785A10.96 10.96 0 0 0 8 5z" class="ColorScheme-Text" fill="currentColor" fill-opacity=".5"/><path d="M8 8a6.984 6.984 0 0 0-3.871 1.162l.63.787A5.978 5.978 0 0 1 8 9c1.197 0 2.306.35 3.24.95l.631-.788A6.984 6.984 0 0 0 8 8zm0 3a1.5 1.5 0 0 0-1.5 1.5A1.5 1.5 0 0 0 8 14a1.5 1.5 0 0 0 1.5-1.5A1.5 1.5 0 0 0 8 11z" class="ColorScheme-Text" fill="currentColor"/></svg>