<svg viewBox="0 0 16 16" xmlns="http://www.w3.org/2000/svg"><path d="M4.5 2A2.5 2.5 0 0 0 2 4.5 2.5 2.5 0 0 0 4.5 7a2.5 2.5 0 0 0 1.064-.242C5.814 7.24 6 7.703 6 8c0 .297-.186.758-.436 1.24A2.5 2.5 0 0 0 4.5 9 2.5 2.5 0 0 0 2 11.5 2.5 2.5 0 0 0 4.5 14 2.5 2.5 0 0 0 7 11.5a2.5 2.5 0 0 0-.24-1.063C7.244 10.187 7.705 10 8 10s.756.186 1.24.438A2.5 2.5 0 0 0 9 11.5a2.5 2.5 0 0 0 2.5 2.5 2.5 2.5 0 0 0 2.5-2.5A2.5 2.5 0 0 0 11.5 9a2.5 2.5 0 0 0-1.064.242C10.186 8.76 10 8.297 10 8c0-.297.186-.758.436-1.24A2.5 2.5 0 0 0 11.5 7 2.5 2.5 0 0 0 14 4.5 2.5 2.5 0 0 0 11.5 2 2.5 2.5 0 0 0 9 4.5a2.5 2.5 0 0 0 .24 1.063C8.756 5.814 8.295 6 8 6s-.756-.186-1.24-.438A2.5 2.5 0 0 0 7 4.5 2.5 2.5 0 0 0 4.5 2zm0 1A1.5 1.5 0 0 1 6 4.5a1.5 1.5 0 0 1-.102.535c-.4-.28-.779-.582-1.044-.889A.5.5 0 0 0 4.508 4a.5.5 0 0 0-.362.146.5.5 0 0 0 0 .708c.309.262.61.644.893 1.046A1.5 1.5 0 0 1 4.5 6 1.5 1.5 0 0 1 3 4.5 1.5 1.5 0 0 1 4.5 3zm7 0A1.5 1.5 0 0 1 13 4.5 1.5 1.5 0 0 1 11.5 6a1.5 1.5 0 0 1-.54-.102c.284-.402.586-.782.894-1.044a.5.5 0 0 0 0-.708.5.5 0 0 0-.708 0c-.266.308-.646.61-1.046.891A1.5 1.5 0 0 1 10 4.5 1.5 1.5 0 0 1 11.5 3zm-7 7a1.5 1.5 0 0 1 .54.102c-.284.402-.586.782-.894 1.044a.5.5 0 0 0 0 .708.5.5 0 0 0 .708 0c.266-.308.646-.61 1.046-.891a1.5 1.5 0 0 1 .1.537A1.5 1.5 0 0 1 4.5 13 1.5 1.5 0 0 1 3 11.5 1.5 1.5 0 0 1 4.5 10zm7 0a1.5 1.5 0 0 1 1.5 1.5 1.5 1.5 0 0 1-1.5 1.5 1.5 1.5 0 0 1-1.5-1.5 1.5 1.5 0 0 1 .102-.535c.4.28.779.582 1.044.889a.5.5 0 0 0 .708 0 .5.5 0 0 0 0-.708c-.309-.262-.61-.644-.893-1.046a1.5 1.5 0 0 1 .539-.1z" fill="currentColor" color="#ffffdf"/></svg>