<svg height="48" width="48" xmlns="http://www.w3.org/2000/svg" xmlns:xlink="http://www.w3.org/1999/xlink"><linearGradient id="a" gradientTransform="matrix(.30902336 0 0 .30380027 -64.017299 1.993676)" gradientUnits="userSpaceOnUse" x1="288.11157" x2="287.57547" y1="141.78452" y2="79.007812"><stop offset="0" stop-opacity=".046875"/><stop offset="1" stop-opacity="0"/></linearGradient><path d="m2.7498407 26.220541v1.668528c0 9.574276 5.6792096 17.282199 17.4405083 17.282199h7.049592c15.392533 0 18.143072-11.322632 18.143072-17.282199v-1.668528c0 5.959567-2.750539 17.282198-18.143072 17.282198h-7.049592c-11.7612987 0-17.4405083-7.707923-17.4405083-17.282198z" fill="url(#a)"/><path d="m19.648602 2.7423187h8.641122c14.146859 0 17.09331 11.2468653 17.09331 17.2820843v7.123176c0 5.959564-2.750662 17.282082-18.143195 17.282082h-7.049246c-11.7612986 0-17.4407218-7.707808-17.4407218-17.282082v-7.123176c0-9.574274 5.5642262-17.2820843 16.8987308-17.2820843z" style="fill:#ff8325;stroke:#000;stroke-width:.337041;stroke-linecap:square;stroke-linejoin:bevel;stroke-opacity:.078125"/><g fill="#fff" fill-rule="evenodd" transform="matrix(1.1436711 0 0 1.1580816 62.919699 -5.316044)"><path d="m3 11.987358c0 1.47386-1.037037 3.345975-3 3.345975 0 0 0 2.369829.03703704 2 3.46296296 0 4.96296296-2.406283 4.96296296-5.345975v-11.65402467h-2z" transform="translate(-42.5164 16.792823)"/><path d="m-35.5164 26.137875 2.085937-.328125c.117189.835941.443357 1.47656.978516 1.921875s1.283198.667969 2.244141.667969c.968755 0 1.687497-.197263 2.15625-.591797.468752-.394534.703125-.857419.703125-1.388672 0-.476565-.207029-.85156-.621094-1.125-.289064-.1875-1.007807-.42578-2.15625-.714844-1.546883-.390627-2.619138-.728513-3.216797-1.013672-.597659-.285158-1.05078-.679684-1.359375-1.183593-.308595-.503908-.462891-1.060545-.462891-1.669922 0-.554691.126952-1.068357.38086-1.541016.253907-.472659.599607-.865233 1.037109-1.177734.328127-.242188.775388-.447265 1.341797-.615235s1.173825-.251953 1.822266-.251953c.976567 0 1.83398.140624 2.572265.421875.738285.281252 1.283202.662107 1.634766 1.142578.351564.480472.593749 1.123043.726562 1.927735l-2.0625.28125c-.09375-.640628-.365232-1.140624-.814453-1.5-.449221-.359377-1.08398-.539063-1.904297-.539063-.968754 0-1.660154.160155-2.074218.480469-.414065.320314-.621094.69531-.621094 1.125 0 .273439.08594.51953.257812.738281.171876.226564.441405.414063.808594.5625.210939.07813.832026.257811 1.863281.539063 1.492196.39844 2.533201.724609 3.123047.978515.589847.253909 1.052733.623045 1.388672 1.107422.335939.484378.503906 1.085935.503906 1.804688 0 .703128-.205076 1.365231-.615234 1.986328-.410158.621096-1.001949 1.10156-1.775391 1.441406-.773441.339845-1.648432.509766-2.625.509766-1.617195 0-2.849605-.335935-3.697265-1.007813-.847661-.671878-1.388671-1.667962-1.623047-2.988281z"/></g></svg>