<svg height="48" width="48" xmlns="http://www.w3.org/2000/svg" xmlns:xlink="http://www.w3.org/1999/xlink"><linearGradient id="a" gradientTransform="matrix(.30902 0 0 .3038 -64.017 1.994)" gradientUnits="userSpaceOnUse" x1="288.112" x2="287.575" y1="141.785" y2="79.008"><stop offset="0" stop-opacity=".047"/><stop offset="1" stop-opacity="0"/></linearGradient><path d="m2.75 26.22v1.67c0 9.573 5.68 17.281 17.44 17.281h7.05c15.392 0 18.143-11.322 18.143-17.282v-1.668c0 5.96-2.75 17.282-18.143 17.282h-7.05c-11.76 0-17.44-7.708-17.44-17.282z" fill="url(#a)"/><path d="m19.649 2.742h8.64c14.148 0 17.094 11.247 17.094 17.282v7.124c0 5.96-2.75 17.282-18.143 17.282h-7.05c-11.76 0-17.44-7.708-17.44-17.282v-7.124c0-9.574 5.564-17.282 16.899-17.282z" style="fill:#a663e1;stroke:#000;stroke-width:.337;stroke-linecap:square;stroke-linejoin:bevel;stroke-opacity:.078"/><path d="m56.665 24.074v-10.068h20.134v20.135h-20.134zm18.92 7.747v-1.107h-17.705v2.213h17.707zm-1.749-3.463v-1.108h-5.64l-.02 1.032c-.011.568-.004 1.074.016 1.125.029.076.583.09 2.84.075l2.804-.019v-1.106zm1.714-4.284v-1.964l-8.836-.018-8.835-.018v4l8.835-.019 8.836-.018zm-1.678-4.32v-1.107h-5.712v2.214h5.712zm1.714-3.427v-1.107h-17.707v2.214h17.707z" fill="#fff" transform="translate(-42.468 -.343)"/></svg>