<svg height="48" width="48" xmlns="http://www.w3.org/2000/svg" xmlns:xlink="http://www.w3.org/1999/xlink"><linearGradient id="a" gradientTransform="matrix(.30902336 0 0 .30380027 -64.017299 1.993676)" gradientUnits="userSpaceOnUse" x1="288.11157" x2="287.57547" y1="141.78452" y2="79.007812"><stop offset="0" stop-opacity=".046875"/><stop offset="1" stop-opacity="0"/></linearGradient><path d="m2.7498407 26.220541v1.668528c0 9.574276 5.6792096 17.282199 17.4405083 17.282199h7.049592c15.392533 0 18.143072-11.322632 18.143072-17.282199v-1.668528c0 5.959567-2.750539 17.282198-18.143072 17.282198h-7.049592c-11.7612987 0-17.4405083-7.707923-17.4405083-17.282198z" fill="url(#a)"/><path d="m19.648602 2.7423187h8.641122c14.146859 0 17.09331 11.2468653 17.09331 17.2820843v7.123176c0 5.959564-2.750662 17.282082-18.143195 17.282082h-7.049246c-11.7612986 0-17.4407218-7.707808-17.4407218-17.282082v-7.123176c0-9.574274 5.5642262-17.2820843 16.8987308-17.2820843z" style="fill:#83c032;stroke:#000;stroke-width:.337041;stroke-linecap:square;stroke-linejoin:bevel;stroke-opacity:.078125"/><g fill="#fff" fill-rule="evenodd" transform="translate(1.147947 .640519)"><path d="m22.30988 27.896812c-.713948.203904-1.41968.305855-2.117215.305855-1.805387 0-2.974768-.906225-3.508178-2.718699-.320045.05286-.590849.07929-.81242.07929-1.936687 0-3.415852-.707988-4.437536-2.123984-1.021684-1.415994-1.5325192-3.471988-1.5325192-6.168045 0-2.696056.5087832-4.753939 1.5263642-6.173711 1.017581-1.4197724 2.498798-2.1296475 4.443691-2.1296475 1.944894 0 3.428161.7079877 4.449846 2.1239835 1.021685 1.415994 1.53252 3.475767 1.53252 6.179375 0 3.927029-1.066804 6.479559-3.200442 7.657667.303633 1.10259.882168 1.653876 1.735624 1.653876.475966 0 .997058-.05665 1.563293-.169919zm-6.423357-4.014935c-1.120813 0-1.970568-.565036-2.549289-1.695125-.578722-1.130089-.868078-2.772635-.868078-4.927689 0-2.132527.291188-3.771319.873572-4.916427.582384-1.145107 1.430307-1.717651 2.543795-1.717651 2.285582 0 3.428355 2.211338 3.428355 6.634078 0 4.415232-1.142773 6.622814-3.428355 6.622814zm13.696936 1.657112h-1.71143c-.920344 0-3.42286-.414278-3.42286-3.728501v-7.04277h-1.711431v-1.657066h1.711431v-2.899945l2.588007-1.2428789v4.1428239h2.546283v1.657066h-2.546283v7.034633c0 .604158 0 1.665203 1.169923 1.665203.304182 0 .616158-.0302.935938-.09063z"/><path d="m21.591422 36.923113h.84374v-2.654854s.42187 1.171614 1.724637 1.171614c.703871 0 1.29551-.244754 1.774932-.734271.479423-.489514.71913-1.14995.71913-1.981324 0-.780016-.217263-1.413166-.651796-1.899473-.434533-.486305-1.035684-.728459-1.879423-.728459-1.26561 0-1.68748.986089-1.68748.986089v-.986089h-.84374zm2.548797-2.195843c.496091 0 .898425-.163704 1.207018-.491118.308591-.327414.462884-.807293.462884-1.43965 0-.59705-.160152-1.083348-.480463-1.458911-.32031-.375563-.73241-.563342-1.236312-.563342-.484372 0-.881824.16852-1.19237.505564-.310544.337043-.465814.818526-.465814 1.444465 0 .439761.07227.808899.216794 1.107423.144531.298524.349604.522414.615227.671677.265623.149262.556632.223892.873036.223892zm6.417806-4.357471-.332058.799271c-.239226-.125188-.473092-.18778-.701606-.18778-.360623 0-.633766.145247-.819432.435746-.185668.2905-.342769.810446-.342769 1.333666l-.02142 2.655352h-.843134l.02142-5.310704h.843135l-.02142.88594h.02142c.307066-.59063.708744-.88594 1.205048-.88594.328489 0 .658758.09148.990817.274449zm2.845754 5.036255c-1.397953 0-2.531219-1.188618-2.531219-2.654854 0-1.466235 1.133266-2.654854 2.531219-2.654854 1.397954 0 2.53122 1.188619 2.53122 2.654854 0 1.466236-1.133266 2.654854-2.53122 2.654854zm0-.75853c.931969 0 1.68748-.849012 1.68748-1.896324 0-1.047311-.755511-1.896323-1.68748-1.896323-.931968 0-1.687479.849012-1.687479 1.896323 0 1.047312.755511 1.896324 1.687479 1.896324z"/></g></svg>