<svg height="48" width="48" xmlns="http://www.w3.org/2000/svg" xmlns:xlink="http://www.w3.org/1999/xlink"><linearGradient id="a" gradientTransform="matrix(.30902336 0 0 .30380027 -64.017299 1.993676)" gradientUnits="userSpaceOnUse" x1="288.11157" x2="287.57547" y1="141.78452" y2="79.007812"><stop offset="0" stop-opacity=".046875"/><stop offset="1" stop-opacity="0"/></linearGradient><path d="m2.7498407 26.220541v1.668528c0 9.574276 5.6792096 17.282199 17.4405083 17.282199h7.049592c15.392533 0 18.143072-11.322632 18.143072-17.282199v-1.668528c0 5.959567-2.750539 17.282198-18.143072 17.282198h-7.049592c-11.7612987 0-17.4405083-7.707923-17.4405083-17.282198z" fill="url(#a)"/><path d="m19.648602 2.7423187h8.641122c14.146859 0 17.09331 11.2468653 17.09331 17.2820843v7.123176c0 5.959564-2.750662 17.282082-18.143195 17.282082h-7.049246c-11.7612986 0-17.4407218-7.707808-17.4407218-17.282082v-7.123176c0-9.574274 5.5642262-17.2820843 16.8987308-17.2820843z" style="fill:#0e5bd3;stroke:#000;stroke-width:.337041;stroke-linecap:square;stroke-linejoin:bevel;stroke-opacity:.078125"/><g fill-rule="evenodd" transform="translate(.667338 -.608712)"><path d="m25.899115 19.194701v-2h7c.552285 0 1 .447715 1 1v13c0 .552285-.447715 1-1 1h-7v-2h6v-1h-6v-1h6v-1h-6v-1h6v-1h-6v-1h6v-1h-6v-1h6v-1h-6v-1h6v-1zm-13-3.068866 12-1.931133v19.999999l-12-1.931134z" fill="#fff"/><path d="m22.276367 28.199219 1.382813-5.373047h1.429687l-2.085937 8.173828h-1.3125l-1.69336-5.835938-1.693359 5.835938h-1.324219l-2.074219-8.173828h1.441407l1.353515 5.425781 1.664063-5.425781h1.259765z" fill="#0e5bd3" transform="translate(-1.100885 -1.805299)"/></g></svg>