<svg height="48" width="48" xmlns="http://www.w3.org/2000/svg" xmlns:xlink="http://www.w3.org/1999/xlink"><linearGradient id="a" gradientTransform="matrix(.30902336 0 0 .30380027 -64.017299 1.993676)" gradientUnits="userSpaceOnUse" x1="288.11157" x2="287.57547" y1="141.78452" y2="79.007812"><stop offset="0" stop-opacity=".046875"/><stop offset="1" stop-opacity="0"/></linearGradient><linearGradient id="b" gradientTransform="matrix(.93190011 0 0 .97110237 -8.184927 -6.486058)" gradientUnits="userSpaceOnUse" x1="41.05664" x2="27.355168" y1="18.077828" y2="47.837539"><stop offset="0" stop-color="#fff" stop-opacity="0"/><stop offset="1" stop-color="#fff"/></linearGradient><path d="m2.7498407 26.220541v1.668528c0 9.574276 5.6792096 17.282199 17.4405083 17.282199h7.049592c15.392533 0 18.143072-11.322632 18.143072-17.282199v-1.668528c0 5.959567-2.750539 17.282198-18.143072 17.282198h-7.049592c-11.7612987 0-17.4405083-7.707923-17.4405083-17.282198z" fill="url(#a)"/><path d="m19.648602 2.7423187h8.641122c14.146859 0 17.09331 11.2468653 17.09331 17.2820843v7.123176c0 5.959564-2.750662 17.282082-18.143195 17.282082h-7.049246c-11.7612986 0-17.4407218-7.707808-17.4407218-17.282082v-7.123176c0-9.574274 5.5642262-17.2820843 16.8987308-17.2820843z" style="fill:#479bd0;stroke:#000;stroke-width:.337041;stroke-linecap:square;stroke-linejoin:bevel;stroke-opacity:.078125"/><g fill-rule="evenodd" transform="matrix(.86793424 0 0 .88774951 3.875384 2.987518)"><path d="m19.834733.25105959c1.836314 3.28700821 3.672782 10.34121741-8.01966 17.39542741-15.9999996 9.653016 8 22.322602 8 22.322602s-17.7999626-17.301657 24.61466-25.207169" fill="url(#b)" opacity=".643482"/><path d="m19.815073 39.969089s2.533431-8.280545 5.852338-11.065439c0 0 .08073-5.058073 7.250359-12.571207 0 0 1.772775-1.653879 2.710757-4.104384 1.249911-1.880521 2.396633-.513913 2.396633-.513913s.834792.796626.02246 1.810942-2.35171 4.135797-2.35171 4.135797-3.002421 9.505797-7.773225 12.344565c-2.147527 1.801989-1.828844 4.362439-1.828844 4.362439z" fill="#fff"/></g></svg>