<svg height="48" width="48" xmlns="http://www.w3.org/2000/svg" xmlns:xlink="http://www.w3.org/1999/xlink"><linearGradient id="a" gradientTransform="matrix(.30902336 0 0 .30380027 -64.017299 1.993676)" gradientUnits="userSpaceOnUse" x1="288.11157" x2="287.57547" y1="141.78452" y2="79.007812"><stop offset="0" stop-opacity=".046875"/><stop offset="1" stop-opacity="0"/></linearGradient><path d="m2.7498407 26.220541v1.668528c0 9.574276 5.6792096 17.282199 17.4405083 17.282199h7.049592c15.392533 0 18.143072-11.322632 18.143072-17.282199v-1.668528c0 5.959567-2.750539 17.282198-18.143072 17.282198h-7.049592c-11.7612987 0-17.4405083-7.707923-17.4405083-17.282198z" fill="url(#a)"/><path d="m19.648602 2.7423187h8.641122c14.146859 0 17.09331 11.2468653 17.09331 17.2820843v7.123176c0 5.959564-2.750662 17.282082-18.143195 17.282082h-7.049246c-11.7612986 0-17.4407218-7.707808-17.4407218-17.282082v-7.123176c0-9.574274 5.5642262-17.2820843 16.8987308-17.2820843z" style="fill:#c5a981;stroke:#000;stroke-width:.337041;stroke-linecap:square;stroke-linejoin:bevel;stroke-opacity:.078125"/><path d="m19.066453 15.848707c0 1.911063 1.185515 3.765416 2.885144 4.525508l-2.853953 14.56895c-.05797.281276.0185.572588.208551.794461.190048.221874.473841.351158.773957.352583h7.984832c.300117-.0014.58391-.130709.773957-.352583.190048-.221873.266519-.513185.208552-.794461l-2.853954-14.56895c1.69963-.760092 2.853954-2.614445 2.853954-4.525508 0-2.632706-2.234332-4.766936-4.99052-4.766936s-4.99052 2.13423-4.99052 4.766936z" fill="#fff" fill-rule="evenodd"/></svg>