<svg height="48" width="48" xmlns="http://www.w3.org/2000/svg" xmlns:xlink="http://www.w3.org/1999/xlink"><linearGradient id="a" gradientTransform="matrix(.30902336 0 0 .30380027 -64.017299 1.993676)" gradientUnits="userSpaceOnUse" x1="288.11157" x2="287.57547" y1="141.78452" y2="79.007812"><stop offset="0" stop-opacity=".046875"/><stop offset="1" stop-opacity="0"/></linearGradient><path d="m2.7498407 26.220541v1.668528c0 9.574276 5.6792096 17.282199 17.4405083 17.282199h7.049592c15.392533 0 18.143072-11.322632 18.143072-17.282199v-1.668528c0 5.959567-2.750539 17.282198-18.143072 17.282198h-7.049592c-11.7612987 0-17.4405083-7.707923-17.4405083-17.282198z" fill="url(#a)"/><path d="m19.648602 2.7423187h8.641122c14.146859 0 17.09331 11.2468653 17.09331 17.2820843v7.123176c0 5.959564-2.750662 17.282082-18.143195 17.282082h-7.049246c-11.7612986 0-17.4407218-7.707808-17.4407218-17.282082v-7.123176c0-9.574274 5.5642262-17.2820843 16.8987308-17.2820843z" style="fill:#4a90e2;stroke:#000;stroke-width:.337041;stroke-linecap:square;stroke-linejoin:bevel;stroke-opacity:.078125"/><g fill-rule="evenodd"><g fill="none" transform="matrix(.98002527 0 0 1.0188699 16.226252 15.435031)"><g stroke="#fff"><g stroke-width="1.2"><circle cx="8" cy="8" r="7.333334"/><path d="m15 10c-9.0065455 1.655273-12.5305454-3.836-13.5-5.5"/><path d="m2 12c.3694546-1.934545 1.6123636-7.9512727 10-10"/><path d="m12 14c.708364-8.7323636-5.1963636-11.5705454-7-12.5"/></g><path d="m11.916364 10.224s-3.7156367 1.821091-5.916364 4.776" stroke-width="1.12"/></g><g fill="#fff"><circle cx="8.004444" cy="3.058667" r="1.306667"/><circle cx="3.306667" cy="7.306667" r="1.306667"/><circle cx="11.973333" cy="10.195556" r="1.306667"/></g></g><path d="m23 29-9 3.967574v2.03732l9 3.995106v-1.857142l-7.5-3.142858 7.5-3.142858z" fill="#fff" transform="matrix(.98002527 0 0 1.0188699 -7.294354 -11.055588)"/><path d="m50 29-9 3.967574v2.03732l9 3.995106v-1.857142l-7.5-3.142858 7.5-3.142858z" fill="#fff" transform="matrix(-.98002527 0 0 1.0188699 81.887942 -11.055588)"/></g></svg>