<svg height="48" width="48" xmlns="http://www.w3.org/2000/svg" xmlns:xlink="http://www.w3.org/1999/xlink"><linearGradient id="a" gradientTransform="matrix(.30902336 0 0 .30380027 -64.017299 1.993676)" gradientUnits="userSpaceOnUse" x1="288.11157" x2="287.57547" y1="141.78452" y2="79.007812"><stop offset="0" stop-opacity=".046875"/><stop offset="1" stop-opacity="0"/></linearGradient><path d="m2.7498407 26.220541v1.668528c0 9.574276 5.6792096 17.282199 17.4405083 17.282199h7.049592c15.392533 0 18.143072-11.322632 18.143072-17.282199v-1.668528c0 5.959567-2.750539 17.282198-18.143072 17.282198h-7.049592c-11.7612987 0-17.4405083-7.707923-17.4405083-17.282198z" fill="url(#a)"/><path d="m19.648602 2.7423187h8.641122c14.146859 0 17.09331 11.2468653 17.09331 17.2820843v7.123176c0 5.959564-2.750662 17.282082-18.143195 17.282082h-7.049246c-11.7612986 0-17.4407218-7.707808-17.4407218-17.282082v-7.123176c0-9.574274 5.5642262-17.2820843 16.8987308-17.2820843z" style="fill:#eaaa4e;stroke:#000;stroke-width:.337041;stroke-linecap:square;stroke-linejoin:bevel;stroke-opacity:.078125"/><path d="m75.914239 23.468331-.223414.06291c-.390333.108626-3.870676 1.132942-4.758955 1.401224l-.854616.258119 1.262403.405619c.694307.22241 2.001382.638255 2.906562.924026l1.646329.518408.353561-.114966c4.429588-1.435931 5.292546-1.719009 5.292546-1.746106.000001-.01078-1.266622-.400942-2.813292-.865462zm-8.507119 3.470521c-.01873-.02694-.024-.0045-.01302.06074.01901.113247.08145 9.276209.06724 9.877977l-.0086.357897.184371.05423c.101964.03009 1.230245.412748 2.505284.850277 1.275039.437531 2.739929.940221 3.255783 1.117076.515856.176854.948596.322143.960903.323192.04333.0037.06944-3.028354.05855-6.667741l-.01091-3.678755-1.062849-.344884c-.583959-.189059-2.151094-.695775-3.483508-1.125756-1.332416-.429983-2.436424-.800117-2.453227-.824248zm16.901446.127982c-.0906.0269-6.694047 2.071641-6.836929 2.117018l-.121474.03688.02386 4.021469c.01285 2.211719.02383 4.552882.02385 5.201446v1.179978l.07808-.02603c.0438-.01336 1.61044-.546517 3.4792-1.184315l3.396774-1.158288.0086-5.103838c.0085-4.849711.0068-5.101817-.05205-5.084316z" fill="#fff" transform="matrix(1.1254777 0 0 1.1254777 -60.21742505864 -11.17092821394)"/></svg>