<svg height="48" width="48" xmlns="http://www.w3.org/2000/svg" xmlns:xlink="http://www.w3.org/1999/xlink"><linearGradient id="a" gradientTransform="matrix(.30902336 0 0 .30380027 -64.017299 1.993676)" gradientUnits="userSpaceOnUse" x1="288.11157" x2="287.57547" y1="141.78452" y2="79.007812"><stop offset="0" stop-opacity=".046875"/><stop offset="1" stop-opacity="0"/></linearGradient><path d="m2.7498407 26.220541v1.668528c0 9.574276 5.6792096 17.282199 17.4405083 17.282199h7.049592c15.392533 0 18.143072-11.322632 18.143072-17.282199v-1.668528c0 5.959567-2.750539 17.282198-18.143072 17.282198h-7.049592c-11.7612987 0-17.4405083-7.707923-17.4405083-17.282198z" fill="url(#a)"/><path d="m19.648602 2.7423187h8.641122c14.146859 0 17.09331 11.2468653 17.09331 17.2820843v7.123176c0 5.959564-2.750662 17.282082-18.143195 17.282082h-7.049246c-11.7612986 0-17.4407218-7.707808-17.4407218-17.282082v-7.123176c0-9.574274 5.5642262-17.2820843 16.8987308-17.2820843z" style="fill:#26a65b;stroke:#000;stroke-width:.337041;stroke-linecap:square;stroke-linejoin:bevel;stroke-opacity:.078125"/><path d="m17.066453 14.58599h1v-3h-1zm3 1h1v-4h-1zm7 0h1v-4h-1zm3-1.5h1v-2.5h-1zm-7 1.5h2v-1h-2zm-11 2h3v-1h-3zm5 13h14v-14h-14zm16-13h3v-1h-3zm-21 3h4v-1h-4zm20 0h4v-1h-4zm-17 4h1v-3h-1zm17 0h1v-3h-1zm-20 2h4v-1h-4zm17-1v3h-3zm3 1h4v-1h-4zm-20 3h3v-1h-3zm21 0h3v-1h-3zm-13 6h1v-4h-1zm3-3h2v-1h-2zm4 3h1v-4h-1zm-10 0h1v-3h-1zm13 0h1v-3h-1z" fill="#fff" fill-rule="evenodd"/></svg>