<svg height="48" width="48" xmlns="http://www.w3.org/2000/svg" xmlns:xlink="http://www.w3.org/1999/xlink"><linearGradient id="a" gradientTransform="matrix(.30902336 0 0 .30380027 -64.017299 1.993676)" gradientUnits="userSpaceOnUse" x1="288.11157" x2="287.57547" y1="141.78452" y2="79.007812"><stop offset="0" stop-opacity=".046875"/><stop offset="1" stop-opacity="0"/></linearGradient><path d="m2.7498407 26.220541v1.668528c0 9.574276 5.6792096 17.282199 17.4405083 17.282199h7.049592c15.392533 0 18.143072-11.322632 18.143072-17.282199v-1.668528c0 5.959567-2.750539 17.282198-18.143072 17.282198h-7.049592c-11.7612987 0-17.4405083-7.707923-17.4405083-17.282198z" fill="url(#a)"/><path d="m19.648602 2.7423187h8.641122c14.146859 0 17.09331 11.2468653 17.09331 17.2820843v7.123176c0 5.959564-2.750662 17.282082-18.143195 17.282082h-7.049246c-11.7612986 0-17.4407218-7.707808-17.4407218-17.282082v-7.123176c0-9.574274 5.5642262-17.2820843 16.8987308-17.2820843z" style="fill:#c5a981;stroke:#000;stroke-width:.337041;stroke-linecap:square;stroke-linejoin:bevel;stroke-opacity:.078125"/><path d="m35.413337 20.531048c.918002-1.085002.862002-2.679005-.127-3.668007l-4.499008-4.497008c-.989002-.989001-2.585004-1.045002-3.671006-.126l-6.070011 4.800009c-1.222002 1.034001-1.315003 2.882005-.200001 3.996007l5.771011 5.76901c1.116002 1.116002 2.965005 1.023002 4.000007-.201001zm-6.05801-6.734012 4.499007 4.498008c.243001.242.247001.651001.012.930001l-.891001 1.055002-5.60401-5.60301 1.055002-.892001c.277-.236001.686001-.230001.929002.012zm-4.916009 13.658024-8.130015 8.131014h-2.828005l-.707001-.707001 7.292013-7.293013-.707001-.707001-7.292013 7.293013-.001-2.828005 8.130014-8.130015z" fill="#fff" fill-rule="evenodd"/></svg>