<svg height="48" width="48" xmlns="http://www.w3.org/2000/svg" xmlns:xlink="http://www.w3.org/1999/xlink"><linearGradient id="a" gradientTransform="matrix(.30902336 0 0 .30380027 -64.017299 1.993676)" gradientUnits="userSpaceOnUse" x1="288.11157" x2="287.57547" y1="141.78452" y2="79.007812"><stop offset="0" stop-opacity=".046875"/><stop offset="1" stop-opacity="0"/></linearGradient><path d="m2.7498407 26.220541v1.668528c0 9.574276 5.6792096 17.282199 17.4405083 17.282199h7.049592c15.392533 0 18.143072-11.322632 18.143072-17.282199v-1.668528c0 5.959567-2.750539 17.282198-18.143072 17.282198h-7.049592c-11.7612987 0-17.4405083-7.707923-17.4405083-17.282198z" fill="url(#a)"/><path d="m19.648602 2.7423187h8.641122c14.146859 0 17.09331 11.2468653 17.09331 17.2820843v7.123176c0 5.959564-2.750662 17.282082-18.143195 17.282082h-7.049246c-11.7612986 0-17.4407218-7.707808-17.4407218-17.282082v-7.123176c0-9.574274 5.5642262-17.2820843 16.8987308-17.2820843z" style="fill:#80bd37;stroke:#000;stroke-width:.337041;stroke-linecap:square;stroke-linejoin:bevel;stroke-opacity:.078125"/><g transform="translate(52.905393 -1.67725)"><path d="m43.5 46.5h-22v-21h22z" fill="none" stroke="#fff" transform="translate(-61.33894 -10.736754)"/><path d="m-33.839184 14.263246.000488 21" fill="none" stroke="#fff"/><path d="m-30.338908 19.262127-3.500032-.00081.000324-1 3.499675.00081-.000081-3.498849 1-.000032.000081 3.499206 3 .000648-.000081-3.499822 1-.000032.000082 3.500178 3 .000649-.000082-3.500795 1-.000032.000082 3.501151 3.500324-.0031-.000324 1-3.499968.0031.000065 3 3.500227-.0031-.000324 1-3.49987.0031.000065 3 3.500129-.0031-.000324 1-3.499773.0031.000179 8.498849-1 .000033-.000179-8.499206-3-.000649.000179 8.499822-1 .000033-.000179-8.500179-3-.000648.000179 8.500794-1 .000033-.000179-8.501152-3.500227-.00081.000324-1 3.499871.00081-.000065-3-3.50013-.00081.000324-1 3.499773.00081zm1 .000325 3 .000648.000065 3-3-.000648zm.000163 7 3 .000648-.000065-3-3-.000648zm3.999837-6.999028 3 .000649.000065 3-3-.000649zm.000163 7 3 .000649-.000065-3-3-.000649z" fill="#fff" fill-rule="evenodd" opacity=".500816"/></g></svg>