<svg height="48" width="48" xmlns="http://www.w3.org/2000/svg" xmlns:xlink="http://www.w3.org/1999/xlink"><linearGradient id="a" gradientTransform="matrix(.30902336 0 0 .30380027 -64.017299 1.993676)" gradientUnits="userSpaceOnUse" x1="288.11157" x2="287.57547" y1="141.78452" y2="79.007812"><stop offset="0" stop-opacity=".046875"/><stop offset="1" stop-opacity="0"/></linearGradient><path d="m2.7498407 26.220541v1.668528c0 9.574276 5.6792096 17.282199 17.4405083 17.282199h7.049592c15.392533 0 18.143072-11.322632 18.143072-17.282199v-1.668528c0 5.959567-2.750539 17.282198-18.143072 17.282198h-7.049592c-11.7612987 0-17.4405083-7.707923-17.4405083-17.282198z" fill="url(#a)"/><path d="m19.648602 2.7423187h8.641122c14.146859 0 17.09331 11.2468653 17.09331 17.2820843v7.123176c0 5.959564-2.750662 17.282082-18.143195 17.282082h-7.049246c-11.7612986 0-17.4407218-7.707808-17.4407218-17.282082v-7.123176c0-9.574274 5.5642262-17.2820843 16.8987308-17.2820843z" style="fill:#83c032;stroke:#000;stroke-width:.337041;stroke-linecap:square;stroke-linejoin:bevel;stroke-opacity:.078125"/><g fill="#fff" fill-rule="evenodd"><path d="m23.457827 28.537331c-.713948.203904-1.41968.305855-2.117215.305855-1.805387 0-2.974768-.906225-3.508178-2.718699-.320045.05286-.590849.07929-.81242.07929-1.936687 0-3.415852-.707988-4.437536-2.123984-1.021684-1.415994-1.532519-3.471988-1.532519-6.168045 0-2.696056.508783-4.753939 1.526364-6.173711s2.498798-2.1296472 4.443691-2.1296472c1.944894 0 3.428161.7079882 4.449846 2.1239832 1.021685 1.415994 1.53252 3.475767 1.53252 6.179375 0 3.927029-1.066804 6.479559-3.200442 7.657667.303633 1.10259.882168 1.653876 1.735624 1.653876.475966 0 .997058-.05665 1.563293-.169919zm-6.423357-4.014935c-1.120813 0-1.970568-.565036-2.549289-1.695125-.578722-1.130089-.868078-2.772635-.868078-4.927689 0-2.132527.291188-3.771319.873572-4.916427.582384-1.145107 1.430307-1.717651 2.543795-1.717651 2.285582 0 3.428355 2.211338 3.428355 6.634078 0 4.415232-1.142773 6.622814-3.428355 6.622814zm13.696936 1.657112h-1.71143c-.920344 0-3.42286-.414278-3.42286-3.728501v-7.04277h-1.711431v-1.657066h1.711431v-2.899945l2.588007-1.2428786v4.1428236h2.546283v1.657066h-2.546283v7.034633c0 .604158 0 1.665203 1.169923 1.665203.304182 0 .616158-.0302.935938-.09063z"/><path d="m27.603139 37.575839h-.777054v-2.669613s-.388526 1.178127-1.588328 1.178127c-.64824 0-1.193117-.246115-1.634648-.738352-.441532-.492237-.662293-1.156344-.662293-1.99234 0-.784352.200091-1.421023.60028-1.910032.400189-.48901.953827-.732509 1.730882-.732509 1.165581 0 1.554107.99157 1.554107.99157v-.99157h.777054zm-2.314973-2.20805c.456881 0 .827416-.164615 1.111619-.493849.284201-.329235.4263-.811781.4263-1.447654 0-.600368-.147495-1.089371-.442488-1.467021-.294995-.377651-.674525-.566473-1.138601-.566473-.446088 0-.812127.169456-1.098128.508373-.286.338917-.428998.823078-.428998 1.452496 0 .442206.06655.813396.199659 1.11358.133108.300184.321973.525318.566602.675411.244629.150091.512638.225137.804035.225137zm6.68762-4.381696-.305813.803714c-.220318-.125883-.4357-.188824-.646153-.188824-.332122 0-.583675.146054-.754668.438169-.170993.292114-.315678.814951-.315678 1.34108l-.01973 2.670114h-.776496l.01973-5.340228h.776497l-.01973.890865h.01973c.282796-.593913.652728-.890865 1.109805-.890865.302526 0 .606693.09199.912506.275975zm4.858752 3.177686c-.115131.650973-.378286 1.127971-.789473 1.431009-.411185.303039-.876641.454555-1.39638.454555-.759872 0-1.347037-.242908-1.761513-.728732-.414475-.485823-.62171-1.12957-.62171-1.931259 0-.6638.119243-1.195312.35773-1.594554.238488-.399241.537005-.679828.895559-.841769s.735195-.242911 1.129934-.242911c.539475 0 1.000819.136285 1.384045.40886.383225.272574.619243.673413.708058 1.202528l-.858551.129873c-.08882-.343123-.23273-.601263-.431743-.774428-.199014-.173165-.453124-.259746-.762336-.259746-.496713 0-.873353.171559-1.129933.514682s-.384869.822526-.384869 1.438224c0 .628525.125821 1.11354.377468 1.455059.251645.341519.614306.512277 1.087992.512277.381581 0 .681742-.106623.900493-.319872s.356086-.53312.412006-.959618z"/></g></svg>