<svg height="48" width="48" xmlns="http://www.w3.org/2000/svg" xmlns:xlink="http://www.w3.org/1999/xlink"><linearGradient id="a" gradientTransform="matrix(.30902336 0 0 .30380027 -64.017299 1.993676)" gradientUnits="userSpaceOnUse" x1="288.11157" x2="287.57547" y1="141.78452" y2="79.007812"><stop offset="0" stop-opacity=".046875"/><stop offset="1" stop-opacity="0"/></linearGradient><path d="m2.7498407 26.220541v1.668528c0 9.574276 5.6792096 17.282199 17.4405083 17.282199h7.049592c15.392533 0 18.143072-11.322632 18.143072-17.282199v-1.668528c0 5.959567-2.750539 17.282198-18.143072 17.282198h-7.049592c-11.7612987 0-17.4405083-7.707923-17.4405083-17.282198z" fill="url(#a)"/><path d="m19.648602 2.7423187h8.641122c14.146859 0 17.09331 11.2468653 17.09331 17.2820843v7.123176c0 5.959564-2.750662 17.282082-18.143195 17.282082h-7.049246c-11.7612986 0-17.4407218-7.707808-17.4407218-17.282082v-7.123176c0-9.574274 5.5642262-17.2820843 16.8987308-17.2820843z" style="fill:#a73845;stroke:#000;stroke-width:.337041;stroke-linecap:square;stroke-linejoin:bevel;stroke-opacity:.078125"/><g fill="none" fill-rule="evenodd" stroke="#fff" transform="translate(12.066453 11.08599)"><g stroke-linecap="round" stroke-linejoin="round"><path d="m16.333333 3.5000305 4-.000061"/><path d="m16.333333 9.5000305 4-.000061"/><path d="m16.333333 15.50003 4-.00006"/><path d="m16.333333 21.50003 4-.000061"/></g><path d="m.5 2.4979131c0-1.1034169.9016273-1.9979131 2.0008642-1.9979131h18.9982718c1.105047 0 2.000864.8982606 2.000864 1.9979131v2.0041738c0 1.1034169-.901627 1.9979131-2.000864 1.9979131h-18.9982718c-1.1050468 0-2.0008642-.8982606-2.0008642-1.9979131z"/><path d="m.5 8.4979131c0-1.1034169.9016273-1.9979131 2.0008642-1.9979131h18.9982718c1.105047 0 2.000864.8982606 2.000864 1.9979131v2.0041739c0 1.103417-.901627 1.997913-2.000864 1.997913h-18.9982718c-1.1050468 0-2.0008642-.898261-2.0008642-1.997913z"/><path d="m.5 14.497913c0-1.103417.9016273-1.997913 2.0008642-1.997913h18.9982718c1.105047 0 2.000864.898261 2.000864 1.997913v2.004174c0 1.103417-.901627 1.997913-2.000864 1.997913h-18.9982718c-1.1050468 0-2.0008642-.898261-2.0008642-1.997913z"/><path d="m.5 20.497913c0-1.103417.9016273-1.997913 2.0008642-1.997913h18.9982718c1.105047 0 2.000864.898261 2.000864 1.997913v2.004174c0 1.103417-.901627 1.997913-2.000864 1.997913h-18.9982718c-1.1050468 0-2.0008642-.898261-2.0008642-1.997913z"/></g></svg>