<svg height="48" width="48" xmlns="http://www.w3.org/2000/svg" xmlns:xlink="http://www.w3.org/1999/xlink"><linearGradient id="a" gradientTransform="matrix(.30902336 0 0 .30380027 -64.017299 1.993676)" gradientUnits="userSpaceOnUse" x1="288.11157" x2="287.57547" y1="141.78452" y2="79.007812"><stop offset="0" stop-opacity=".046875"/><stop offset="1" stop-opacity="0"/></linearGradient><path d="m2.7498407 26.220541v1.668528c0 9.574276 5.6792096 17.282199 17.4405083 17.282199h7.049592c15.392533 0 18.143072-11.322632 18.143072-17.282199v-1.668528c0 5.959567-2.750539 17.282198-18.143072 17.282198h-7.049592c-11.7612987 0-17.4405083-7.707923-17.4405083-17.282198z" fill="url(#a)"/><path d="m19.648602 2.7423187h8.641122c14.146859 0 17.09331 11.2468653 17.09331 17.2820843v7.123176c0 5.959564-2.750662 17.282082-18.143195 17.282082h-7.049246c-11.7612986 0-17.4407218-7.707808-17.4407218-17.282082v-7.123176c0-9.574274 5.5642262-17.2820843 16.8987308-17.2820843z" style="fill:#33c2c2;stroke:#000;stroke-width:.337041;stroke-linecap:square;stroke-linejoin:bevel;stroke-opacity:.078125"/><path d="m24.090731 16.046407c1.182506 0 2.142221-.572876 2.142221-1.133659v-2.265805c0-.627291-.959715-1.136682-2.142221-1.136682s-2.142221.509391-2.142221 1.136682v.0031 2.267316c.0014.560783.962572 1.129124 2.142221 1.129124zm0 6.02955c1.182506 0 2.142221-.572875 2.142221-1.133658v-2.264294c0-.62729-.959715-1.136682-2.142221-1.136682s-2.142221.509392-2.142221 1.136682v.0031 2.267317c.0014.560782.962572 1.127611 2.142221 1.127611zm5.691169-2.998904c1.182506 0 2.142221-.572875 2.142221-1.133658v-2.264294c0-.627291-.959715-1.136681-2.142221-1.136681-1.182507 0-2.142222.50939-2.142222 1.136681v.0031 2.267317c0 .559272.961143 1.127613 2.142222 1.127613zm3.570368-2.862865v1.729207c0 1.507009-1.535258 2.643691-3.570368 2.643691-.80976 0-1.533831-.18592-2.119372-.495786v.852511c0 1.507009-1.535258 2.643691-3.570368 2.643691s-3.570369-1.135171-3.570369-2.639157v-.908439c-.594109.326494-1.33389.524507-2.165071.524507-2.035111 0-3.570369-1.13517-3.570369-2.639157v-1.691418l-1.442429.506368v12.609303l10.722531 6.31221 10.722531-6.303141v-12.639534zm-14.995548 2.838681c1.182506 0 2.142221-.572876 2.142221-1.133659v-2.264294c0-.627291-.959715-1.136681-2.142221-1.136681-1.182507 0-2.142222.50939-2.142222 1.136681v.0031 2.267317c0 .560783.961143 1.127612 2.142222 1.127612z" fill="#fff" fill-rule="evenodd"/></svg>