<svg height="48" width="48" xmlns="http://www.w3.org/2000/svg" xmlns:xlink="http://www.w3.org/1999/xlink"><linearGradient id="a" gradientTransform="matrix(.30902336 0 0 .30380027 -64.017299 1.993676)" gradientUnits="userSpaceOnUse" x1="288.11157" x2="287.57547" y1="141.78452" y2="79.007812"><stop offset="0" stop-opacity=".046875"/><stop offset="1" stop-opacity="0"/></linearGradient><path d="m2.7498407 26.220541v1.668528c0 9.574276 5.6792096 17.282199 17.4405083 17.282199h7.049592c15.392533 0 18.143072-11.322632 18.143072-17.282199v-1.668528c0 5.959567-2.750539 17.282198-18.143072 17.282198h-7.049592c-11.7612987 0-17.4405083-7.707923-17.4405083-17.282198z" fill="url(#a)"/><path d="m19.648602 2.7423187h8.641122c14.146859 0 17.09331 11.2468653 17.09331 17.2820843v7.123176c0 5.959564-2.750662 17.282082-18.143195 17.282082h-7.049246c-11.7612986 0-17.4407218-7.707808-17.4407218-17.282082v-7.123176c0-9.574274 5.5642262-17.2820843 16.8987308-17.2820843z" style="fill:#83c032;stroke:#000;stroke-width:.337041;stroke-linecap:square;stroke-linejoin:bevel;stroke-opacity:.078125"/><g fill="#fff" fill-rule="evenodd" transform="matrix(.84543488 0 0 .80889035 46.617994 1.778918)"><path d="m-28.147325 31.22912c-.83433.246095-1.659057.369141-2.474206.369141-2.109799 0-3.476353-1.093739-4.099703-3.28125-.37401.0638-.690475.0957-.949405.0957-2.263238 0-3.991809-.854484-5.185763-2.563477-1.193955-1.70899-1.790923-4.19041-1.790923-7.444333 0-3.253922.594571-5.737621 1.78373-7.451172 1.189159-1.71355 2.920128-2.570312 5.192956-2.570312 2.272829 0 4.006195.854484 5.200149 2.563477 1.193955 1.708992 1.790923 4.19497 1.790923 7.458007 0 4.739607-1.246681 7.820306-3.740079 9.242188.354829 1.330736 1.030914 1.996094 2.028273 1.996094.55622 0 1.165176-.06836 1.826885-.205079zm-7.506421-4.845703c-1.309797 0-2.302832-.681953-2.979133-2.045879-.676301-1.363927-1.014446-3.346348-1.014446-5.947324 0-2.573788.340285-4.551678 1.020867-5.93373.680581-1.382052 1.671475-2.073067 2.972712-2.073067 2.670961 0 4.006421 2.668906 4.006421 8.006797 0 5.328829-1.33546 7.993203-4.006421 7.993203zm16.006421 2h-2c-1.075526 0-4-.5-4-4.5v-8.500055h-2v-1.999945h2v-3.5l3.02438-1.500055v5.000055h2.97562v1.999945h-2.97562v8.490234c0 .729171 0 2.009766 1.367187 2.009766.355471 0 .72005-.03646 1.09375-.109375z"/><path d="m-23.647325 45.383417h-1v-3.5s-.5 1.544585-2.044039 1.544585c-.834228 0-1.535437-.322669-2.103648-.968018-.568212-.645348-.852313-1.516026-.852313-2.61206 0-1.028326.2575-1.863034.772508-2.504151.515008-.641116 1.227492-.960356 2.227492-.960356 1.5 0 2 1.299999 2 1.299999v-1.299999h1zm-2.979167-2.894868c.587966 0 1.064813-.215818 1.430556-.647461s.548611-1.064286.548611-1.897949c0-.787114-.189813-1.428221-.569444-1.92334-.379632-.49512-.868053-.742676-1.465278-.742676-.574077 0-1.045137.222166-1.413195.666504-.368057.444338-.552083 1.079097-.552083 1.904297 0 .579755.08565 1.066404.256944 1.459961.171298.393556.414351.688719.729167.885498.314816.196778.65972.295166 1.034722.295166zm8.60638-5.744629-.393555 1.053711c-.28353-.16504-.560708-.247559-.831543-.247559-.427411 0-.751138.191486-.971191.574463s-.40625 1.068443-.40625 1.758225l-.02539 3.500657h-.999283l.02539-7.001314h.999283l-.02539 1.167969h.02539c.363934-.77865.840003-1.167969 1.428222-1.167969.389325 0 .78076.120605 1.174317.361817zm6.252787 4.166111c-.148165.853458-.486822 1.478827-1.015983 1.876126-.52916.3973-1.128161.595946-1.797019.595946-.977888 0-1.733518-.318465-2.266912-.955405-.533393-.63694-.800086-1.480926-.800086-2.531982 0-.870275.153454-1.567115.460367-2.090541s.691078-.89129 1.152506-1.103603c.461427-.212314.946131-.318469 1.454125-.318469.694258 0 1.287967.178677 1.781145.536036.493177.35736.796911.88288.911209 1.576577l-1.104881.17027c-.114299-.449852-.299502-.788287-.555616-1.015315-.256113-.227028-.583129-.340541-.981058-.340541-.639226 0-1.123929.224923-1.454125.674775s-.495292 1.078374-.495292 1.885586c0 .824028.161921 1.459908.485767 1.907657.323846.44775.790558.671622 1.400151.671622.491061 0 .877342-.139788 1.158855-.419369.281514-.279581.458251-.698947.530216-1.258108z"/></g></svg>