<svg height="48" width="48" xmlns="http://www.w3.org/2000/svg" xmlns:xlink="http://www.w3.org/1999/xlink"><linearGradient id="a" gradientTransform="matrix(.30902336 0 0 .30380027 -64.017299 1.993676)" gradientUnits="userSpaceOnUse" x1="288.11157" x2="287.57547" y1="141.78452" y2="79.007812"><stop offset="0" stop-opacity=".046875"/><stop offset="1" stop-opacity="0"/></linearGradient><path d="m2.7498407 26.220541v1.668528c0 9.574276 5.6792096 17.282199 17.4405083 17.282199h7.049592c15.392533 0 18.143072-11.322632 18.143072-17.282199v-1.668528c0 5.959567-2.750539 17.282198-18.143072 17.282198h-7.049592c-11.7612987 0-17.4405083-7.707923-17.4405083-17.282198z" fill="url(#a)"/><path d="m19.648602 2.7423187h8.641122c14.146859 0 17.09331 11.2468653 17.09331 17.2820843v7.123176c0 5.959564-2.750662 17.282082-18.143195 17.282082h-7.049246c-11.7612986 0-17.4407218-7.707808-17.4407218-17.282082v-7.123176c0-9.574274 5.5642262-17.2820843 16.8987308-17.2820843z" style="fill:#92d700;stroke:#000;stroke-width:.337041;stroke-linecap:square;stroke-linejoin:bevel;stroke-opacity:.078125"/><g fill="#fff" fill-rule="evenodd" transform="translate(12.066453 11.58599)"><path d="m12 24c6.627417 0 12-5.372583 12-12s-5.372583-12-12-12-12 5.372583-12 12 5.372583 12 12 12zm0-21.3333333c-5.1546577 0-9.3333333 4.1786756-9.3333333 9.3333333 0 .36819.2984768.666667.6666666.666667.3681899 0 .6666667-.298477.6666667-.666667 0-4.418278 3.581722-8 8-8 .36819 0 .666667-.2984768.666667-.6666667 0-.3681898-.298477-.6666666-.666667-.6666666zm0 14.6666663c2.945519 0 5.333333-2.387814 5.333333-5.333333 0-2.9455187-2.387814-5.3333333-5.333333-5.3333333-2.9455187 0-5.3333333 2.3878146-5.3333333 5.3333333 0 2.945519 2.3878146 5.333333 5.3333333 5.333333z"/><path d="m12 16c2.209139 0 4-1.790861 4-4s-1.790861-4-4-4-4 1.790861-4 4 1.790861 4 4 4zm0-1.333333c-1.472759 0-2.6666667-1.193908-2.6666667-2.666667s1.1939077-2.6666667 2.6666667-2.6666667 2.666667 1.1939077 2.666667 2.6666667-1.193908 2.666667-2.666667 2.666667z"/></g></svg>