<svg xmlns="http://www.w3.org/2000/svg" height="48" width="48"><linearGradient id="a" gradientTransform="matrix(.30902 0 0 .3038 -64.017 1.994)" gradientUnits="userSpaceOnUse" x1="288.112" x2="287.575" y1="141.785" y2="79.008"><stop offset="0" stop-opacity=".047"/><stop offset="1" stop-opacity="0"/></linearGradient><path d="M2.75 26.22v1.67c0 9.573 5.68 17.281 17.44 17.281h7.05c15.392 0 18.143-11.322 18.143-17.282v-1.668c0 5.96-2.75 17.282-18.143 17.282h-7.05c-11.76 0-17.44-7.708-17.44-17.282z" fill="url(#a)"/><path d="M19.649 2.742h8.64c14.148 0 17.094 11.247 17.094 17.282v7.124c0 5.96-2.75 17.282-18.143 17.282h-7.05c-11.76 0-17.44-7.708-17.44-17.282v-7.124c0-9.574 5.564-17.282 16.899-17.282z" fill="#cc1a0a" stroke="#000" stroke-width=".337" stroke-linecap="square" stroke-linejoin="bevel" stroke-opacity=".078"/><path d="M37.79 27.996c-.65-1.16-2.897-1.524-3.928-1.688-.812-.129-1.642-.167-2.464-.167a30.281 30.281 0 0 0-1.909.063c-.231.016-.46.036-.689.056a16.706 16.706 0 0 1-.68-.75c-1.397-1.653-2.524-3.527-3.442-5.474a21.61 21.61 0 0 0 .557-2.943c.215-1.862.289-3.983-.409-5.757-.24-.613-.883-1.359-1.624-.987-.851.427-1.09 1.637-1.16 2.494a8.323 8.323 0 0 0 .1 2.07c.118.686.309 1.338.516 1.988.194.597.408 1.189.641 1.775-.148.462-.305.915-.47 1.357-.384 1.008-.8 1.965-1.199 2.885l-.618 1.34a45.405 45.405 0 0 1-2.11 4.11c-1.814.64-3.442 1.382-4.794 2.254-.725.468-1.366.977-1.9 1.535-.503.527-1.015 1.211-1.06 1.968-.025.428.144.842.494 1.096.482.36 1.12.336 1.678.219 1.83-.384 3.235-1.957 4.432-3.283a36.13 36.13 0 0 0 2.743-3.474l.007-.01a41.53 41.53 0 0 1 5.459-1.287c.888-.147 1.8-.267 2.73-.352a12.89 12.89 0 0 0 2.13 1.636c.601.37 1.24.681 1.908.914.676.22 1.356.4 2.058.515.354.05.717.074 1.087.06.827-.032 2.014-.349 2.092-1.352a1.4 1.4 0 0 0-.175-.812zM18 29.836c-.387.6-.76 1.14-1.113 1.614-.861 1.172-1.845 2.565-3.27 3.086-.271.099-.627.2-1.003.179-.334-.02-.664-.168-.65-.547.008-.2.106-.453.255-.702.163-.274.365-.524.585-.755.469-.493 1.062-.97 1.745-1.413 1.047-.68 2.297-1.29 3.69-1.836-.08.126-.16.252-.24.374zm4.86-15.042a6.814 6.814 0 0 1-.058-1.875c.033-.305.095-.604.185-.884.076-.237.241-.816.505-.89.433-.124.567.808.616 1.071.28 1.499.033 3.166-.302 4.636-.054.234-.113.464-.174.693a21.642 21.642 0 0 1-.294-.86c-.197-.63-.376-1.266-.479-1.89zm2.978 11.832c-1.63.265-3.18.61-4.638 1.02.175-.05.977-1.57 1.156-1.885a22.96 22.96 0 0 0 2.028-4.676c.874 1.73 1.936 3.385 3.24 4.858.12.133.243.265.367.396-.731.079-1.45.175-2.153.287zm11.022 2.088c-.06.322-.748.506-1.07.557-.948.15-1.952.03-2.86-.275a9.17 9.17 0 0 1-1.796-.837 10.654 10.654 0 0 1-1.595-1.191 23.772 23.772 0 0 1 1.854-.05c.623.006 1.25.038 1.87.12 1.163.129 2.465.528 3.38 1.282.18.149.238.28.217.394z" fill="#fff" stroke="#fff" stroke-width=".379" stroke-linecap="round" stroke-linejoin="round"/></svg>