<svg height="48" width="48" xmlns="http://www.w3.org/2000/svg" xmlns:xlink="http://www.w3.org/1999/xlink"><linearGradient id="a" gradientTransform="matrix(.30902336 0 0 .30380027 -64.017299 1.993676)" gradientUnits="userSpaceOnUse" x1="288.11157" x2="287.57547" y1="141.78452" y2="79.007812"><stop offset="0" stop-opacity=".046875"/><stop offset="1" stop-opacity="0"/></linearGradient><path d="m2.7498407 26.220541v1.668528c0 9.574276 5.6792096 17.282199 17.4405083 17.282199h7.049592c15.392533 0 18.143072-11.322632 18.143072-17.282199v-1.668528c0 5.959567-2.750539 17.282198-18.143072 17.282198h-7.049592c-11.7612987 0-17.4405083-7.707923-17.4405083-17.282198z" fill="url(#a)"/><path d="m19.504784 2.886137h8.641122c14.146859 0 17.09331 11.246865 17.09331 17.282084v7.123176c0 5.959564-2.750662 17.282082-18.143195 17.282082h-7.049246c-11.7612989 0-17.4407221-7.707808-17.4407221-17.282082v-7.123176c0-9.574274 5.5642262-17.282084 16.8987311-17.282084z" style="fill:#4269de;stroke:#000;stroke-width:.337041;stroke-linecap:square;stroke-linejoin:bevel;stroke-opacity:.078125"/><path d="m23 26v18h2l7-9.5 7 9.5h2v-18h-2v14l-7-9-7 9.5v-14.5z" fill="#fff" fill-rule="evenodd" transform="translate(-8.077366 -11.270192)"/></svg>