<svg height="48" width="48" xmlns="http://www.w3.org/2000/svg" xmlns:xlink="http://www.w3.org/1999/xlink"><linearGradient id="a" gradientTransform="matrix(.30902336 0 0 .30380027 -64.017299 1.993676)" gradientUnits="userSpaceOnUse" x1="288.11157" x2="287.57547" y1="141.78452" y2="79.007812"><stop offset="0" stop-opacity=".046875"/><stop offset="1" stop-opacity="0"/></linearGradient><path d="m2.7498407 26.220541v1.668528c0 9.574276 5.6792096 17.282199 17.4405083 17.282199h7.049592c15.392533 0 18.143072-11.322632 18.143072-17.282199v-1.668528c0 5.959567-2.750539 17.282198-18.143072 17.282198h-7.049592c-11.7612987 0-17.4405083-7.707923-17.4405083-17.282198z" fill="url(#a)"/><path d="m19.648602 2.7423187h8.641122c14.146859 0 17.09331 11.2468653 17.09331 17.2820843v7.123176c0 5.959564-2.750662 17.282082-18.143195 17.282082h-7.049246c-11.7612986 0-17.4407218-7.707808-17.4407218-17.282082v-7.123176c0-9.574274 5.5642262-17.2820843 16.8987308-17.2820843z" style="fill:#98be2c;stroke:#000;stroke-width:.337041;stroke-linecap:square;stroke-linejoin:bevel;stroke-opacity:.078125"/><g fill="none" fill-rule="evenodd" transform="translate(13.066453 11.338515)"><g fill="#fff"><path d="m4 8h14v10.997527c0 .55365-.449949 1.002473-1.006846 1.002473h-11.9863085c-.5560654 0-1.0068455-.455761-1.0068455-1.002473z"/><rect height="8" rx="1.5" width="3" x="7" y="17"/><rect height="9" rx="1.5" width="3" y="8"/><rect height="9" rx="1.5" width="3" x="19" y="8"/><rect height="8" rx="1.5" width="3" x="12" y="17"/><path d="m4 7c0-3.3137085 3.1340067-6 7-6 3.865993 0 7 2.6862915 7 6zm4-2c.5522848 0 1-.4477153 1-1s-.4477152-1-1-1-1 .4477153-1 1 .4477152 1 1 1zm6 0c.552285 0 1-.4477153 1-1s-.447715-1-1-1-1 .4477153-1 1 .447715 1 1 1z"/></g><path d="m14 0 2 2" stroke="#fff" stroke-linecap="round" stroke-linejoin="round" transform="matrix(-1 0 0 1 30 0)"/><path d="m6 0 2 2" stroke="#fff" stroke-linecap="round" stroke-linejoin="round"/></g></svg>