<svg height="48" width="48" xmlns="http://www.w3.org/2000/svg" xmlns:xlink="http://www.w3.org/1999/xlink"><linearGradient id="a" gradientTransform="matrix(.30902336 0 0 .30380027 -64.017299 1.993676)" gradientUnits="userSpaceOnUse" x1="288.11157" x2="287.57547" y1="141.78452" y2="79.007812"><stop offset="0" stop-opacity=".046875"/><stop offset="1" stop-opacity="0"/></linearGradient><path d="m2.7498407 26.220541v1.668528c0 9.574276 5.6792096 17.282199 17.4405083 17.282199h7.049592c15.392533 0 18.143072-11.322632 18.143072-17.282199v-1.668528c0 5.959567-2.750539 17.282198-18.143072 17.282198h-7.049592c-11.7612987 0-17.4405083-7.707923-17.4405083-17.282198z" fill="url(#a)"/><path d="m19.648602 2.7423187h8.641122c14.146859 0 17.09331 11.2468653 17.09331 17.2820843v7.123176c0 5.959564-2.750662 17.282082-18.143195 17.282082h-7.049246c-11.7612986 0-17.4407218-7.707808-17.4407218-17.282082v-7.123176c0-9.574274 5.5642262-17.2820843 16.8987308-17.2820843z" style="fill:#ff740f;stroke:#000;stroke-width:.337041;stroke-linecap:square;stroke-linejoin:bevel;stroke-opacity:.078125"/><g fill-rule="evenodd" transform="translate(45.907335 .39955)"><g fill="#fff" transform="translate(-32.340882 13.68644)"><path d="m14 6c-1.104569 0-2 .8954305-2 2s.895431 2 2 2c1.10457 0 2-.8954305 2-2h-2zm-14-4 11-2v19l-11-2zm12 2h7v10c0 .552285-.447715 1-1 1h-6zm1 7v1h5v-1zm0 2v1h5v-1zm2-8v2h2c-.006938-1.1057647-.89971-2-2-2z"/><path d="m20 10v-6.5c0-.2761424-.223858-.5-.5-.5h-5.5v-1h6c.552285 0 1 .4477153 1 1v6c0 .5522848-.447715 1-1 1z"/></g><text fill="#ff740f" font-family="BanglaSangamMN-Bold, 'Bangla Sangam MN'" font-size="14" font-weight="bold" x="-46.340881" y="-2.313561"><tspan x="-30.674866" y="28.68644">P</tspan></text></g></svg>