<svg height="48" width="48" xmlns="http://www.w3.org/2000/svg" xmlns:xlink="http://www.w3.org/1999/xlink"><linearGradient id="a" gradientTransform="matrix(.30902336 0 0 .30380027 -64.017299 1.993676)" gradientUnits="userSpaceOnUse" x1="288.11157" x2="287.57547" y1="141.78452" y2="79.007812"><stop offset="0" stop-opacity=".046875"/><stop offset="1" stop-opacity="0"/></linearGradient><path d="m2.7498407 26.220541v1.668528c0 9.574276 5.6792096 17.282199 17.4405083 17.282199h7.049592c15.392533 0 18.143072-11.322632 18.143072-17.282199v-1.668528c0 5.959567-2.750539 17.282198-18.143072 17.282198h-7.049592c-11.7612987 0-17.4405083-7.707923-17.4405083-17.282198z" fill="url(#a)"/><path d="m19.648602 2.7423187h8.641122c14.146859 0 17.09331 11.2468653 17.09331 17.2820843v7.123176c0 5.959564-2.750662 17.282082-18.143195 17.282082h-7.049246c-11.7612986 0-17.4407218-7.707808-17.4407218-17.282082v-7.123176c0-9.574274 5.5642262-17.2820843 16.8987308-17.2820843z" style="fill:#4a90e2;stroke:#000;stroke-width:.337041;stroke-linecap:square;stroke-linejoin:bevel;stroke-opacity:.078125"/><g fill="none" fill-rule="evenodd"><g stroke="#fff" stroke-width="1.12" transform="translate(12.111907 11.588112)"><circle cx="11.954546" cy="11.997878" r="11.454546"/><path d="m23.114182 14.897455c-13.5098184 2.482909-19.574182-6.0916368-21.0283638-8.5876368"/><path d="m2.3803636 18.166909c.5541819-2.901818 3.3338182-12.682909 15.9152724-15.7559999"/><path d="m18.181091 21.663273c1.062545-13.0985457-7.999637-18.7789094-10.705091-20.1730912"/><path d="m17.874545 15.336s-6.031636 3.142909-9.3327268 7.575273"/></g><g fill="#fff"><circle cx="24.118574" cy="16.842779" r="1.96"/><circle cx="17.77724" cy="22.416112" r="1.96"/><circle cx="30.071906" cy="27.548112" r="1.96"/></g></g></svg>