<svg height="48" width="48" xmlns="http://www.w3.org/2000/svg" xmlns:xlink="http://www.w3.org/1999/xlink"><linearGradient id="a" gradientTransform="matrix(.30902336 0 0 .30380027 -64.017299 1.993676)" gradientUnits="userSpaceOnUse" x1="288.11157" x2="287.57547" y1="141.78452" y2="79.007812"><stop offset="0" stop-opacity=".046875"/><stop offset="1" stop-opacity="0"/></linearGradient><path d="m2.7498407 26.220541v1.668528c0 9.574276 5.6792096 17.282199 17.4405083 17.282199h7.049592c15.392533 0 18.143072-11.322632 18.143072-17.282199v-1.668528c0 5.959567-2.750539 17.282198-18.143072 17.282198h-7.049592c-11.7612987 0-17.4405083-7.707923-17.4405083-17.282198z" fill="url(#a)"/><path d="m19.648602 2.7423187h8.641122c14.146859 0 17.09331 11.2468653 17.09331 17.2820843v7.123176c0 5.959564-2.750662 17.282082-18.143195 17.282082h-7.049246c-11.7612986 0-17.4407218-7.707808-17.4407218-17.282082v-7.123176c0-9.574274 5.5642262-17.2820843 16.8987308-17.2820843z" style="fill:#258bff;stroke:#000;stroke-width:.337041;stroke-linecap:square;stroke-linejoin:bevel;stroke-opacity:.078125"/><path d="m444.74033 517.91377c-.28376.0507-.54924.20657-.72512.44937-.4154.57343-.20608 1.40446.43235 1.71918.23778.11713.69267.12584.9464.0174.23172-.0993.54474-.42124.6298-.64683.17646-.46807-.0228-1.06746-.45618-1.36852-.24182-.16803-.54349-.22102-.82725-.1703zm9.944.38468c-.0607-.0652-.30146.10406-1.34472.9464l-1.26979 1.0247.33702.41192c.32439.39943 4.50552 5.59195 4.62986 5.74989.0469.0596-.49353.63266-2.29791 2.43747l-2.35919 2.35919 1.18131 1.18129 1.18128 1.18131 3.38048-3.37708c2.07374-2.07351 3.3621-3.40376 3.33282-3.44176-.21427-.27804-6.71441-8.41229-6.77116-8.47333zm-12.67426 7.46907c-.5053-.003-.59611.0122-.91234.1668-1.46496.71927-1.64542 2.72978-.32682 3.65622.17498.12288.43828.2623.58553.3098.42028.13561 1.15013.0814 1.54556-.11573.4383-.21856.84055-.62953 1.03833-1.06216.13944-.30495.16332-.43707.16332-.86129 0-.65145-.18896-1.09908-.65023-1.53534-.463-.43788-.76027-.55308-1.44344-.5583zm5.87925 9.80441c-.71293 0-.99024.10388-1.47066.5583-.45322.42862-.64744.8844-.64682 1.5081.001 1.00805.60889 1.82225 1.55236 2.07664.99468.26819 1.97817-.1907 2.49196-1.16088.12271-.23159.13996-.34471.13961-.88512-.0004-.53069-.0214-.66035-.13961-.89872-.20721-.41829-.54659-.77148-.96341-.99748-.35449-.1922-.4026-.20084-.96343-.20084z" fill="#fff" stroke="#fff" stroke-width=".053176" transform="translate(-425.52797 -504.22843)"/></svg>