<svg height="48" width="48" xmlns="http://www.w3.org/2000/svg" xmlns:xlink="http://www.w3.org/1999/xlink"><linearGradient id="a" gradientTransform="matrix(.30902336 0 0 .30380027 -64.017299 1.993676)" gradientUnits="userSpaceOnUse" x1="288.11157" x2="287.57547" y1="141.78452" y2="79.007812"><stop offset="0" stop-opacity=".046875"/><stop offset="1" stop-opacity="0"/></linearGradient><path d="m2.7498407 26.220541v1.668528c0 9.574276 5.6792096 17.282199 17.4405083 17.282199h7.049592c15.392533 0 18.143072-11.322632 18.143072-17.282199v-1.668528c0 5.959567-2.750539 17.282198-18.143072 17.282198h-7.049592c-11.7612987 0-17.4405083-7.707923-17.4405083-17.282198z" fill="url(#a)"/><path d="m19.648602 2.7423187h8.641122c14.146859 0 17.09331 11.2468653 17.09331 17.2820843v7.123176c0 5.959564-2.750662 17.282082-18.143195 17.282082h-7.049246c-11.7612986 0-17.4407218-7.707808-17.4407218-17.282082v-7.123176c0-9.574274 5.5642262-17.2820843 16.8987308-17.2820843z" style="fill:#22a7f0;stroke:#000;stroke-width:.337041;stroke-linecap:square;stroke-linejoin:bevel;stroke-opacity:.078125"/><path d="m13.288909 33.253827c0 1.52073 1.205083 2.753525 2.686384 2.753525h16.182321c1.483648 0 2.686383-1.231954 2.686383-2.753525v-19.335675c0-1.52073-1.205083-2.753525-2.686383-2.753525h-16.182321c-1.483649 0-2.686384 1.231954-2.686384 2.753525zm18.868646-21.169099c.987659 0 1.788314.81859 1.788314 1.832063v18.410157s-.449065-.920101-1.796258-.920101h-16.166316c-1.347193 0-1.796257.920101-1.796257.920101v-18.410157c0-1.011821.799041-1.832063 1.788313-1.832063zm-11.683617 6.440706c0 2.038944 1.602262 3.680404 3.592515 3.680404s3.592515-1.64146 3.592515-3.680404c0-2.038943-1.602262-3.680403-3.592515-3.680403s-3.592515 1.64146-3.592515 3.680403zm-2.275727 7.360808h11.736485c-.315942-1.536942-1.252914-2.835919-2.530666-3.680404-.861845.82182-2.034791 1.332283-3.337577 1.332283s-2.475732-.510463-3.337576-1.332283c-1.277753.844485-2.214724 2.143462-2.530666 3.680404zm-2.214916 3.680404h3.592515v-.920101h-3.592515zm4.490643 0h1.796258v-.920101h-1.796258zm2.694386 0h8.981287v-.920101h-8.981287zm8.083159 4.600504c0 .509736-.400566.920101-.898129.920101s-.898129-.410365-.898129-.920101.400566-.920101.898129-.920101.898129.410365.898129.920101z" fill="#fff" fill-rule="evenodd"/></svg>