<svg height="48" width="48" xmlns="http://www.w3.org/2000/svg" xmlns:xlink="http://www.w3.org/1999/xlink"><linearGradient id="a" gradientTransform="matrix(.30902336 0 0 .30380027 -64.017299 1.993676)" gradientUnits="userSpaceOnUse" x1="288.11157" x2="287.57547" y1="141.78452" y2="79.007812"><stop offset="0" stop-opacity=".046875"/><stop offset="1" stop-opacity="0"/></linearGradient><path d="m2.7498407 26.220541v1.668528c0 9.574276 5.6792096 17.282199 17.4405083 17.282199h7.049592c15.392533 0 18.143072-11.322632 18.143072-17.282199v-1.668528c0 5.959567-2.750539 17.282198-18.143072 17.282198h-7.049592c-11.7612987 0-17.4405083-7.707923-17.4405083-17.282198z" fill="url(#a)"/><path d="m19.648602 2.7423187h8.641122c14.146859 0 17.09331 11.2468653 17.09331 17.2820843v7.123176c0 5.959564-2.750662 17.282082-18.143195 17.282082h-7.049246c-11.7612986 0-17.4407218-7.707808-17.4407218-17.282082v-7.123176c0-9.574274 5.5642262-17.2820843 16.8987308-17.2820843z" style="fill:#7f5dc2;stroke:#000;stroke-width:.337041;stroke-linecap:square;stroke-linejoin:bevel;stroke-opacity:.078125"/><g fill="#fff" fill-rule="evenodd" transform="translate(54.912612 1.048371)"><path d="m-26.490662 20.467732c-.757269-.317564-1.290828-1.058119-1.290828-1.929813 0-.872981.534845-1.613535 1.292114-1.929814.100283-.04243.161996-.146568.136282-.25328-.228852-.942407-.601701-1.828244-1.094118-2.633083-.05657-.09257-.173567-.123426-.275137-.081-.75984.311136-1.661105.165853-2.278234-.451276s-.762411-1.517108-.451275-2.276948c.04114-.100284.01157-.217281-.081-.275137-.806124-.492417-1.691961-.865266-2.634369-1.094118-.106711-.02571-.210852.036-.25328.136283-.316278.758554-1.058118 1.294685-1.931099 1.294685-.871694 0-1.612249-.534845-1.929813-1.292114-.04243-.100284-.146568-.161996-.25328-.136283-.942407.230138-1.82953.604272-2.634369 1.097975-.09257.05657-.120855.172282-.081.27128.30985.75984.164567 1.65982-.452562 2.276949-.615843.615843-1.514537.762411-2.273091.453846-.100284-.04114-.214709-.01157-.27128.081-.492417.806124-.865266 1.693247-1.092832 2.635654-.02571.105427.036.210853.136283.25328.754697.317565 1.288256 1.058119 1.288256 1.928528s-.530988 1.608392-1.284399 1.927242c-.100284.04243-.161997.146568-.136283.25328.228852.942408.604272 1.828245 1.097975 2.634369.05657.09128.170996.120855.27128.081.758554-.307278 1.655962-.159425 2.27052.455133.614557.613272.761125 1.51068.455132 2.267949-.03986.100283-.01028.214709.081.271279.806124.493703 1.693247.866552 2.635654 1.095404.105426.02571.210853-.036.25328-.136282.31885-.753412 1.058119-1.2844 1.927242-1.2844.870409 0 1.608393.530988 1.927243 1.2844.04243.100283.146568.161996.25328.136282.942407-.228852 1.82953-.601701 2.635654-1.095404.09257-.05657.120855-.170996.081-.271279-.308564-.758555-.161996-1.657248.453847-2.273092.615844-.615843 1.515823-.761125 2.274377-.452561.100284.04114.21471.01157.27128-.081.493703-.806125.867838-1.691962 1.09669-2.635655.02314-.106712-.03857-.210852-.14014-.253279zm-8.8558 2.568799c-2.481372 0-4.499898-2.018525-4.499898-4.499898 0-2.481372 2.018526-4.499898 4.499898-4.499898 2.481373 0 4.499898 2.018526 4.499898 4.499898 0 2.481373-2.018525 4.499898-4.499898 4.499898z"/><path d="m-17.357811 29.903951c.03867-.628-.024-1.248-.174667-1.841334-.01733-.068-.084-.109333-.154666-.102666-.530667.048-1.061334-.214667-1.325334-.714667s-.182666-1.085333.154667-1.497333c.04533-.05467.048-.133334.0013-.185334-.405333-.458666-.882666-.86-1.424-1.181333-.06133-.036-.137333-.01733-.182666.036-.341334.409333-.902667.6-1.444.433333-.54-.166666-.897334-.638666-.949334-1.169333-.0067-.07067-.06-.129333-.130666-.133333-.628-.03733-1.249334.02533-1.842667.177333-.068.01733-.108.084-.101333.153333.04667.529334-.214667 1.06-.714667 1.324-.498667.264-1.084.182667-1.494667-.153333-.05467-.044-.130666-.048-.184-.0013-.458666.405333-.86.884-1.18 1.424-.036.06133-.01733.137333.036.182666.406667.341334.596.901334.429334 1.441334-.166667.538666-.636.894666-1.164.949333-.07067.0067-.128.06-.132.130667-.03733.628.02533 1.248.177333 1.842666.01733.068.08267.108.152.101334.528-.04533 1.056.217333 1.32.716.264.497333.182667 1.081333-.150667 1.492-.044.05467-.048.130666-.0013.184.405333.46.882667.86 1.424 1.182666.06133.036.137333.01867.182667-.036.341333-.405333.9-.594666 1.44-.428.538666.166667.894666.636.949333 1.164.0067.07067.06.128.130667.132.628.03867 1.248-.024 1.841333-.174666.068-.01733.108-.08267.101333-.153334-.04533-.529333.216-1.057333.714667-1.321333s1.084-.182667 1.496.153333c.05467.044.130667.048.184.0013.46-.405334.861333-.882667 1.182667-1.424.036-.06133.01867-.137334-.036-.182667-.408-.341333-.598667-.902667-.432-1.442667.166666-.541333.64-.897333 1.169333-.949333.06933-.0053.126667-.05867.132-.129332zm-6.849333 2.422666c-1.537334-.473333-2.402667-2.110666-1.929334-3.648.473334-1.537333 2.110667-2.402666 3.648-1.929333 1.537334.473333 2.402667 2.110667 1.929334 3.648-.473334 1.537333-2.110667 2.402667-3.648 1.929333z"/></g><g fill="none" stroke="#fff" stroke-linecap="round" stroke-linejoin="round" transform="matrix(.83715041 0 0 .92279325 3.587347 3.621455)"><path d="m18.6666667 33.3333333 7.3333333 5.3333334-7.3333333 5.3333333" stroke-width="1.2" transform="translate(-9.420522 -7.860387)"/><path d="m17.079478 38.639613h9"/></g></svg>