<svg height="48" width="48" xmlns="http://www.w3.org/2000/svg" xmlns:xlink="http://www.w3.org/1999/xlink"><linearGradient id="a" gradientTransform="matrix(.30902336 0 0 .30380027 -64.017299 1.993676)" gradientUnits="userSpaceOnUse" x1="288.11157" x2="287.57547" y1="141.78452" y2="79.007812"><stop offset="0" stop-opacity=".046875"/><stop offset="1" stop-opacity="0"/></linearGradient><path d="m2.7498407 26.220541v1.668528c0 9.574276 5.6792096 17.282199 17.4405083 17.282199h7.049592c15.392533 0 18.143072-11.322632 18.143072-17.282199v-1.668528c0 5.959567-2.750539 17.282198-18.143072 17.282198h-7.049592c-11.7612987 0-17.4405083-7.707923-17.4405083-17.282198z" fill="url(#a)"/><path d="m19.648602 2.7423187h8.641122c14.146859 0 17.09331 11.2468653 17.09331 17.2820843v7.123176c0 5.959564-2.750662 17.282082-18.143195 17.282082h-7.049246c-11.7612986 0-17.4407218-7.707808-17.4407218-17.282082v-7.123176c0-9.574274 5.5642262-17.2820843 16.8987308-17.2820843z" style="fill:#ffa301;stroke:#000;stroke-width:.337041;stroke-linecap:square;stroke-linejoin:bevel;stroke-opacity:.078125"/><path d="m27.013719 31.667756h-6.925782v-.832031c.609378-.03906 1.115233-.117187 1.517579-.234375.402345-.117189.603515-.261718.603515-.433594 0-.07031-.0078-.15625-.02344-.257813-.01563-.101563-.03906-.191406-.07031-.269531l-1.382812-3.726562h-5.824219c-.218751.546877-.396484 1.023435-.533203 1.429687-.13672.406252-.259765.781248-.369141 1.125-.101563.335939-.171875.609374-.210937.820313-.03906.210938-.05859.382811-.05859.515625 0 .312501.246091.554686.738281.726562s1.046872.273437 1.664063.304688v.832031h-6.2578174v-.832031c.2031264-.01563.4570304-.06055.7617194-.134766.304689-.07422.554687-.173828.75-.298828.312501-.210939.554687-.43164.726562-.66211.171876-.230469.339843-.548826.503907-.955078.835941-2.085948 1.757807-4.429674 2.765625-7.03125 1.007817-2.601575 1.906246-4.917958 2.695312-6.949218h.9375l5.542969 14.34375c.117188.304689.249999.55078.398437.738281.148439.187501.355468.371093.621094.550781.179689.109376.414061.201172.703125.275391.289064.07422.531249.115234.726563.123047zm-6.703125-6.796875-2.519532-6.445313-2.472656 6.445313zm17.941406 6.585937c-.367189.132813-.689452.240234-.966797.322266-.277345.08203-.591795.123047-.943359.123047-.609378 0-1.095702-.142577-1.458985-.427735-.363283-.285157-.595702-.701169-.697265-1.248046h-.07031c-.507815.562502-1.052731.992186-1.634765 1.289062-.582035.296877-1.283199.445313-2.103516.445313-.867192 0-1.580075-.265623-2.138672-.796875-.558596-.531253-.837891-1.226559-.837891-2.085938 0-.445315.0625-.843748.1875-1.195312.125001-.351565.312499-.667968.5625-.949219.195314-.234376.453124-.443359.773438-.626953.320314-.183595.621092-.330078.902344-.439453.351564-.132814 1.064447-.378905 2.138672-.738282 1.074224-.359376 1.798826-.640624 2.173828-.84375v-1.160156c0-.101563-.02148-.296873-.06445-.585937s-.134765-.562499-.275391-.820313c-.156251-.289064-.376952-.541014-.662109-.755859-.285158-.214845-.689451-.322266-1.212891-.322266-.359377 0-.693358.06055-1.001953.181641-.308595.121094-.52539.248046-.650391.380859 0 .156251.03711.386717.111328.691406.07422.304689.111328.585937.111328.84375 0 .273439-.123045.523437-.36914.75-.246095.226564-.587889.339844-1.025391.339844-.390627 0-.677733-.13867-.861328-.416016-.183595-.277345-.275391-.587888-.275391-.93164 0-.359377.126952-.703123.38086-1.03125.253907-.328127.583982-.621093.990234-.878906.351565-.218752.777341-.404297 1.277344-.556641.500002-.152344.988279-.228516 1.464844-.228516.656253 0 1.228513.04492 1.716797.134766.488283.08984.931638.283202 1.330078.580078.398439.289064.701171.681638.908203 1.177734.207032.496097.310547 1.134762.310547 1.916016 0 1.117193-.01172 2.107418-.03516 2.970703-.02344.863286-.03516 1.806636-.03516 2.830078 0 .304689.05273.546875.158203.726563.10547.179688.267577.33203.486328.457031.117189.07031.302734.109375.556641.117188.253908.0078.513671.01172.779297.01172zm-4.089844-6.1875c-.664066.195314-1.246091.386718-1.746094.574219-.500002.187501-.964841.421874-1.394531.703125-.390627.265626-.699217.580076-.925781.943359-.226564.363284-.339844.79492-.339844 1.294922 0 .648441.16992 1.124999.509766 1.429688.339845.304689.771482.457031 1.294922.457031.55469 0 1.042966-.134764 1.464843-.404297.421878-.269532.777343-.587888 1.066407-.955078z" fill="#fff" fill-rule="evenodd"/></svg>