<svg height="48" width="48" xmlns="http://www.w3.org/2000/svg" xmlns:xlink="http://www.w3.org/1999/xlink"><linearGradient id="a" gradientTransform="matrix(.30902 0 0 .3038 -64.017 1.994)" gradientUnits="userSpaceOnUse" x1="288.112" x2="287.575" y1="141.785" y2="79.008"><stop offset="0" stop-opacity=".047"/><stop offset="1" stop-opacity="0"/></linearGradient><path d="m2.75 26.22v1.67c0 9.573 5.68 17.281 17.44 17.281h7.05c15.392 0 18.143-11.322 18.143-17.282v-1.668c0 5.96-2.75 17.282-18.143 17.282h-7.05c-11.76 0-17.44-7.708-17.44-17.282z" fill="url(#a)"/><path d="m19.649 2.742h8.64c14.148 0 17.094 11.247 17.094 17.282v7.124c0 5.96-2.75 17.282-18.143 17.282h-7.05c-11.76 0-17.44-7.708-17.44-17.282v-7.124c0-9.574 5.564-17.282 16.899-17.282z" style="fill:#fe3131;stroke:#000;stroke-width:.337;stroke-linecap:square;stroke-linejoin:bevel;stroke-opacity:.078"/><path d="m18.468 24.41h-3.61v3.266h-3.612v1.088h3.611v3.266h3.611v3.266h1.204v-3.266h3.611v-3.266h16.853v-1.088h-16.853v-3.266h-3.61v-15.604h-1.205zm3.612 1.088v5.444h-6.02v-5.444z" fill="#fff" fill-rule="evenodd"/></svg>