<svg height="48" width="48" xmlns="http://www.w3.org/2000/svg" xmlns:xlink="http://www.w3.org/1999/xlink"><linearGradient id="a" gradientTransform="matrix(.30902336 0 0 .30380027 -64.017299 1.993676)" gradientUnits="userSpaceOnUse" x1="288.11157" x2="287.57547" y1="141.78452" y2="79.007812"><stop offset="0" stop-opacity=".046875"/><stop offset="1" stop-opacity="0"/></linearGradient><mask id="b" fill="#fff"><path d="m16.98752 8.91296c0 4.41824-3.58176 8-8 8s-8-3.58176-8-8 3.58176-8 8-8 8 3.58176 8 8"/></mask><path d="m2.7498407 26.220541v1.668528c0 9.574276 5.6792096 17.282199 17.4405083 17.282199h7.049592c15.392533 0 18.143072-11.322632 18.143072-17.282199v-1.668528c0 5.959567-2.750539 17.282198-18.143072 17.282198h-7.049592c-11.7612987 0-17.4405083-7.707923-17.4405083-17.282198z" fill="url(#a)"/><path d="m19.648602 2.7423187h8.641122c14.146859 0 17.09331 11.2468653 17.09331 17.2820843v7.123176c0 5.959564-2.750662 17.282082-18.143195 17.282082h-7.049246c-11.7612986 0-17.4407218-7.707808-17.4407218-17.282082v-7.123176c0-9.574274 5.5642262-17.2820843 16.8987308-17.2820843z" style="fill:#0093f4;stroke:#000;stroke-width:.337041;stroke-linecap:square;stroke-linejoin:bevel;stroke-opacity:.078125"/><g fill-rule="evenodd"><g fill="none" transform="matrix(1.3053422 0 0 1.2967181 12.340094 6.060182)"><path d="m16.98752 8.91296c0 4.41824-3.58176 8-8 8s-8-3.58176-8-8 3.58176-8 8-8 8 3.58176 8 8" mask="url(#b)"/><path d="m16.69536 8.9088138c0 4.2592342-3.452766 7.7120002-7.7119999 7.7120002-4.2592342 0-7.7120001-3.452766-7.7120001-7.7120002 0-4.2592343 3.4527659-7.7123338 7.7120001-7.7123338 4.2592339 0 7.7119999 3.4530995 7.7119999 7.7123338" stroke="#fff"/><path d="m2.09664 12.05344c1.58656.4624 5.92864 1.46208 8.6704-.4736 1.77824-1.25568 1.54912-3.26656 1.54912-3.26656-.02944-1.5296-.99616-3.04896-.99616-3.04896 3.75904 3.27584 1.53728 6.9152 1.53728 6.9152-1.144 2.25088-3.62368 3.60448-5.6016 4.07872-2.29856-.52864-4.19552-2.10784-5.15904-4.2048zm1.01824-7.92096c.46592 2.44 1.5104 4.49824 2.20512 5.2464.89792.96704 2.22048 1.9936 3.91744 1.56928 1.6976-.42432 2.04288-2.27968 2.04288-2.27968.37504-1.57888-.15872-3.45376-.18752-3.49312-.0288-.03968-.28352-.08384-.28352-.08384.26624 2.4864-.38784 3.58656-.38784 3.58656-.95168 1.94944-2.34816 1.34656-2.34816 1.34656-1.55392-.79168-1.48064-3.02368-1.48064-3.02368-.04736-1.55168.56736-4.11712 1.74912-5.61056-2.104.16864-3.96448 1.20096-5.22688 2.74208zm8.7904-2.16672c-.9072.73728-2.45056 2.31168-2.45056 2.31168-2.2896 2.12128-1.84544 3.90752-1.84544 3.90752.3648 1.87488 1.50016.61184 1.50016.61184 1.1936-1.2336 1.10464-3.69056 1.10464-3.69056-.4832.07872-.78912.3456-.78912.3456-.0592 1.63776-1.02624 2.65408-1.02624 2.65408-.37504.41472-.64128.01984-.64128.01984-.19712-.29632.19712-.50336.19712-.50336.55232-.48352.71808-1.30848.71104-1.61792-.008-.3104.15744-.39488.15744-.39488.77952-.60224 1.55936-.95744 1.55936-.95744 1.04576-.5328 2.91072-.62176 2.91072-.62176.50592.01696.98944-.008 1.37632-.04192-.7488-.86976-1.69312-1.56672-2.76416-2.02272z" fill="#fff"/></g><text fill="#fff" font-family="SourceHanSansSC-Regular, 'Source Han Sans SC'" font-size="9.380061" stroke-width="1.172508" transform="scale(1.0424234 .9593031)" x=".915784" y="-3.533948"><tspan stroke-width="1.172508" x="13.813367" y="39.848831">DIM</tspan></text></g></svg>