<svg height="48" width="48" xmlns="http://www.w3.org/2000/svg" xmlns:xlink="http://www.w3.org/1999/xlink"><linearGradient id="a" gradientTransform="matrix(.30902336 0 0 .30380027 -64.017299 1.993676)" gradientUnits="userSpaceOnUse" x1="288.11157" x2="287.57547" y1="141.78452" y2="79.007812"><stop offset="0" stop-opacity=".046875"/><stop offset="1" stop-opacity="0"/></linearGradient><path d="m2.7498407 26.220541v1.668528c0 9.574276 5.6792096 17.282199 17.4405083 17.282199h7.049592c15.392533 0 18.143072-11.322632 18.143072-17.282199v-1.668528c0 5.959567-2.750539 17.282198-18.143072 17.282198h-7.049592c-11.7612987 0-17.4405083-7.707923-17.4405083-17.282198z" fill="url(#a)"/><path d="m19.648602 2.7423187h8.641122c14.146859 0 17.09331 11.2468653 17.09331 17.2820843v7.123176c0 5.959564-2.750662 17.282082-18.143195 17.282082h-7.049246c-11.7612986 0-17.4407218-7.707808-17.4407218-17.282082v-7.123176c0-9.574274 5.5642262-17.2820843 16.8987308-17.2820843z" style="fill:#9baac1;stroke:#000;stroke-width:.337041;stroke-linecap:square;stroke-linejoin:bevel;stroke-opacity:.078125"/><path d="m30.88059 10.58599.967524 6.234599h-.967524c-.405456-1.00897-.981362-1.948529-1.727723-2.818679-.74639-.879373-1.228842-1.286307-1.846201-1.41592-.276448-.05552-8.666667 0-8.666667 0l8.052591 10.33017v.374898l-8.552591 10.294932h10.5c1.333333 0 2.18669-.129732 2.5-.5.331705-.388785.533022-.954741.791046-1.43609.257988-.481351.469923-.925674.635802-1.332971l.926059.291587-1.561861 5.977474h-17.291046v-.562278l9.619958-11.649615-9.619958-12.454774v-1.333333z" fill="#fff" fill-rule="evenodd"/></svg>