<svg height="48" width="48" xmlns="http://www.w3.org/2000/svg" xmlns:xlink="http://www.w3.org/1999/xlink"><linearGradient id="a" gradientTransform="matrix(.30902336 0 0 .30380027 -64.017299 1.993676)" gradientUnits="userSpaceOnUse" x1="288.11157" x2="287.57547" y1="141.78452" y2="79.007812"><stop offset="0" stop-opacity=".046875"/><stop offset="1" stop-opacity="0"/></linearGradient><path d="m2.7498407 26.220541v1.668528c0 9.574276 5.6792096 17.282199 17.4405083 17.282199h7.049592c15.392533 0 18.143072-11.322632 18.143072-17.282199v-1.668528c0 5.959567-2.750539 17.282198-18.143072 17.282198h-7.049592c-11.7612987 0-17.4405083-7.707923-17.4405083-17.282198z" fill="url(#a)"/><path d="m19.648602 2.7423187h8.641122c14.146859 0 17.09331 11.2468653 17.09331 17.2820843v7.123176c0 5.959564-2.750662 17.282082-18.143195 17.282082h-7.049246c-11.7612986 0-17.4407218-7.707808-17.4407218-17.282082v-7.123176c0-9.574274 5.5642262-17.2820843 16.8987308-17.2820843z" style="fill:#5368aa;stroke:#000;stroke-width:.337041;stroke-linecap:square;stroke-linejoin:bevel;stroke-opacity:.078125"/><path d="m19.55615 27.55658 2.091735-10.72059h2.483934l-.522933 2.779413h2.353201c2.091734.132352 2.876135 1.191176 2.614668 2.514705l-.915133 5.426472h-2.614669l.915134-4.897061c.130734-.661764.130734-1.058822-.7844-1.058822h-1.961002l-1.1766 5.955883zm-10.5327419 2.77941 2.0917349-10.72059h4.837135c2.091734.132352 3.137601 1.191177 3.137601 3.044117 0 3.176473-2.483935 5.029415-4.706402 4.897062h-2.353201l-.522935 2.779411zm3.5298009-4.764704.653667-3.970589h1.699534c.915135 0 1.568801.397058 1.568801 1.191176-.130734 2.25-1.1766 2.647062-2.353201 2.779413zm16.489817 4.764704 2.091734-10.720587h4.837135c2.091735.132352 3.137602 1.191176 3.137602 3.044116 0 3.176473-2.483935 5.029414-4.706402 4.897061h-2.353201l-.522935 2.77941zm3.529801-4.764704.653666-3.970589h1.699535c.915135 0 1.568801.397058 1.568801 1.191176-.130734 2.25-1.1766 2.647062-2.353201 2.779413z" fill="#fff" fill-rule="evenodd"/></svg>