<svg height="48" width="48" xmlns="http://www.w3.org/2000/svg" xmlns:xlink="http://www.w3.org/1999/xlink"><linearGradient id="a" gradientTransform="matrix(.30902336 0 0 .30380027 -64.017299 1.993676)" gradientUnits="userSpaceOnUse" x1="288.11157" x2="287.57547" y1="141.78452" y2="79.007812"><stop offset="0" stop-opacity=".046875"/><stop offset="1" stop-opacity="0"/></linearGradient><linearGradient id="b" gradientTransform="matrix(.89871703 0 0 1.1126973 -69.015139 -1.853659)" gradientUnits="userSpaceOnUse" x1="2.581351" x2="45.551556" y1="23.585991" y2="23.585991"><stop offset="0" stop-color="#dadef0"/><stop offset="1" stop-color="#f5f5fa"/></linearGradient><path d="m2.7498407 26.220541v1.668528c0 9.574276 5.6792096 17.282199 17.4405083 17.282199h7.049592c15.392533 0 18.143072-11.322632 18.143072-17.282199v-1.668528c0 5.959567-2.750539 17.282198-18.143072 17.282198h-7.049592c-11.7612987 0-17.4405083-7.707923-17.4405083-17.282198z" fill="url(#a)"/><path d="m19.648602 2.7423187h8.641122c14.146859 0 17.09331 11.2468653 17.09331 17.2820843v7.123176c0 5.959564-2.750662 17.282082-18.143195 17.282082h-7.049246c-11.7612986 0-17.4407218-7.707808-17.4407218-17.282082v-7.123176c0-9.574274 5.5642262-17.2820843 16.8987308-17.2820843z" style="stroke:#000;stroke-width:.337041;stroke-linecap:square;stroke-linejoin:bevel;stroke-opacity:.078125;fill:url(#b)"/><g fill-rule="evenodd" transform="translate(69.081592 -6.393685)"><path d="m-39.809796 40.578783c-.856573 0-1.450026.09795-1.78036.293841-.330339.195904-.495507.530079-.495504 1.002537-.000003.376428.122913.676034.368747.898819.249671.218945.587689.328418 1.014056.328418.587689 0 1.058225-.207419 1.411613-.622264.357219-.418678.535831-.97372.535836-1.665124v-.236232h-1.054388m2.114538-.437886v3.681719h-1.06015v-.97949c-.241995.391798-.543523.6818-.904584.870017-.361069.184373-.802798.27656-1.325187.27656-.660676 0-1.186908-.184373-1.578701-.55312-.387955-.37259-.581931-.870017-.58193-1.492276-.000001-.725972.241989-1.273331.725972-1.642083.48782-.368741 1.213791-.553114 2.177916-.553119h1.486514v-.103713c-.000005-.487818-.161332-.864246-.483981-1.129291-.318817-.268872-.768228-.403308-1.348234-.403313-.368751.000005-.727895.0442-1.077435.132514-.349544.08835-.685642.220873-1.008295.397559v-.979485c.387952-.149801.764382-.26119 1.129291-.334179.364904-.07682.720207-.115228 1.065911-.115234.933388.000006 1.630551.241998 2.091491.725972.460929.483985.691396 1.217639.691402 2.200963" fill="#4d4d4d"/><path d="m-52.015139 44.146341h1.15l.95-2h4.800001l.949997 2h1.150002l-4-9h-1zm4.523809-8 1.976191 5h-4z" fill="#4d4d4d"/><g fill="none" transform="translate(-59.681806 15.813009)"><g fill="#fc0000"><path d="m26.888889 12.380952c-1.35003 0-2.444445 1.108628-2.444445 2.476191s1.094415 2.47619 2.444445 2.47619c1.350029 0 2.444444-1.108627 2.444444-2.47619s-1.094415-2.476191-2.444444-2.476191z"/><path d="m22 13.206349c-.90002 0-1.62963.739085-1.62963 1.650794 0 .911708.72961 1.650793 1.62963 1.650793s1.62963-.739085 1.62963-1.650793c0-.911709-.72961-1.650794-1.62963-1.650794z"/><path d="m18.740741 14.031746c-.45001 0-.814815.369543-.814815.825397s.364805.825397.814815.825397c.450009 0 .814815-.369543.814815-.825397s-.364806-.825397-.814815-.825397z"/></g><path d="m24.029199 6.5222238c-1.16916.6837794-1.569743 2.1981927-.894728 3.3825381.675014 1.1843451 2.170013 1.5901311 3.339173.9063481 1.16916-.68378 1.569743-2.1981932.894729-3.3825386-.675015-1.1843454-2.170014-1.5901311-3.339174-.9063476z" fill="#f60"/><path d="m20.202705 9.7132286c-.77944.4558544-1.046496 1.4654634-.596486 2.2550254s1.446676 1.060086 2.226115.604232c.77944-.455855 1.046496-1.465464.596486-2.255026-.45001-.7895619-1.446675-1.0600857-2.226115-.6042314z" fill="#f60"/><path d="m17.787511 12.078837c-.38972.227925-.523248.732729-.298243 1.127512s.723338.530045 1.113058.302116c.389719-.227925.523247-.732729.298243-1.127513-.225005-.394783-.723338-.530041-1.113058-.302115z" fill="#f60"/><path d="m18.660827 2.8968292c-.675015 1.1843413-.274431 2.6987587.894729 3.3825381 1.169159.6837794 2.664158.2779936 3.339173-.9063476.675015-1.1843454.274431-2.6987588-.894729-3.3825381-1.16916-.6837835-2.664158-.2779978-3.339173.9063476z" fill="#ffd700"/><path d="m16.922032 7.5984133c-.450009.7895623-.182953 1.7991711.596486 2.2550254.77944.4558543 1.776106.1853303 2.226116-.6042317.45001-.7895622.182954-1.7991711-.596486-2.2550254s-1.776106-.1853305-2.226116.6042317z" fill="#ffd700"/><path d="m15.998053 10.870373c-.225004.394779-.09148.899583.298243 1.127513.38972.227925.888053.09266 1.113058-.302116.225005-.394783.09148-.899588-.298243-1.127513-.38972-.227929-.888053-.09267-1.113058.302116z" fill="#ffd700"/><path d="m12.222223 2.4761905c-.000001 1.3675628 1.094414 2.4761904 2.444444 2.4761904 1.350029 0 2.444444-1.1086276 2.444444-2.4761904 0-1.3675629-1.094415-2.4761905-2.444444-2.4761905-1.35003 0-2.444445 1.1086276-2.444444 2.4761905z" fill="#25cc00"/><path d="m13.037037 7.4285714c0 .9117086.72961 1.6507937 1.62963 1.6507937.900019 0 1.629629-.7390851 1.62963-1.6507937-.000001-.9117085-.729611-1.6507936-1.62963-1.6507936-.90002 0-1.62963.7390851-1.62963 1.6507936z" fill="#25cc00"/><path d="m13.851852 10.730159c0 .455854.364805.825397.814815.825397.450009 0 .814814-.369543.814814-.825397 0-.455855-.364805-.8253971-.814814-.8253971-.45001 0-.814815.3695421-.814815.8253971z" fill="#25cc00"/><path d="m6.4386051 5.3730197c.6750142 1.1843412 2.1700128 1.5901311 3.3391727.9063476 1.1691602-.6837794 1.5697432-2.1981968.8947282-3.3825381-.6750142-1.1843454-2.1700128-1.5901311-3.3391727-.9063476-1.1691598.6837793-1.5697436 2.1981927-.8947282 3.3825381z" fill="#099"/><path d="m9.5886992 9.249207c.4500098.789562 1.4466758 1.060086 2.2261158.6042317s1.046495-1.4654631.596486-2.2550254c-.45001-.7895622-1.446676-1.060086-2.226116-.6042317-.7794394.4558543-1.0464954 1.4654632-.5964858 2.2550254z" fill="#099"/><path d="m11.923979 11.69577c.225006.394779.723338.530041 1.113058.302116.38972-.22793.523248-.732734.298243-1.127513-.225005-.394783-.723338-.530045-1.113058-.302116-.38972.227925-.523247.73273-.298243 1.127513z" fill="#099"/><path d="m2.85969 10.81111c1.1691594.683783 2.664158.277997 3.339173-.9063481.6750146-1.1843454.2744308-2.6987587-.894729-3.3825381-1.1691599-.6837835-2.6641584-.2779978-3.339173.9063476-.675015 1.1843454-.2744313 2.6987586.894729 3.3825386z" fill="#03c"/><path d="m7.5009986 12.572486c.77944.455854 1.776106.18533 2.226116-.604232.4500094-.789562.1829537-1.799171-.5964856-2.2550254-.7794404-.4558543-1.7761064-.1853305-2.226116.6042314-.4500096.789562-.182954 1.799171.5964856 2.255026z" fill="#03c"/><path d="m10.731008 13.508465c.38972.227929.888052.09267 1.113057-.302116.225005-.394779.09148-.899587-.298243-1.127512-.389719-.227926-.888052-.09267-1.113057.302115-.225005.394784-.09148.899588.298243 1.127513z" fill="#03c"/><path d="m2.4444449 17.333333c1.3500291 0 2.444444-1.108627 2.4444444-2.47619-.0000004-1.367563-1.0944153-2.476191-2.4444449-2.476191s-2.4444444 1.108628-2.44444399 2.476191c-.00000041 1.367563 1.09441439 2.47619 2.44444449 2.47619z" fill="#609"/><path d="m7.3333333 16.507936c.9000196 0 1.6296297-.739085 1.6296301-1.650793-.0000004-.911709-.7296105-1.650794-1.6296301-1.650794s-1.6296296.739085-1.6296296 1.650794c0 .911708.72961 1.650793 1.6296296 1.650793z" fill="#609"/><path d="m10.592593 15.68254c.45001 0 .814814-.369543.814814-.825397.000001-.455854-.364805-.825397-.814814-.825397-.45001 0-.8148152.369543-.8148152.825397s.3648052.825397.8148152.825397z" fill="#609"/></g></g></svg>