<svg height="48" width="48" xmlns="http://www.w3.org/2000/svg" xmlns:xlink="http://www.w3.org/1999/xlink"><linearGradient id="a" gradientTransform="matrix(.30902336 0 0 .30380027 -64.017299 1.993676)" gradientUnits="userSpaceOnUse" x1="288.11157" x2="287.57547" y1="141.78452" y2="79.007812"><stop offset="0" stop-opacity=".046875"/><stop offset="1" stop-opacity="0"/></linearGradient><path d="m2.7498407 26.220541v1.668528c0 9.574276 5.6792096 17.282199 17.4405083 17.282199h7.049592c15.392533 0 18.143072-11.322632 18.143072-17.282199v-1.668528c0 5.959567-2.750539 17.282198-18.143072 17.282198h-7.049592c-11.7612987 0-17.4405083-7.707923-17.4405083-17.282198z" fill="url(#a)"/><path d="m19.648602 2.7423187h8.641122c14.146859 0 17.09331 11.2468653 17.09331 17.2820843v7.123176c0 5.959564-2.750662 17.282082-18.143195 17.282082h-7.049246c-11.7612986 0-17.4407218-7.707808-17.4407218-17.282082v-7.123176c0-9.574274 5.5642262-17.2820843 16.8987308-17.2820843z" style="fill:#547aa9;stroke:#000;stroke-width:.337041;stroke-linecap:square;stroke-linejoin:bevel;stroke-opacity:.078125"/><path d="m27.702536 20.713795c-.378905-3.122655-4.297095-6.770752-8.736085-6.770218-3.755087.000427-8.506237 3.574569-8.464956 9.095097.03996 5.343303 1.837694 8.226609 3.193708 11.498355h.000018l3.999551-1.666421c-.921603-1.881684-2.11166-3.760816-2.537707-4.692205-1.192756-2.6079-1.628153-3.774203-1.52857-5.761926.09629-1.921742.755348-3.093257 1.927615-4.226194 1.17229-1.132837 2.777171-1.710944 4.71363-1.443836 3.10904.429317 4.618836 2.314662 5.210006 3.858334-3.475435.390945-4.735671 2.870887-5.01543 5.208557-1.324309-.466325-2.066728-1.548321-2.179925-3.117538-.10878-1.508743 1.356014-3.02525 3.727045-2.255783.38162.123777.394808-.561854-.03655-.908332-1.110479-.891972-5.514097-.550165-5.49919 2.953531.01163 2.738542 1.873912 4.719801 3.966921 5.281798.378754 3.122406 4.297017 6.770743 8.736109 6.770015 3.755073-.000205 8.506239-3.574348 8.464957-9.094875-.03996-5.343418-1.837682-8.22661-3.193711-11.498577h-.000026l-3.999536 1.666634c.921581 1.881898 2.111653 3.76061 2.537692 4.692312 1.192755 2.607908 1.628168 3.774105 1.528585 5.761933-.09628 1.921423-.755348 3.092938-1.927638 4.225981-1.172274 1.132837-2.777156 1.710945-4.713608 1.443722-3.109098-.428999-4.618892-2.314433-5.210045-3.858154 3.475446-.391047 4.735702-2.870936 5.015469-5.208437 1.324301.466269 2.066712 1.548137 2.179902 3.117344.108781 1.508644-1.355998 3.025357-3.727022 2.255792-.381635-.123672-.394799.561853.03655.908332 1.11048.892069 5.514105.550057 5.499199-2.953532-.01163-2.738466-1.873932-4.719726-3.966954-5.281709zm-5.331059 5.344468c2.376845-.175355 3.267826-2.321178 3.402211-3.635591-2.376861.175373-3.267837 2.321303-3.402211 3.635591z" fill="#fff" fill-rule="evenodd" transform="translate(-.006136 -.654313)"/></svg>