<svg height="48" width="48" xmlns="http://www.w3.org/2000/svg" xmlns:xlink="http://www.w3.org/1999/xlink"><linearGradient id="a" gradientTransform="matrix(.30902336 0 0 .30380027 -64.017299 1.993676)" gradientUnits="userSpaceOnUse" x1="288.11157" x2="287.57547" y1="141.78452" y2="79.007812"><stop offset="0" stop-opacity=".046875"/><stop offset="1" stop-opacity="0"/></linearGradient><path d="m2.7498407 26.220541v1.668528c0 9.574276 5.6792096 17.282199 17.4405083 17.282199h7.049592c15.392533 0 18.143072-11.322632 18.143072-17.282199v-1.668528c0 5.959567-2.750539 17.282198-18.143072 17.282198h-7.049592c-11.7612987 0-17.4405083-7.707923-17.4405083-17.282198z" fill="url(#a)"/><path d="m19.648602 2.7423187h8.641122c14.146859 0 17.09331 11.2468653 17.09331 17.2820843v7.123176c0 5.959564-2.750662 17.282082-18.143195 17.282082h-7.049246c-11.7612986 0-17.4407218-7.707808-17.4407218-17.282082v-7.123176c0-9.574274 5.5642262-17.2820843 16.8987308-17.2820843z" style="fill:#c064bd;stroke:#000;stroke-width:.337041;stroke-linecap:square;stroke-linejoin:bevel;stroke-opacity:.078125"/><path d="m566.9316 490.93365c-7.51714 0-14.32498 1.10586-19.41382 2.9791-2.54442.93662-4.66458 2.05504-6.25611 3.44015s-2.70957 3.16117-2.70957 5.17797 1.11804 3.78576 2.70957 5.17087 3.71169 2.51063 6.25611 3.44726c5.08884 1.87323 11.89668 2.972 19.41382 2.972 7.51716 0 14.325-1.09877 19.41384-2.972 2.5444-.93663 4.67167-2.06215 6.2632-3.44726 1.59152-1.38511 2.70956-3.15407 2.70956-5.17087s-1.11804-3.79286-2.70956-5.17797c-1.59153-1.38511-3.7188-2.50353-6.2632-3.44015-5.08884-1.87324-11.89668-2.9791-19.41384-2.9791zm0 3.63166c7.15591 0 13.63858 1.08576 18.16545 2.75213 2.26342.83319 4.03102 1.81842 5.12831 2.7734s1.46117 1.7562 1.46117 2.44003-.36388 1.47796-1.46117 2.43293c-1.09729.95498-2.86489 1.94022-5.12831 2.77341-4.52687 1.66637-11.00954 2.75213-18.16545 2.75213-7.1559 0-13.63148-1.08576-18.15834-2.75213-2.26343-.83319-4.02393-1.81843-5.12122-2.77341-1.09729-.95497-1.46827-1.7491-1.46827-2.43293s.37098-1.48505 1.46827-2.44003 2.85779-1.94021 5.12122-2.7734c4.52686-1.66637 11.00244-2.75213 18.15834-2.75213zm28.12417 23.12352-3.60331 1.06397c.35674 1.2037-.0291 2.31006-1.80164 3.78771-1.7727 1.47765-4.87922 2.95604-9.00825 3.99342-8.25804 2.07475-19.0677 2.079-27.34391.0142-4.1381-1.03239-7.26302-2.50813-9.0508-3.9863-1.78777-1.47818-2.18304-2.58796-1.8371-3.78772l-3.61749-1.04268c-.81555 2.82851.59515 5.69586 3.05713 7.73148 2.46196 2.03562 6.03774 3.61485 10.54034 4.73819 9.00519 2.24668 20.17073 2.23713 29.15975-.0214 4.49451-1.12921 8.06288-2.70382 10.51198-4.74528 2.44911-2.04147 3.83-4.92259 2.9933-7.74567zm0 17.19368-3.60331 1.07106c.35674 1.20371-.0291 2.31007-1.80164 3.78772-1.7727 1.47765-4.87922 2.94894-9.00825 3.98632-8.25804 2.07476-19.0677 2.0789-27.34391.0142-4.1381-1.03238-7.26302-2.50103-9.0508-3.97921-1.78777-1.47817-2.18304-2.58796-1.8371-3.78771l-3.61749-1.04269c-.81555 2.82852.59515 5.69586 3.05713 7.73148 2.46196 2.03562 6.03774 3.60775 10.54034 4.7311 9.00519 2.24668 20.17073 2.2442 29.15975-.0142 4.49451-1.1292 8.06288-2.71092 10.51198-4.75239 2.44911-2.04146 3.83-4.92257 2.9933-7.74566z" fill="#fbf4fa" transform="matrix(.32384742 0 0 .32384742 -159.2310940268 -144.79049658505)"/></svg>