<svg height="48" width="48" xmlns="http://www.w3.org/2000/svg" xmlns:xlink="http://www.w3.org/1999/xlink"><linearGradient id="a" gradientTransform="matrix(.30902336 0 0 .30380027 -64.017299 1.993676)" gradientUnits="userSpaceOnUse" x1="288.11157" x2="287.57547" y1="141.78452" y2="79.007812"><stop offset="0" stop-opacity=".046875"/><stop offset="1" stop-opacity="0"/></linearGradient><path d="m2.7498407 26.220541v1.668528c0 9.574276 5.6792096 17.282199 17.4405083 17.282199h7.049592c15.392533 0 18.143072-11.322632 18.143072-17.282199v-1.668528c0 5.959567-2.750539 17.282198-18.143072 17.282198h-7.049592c-11.7612987 0-17.4405083-7.707923-17.4405083-17.282198z" fill="url(#a)"/><path d="m19.648602 2.7423187h8.641122c14.146859 0 17.09331 11.2468653 17.09331 17.2820843v7.123176c0 5.959564-2.750662 17.282082-18.143195 17.282082h-7.049246c-11.7612986 0-17.4407218-7.707808-17.4407218-17.282082v-7.123176c0-9.574274 5.5642262-17.2820843 16.8987308-17.2820843z" style="fill:#ebebeb;stroke:#000;stroke-width:.337041;stroke-linecap:square;stroke-linejoin:bevel;stroke-opacity:.078125"/><g fill="#f60" fill-rule="evenodd" transform="matrix(1.2077376 0 0 1.2077376 -4.71187 -.010294)"><path d="m24.066453 28.58599c-4.9626 0-9-4.0374-9-9s4.0374-9 9-9 9 4.0374 9 9-4.0374 9-9 9zm0-17c-4.410667 0-8 3.588444-8 8s3.589333 8 8 8 8-3.588444 8-8-3.589333-8-8-8z"/><path d="m26.719189 15.58999c-1.317-.821-1.555-1.443-1.555-1.711v-.183c0-.357-.26-.645-.534-.644-.273.001-.515.291-.516.648l-.018 7.657c-.692-.359-1.585-.384-2.607-.032-1.505.519-2.34 1.941-1.91 3.045.43 1.103 1.98 1.53 3.463.953 1.215-.473 2.006-1.473 2.017-2.425.01-.05.024-6.503.024-6.503 2.793.744 3.245 2.383 3.245 2.383.49 1.193-.099 2.665-.099 2.665s-.049.183.095.241c.182.073.265-.101.265-.101.874-1.889.338-3.386.338-3.386-.488-1.678-2.208-2.607-2.208-2.607z"/></g></svg>