<svg height="48" width="48" xmlns="http://www.w3.org/2000/svg" xmlns:xlink="http://www.w3.org/1999/xlink"><linearGradient id="a" gradientTransform="matrix(.30902336 0 0 .30380027 -64.017299 1.993676)" gradientUnits="userSpaceOnUse" x1="288.11157" x2="287.57547" y1="141.78452" y2="79.007812"><stop offset="0" stop-opacity=".046875"/><stop offset="1" stop-opacity="0"/></linearGradient><path d="m2.7498407 26.220541v1.668528c0 9.574276 5.6792096 17.282199 17.4405083 17.282199h7.049592c15.392533 0 18.143072-11.322632 18.143072-17.282199v-1.668528c0 5.959567-2.750539 17.282198-18.143072 17.282198h-7.049592c-11.7612987 0-17.4405083-7.707923-17.4405083-17.282198z" fill="url(#a)"/><path d="m19.648602 2.7423187h8.641122c14.146859 0 17.09331 11.2468653 17.09331 17.2820843v7.123176c0 5.959564-2.750662 17.282082-18.143195 17.282082h-7.049246c-11.7612986 0-17.4407218-7.707808-17.4407218-17.282082v-7.123176c0-9.574274 5.5642262-17.2820843 16.8987308-17.2820843z" style="fill:#d70751;stroke:#000;stroke-width:.337041;stroke-linecap:square;stroke-linejoin:bevel;stroke-opacity:.078125"/><g fill="#fff" fill-rule="evenodd" transform="translate(52.202115 -.807022)"><g transform="translate(-39.286516 33.407065)"><path d="m2.8551652 3.3085543c-.00912.0084-.00912 1.3419436-.027962 1.6900337-.018641.2814041-.047008.8862263-.72295.8862263-.6947857 0-.8637711-.7042254-.9200996-1.0104804-.065649-.3396873-.065649-.6216277-.065649-.7455242 0-.3977917.028164-1.5082116 1.0890852-1.5082116.3193299 0 .4976359.083134.6384572.1491049l.00912.5388513zm-2.72261159.977763c0 2.335976 1.40841509 2.335976 1.61488529 2.335976.5821287 0 .9577871-.2817617 1.1172494-.7703751l.018844.7371215c.1785087-.0084.3568147-.024851.6477778-.024851.1033364 0 .1876265 0 .2630014.0084.075172 0 .1501418.00805.2346345.016448-.1501421-.2649531-.2627991-.8613725-.2627991-2.1541509 0-1.2591671 0-3.3881126.1219775-4.03441235-.3377683.14105961-.6291366.23223884-1.2675938.28176167.2534783.24028407.2534783.36453808.2534783 1.45779488-.1781034-.0495229-.40362-.1076273-.788599-.1076273-1.68053435.0001788-1.95285629 1.2925996-1.95285629 2.2539146z"/><path d="m5.2244066 3.8633173c.00952-.6875986.1691881-1.3006448.8356069-1.3006448.7324731 0 .7883964.7122706.7697553 1.3006448zm2.5347824.083134c0-.9693603-.2157909-1.9222726-1.6053622-1.9222726-1.9151689 0-1.9151689 1.8727497-1.9151689 2.2700051 0 1.6816309.854248 2.3443787 2.2908273 2.3443787.6380519 0 .9482639-.082419 1.1172494-.1242541-.00932-.2982096.037485-.4887921.094218-.7455242-.197555.1079848-.4510332.2486869-1.0143182.2486869-1.4647435 0-1.4835872-1.1767483-1.4835872-1.5825853h2.4979059z"/><path d="m10.813693 4.3025866c0 .770375-.159462 1.8060637-1.2485476 1.8060637-.1503444 0-.3379709-.025208-.4599485-.04988-.018844-.2982097-.018844-.8118526-.018844-1.408272 0-.7126282.08429-1.084854.1503444-1.26757.1969471-.5880166.6382546-.5960618.7225447-.5960618.71363 0 .854451.8697783.854451 1.5157201zm-2.6944474.9030318c0 .613225 0 .9609575-.112657 1.2259136.3849789.1326568.8635685.2070305 1.4365793.2070305.3661352 0 1.4270561 0 1.9996621-1.0353311.272321-.4805682.366135-1.126868.366135-1.6156601 0-.2982097-.03769-.9525547-.309807-1.3669732-.262596-.3890313-.685263-.5880166-1.135688-.5880166-.9014584 0-1.1642572.6627478-1.3048758 1.0024351 0-.4224637.00912-1.8970642.084088-2.65099117-.6100908.24868686-.9859518.2898069-1.3893692.3230605.3661352.13229926.3661352.67955337.3661352 2.46076627v2.0377662z"/><path d="m13.613908 6.5890397c-.188032-.024851-.319735-.041478-.592057-.041478-.299878 0-.506956.016806-.722545.041478.09381-.1575077.131298-.2322389.159463-.7703751.03769-.737479.04701-2.7092743-.01864-3.1235141-.04701-.3150152-.131299-.3645381-.2628-.4473145.769755-.066328.985749-.1158512 1.342361-.2649561-.07477.3641805-.0847.5468966-.0847 1.1016595-.01844 2.858558-.02796 3.164813.178914 3.5045003"/><path d="m16.620391 4.2443034c-.01864.5220457-.02816.8865838-.188032 1.1763907-.19715.3729409-.525597.4805682-.769755.4805682-.563893 0-.685465-.414061-.685465-.8198979 0-.778599.788801-.837061 1.145211-.837061zm-2.582196 1.0192407c0 .5220457.178509 1.0437339.704512 1.2675699.234634.091179.469269.091179.544644.091179.863974 0 1.154734-.5635234 1.333243-.9114347-.0095.3645381 0 .5880166.02816.8781811.168985-.0084.337971-.024851.619816-.024851.159462 0 .309807.016448.469269.024851-.103332-.1407018-.159458-.2238358-.188028-.5468963-.018641-.3146577-.018641-.6294942-.018641-1.0685847l.0095-1.6900337c0-.6298518-.188032-1.251122-1.596447-1.251122-.929217 0-1.473658.2486869-1.74598.3729409.112859.1823585.206673.3393298.290963.6960014.36654-.2817617.845332-.4308665 1.333243-.4308665.779683 0 .779683.4557173.779683 1.1016596-.178509-.00805-.328853-.024493-.582534-.024493-1.192827.0001788-1.981426.4054794-1.981426 1.5158993z"/><path d="m22.028332 5.768963c.0095.2817617.0095.5799714.140821.8202554-.206875-.016448-.328853-.041478-.713427-.041478-.225516 0-.347494.016806-.526002.041478.03728-.1076272.05653-.1491048.07517-.2901644.02816-.1902249.04701-.8283007.04701-1.0521367v-.8946291c0-.3893889 0-.9529123-.02857-1.1515399-.01864-.1407021-.06524-.5216882-.610293-.5216882-.53512 0-.713426.3477325-.779278.6294942-.07477.2898069-.07477.6048222-.07477 1.8307357.0091 1.0605395.0091 1.1595852.102931 1.4497497-.159462-.016448-.356612-.032896-.638254-.032896-.225517 0-.375659.00805-.563083.032896.06565-.1326569.103337-.1989853.121978-.6627478.01905-.4557174.05653-2.6926476-.02857-3.2225598-.0466-.3234181-.140821-.3977917-.243752-.4805681.760637-.033254 1.00439-.1410597 1.239429-.2483293v.8778235c.112458-.2570897.347092-.8286582 1.286238-.8286582 1.173781 0 1.182899.753927 1.192422 1.2507643z"/><path d="m13.6931327.81042238-.7776574.68581077-.7772522-.68581077.7772522-.68581078z"/></g><path d="m-21.320216 18.285628c.02242.601776-.175602.894196-.35469 1.411285l-.32206.160158c-.263277.51161.02615.3248-.1624.731547-.41148.3654-1.246893 1.143027-1.514404 1.214263-.195528-.0043.132261-.230648.175103-.319071-.550217.377605-.441618.566906-1.283259.796806l-.02441-.05505c-2.074833.976393-4.957182-.958209-4.919322-3.597457-.02192.167382-.06302.125536-.108848.192788-.107104-1.357733.627183-2.721444 1.865606-3.279133 1.211274-.599286 2.631277-.353693 3.498324.455566-.47624-.624193-1.424985-1.285998-2.548584-1.224725-1.10118.01794-2.131623.717599-2.475353 1.477541-.563916.354938-.629673 1.368942-.875266 1.554755-.331026 2.431018.621952 3.480888 2.234245 4.716572.253065.170869.07124.197022.105111.327042-.535521-.250574-1.02571-.629175-1.429219-1.092713.214209.313094.445106.617469.743753.856586-.505383-.17062-1.18014-1.223729-1.376664-1.26657.870534 1.55874 3.531451 2.733648 4.92555 2.150553-.645117.02391-1.464339.0132-2.188663-.25456-.305122-.156671-.718346-.480723-.644369-.541249 1.901973.710125 3.866215.537513 5.511634-.781363.418953-.326295.876263-.880995 1.008524-.888468-.199015.299394.03412.143969-.118811.408242.416462-.672764-.18158-.273987.430907-1.161708l.226166.31135c-.08469-.558934.693686-1.23693.614479-2.120166.17859-.270003.199014.290925.0097.91213.262779-.689204.06949-.800044.136744-1.368942.07248.191293.168877.394293.217945.596297-.171366-.666288.175103-1.121606.261285-1.508925-.08519-.03736-.264273.294413-.305621-.492181.0062-.341737.0954-.179088.129521-.263277-.06675-.03861-.242853-.300639-.349707-.803033.07697-.118313.207233.306119.312843.323305-.068-.399274-.184816-.703899-.189798-1.010516-.308859-.645116-.109347.08618-.359423-.276976-.328784-1.024714.272494-.237871.313343-.703152.497662.721085.781363 1.839453.91213 2.302492-.09963-.564663-.260288-1.111891-.456813-1.641185.15169.06401-.243848-1.161459.197023-.349957-.470511-1.729858-2.012065-3.346385-3.430575-4.104584.173111.158664.392052.357928.313842.389311-.705893-.419699-.581851-.452826-.682977-.630171-.574129-.233885-.612487.01918-.992334.000498-1.083496-.574876-1.292225-.513851-2.28929-.873522l.04533.212216c-.717598-.239117-.83616.09017-1.611545.000498-.04708-.03662.248581-.133507.492181-.168627-.693936.09166-.661555-.136994-1.340546.02516.167132-.117317.344477-.195279.522818-.294911-.56566.03438-1.351008.329284-1.108654.06078-.92284.411978-2.562033.990091-3.481883 1.852654l-.02889-.193286c-.421444.505881-1.837959 1.510918-1.950792 2.166744l-.112833.02615c-.218941.371377-.361166.792073-.535024 1.173912-.286691.488943-.420446.188304-.379597.265021-.564165 1.143773-.844878 2.104723-1.086735 2.893309.172364.257797.0043 1.552264.06924 2.588186-.282953 5.117092 3.591231 10.084986 7.826083 11.231749.620706.222428 1.543547.214457 2.328646.236376-.926078-.265021-1.045637-.140231-1.948301-.454819-.650845-.306866-.793319-.656824-1.254614-1.057094l.182575.322558c-.904142-.320068-.52579-.396037-1.261571-.628926l.195029-.254311c-.293167-.02242-.776381-.493676-.908394-.755458l-.320815.0127c-.385077-.474746-.590566-.817728-.575373-1.083496l-.103617.184817c-.117316-.201501-1.417512-1.782908-.743005-1.414768-.125287-.114079-.291921-.186063-.472504-.514599l.137243-.156671c-.324053-.417707-.597293-.952979-.57637-1.13132.17311.233637.293166.277475.412227.317577-.819721-2.033486-.865802-.111837-1.486259-2.069852l.131016-.01046c-.100379-.152188-.161902-.316331-.242604-.477984l.05729-.569147c-.589821-.681482-.164891-2.900533-.07946-4.117287.05853-.494672.492431-1.021475.821963-1.847673l-.200758-.03437c.384081-.669526 2.192399-2.689811 3.030303-2.586194.40575-.509617-.0807-.002-.160158-.130019.891455-.922342 1.171671-.651593 1.773198-.817729.648355-.384828-.556693.150444-.249329-.146708 1.121606-.286192.794565-.651094 2.25741-.796307.154429.08768-.357929.135499-.486453.249328.934048-.45731 2.956325-.352946 4.27047.253564 1.523621.712617 3.236541 2.818086 3.30429 4.799017l.07697.02068c-.03886.787589.120555 1.698474-.156173 2.534883l.187059-.396286"/></g></svg>