<svg height="48" width="48" xmlns="http://www.w3.org/2000/svg" xmlns:xlink="http://www.w3.org/1999/xlink"><linearGradient id="a" gradientTransform="matrix(.30902336 0 0 .30380027 -64.017299 1.993676)" gradientUnits="userSpaceOnUse" x1="288.11157" x2="287.57547" y1="141.78452" y2="79.007812"><stop offset="0" stop-opacity=".046875"/><stop offset="1" stop-opacity="0"/></linearGradient><path d="m2.7498407 26.220541v1.668528c0 9.574276 5.6792096 17.282199 17.4405083 17.282199h7.049592c15.392533 0 18.143072-11.322632 18.143072-17.282199v-1.668528c0 5.959567-2.750539 17.282198-18.143072 17.282198h-7.049592c-11.7612987 0-17.4405083-7.707923-17.4405083-17.282198z" fill="url(#a)"/><path d="m19.648602 2.7423187h8.641122c14.146859 0 17.09331 11.2468653 17.09331 17.2820843v7.123176c0 5.959564-2.750662 17.282082-18.143195 17.282082h-7.049246c-11.7612986 0-17.4407218-7.707808-17.4407218-17.282082v-7.123176c0-9.574274 5.5642262-17.2820843 16.8987308-17.2820843z" style="fill:#2664ba;stroke:#000;stroke-width:.337041;stroke-linecap:square;stroke-linejoin:bevel;stroke-opacity:.078125"/><g fill="#fff" fill-rule="evenodd" transform="translate(2.800412 1.260927)"><path d="m9.737595 12.825063v19h2v-7.971429h4.666742c2.93372 0 5.333258-2.46883 5.333258-5.514286 0-3.039258-2.387781-5.514285-5.333258-5.514285zm2 9h4.800091c1.759104 0 3.199909-1.573507 3.199909-3.5 0-1.928466-1.435697-3.5-3.199909-3.5h-4.800091z"/><path d="m27.077998 17.825063c-1.454194 0-2.657665.333945-3.560269 1.001835-.97782.66789-1.454194 1.541284-1.454194 2.671559 0 1.130276.476374 1.977982 1.479267 2.594496.601735.411009 1.679845.79633 3.209256 1.181651 1.40405.359633 2.331725.642202 2.757955.847707.802314.411009 1.228543.976147 1.228543 1.721101 0 1.489908-1.178399 2.26055-3.485052 2.26055-1.103182 0-1.930568-.205505-2.482159-.616514-.551591-.462385-.927676-1.207339-1.07811-2.26055h-1.95564c.300868 3.056881 2.156219 4.598165 5.566054 4.598165 3.660558 0 5.490837-1.387156 5.490837-4.110092 0-1.155963-.526519-2.055046-1.554484-2.722936-.676952-.436697-1.780134-.847706-3.334618-1.233027-1.30376-.359633-2.206363-.642202-2.682737-.873395-.75217-.385321-1.103182-.873394-1.103182-1.438532 0-.590825.275795-1.053211.827386-1.387156.501447-.359633 1.203471-.513761 2.106075-.513761 1.027965 0 1.830279.205504 2.38187.616514.501446.359633.827386.976146 1.002892 1.798165h1.955641c-.351013-2.774312-2.106075-4.13578-5.315331-4.13578z"/></g></svg>