<svg xmlns="http://www.w3.org/2000/svg" height="48" width="48"><linearGradient id="a" gradientTransform="matrix(.30902 0 0 .3038 -64.017 1.994)" gradientUnits="userSpaceOnUse" x1="288.112" x2="287.575" y1="141.785" y2="79.008"><stop offset="0" stop-opacity=".047"/><stop offset="1" stop-opacity="0"/></linearGradient><path d="M2.75 26.22v1.67c0 9.573 5.68 17.281 17.44 17.281h7.05c15.392 0 18.143-11.322 18.143-17.282v-1.668c0 5.96-2.75 17.282-18.143 17.282h-7.05c-11.76 0-17.44-7.708-17.44-17.282z" fill="url(#a)"/><path d="M19.649 2.742h8.64c14.148 0 17.094 11.247 17.094 17.282v7.124c0 5.96-2.75 17.282-18.143 17.282h-7.05c-11.76 0-17.44-7.708-17.44-17.282v-7.124c0-9.574 5.564-17.282 16.899-17.282z" fill="#00ad9f" stroke="#000" stroke-width=".337" stroke-linecap="square" stroke-linejoin="bevel" stroke-opacity=".078"/><g fill="none" stroke="#fff" stroke-linecap="round" stroke-linejoin="round" stroke-width="1.3"><path d="M22 26l7.461-6.461S37.216 26.69 38 28m-26 0l6-6 4 4"/><path d="M23 16a2.192 2.192 0 0 1 1.555 2.663 2.192 2.192 0 0 1-2.647 1.582 2.192 2.192 0 0 1-1.608-2.631 2.192 2.192 0 0 1 2.614-1.635" paint-order="stroke fill markers"/></g></svg>