<svg height="48" width="48" xmlns="http://www.w3.org/2000/svg" xmlns:xlink="http://www.w3.org/1999/xlink"><linearGradient id="a" gradientTransform="matrix(.30902336 0 0 .30380027 -64.161117 2.712767)" gradientUnits="userSpaceOnUse" x1="288.11157" x2="287.57547" y1="141.78452" y2="79.007812"><stop offset="0" stop-opacity=".046875"/><stop offset="1" stop-opacity="0"/></linearGradient><path d="m2.6060224 26.939633v1.668528c0 9.574276 5.6792096 17.282199 17.4405086 17.282199h7.049592c15.392533 0 18.143072-11.322632 18.143072-17.282199v-1.668528c0 5.959567-2.750539 17.282198-18.143072 17.282198h-7.049592c-11.761299 0-17.4405086-7.707923-17.4405086-17.282198z" fill="url(#a)"/><path d="m19.504784 3.4614104h8.641122c14.146859 0 17.09331 11.2468656 17.09331 17.2820846v7.123176c0 5.959564-2.750662 17.282082-18.143195 17.282082h-7.049246c-11.7612989 0-17.4407221-7.707808-17.4407221-17.282082v-7.123176c0-9.574274 5.5642262-17.2820846 16.8987311-17.2820846z" style="fill:#df1121;stroke:#000;stroke-width:.337041;stroke-linecap:square;stroke-linejoin:bevel;stroke-opacity:.078125"/><path d="m34.922102 30.832339c.03104-2.308052-1.29189-5.050628-4.498846-6.934036-3.709432-2.199163-6.513138-.304265-6.513138-.304265s3.120349-.696158 4.334254 1.537338c1.213654 2.234009.221651 3.546447-.258644 4.395827-1.608173 2.845869-.06941 4.509717 1.230521 5.276593s3.684852.928809 5.078836-1.537338c.391987-.693747.614869-1.530969.627017-2.434119zm-4.58506-13.804016c0-1.533495-1.0606-3.723241-3.848317-3.723241-2.787967 0-6.013217 2.845356-6.003686 8.103053-.0095 4.381414 3.001843 5.917151 3.001843 5.917151s-2.148786-2.405294-.862148-4.596001 2.895814-1.977721 3.856154-1.977721c3.216596 0 3.856154-2.189746 3.856154-3.723241zm-3.432918 8.863716s-.971813 3.108946-3.472106 3.066669c-2.500794-.04304-3.117465-1.576989-3.597509-2.426112-1.608173-2.846126-3.786743-2.319971-5.086675-1.553352-1.299931.766619-2.624504 2.801927-1.23052 5.268586 1.393232 2.466147 5.423194 3.894398 9.875516 1.257094 3.718962-2.181739 3.511294-5.612885 3.511294-5.612885z" fill="#fff" fill-rule="evenodd"/></svg>