<svg height="48" width="48" xmlns="http://www.w3.org/2000/svg" xmlns:xlink="http://www.w3.org/1999/xlink"><linearGradient id="a" gradientTransform="matrix(.30902336 0 0 .30380027 -64.161117 2.712767)" gradientUnits="userSpaceOnUse" x1="288.11157" x2="287.57547" y1="141.78452" y2="79.007812"><stop offset="0" stop-opacity=".046875"/><stop offset="1" stop-opacity="0"/></linearGradient><path d="m2.6060224 26.939633v1.668528c0 9.574276 5.6792096 17.282199 17.4405086 17.282199h7.049592c15.392533 0 18.143072-11.322632 18.143072-17.282199v-1.668528c0 5.959567-2.750539 17.282198-18.143072 17.282198h-7.049592c-11.761299 0-17.4405086-7.707923-17.4405086-17.282198z" fill="url(#a)"/><path d="m19.504784 3.4614104h8.641122c14.146859 0 17.09331 11.2468656 17.09331 17.2820846v7.123176c0 5.959564-2.750662 17.282082-18.143195 17.282082h-7.049246c-11.7612989 0-17.4407221-7.707808-17.4407221-17.282082v-7.123176c0-9.574274 5.5642262-17.2820846 16.8987311-17.2820846z" style="fill:#df1121;stroke:#000;stroke-width:.337041;stroke-linecap:square;stroke-linejoin:bevel;stroke-opacity:.078125"/><path d="m22.94976 12.673601c-1.618952 0-2.931373.908599-2.931373 2.029412.0471.418149.311443.946172.450981 1.127451.67647.90196.67647 1.465686.507353 1.803921h-5.468137c-.999373 0-1.803922.804549-1.803922 1.803922v4.566176c.338235.169118.901961.169118 1.803922-.507353.181278-.139538.709301-.403884 1.12745-.45098 1.120813 0 2.029412 1.31242 2.029412 2.931373 0 1.618952-.908599 2.931372-2.029412 2.931372-.34399-.0058-.866951-.313479-1.12745-.45098-.901961-.676471-1.465687-.676471-1.803922-.507353v5.919117c0 .999373.804549 1.803922 1.803922 1.803922h7.272058c.169118-.338235.169118-.901961-.507352-1.803922-.139539-.181278-.403885-.709302-.450981-1.127451 0-1.120813 1.31242-2.029411 2.931373-2.029411 1.618952 0 2.931372.908598 2.931372 2.029411-.0058.343991-.313479.866952-.45098 1.127451-.676471.901961-.676471 1.465687-.507353 1.803922h3.213235c.999373 0 1.803922-.804549 1.803922-1.803922v-5.017156c.338235-.169118.90196-.169118 1.803921.507353.2605.137501.783461.445154 1.127451.45098 1.120813 0 2.029412-1.31242 2.029412-2.931373 0-1.618952-.908599-2.931372-2.029412-2.931372-.418149.0471-.946172.311442-1.127451.45098-.901961.676471-1.465686.676471-1.803921.507353v-5.468137c0-.999373-.804549-1.803922-1.803922-1.803922h-5.017157c-.169117-.338235-.169117-.901961.507353-1.803921.137502-.2605.445154-.783461.450981-1.127451 0-1.120813-1.312421-2.029412-2.931373-2.029412z" fill="#fff" fill-rule="evenodd"/></svg>