<svg height="48" width="48" xmlns="http://www.w3.org/2000/svg" xmlns:xlink="http://www.w3.org/1999/xlink"><linearGradient id="a" gradientTransform="matrix(.30902336 0 0 .30380027 -64.017299 1.993676)" gradientUnits="userSpaceOnUse" x1="288.11157" x2="287.57547" y1="141.78452" y2="79.007812"><stop offset="0" stop-opacity=".046875"/><stop offset="1" stop-opacity="0"/></linearGradient><path d="m2.7498407 26.220541v1.668528c0 9.574276 5.6792096 17.282199 17.4405083 17.282199h7.049592c15.392533 0 18.143072-11.322632 18.143072-17.282199v-1.668528c0 5.959567-2.750539 17.282198-18.143072 17.282198h-7.049592c-11.7612987 0-17.4405083-7.707923-17.4405083-17.282198z" fill="url(#a)"/><path d="m19.648602 2.7423187h8.641122c14.146859 0 17.09331 11.2468653 17.09331 17.2820843v7.123176c0 5.959564-2.750662 17.282082-18.143195 17.282082h-7.049246c-11.7612986 0-17.4407218-7.707808-17.4407218-17.282082v-7.123176c0-9.574274 5.5642262-17.2820843 16.8987308-17.2820843z" style="fill:#2ac149;stroke:#000;stroke-width:.337041;stroke-linecap:square;stroke-linejoin:bevel;stroke-opacity:.078125"/><g fill="none" fill-rule="evenodd" transform="matrix(.96404542 0 0 1 7.999029 15.586074)"><path d="m15.158378 15.999916c7.805717 0 15.508289-3.333316 17.508289-5.333305-1.166468-1.7696129-7.87807-10.83282433-17.508289-10.66437724-10.3519534.18105844-14.34337365 9.99240744-14.49171133 10.66437724 0 0 6.68599453 5.333305 14.49171133 5.333305z" fill="#fff"/><path d="m15.671406 1c-.40574 0-.807454.037962-1.194314.1041932v1.4871444c-.63758.1415575-1.228698.3987156-1.763031.7388355l-1.061614-1.0608911c-.66301.4648254-1.23925 1.0437849-1.7061602 1.7050066l1.0616132 1.0608916c-.34035.5339792-.59769 1.1246931-.739336 1.7618422h-1.4976341c-.068183.3919497-.1042632.7915465-.1042632 1.2029776 0 .4114399.036081.8204932.1042632 1.2124468h1.4976341c.141646.6371571.398986 1.2278742.739336 1.7618422l-1.0616132 1.060892c.4676602.662276 1.0513002 1.230333 1.7156392 1.695538l1.052135-1.051423c.534333.340112 1.125451.597285 1.763031.738835v1.477672c.38686.066227.78857.104197 1.194314.104197.417193-.000004.825596-.03426 1.22275-.104197v-1.477672c.637581-.14155 1.228698-.398711 1.763031-.738835l1.033177 1.041947c.662725-.467337 1.250121-1.041113 1.71564-1.705004l-1.042652-1.04195c.340347-.533975.597682-1.1246851.739332-1.7618422h1.459718c.068184-.3919505.104265-.8010183.104265-1.2124468 0-.4114202-.03609-.8110239-.104265-1.2029776h-1.459718c-.14165-.6371575-.398985-1.2278704-.739332-1.7618422l1.042652-1.041947c-.464831-.6629135-1.044669-1.2475019-1.706165-1.7144789l-1.042652 1.0514188c-.534333-.340116-1.12545-.5972815-1.763031-.7388355v-1.4776716c-.397154-.0699374-.805557-.113666-1.22275-.113666zm-.0095 3.7794317c1.779693.0000079 3.232228 1.4420796 3.232228 3.2205683 0 1.7784926-1.452535 3.220569-3.232228 3.220569-1.779693.000008-3.222749-1.4420799-3.222749-3.220569 0-1.7784804 1.443056-3.2205683 3.222749-3.2205683z" fill="#2ac149"/></g></svg>