<svg height="48" width="48" xmlns="http://www.w3.org/2000/svg" xmlns:xlink="http://www.w3.org/1999/xlink"><linearGradient id="a" gradientTransform="matrix(.30902336 0 0 .30380027 -64.017299 1.993676)" gradientUnits="userSpaceOnUse" x1="288.11157" x2="287.57547" y1="141.78452" y2="79.007812"><stop offset="0" stop-opacity=".046875"/><stop offset="1" stop-opacity="0"/></linearGradient><path d="m2.7498407 26.220541v1.668528c0 9.574276 5.6792096 17.282199 17.4405083 17.282199h7.049592c15.392533 0 18.143072-11.322632 18.143072-17.282199v-1.668528c0 5.959567-2.750539 17.282198-18.143072 17.282198h-7.049592c-11.7612987 0-17.4405083-7.707923-17.4405083-17.282198z" fill="url(#a)"/><path d="m19.648602 2.7423187h8.641122c14.146859 0 17.09331 11.2468653 17.09331 17.2820843v7.123176c0 5.959564-2.750662 17.282082-18.143195 17.282082h-7.049246c-11.7612986 0-17.4407218-7.707808-17.4407218-17.282082v-7.123176c0-9.574274 5.5642262-17.2820843 16.8987308-17.2820843z" style="fill:#ececec;stroke:#000;stroke-width:.337041;stroke-linecap:square;stroke-linejoin:bevel;stroke-opacity:.078125"/><g transform="matrix(1.0242753 0 0 1.0205998 57.821557 -2.973289)"><path d="m-26.340389 19.560745v-.244c0-.476-.346667-.86-.712-.858667-.364.0013-.686667.388-.688.864l-.024 11.542667c-.922667-.478667-2.113333-.512-3.476-.04267-2.006667.692-3.12 2.588-2.546667 4.06.573334 1.470667 2.64 2.04 4.617334 1.270667 1.62-.630667 2.674666-1.964 2.689333-3.233333.01333-.06667.032-10.004.032-10.004 3.724.992 4.326667 3.177333 4.326667 3.177333.653333 1.590667-.132 3.553333-.132 3.553333s-.06533.244.126666.321334c.242667.09733.353334-.134667.353334-.134667 1.165333-2.518667.450666-4.514667.450666-4.514667-.650666-2.237333-2.944-3.476-2.944-3.476-1.756-1.094666-2.073333-1.924-2.073333-2.281333z" fill="#f60" fill-rule="evenodd"/><g stroke="#f60"><path d="m-44.804037 16.050883h14.075809" fill="#f60" fill-rule="evenodd"/><path d="m-44.804037 22.050883h14.075809" fill="none"/><path d="m-44.804037 28.050883h14.075809" fill="none"/></g></g></svg>