<svg height="48" width="48" xmlns="http://www.w3.org/2000/svg" xmlns:xlink="http://www.w3.org/1999/xlink"><linearGradient id="a" gradientTransform="matrix(.30902336 0 0 .30380027 -64.017299 1.993676)" gradientUnits="userSpaceOnUse" x1="288.11157" x2="287.57547" y1="141.78452" y2="79.007812"><stop offset="0" stop-opacity=".046875"/><stop offset="1" stop-opacity="0"/></linearGradient><path d="m2.7498407 26.220541v1.668528c0 9.574276 5.6792096 17.282199 17.4405083 17.282199h7.049592c15.392533 0 18.143072-11.322632 18.143072-17.282199v-1.668528c0 5.959567-2.750539 17.282198-18.143072 17.282198h-7.049592c-11.7612987 0-17.4405083-7.707923-17.4405083-17.282198z" fill="url(#a)"/><path d="m19.648602 2.7423187h8.641122c14.146859 0 17.09331 11.2468653 17.09331 17.2820843v7.123176c0 5.959564-2.750662 17.282082-18.143195 17.282082h-7.049246c-11.7612986 0-17.4407218-7.707808-17.4407218-17.282082v-7.123176c0-9.574274 5.5642262-17.2820843 16.8987308-17.2820843z" style="fill:#9951ab;stroke:#000;stroke-width:.337041;stroke-linecap:square;stroke-linejoin:bevel;stroke-opacity:.078125"/><g fill="#fff" fill-rule="evenodd"><path d="m18.648941 12.742319v2.999999h-3.000339v-2.999999zm-.000339 2.999999h3.000339v3h-3.000339zm-3 3h3.000339v3h-3.000339zm3 3h3.000339v3h-3.000339zm0 6h3.000339v3h-3.000339zm-3-3h3.000339v3h-3.000339zm3 9h3.000339v3h-3.000339zm-3-3h3.000339v3h-3.000339zm.000339 7.006667h6v3h-6zm-.000339-32.0066663h6v6.0000003h-6zm4-3v3h-2v-3z"/><g transform="matrix(.83896605 0 0 1 53.800878 -7.955499)"><path d="m-29.222035 41.243062h1.15l.95-2h4.800002l.949996 2h1.150002l-4-9h-1zm4.523809-8 1.976191 5h-4z"/><path d="m-32.722035 37.243062 4 4h-1.5l-4-4c-.06619 0 0 4 0 4h-1v-4-5h3.495118c1.385512 0 2.504882 1.113674 2.504882 2.5 0 1.382123-1.11917 2.5-2.504882 2.5zm.995118-4c.834366 0 1.504882.667104 1.504882 1.5 0 .82958-.671196 1.5-1.504882 1.5h-2.495118s-.170166-3 0-3z"/><path d="m-17.722035 37.243062 4 4h-1.5l-4-4c-.06619 0 0 4 0 4h-1v-4-5h3.495118c1.385512 0 2.504882 1.113674 2.504882 2.5 0 1.382123-1.11917 2.5-2.504882 2.5zm.995118-4c.834366 0 1.504882.667104 1.504882 1.5 0 .82958-.671196 1.5-1.504882 1.5h-2.495118s-.170166-3 0-3z"/></g></g></svg>