<svg height="48" width="48" xmlns="http://www.w3.org/2000/svg" xmlns:xlink="http://www.w3.org/1999/xlink"><linearGradient id="a" gradientTransform="matrix(.30902336 0 0 .30380027 -64.017299 1.993676)" gradientUnits="userSpaceOnUse" x1="288.11157" x2="287.57547" y1="141.78452" y2="79.007812"><stop offset="0" stop-opacity=".046875"/><stop offset="1" stop-opacity="0"/></linearGradient><path d="m2.7498407 26.220541v1.668528c0 9.574276 5.6792096 17.282199 17.4405083 17.282199h7.049592c15.392533 0 18.143072-11.322632 18.143072-17.282199v-1.668528c0 5.959567-2.750539 17.282198-18.143072 17.282198h-7.049592c-11.7612987 0-17.4405083-7.707923-17.4405083-17.282198z" fill="url(#a)"/><path d="m19.648602 2.7423187h8.641122c14.146859 0 17.09331 11.2468653 17.09331 17.2820843v7.123176c0 5.959564-2.750662 17.282082-18.143195 17.282082h-7.049246c-11.7612986 0-17.4407218-7.707808-17.4407218-17.282082v-7.123176c0-9.574274 5.5642262-17.2820843 16.8987308-17.2820843z" style="fill:#565656;stroke:#000;stroke-width:.337041;stroke-linecap:square;stroke-linejoin:bevel;stroke-opacity:.078125"/><g fill="#fff" fill-rule="evenodd" transform="matrix(.9171475 0 0 1.0556772 10.025416 11.684804)"><path d="m20.769967 2.787309c-.06851.014568-.12848-.035378-.189499-.060528-1.206655-.5738999-2.491114-.9070389-3.783925-1.0873136-2.126471-.2509882-4.303509-.0493293-6.343501.7048611-1.5019544.5598998-2.9523859 1.4232544-4.0723937 2.7252081-.793718.9355459-1.4031169 2.1458003-1.4858338 3.4718471-.0769685.6319481.054308 1.2628034.1704327 1.8760533-.4435478.052152-.8780668.177502-1.3185062.255572-1.2395104.256201-2.4788144.514003-3.71867267.767898-.01217447-1.024386.21975903-2.0378829.5888626-2.9646136.73415197-1.8044191 2.00723237-3.2460995 3.42575307-4.3499251.9591747-.742275 1.995998-1.3478335 3.0728918-1.8280051 1.4346686-.6464804 2.9378422-1.0881893 4.4616262-1.34237121.637066-.11282394 1.279603-.19530159 1.923655-.23438791.114418-.0314179.232767-.0249978.349658-.0298143.913838-.0335959 1.828935-.0320789 2.742387.0153595 1.648691.13439987 3.289032.45008592 4.872735.98661262 2.135446.7208726 4.197619 1.8591886 5.882107 3.555352.688781.7108901 1.311748 1.5151185 1.790203 2.4301249.566582 1.0768123.925616 2.3099782.964033 3.5733462-1.674854-.337397-3.349241-.677671-5.023865-1.016217.206106-.755557.207866-1.5781864.06673-2.3492176-.261573-1.3325422-1.002765-2.4766395-1.896812-3.3451302-.7453-.7228131-1.595574-1.302094-2.478066-1.7547112z"/><path d="m15.028649 7.8177083c-.315917 0-.579387.206192-.690396.5-.243123-.04551-.489853-.089602-.734463-.125-.01659.096289-.031.1842045-.04407.28125.231055.04218.461025.088337.690396.140625.0095.00155.01984-.0015.02938 0 0 .4413075.334274.796875.749153.796875.328446 0 .617691-.2188655.719774-.53125.277323.051071.559606.108038.837289.15625.748105.135449 1.484093.2896375 2.232769.421875.788156.1525795 1.576245.2884075 2.364973.4375 1.137247.2085697 2.284034.4413997 3.4226.6406247 1.820764.354624 3.642386.68324 5.46441 1.03125.376926.06406.753675.140465 1.131074.203125.01165-.09477.02082-.189041.04407-.28125-.380389-.08922-.76365-.139762-1.145763-.21875-1.674853-.311377-3.349106-.625063-5.023731-.9375-.384896-.06686-.760019-.158663-1.145763-.21875-1.147159-.2238477-2.303141-.4264177-3.451979-.6406247-.111895-.03122-.225548-.035545-.337853-.0625-.274673-.049015-.546839-.115385-.8226-.15625-1.147842-.221005-2.302179-.430705-3.451978-.640625-.02233-.0094-.04891-.01121-.07345-.015625-.0082-.4337615-.354098-.78125-.763842-.78125z"/><path d="m3.0002144 12.345044c.0009453.03887.00232.154685.00332.193556.711612-.165995 1.381501-.235951 2.1093229-.192916.5299597.05197 1.0165383.295249 1.4904811.536747-.5342696.353944-1.0779269.694814-1.599304 1.069301-.580991-.480595-1.3091437-.48166-1.9866895-.271385-.00846.07766-.016408.155577-.017129.234201.0003418 1.805965.0007946 3.611962-.0002159 5.417962-.9789816-.000321-2.01943383.0016-2.99840796 0-.00208955-2.315278.00160647-4.668618-.00103035-6.983875.97938159-.0071 2.02027861-.0019 2.99965271-.0036z"/><path d="m8 12.349731c.0007485 2.994392.00168 5.989198 0 8.983602.1369699-.0095 2.213046-.385184 3-.5.0061-.483324-.000218-.970927 0-1.45418.07529-.0036.16262-.01109.238138-.01616 1.188631-.09324 2.128722-.391351 3.177565-1.051125.613424-.398232 1.217451-.928056 1.498865-1.696543.239732-.640568.123282-1.385785-.182105-1.971223-.402122-.753647-1.071408-1.260837-1.765019-1.599598-1.116786-.533112-2.34241-.718801-3.544045-.710932-.8108372.001888-1.6126279.008276-2.423399.016159zm5.5 3.483602c0 1.5-1.976615 2.657498-2.5 2.737939-.0018-1.838887.01182-3.687023.01401-5.525884.708259.08198 2.48599 1.287945 2.48599 2.787945z"/><path d="m27 12.338822c1.001376.0043 2.997774-.0055 2.997774.843096 0 0 .0027 4.100971.0022 6.151415-.996226-.000231-2.003853-.000875-3 0-.000218-2.034465-.006-3.465607 0-5.5 0-.5-.7753-.469318-1-.498393-.614398-.01696-.385499.000207-1-.0016.000131 2.099477.0032 3.900513 0 6-.997636-.000965-2.002427-.000249-3-.0012-.0029-1.681698.03246-5.130937 0-5.497223-.0013-.5-.709261-.49847-1.010219-.5-.534364-.000912-.455518-.000614-.989781-.0016-.0026 2.100187.0051 3.898234-.0011 5.998413-.93936-.0013-1.878702-.0019-2.818.000417-.0647.0054-.125014-.0078-.180936-.03963.01545-2.317637.0037-4.635866.0059-6.953716 3.422703-.01108 6.571261.0035 9.99411.000004z"/></g></svg>