<svg height="48" width="48" xmlns="http://www.w3.org/2000/svg" xmlns:xlink="http://www.w3.org/1999/xlink"><linearGradient id="a" gradientTransform="matrix(.30902336 0 0 .30380027 -64.017299 1.993676)" gradientUnits="userSpaceOnUse" x1="288.11157" x2="287.57547" y1="141.78452" y2="79.007812"><stop offset="0" stop-opacity=".046875"/><stop offset="1" stop-opacity="0"/></linearGradient><path d="m2.7498407 26.220541v1.668528c0 9.574276 5.6792096 17.282199 17.4405083 17.282199h7.049592c15.392533 0 18.143072-11.322632 18.143072-17.282199v-1.668528c0 5.959567-2.750539 17.282198-18.143072 17.282198h-7.049592c-11.7612987 0-17.4405083-7.707923-17.4405083-17.282198z" fill="url(#a)"/><path d="m19.648602 2.7423187h8.641122c14.146859 0 17.09331 11.2468653 17.09331 17.2820843v7.123176c0 5.959564-2.750662 17.282082-18.143195 17.282082h-7.049246c-11.7612986 0-17.4407218-7.707808-17.4407218-17.282082v-7.123176c0-9.574274 5.5642262-17.2820843 16.8987308-17.2820843z" style="fill:#a663e1;stroke:#000;stroke-width:.337041;stroke-linecap:square;stroke-linejoin:bevel;stroke-opacity:.078125"/><g fill="none" stroke="#fff" transform="translate(56.637941 .048589)"><path d="m-23.571489 13.037426h-17s9.5 10 0 19h15" stroke-linecap="round" stroke-linejoin="round"/><circle cx="-23.571489" cy="32.037426" r="2"/><path d="m-43.571487 31.037426h3v3h-3z"/></g></svg>