<svg height="48" width="48" xmlns="http://www.w3.org/2000/svg" xmlns:xlink="http://www.w3.org/1999/xlink"><linearGradient id="a" gradientTransform="matrix(.30902336 0 0 .30380027 -64.017299 1.993676)" gradientUnits="userSpaceOnUse" x1="288.11157" x2="287.57547" y1="141.78452" y2="79.007812"><stop offset="0" stop-opacity=".046875"/><stop offset="1" stop-opacity="0"/></linearGradient><path d="m2.7498407 26.220541v1.668528c0 9.574276 5.6792096 17.282199 17.4405083 17.282199h7.049592c15.392533 0 18.143072-11.322632 18.143072-17.282199v-1.668528c0 5.959567-2.750539 17.282198-18.143072 17.282198h-7.049592c-11.7612987 0-17.4405083-7.707923-17.4405083-17.282198z" fill="url(#a)"/><path d="m19.648602 2.7423187h8.641122c14.146859 0 17.09331 11.2468653 17.09331 17.2820843v7.123176c0 5.959564-2.750662 17.282082-18.143195 17.282082h-7.049246c-11.7612986 0-17.4407218-7.707808-17.4407218-17.282082v-7.123176c0-9.574274 5.5642262-17.2820843 16.8987308-17.2820843z" style="fill:#1faa2f;stroke:#000;stroke-width:.337041;stroke-linecap:square;stroke-linejoin:bevel;stroke-opacity:.078125"/><g fill="#fff" fill-rule="evenodd"><path d="m17.856215 12.389276c-2.850029 0-5.107845 1.059858-6.736431 3.218828-1.5175502 1.962698-2.2578162 4.474955-2.2578162 7.576021 0 3.101065.740266 5.613321 2.2578162 7.536766 1.591573 2.041208 3.812375 3.061812 6.699417 3.061812 2.368856 0 4.256538-.667317 5.700058-1.962701 1.480535-1.334635 2.405869-3.336588 2.850029-5.927353h-2.961069c-.44416 3.493607-2.331842 5.260036-5.589018 5.260036-1.924695 0-3.405228-.745827-4.40459-2.158968-1.036373-1.413144-1.517548-3.375845-1.517548-5.848847 0-2.473001.518188-4.435701 1.554563-5.888099 1.073386-1.49165 2.55392-2.237477 4.404589-2.237477 1.517548 0 2.738989.353286 3.701337 1.138365.925334.78508 1.517547 1.962699 1.776641 3.532859h2.924055c-.33312-2.473001-1.221441-4.317938-2.701976-5.534813-1.44352-1.177619-3.331202-1.766429-5.700057-1.766429z"/><path d="m43 40v-1h-3v-3h-1v3h-3v1h3v3h1v-3z" transform="translate(-.950826 -16.25)"/><path d="m40 32h3v-1h-3v-3h-1v3h-3v1h3v3h1z" transform="translate(-9.325826 -8.25)"/></g></svg>