<svg height="48" width="48" xmlns="http://www.w3.org/2000/svg" xmlns:xlink="http://www.w3.org/1999/xlink"><linearGradient id="a" gradientTransform="matrix(.30902336 0 0 .30380027 -64.017299 1.993676)" gradientUnits="userSpaceOnUse" x1="288.11157" x2="287.57547" y1="141.78452" y2="79.007812"><stop offset="0" stop-opacity=".046875"/><stop offset="1" stop-opacity="0"/></linearGradient><linearGradient id="b" gradientTransform="matrix(.89871703 0 0 1.1126973 -50.046913 -5.773558)" gradientUnits="userSpaceOnUse" x1="2.581351" x2="45.551556" y1="23.585991" y2="23.585991"><stop offset="0" stop-color="#dadef0"/><stop offset="1" stop-color="#f5f5fa"/></linearGradient><path d="m2.7498407 26.220541v1.668528c0 9.574276 5.6792096 17.282199 17.4405083 17.282199h7.049592c15.392533 0 18.143072-11.322632 18.143072-17.282199v-1.668528c0 5.959567-2.750539 17.282198-18.143072 17.282198h-7.049592c-11.7612987 0-17.4405083-7.707923-17.4405083-17.282198z" fill="url(#a)"/><path d="m19.648602 2.7423187h8.641122c14.146859 0 17.09331 11.2468653 17.09331 17.2820843v7.123176c0 5.959564-2.750662 17.282082-18.143195 17.282082h-7.049246c-11.7612986 0-17.4407218-7.707808-17.4407218-17.282082v-7.123176c0-9.574274 5.5642262-17.2820843 16.8987308-17.2820843z" style="stroke:#000;stroke-width:.337041;stroke-linecap:square;stroke-linejoin:bevel;stroke-opacity:.078125;fill:url(#b)"/><g transform="matrix(.48439386 0 0 .48075346 50.371505 13.130236)"><path d="m-26.30509 12.762712v2h-56v-2zm0 12v2h-56v-2zm0 12v2h-56v-2zm-28 12v2h-28v-2z" fill="#7b83d6" fill-rule="evenodd"/><path d="m66 96h2v2h-2z" fill="#7b83d6" fill-rule="evenodd" transform="translate(-118.30509 -47.237288)"/><path d="m-68.369736-2.0677965h3.977126c1.319076 0 2.388397.9944012 2.388397 2.21549639 0 1.22358471-1.065446 2.21549641-2.388397 2.21549641h-3.977126z" fill="none" stroke="#7b83d6" stroke-width="1.533123"/><path d="m-68.369736-6.4987892h3.977126c1.319076 0 2.388397.9944012 2.388397 2.2154964 0 1.2235846-1.065446 2.2154963-2.388397 2.2154963h-3.977126z" fill="none" stroke="#7b83d6" stroke-width="1.533123"/><g fill="#7b83d6" fill-rule="evenodd"><path d="m-80.30509 3.1016951h1.670948l.556987-1.4769976h5.092413l.556987 1.4769976h1.670948l-3.916965-10.3389831h-1.652867zm2.705349-2.95399521 2.068793-5.46489249 2.068793 5.46489249z"/><path d="m-54.737918 1.6246975c-1.619082 0-3.287844-1.40274746-3.287844-2.839324v-1.7063406c0-1.4377486 1.66229-2.8393233 3.287844-2.8393233.851531 0 1.728472.1846852 2.281988.7384988l1.377437-.7562833c-.920043-.9205358-2.241737-1.4592131-3.659425-1.4592131-2.705677 0-4.879224 1.9288577-4.879224 4.3163209v1.7063406c0 2.387808 2.181748 4.3163216 4.879224 4.3163216 1.46594 0 2.82174-.568537 3.740816-1.5354387l-1.458828-.68005772c-.551466.58016172-1.39806.73849882-2.281988.73849882z"/></g></g></svg>