<svg height="48" width="48" xmlns="http://www.w3.org/2000/svg" xmlns:xlink="http://www.w3.org/1999/xlink"><linearGradient id="a" gradientTransform="matrix(.30902336 0 0 .30380027 -64.161117 2.712767)" gradientUnits="userSpaceOnUse" x1="288.11157" x2="287.57547" y1="141.78452" y2="79.007812"><stop offset="0" stop-opacity=".046875"/><stop offset="1" stop-opacity="0"/></linearGradient><path d="m2.6060224 26.939633v1.668528c0 9.574276 5.6792096 17.282199 17.4405086 17.282199h7.049592c15.392533 0 18.143072-11.322632 18.143072-17.282199v-1.668528c0 5.959567-2.750539 17.282198-18.143072 17.282198h-7.049592c-11.761299 0-17.4405086-7.707923-17.4405086-17.282198z" fill="url(#a)"/><path d="m19.504784 3.4614104h8.641122c14.146859 0 17.09331 11.2468656 17.09331 17.2820846v7.123176c0 5.959564-2.750662 17.282082-18.143195 17.282082h-7.049246c-11.7612989 0-17.4407221-7.707808-17.4407221-17.282082v-7.123176c0-9.574274 5.5642262-17.2820846 16.8987311-17.2820846z" style="fill:#417505;stroke:#000;stroke-width:.337041;stroke-linecap:square;stroke-linejoin:bevel;stroke-opacity:.078125"/><path d="m35.735932 26.81962c-1.010258-.413509-1.722069-1.377806-1.722069-2.512865 0-1.136732.713526-2.101029 1.723783-2.512864.133788-.05525.216118-.190851.181813-.329803-.305307-1.227137-.802717-2.380609-1.459642-3.428613-.07547-.120537-.231554-.160716-.367055-.105472-1.013688.405139-2.216048.215962-3.039348-.587618-.823301-.803582-1.017119-1.975471-.602038-2.96488.05489-.130582.01543-.282927-.108061-.358263-1.075435-.641191-2.257213-1.126688-3.514461-1.424682-.142363-.03349-.281295.04687-.337897.177458-.42194.987734-1.411615 1.685846-2.576242 1.685846-1.16291 0-2.150871-.696437-2.574527-1.682498-.05661-.130583-.195533-.21094-.337896-.177458-1.257247.299669-2.440741.78684-3.514461 1.429705-.123495.07366-.16123.224332-.108061.353241.413365.989409.219546 2.161297-.603754 2.964879-.821585.801907-2.020515.992758-3.032488.590966-.133786-.05356-.286439-.01506-.361909.105472-.656924 1.049678-1.154334 2.204826-1.457927 3.431961-.0343.137278.04803.274558.181812.329803 1.006828.41351 1.718639 1.377808 1.718639 2.511191 0 1.133384-.708382 2.094333-1.713493 2.509517-.133787.05525-.216116.19085-.181812.329803.305307 1.227135.806147 2.380609 1.464788 3.430287.07547.118863.228122.157367.361909.105472 1.011973-.400117 2.209188-.207592 3.029057.592641.81987.798558 1.015404 1.967099.607184 2.95316-.05316.130581-.01372.279579.10806.353241 1.075435.642865 2.25893 1.128361 3.516177 1.426356.140647.03349.281294-.04687.337896-.177458.425372-.981038 1.411617-1.672452 2.571096-1.672452 1.161197 0 2.145726.691414 2.571098 1.672452.05661.130582.195533.210941.337895.177458 1.257248-.297995 2.440741-.783491 3.516178-1.426356.123494-.07366.161229-.22266.10806-.353241-.41165-.987735-.216117-2.15795.605467-2.959857.821586-.801907 2.022231-.991083 3.034204-.589293.133786.05356.286439.01506.361909-.105472.658639-1.049678 1.157766-2.203152 1.463073-3.431961.03087-.138952-.05145-.274557-.186957-.329803zm-11.814353 3.344906c-3.310352 0-6.003229-2.62838-6.003229-5.859444 0-3.231066 2.692877-5.859445 6.003229-5.859445 3.310351 0 6.003227 2.628379 6.003227 5.859445 0 3.231064-2.692876 5.859444-6.003227 5.859444z" fill="#fff" fill-rule="evenodd"/></svg>