<svg height="48" width="48" xmlns="http://www.w3.org/2000/svg" xmlns:xlink="http://www.w3.org/1999/xlink"><linearGradient id="a" gradientTransform="matrix(.30902336 0 0 .30380027 -64.017299 1.993676)" gradientUnits="userSpaceOnUse" x1="288.11157" x2="287.57547" y1="141.78452" y2="79.007812"><stop offset="0" stop-opacity=".046875"/><stop offset="1" stop-opacity="0"/></linearGradient><path d="m2.7498407 26.220541v1.668528c0 9.574276 5.6792096 17.282199 17.4405083 17.282199h7.049592c15.392533 0 18.143072-11.322632 18.143072-17.282199v-1.668528c0 5.959567-2.750539 17.282198-18.143072 17.282198h-7.049592c-11.7612987 0-17.4405083-7.707923-17.4405083-17.282198z" fill="url(#a)"/><path d="m19.648602 2.7423187h8.641122c14.146859 0 17.09331 11.2468653 17.09331 17.2820843v7.123176c0 5.959564-2.750662 17.282082-18.143195 17.282082h-7.049246c-11.7612986 0-17.4407218-7.707808-17.4407218-17.282082v-7.123176c0-9.574274 5.5642262-17.2820843 16.8987308-17.2820843z" style="fill:#9013fe;stroke:#000;stroke-width:.337041;stroke-linecap:square;stroke-linejoin:bevel;stroke-opacity:.078125"/><g fill="#fff" fill-rule="evenodd" transform="matrix(.87736789 0 0 .9250669 8.566286 14.797854)"><path d="m13.333333.02948085h-12.39999992l-.26666641 4.60881645h.63756213c.2667107-3.4517743.3558743-3.3977915 3.5564128-3.3977915h1.1393584c.394233.0623.598453.3155605.598453.7952085v10.6850557c0 .753132-.062511.982858-1.8011364.982858h-.5859319v1.224943c.9901666-.01944 2.0220069-.03963 3.0346773-.03963 1.0093365 0 2.0445107.0202 3.033844.03963v-1.224943h-.5759304c-1.7127966 0-1.7744653-.229726-1.7744653-.982858v-10.6850557c0-.4602854 0-.7102073.3717292-.7952085h1.1326906c3.1580319 0 3.4672499-.057366 3.7339619 3.3977915h.832108"/><path d="m22.711871 13.480634-.537591.769366c-.452576 3.089943-.181697 3.536419-3.812308 3.536419h-2.864648c-.824306 0-.863479-.105186-.863479-.822133v-4.75h1.946994c1.946994 0 1.738626.955576 1.738626 2.714285h.725955v-6.2671376h-.725955c0 1.7292576.208368 2.4361066-1.738626 2.4361066h-1.946994v-5.1641846c0-.7034838.03917-.8086698.863479-.8086698h2.822141c3.193871 0 3.5656 1.2815943 3.854815 4.0365915h.537591v-5.0898485h-11.11187v1.053257c1.461913 0 1.696119 0 1.696119.9365507v10.7818747c0 .93666-.230872.93666-1.696119.93666v1.220229h11.11187"/><path d="m28.188076 6.3212728 3.053848-4.4573522c.305884-.4375905.927656-.7758534 2.621274-.798555v-1.0653656c-.472579.03954748-1.256878.03954748-1.751961.03954748-.680115 0-1.526924 0-2.041177-.03954748v1.0653656c.660944.062249.596607.1867934.596607.5225386 0 .2490972-.449916.9194008-.596607 1.1263815l-2.148695 3.2190697s-2.751393-4.2831979-2.751393-4.3454512c0-.1876686-.449146-.5225386.442671-.5225386v-1.0653656c-.660944.03954748-1.670281.03954748-2.350395.03954748-.534257 0-1.566097 0-2.064514-.03954748v1.0653656c1.133524 0 1.895318.1514661 2.351229.798555l3.590604 5.2332039-3.590604 5.2955495c-.885983 1.29505-2.227042 1.317686-2.621275 1.317686v1.218211c.471746-.03955 1.243895 0 1.738979 0 .55676 0 1.539906-.03955 2.054159 0v-1.218211c-.63844-.06219-.823472-.479648-.823472-.815402 0-.269276.100851-.417378.205035-.565479l3.301389-4.8646159 3.590604 5.3282749c.162527.230652.162527.292838.162527.355108 0 .16409-.185031.522564-.907652.56548v1.214845c.660944-.03955 1.796969 0 2.477083 0 .534257 0 1.439409-.03955 1.940327 0v-1.214845c-1.321889 0-1.530258-.10182-1.940327-.689936"/></g></svg>