<svg height="48" width="48" xmlns="http://www.w3.org/2000/svg" xmlns:xlink="http://www.w3.org/1999/xlink"><linearGradient id="a" gradientTransform="matrix(.30902336 0 0 .30380027 -64.017299 1.993676)" gradientUnits="userSpaceOnUse" x1="288.11157" x2="287.57547" y1="141.78452" y2="79.007812"><stop offset="0" stop-opacity=".046875"/><stop offset="1" stop-opacity="0"/></linearGradient><path d="m2.7498407 26.220541v1.668528c0 9.574276 5.6792096 17.282199 17.4405083 17.282199h7.049592c15.392533 0 18.143072-11.322632 18.143072-17.282199v-1.668528c0 5.959567-2.750539 17.282198-18.143072 17.282198h-7.049592c-11.7612987 0-17.4405083-7.707923-17.4405083-17.282198z" fill="url(#a)"/><path d="m19.648602 2.7423187h8.641122c14.146859 0 17.09331 11.2468653 17.09331 17.2820843v7.123176c0 5.959564-2.750662 17.282082-18.143195 17.282082h-7.049246c-11.7612986 0-17.4407218-7.707808-17.4407218-17.282082v-7.123176c0-9.574274 5.5642262-17.2820843 16.8987308-17.2820843z" style="fill:#e56927;stroke:#000;stroke-width:.337041;stroke-linecap:square;stroke-linejoin:bevel;stroke-opacity:.078125"/><g fill="#fff" fill-rule="evenodd" transform="matrix(1.0591325 0 0 1.1638476 .879492 -1.959477)"><path d="m14.029313 14.949151c-1.953489 0-3.501057.693578-4.6173359 2.106422-1.040169 1.284404-1.547569 2.92844-1.547569 4.957798s.5074 3.673395 1.547569 4.93211c1.0909089 1.33578 2.6131069 2.00367 4.5919659 2.00367 1.623678 0 2.917547-.436697 3.906977-1.284404 1.014799-.873394 1.649048-2.183486 1.953488-3.878899h-2.029598c-.30444 2.286239-1.598309 3.442202-3.830867 3.442202-1.319239 0-2.334038-.488073-3.019028-1.412844-.710359-.924771-1.0401689-2.209174-1.0401689-3.827523s.3551799-2.902752 1.0655389-3.853211c.73573-.976147 1.750529-1.46422 3.019028-1.46422 1.040169 0 1.877378.231193 2.536998.744954.634249.513761 1.040169 1.284404 1.217759 2.311927h2.004228c-.22833-1.618349-.837209-2.825688-1.852008-3.622019-.98943-.770642-2.283298-1.155963-3.906977-1.155963z"/><path d="m24.272408 19.949151c-.928 0-1.696.214679-2.272.644037-.624.429357-.928.990825-.928 1.717431 0 .726605.304 1.271559.944 1.66789.384.26422 1.072.511926 2.048.759633.896.231193 1.488.412844 1.76.544954.512.26422.784.627523.784 1.106422 0 .957798-.752 1.453211-2.224 1.453211-.704 0-1.232-.13211-1.584-.39633-.352-.297248-.592-.776147-.688-1.453211h-1.248c.192 1.965137 1.376 2.955963 3.552 2.955963 2.336 0 3.504-.891743 3.504-2.642202 0-.743119-.336-1.321101-.992-1.750459-.432-.280734-1.136-.544954-2.128-.79266-.832-.231193-1.408-.412844-1.712-.561468-.48-.247706-.704-.561468-.704-.924771 0-.379816.176-.677064.528-.891743.32-.231192.768-.330275 1.344-.330275.656 0 1.168.13211 1.52.39633.32.231193.528.627523.64 1.155964h1.248c-.224-1.783487-1.344-2.658716-3.392-2.658716zm8 0c-.928 0-1.696.214679-2.272.644037-.624.429357-.928.990825-.928 1.717431 0 .726605.304 1.271559.944 1.66789.384.26422 1.072.511926 2.048.759633.896.231193 1.488.412844 1.76.544954.512.26422.784.627523.784 1.106422 0 .957798-.752 1.453211-2.224 1.453211-.704 0-1.232-.13211-1.584-.39633-.352-.297248-.592-.776147-.688-1.453211h-1.248c.192 1.965137 1.376 2.955963 3.552 2.955963 2.336 0 3.504-.891743 3.504-2.642202 0-.743119-.336-1.321101-.992-1.750459-.432-.280734-1.136-.544954-2.128-.79266-.832-.231193-1.408-.412844-1.712-.561468-.48-.247706-.704-.561468-.704-.924771 0-.379816.176-.677064.528-.891743.32-.231192.768-.330275 1.344-.330275.656 0 1.168.13211 1.52.39633.32.231193.528.627523.64 1.155964h1.248c-.224-1.783487-1.344-2.658716-3.392-2.658716z"/></g></svg>