<svg height="48" width="48" xmlns="http://www.w3.org/2000/svg" xmlns:xlink="http://www.w3.org/1999/xlink"><linearGradient id="a" gradientTransform="matrix(.30902336 0 0 .30380027 -64.017299 1.993676)" gradientUnits="userSpaceOnUse" x1="288.11157" x2="287.57547" y1="141.78452" y2="79.007812"><stop offset="0" stop-opacity=".046875"/><stop offset="1" stop-opacity="0"/></linearGradient><path d="m2.7498407 26.220541v1.668528c0 9.574276 5.6792096 17.282199 17.4405083 17.282199h7.049592c15.392533 0 18.143072-11.322632 18.143072-17.282199v-1.668528c0 5.959567-2.750539 17.282198-18.143072 17.282198h-7.049592c-11.7612987 0-17.4405083-7.707923-17.4405083-17.282198z" fill="url(#a)"/><path d="m19.648602 2.7423187h8.641122c14.146859 0 17.09331 11.2468653 17.09331 17.2820843v7.123176c0 5.959564-2.750662 17.282082-18.143195 17.282082h-7.049246c-11.7612986 0-17.4407218-7.707808-17.4407218-17.282082v-7.123176c0-9.574274 5.5642262-17.2820843 16.8987308-17.2820843z" style="fill:#ff7a32;stroke:#000;stroke-width:.337041;stroke-linecap:square;stroke-linejoin:bevel;stroke-opacity:.078125"/><path d="m22.267066 23.195384h1.41498c2.464016.09758 3.439864 1.097829 3.708222 3.781411l.121981 1.244206c.292755 2.756771 1.195414 3.878997 3.122714 3.878997 2.000489 0 2.951941-1.341792 3.025129-4.269336h-1.02464c-.09759 1.683338-.390339 2.415224-1.049037 2.415224-.561113 0-.805075-.414735-1.21981-2.098073l-.390339-1.536961c-.536717-2.24445-1.488169-3.269091-3.391072-3.757015 3.513053-.487924 5.196391-1.902904 5.196391-4.36692 0-2.781167-2.342036-4.36692-6.440598-4.36692h-8.441086v1.146621h.439132c1.390584.0244 1.854111.09759 2.049281.341547.146377.219566.146377.268358.146377 1.512565v11.636988c0 1.21981 0 1.268602-.146377 1.512564-.19517.243962-.658697.317151-2.049281.317151h-.439132v1.146622h8.001955v-1.146622h-.439132c-1.390583 0-1.854111-.07319-2.049281-.317151-.146377-.243962-.146377-.292754-.146377-1.512564zm0-1.146622v-5.367164c-.04879-1.341791.07319-1.439376 1.683338-1.41498h1.317395c2.415224 0 3.513053 1.024641 3.513053 3.244695 0 1.244206-.317151 2.195658-.951452 2.707978-.609905.512321-1.707734.829471-2.878752.829471z" fill="#fff"/></svg>