<svg height="48" width="48" xmlns="http://www.w3.org/2000/svg" xmlns:xlink="http://www.w3.org/1999/xlink"><linearGradient id="a" gradientTransform="matrix(.30902336 0 0 .30380027 -64.017299 1.993676)" gradientUnits="userSpaceOnUse" x1="288.11157" x2="287.57547" y1="141.78452" y2="79.007812"><stop offset="0" stop-opacity=".046875"/><stop offset="1" stop-opacity="0"/></linearGradient><path d="m2.7498407 26.220541v1.668528c0 9.574276 5.6792096 17.282199 17.4405083 17.282199h7.049592c15.392533 0 18.143072-11.322632 18.143072-17.282199v-1.668528c0 5.959567-2.750539 17.282198-18.143072 17.282198h-7.049592c-11.7612987 0-17.4405083-7.707923-17.4405083-17.282198z" fill="url(#a)"/><path d="m19.648602 2.7423187h8.641122c14.146859 0 17.09331 11.2468653 17.09331 17.2820843v7.123176c0 5.959564-2.750662 17.282082-18.143195 17.282082h-7.049246c-11.7612986 0-17.4407218-7.707808-17.4407218-17.282082v-7.123176c0-9.574274 5.5642262-17.2820843 16.8987308-17.2820843z" style="fill:#fe8627;stroke:#000;stroke-width:.337041;stroke-linecap:square;stroke-linejoin:bevel;stroke-opacity:.078125"/><g fill="#fff" fill-rule="evenodd" transform="matrix(1 0 0 .92718328 12.958059 9.563944)"><path d="m11.929825 7.36c4.579186-4.8313913 1.192982-7.36 1.192982-7.36s.596491 2.4533333 0 3.68-2.982456 3.0666667-4.7719298 4.2933333c-1.7894737 1.2266667-2.9824564 4.2933337 2.3859648 7.9733337 0 0-1.7894735-2.453334-1.7894735-4.293334 0-1.8399997 2.9351365-4.243407 2.9824565-4.293333z"/><path d="m17.298246 6.1333333s-4.175439.6133334-5.964913 3.0666667c-1.7894733 2.453333 0 3.68.596492 4.906667.596491 1.226666 0 3.066666 0 3.066666s3.578947-3.066666 1.192982-4.906666 4.175439-6.1333337 4.175439-6.1333337z"/><path d="m7.754386 15.946667s-5.3684211.613333-5.3684211 1.84c0 1.226666 7.1578957 3.066666 14.3157891-.613334.000001 0-7.1578945 1.226667-10.7368418.613334-3.5789473-.613334 1.7894738-1.84 1.7894738-1.84z"/><path d="m5.6128858 24.591732s-5.36842102.613333-5.36842102 1.84c0 1.226666 17.05378122 3.008268 20.03623622-.671732 0 0-2.899941.982178-6.561403 1.226667-3.670284.245078-8.104259-.2479-9.8958859-.554935-3.57894731-.613334 1.7894737-1.84 1.7894737-1.84z"/><path d="m6.617416 27.429951s-2.4408743-.928077-2.4408743.298589c0 .919879 8.1415143 2.361663 13.4716093 1.473418 1.777637-.296238 3.242565-.851642 3.988474-1.772007 0 0-1.69838.982178-5.359842 1.226667-3.670284.245078-7.3483889-.247309-9.1400158-.554345-3.5789473-.613333-.5193512-.672322-.5193512-.672322z" transform="matrix(.99254615 -.12186934 .12186934 .99254615 -3.351099 1.783763)"/><path d="m11.929825 20.24c-3.578947.613333-4.0689271.761798-5.3684215.613333-1.2994945-.148465-.5964912-1.226666-.5964912-1.226666s-2.3859649.613333-1.1929825 1.84c1.1929825 1.226666 7.1578952.613333 11.3333332-.613334 0 0-.596491-1.226666-4.175438-.613333z"/><path d="m11.49065 23.605877c-2.6310882.450896-2.9913006.560041-3.9466333.450896-.9553328-.109145-.4385148-.901793-.4385148-.901793s-1.7540594.450897-.8770297 1.35269c.8770296.901793 5.2621778.450896 8.3317818-.450897 0 0-.438515-.901793-3.069604-.450896z"/><path d="m19.68421 17.786667c0-1.840001-2.385964-1.226667-2.385964-1.226667s2.982456-1.226667 4.175438.613333c1.192983 1.84-2.982456 4.906667-4.77193 4.906667 0 0 2.982456-2.453333 2.982456-4.293333z"/></g></svg>