<svg height="48" width="48" xmlns="http://www.w3.org/2000/svg" xmlns:xlink="http://www.w3.org/1999/xlink"><linearGradient id="a" gradientTransform="matrix(.30902336 0 0 .30380027 -64.017299 1.993676)" gradientUnits="userSpaceOnUse" x1="288.11157" x2="287.57547" y1="141.78452" y2="79.007812"><stop offset="0" stop-opacity=".046875"/><stop offset="1" stop-opacity="0"/></linearGradient><path d="m2.7498407 26.220541v1.668528c0 9.574276 5.6792096 17.282199 17.4405083 17.282199h7.049592c15.392533 0 18.143072-11.322632 18.143072-17.282199v-1.668528c0 5.959567-2.750539 17.282198-18.143072 17.282198h-7.049592c-11.7612987 0-17.4405083-7.707923-17.4405083-17.282198z" fill="url(#a)"/><path d="m19.648602 2.7423187h8.641122c14.146859 0 17.09331 11.2468653 17.09331 17.2820843v7.123176c0 5.959564-2.750662 17.282082-18.143195 17.282082h-7.049246c-11.7612986 0-17.4407218-7.707808-17.4407218-17.282082v-7.123176c0-9.574274 5.5642262-17.2820843 16.8987308-17.2820843z" style="fill:#6faffa;stroke:#000;stroke-width:.337041;stroke-linecap:square;stroke-linejoin:bevel;stroke-opacity:.078125"/><path d="m25.908497 11.08599c-.688109.000021-1.284293.254084-1.777003.743495-.492721.489451-.731712 1.076988-.731708 1.765799-.000004.688848.238987 1.276384.731708 1.765799.49271.480385 1.088894.724923 1.777003.724907.688096.000016 1.275353-.244522 1.759582-.724907.492707-.489415.731699-1.076951.731707-1.765799-.000008-.688811-.239-1.276348-.731707-1.765799-.484229-.489411-1.071486-.743474-1.759582-.743495zm-2.145688 7c-.65148.000018-1.33434.148768-2.064777.425197-.730444.264943-1.508157.588407-2.307693.968504l-.323886 1.559055c.236899-.103652.524465-.215508.850202-.330709.335607-.115163.655792-.188961.97166-.188976.641601.000015 1.068515.148181 1.295547.401575.227025.253423.344126.701431.344129 1.346456-.000003.357089-.0425.74341-.121457 1.181102-.0691.426199-.154583.886312-.263158 1.370079l-1.214575 5.031496c-.108581.529862-.173318 1.01477-.222672 1.440946-.04936.414675-.08097.8252-.08097 1.228346-.000002 1.03667.320183 1.895211.97166 2.574803.661341.668077 1.588774.992126 2.773278.992126.769919 0 1.441905-.112437 2.024291-.354331.58237-.230371 1.370957-.566528 2.348179-1.015748l.323886-1.559055c-.167815.09216-.434635.204001-.809716.330709-.375101.115198-.71603.165354-1.012146.165354-.631742 0-1.079399-.112437-1.336033-.354331-.256648-.241886-.384622-.701995-.384615-1.370078-.000007-.264924.04248-.662764.121458-1.181103.07896-.518331.164442-.966925.263157-1.370078l1.214575-5.031496c.118442-.460732.203427-.958909.242915-1.511811.04935-.552878.06072-.938614.06073-1.157481-.00001-1.059692-.309822-1.91823-.951417-2.574803-.631742-.66806-1.537931-1.01573-2.712552-1.015748z" fill="#fff" fill-rule="evenodd"/></svg>