<svg height="48" width="48" xmlns="http://www.w3.org/2000/svg" xmlns:xlink="http://www.w3.org/1999/xlink"><linearGradient id="a" gradientTransform="matrix(.30902336 0 0 .30380027 -64.017299 1.993676)" gradientUnits="userSpaceOnUse" x1="288.11157" x2="287.57547" y1="141.78452" y2="79.007812"><stop offset="0" stop-opacity=".046875"/><stop offset="1" stop-opacity="0"/></linearGradient><path d="m2.7498407 26.220541v1.668528c0 9.574276 5.6792096 17.282199 17.4405083 17.282199h7.049592c15.392533 0 18.143072-11.322632 18.143072-17.282199v-1.668528c0 5.959567-2.750539 17.282198-18.143072 17.282198h-7.049592c-11.7612987 0-17.4405083-7.707923-17.4405083-17.282198z" fill="url(#a)"/><path d="m19.648602 2.7423187h8.641122c14.146859 0 17.09331 11.2468653 17.09331 17.2820843v7.123176c0 5.959564-2.750662 17.282082-18.143195 17.282082h-7.049246c-11.7612986 0-17.4407218-7.707808-17.4407218-17.282082v-7.123176c0-9.574274 5.5642262-17.2820843 16.8987308-17.2820843z" style="fill:#f5a623;stroke:#000;stroke-width:.337041;stroke-linecap:square;stroke-linejoin:bevel;stroke-opacity:.078125"/><g fill="#fff" fill-rule="evenodd" transform="translate(54.199758 -1.903077)"><path d="m-38.777123 30.989066c-2.161268 0-4-2.285714-4-5.5s1.76921-5.5 3.913321-5.5h3.086679v-2.819116c0-2.124942 2.230769-4.180883 5.5-4.180883s5.5 2.072808 5.5 4.180883v5.79799c0 1.060695-.920482 2.021126-2 2.021126h-7.5s-2.5 0-2.5 3v3zm7-13.5c0-.828427-.671573-1.499999-1.5-1.499999s-1.5.671572-1.5 1.499999.671573 1.5 1.5 1.5 1.5-.671573 1.5-1.5z"/><path d="m-21.777123 19.989066c2.161268 0 4 2.285714 4 5.5s-1.76921 5.5-3.913321 5.5h-3.086679v2.819116c0 2.124943-2.230769 4.180884-5.5 4.180884s-5.5-2.072809-5.5-4.180884v-5.79799c0-1.060695.920482-2.021126 2-2.021126h7.5s2.5 0 2.5-3v-3zm-7 13.5c0 .828427.671573 1.5 1.5 1.5s1.5-.671573 1.5-1.5-.671573-1.5-1.5-1.5-1.5.671573-1.5 1.5z"/></g></svg>