<svg height="48" width="48" xmlns="http://www.w3.org/2000/svg" xmlns:xlink="http://www.w3.org/1999/xlink"><linearGradient id="a" gradientTransform="matrix(.30902336 0 0 .30380027 -64.017299 1.993676)" gradientUnits="userSpaceOnUse" x1="288.11157" x2="287.57547" y1="141.78452" y2="79.007812"><stop offset="0" stop-opacity=".046875"/><stop offset="1" stop-opacity="0"/></linearGradient><path d="m2.7498407 26.220541v1.668528c0 9.574276 5.6792096 17.282199 17.4405083 17.282199h7.049592c15.392533 0 18.143072-11.322632 18.143072-17.282199v-1.668528c0 5.959567-2.750539 17.282198-18.143072 17.282198h-7.049592c-11.7612987 0-17.4405083-7.707923-17.4405083-17.282198z" fill="url(#a)"/><path d="m19.648602 2.7423187h8.641122c14.146859 0 17.09331 11.2468653 17.09331 17.2820843v7.123176c0 5.959564-2.750662 17.282082-18.143195 17.282082h-7.049246c-11.7612986 0-17.4407218-7.707808-17.4407218-17.282082v-7.123176c0-9.574274 5.5642262-17.2820843 16.8987308-17.2820843z" style="fill:#4e9c00;stroke:#000;stroke-width:.337041;stroke-linecap:square;stroke-linejoin:bevel;stroke-opacity:.078125"/><path d="m28.407569 11.050739-6.639434.01328c.722616.459572 1.680414 1.490066 2.46987 2.669052.88179 1.316883 1.583578 2.832204 2.11134 4.156286l-1.872321 1.088867 5.975491-.01328 2.788562-5.258432-1.487233.995915-.9428-1.792647c-.632097-1.011618-1.2116-1.74517-2.403475-1.859041zm-8.219619.212462c-.405375-.0086-.837417.06316-1.314608.252298l-2.894793 4.289074 5.099085 3.412669 2.735447-5.165479c-.755982-1.115318-1.868504-2.751304-3.625131-2.788562zm14.009205 7.290098-5.138921 3.306438 2.376917 5.152201 2.044946.01328c1.194246.01373 3.116116-1.746077 3.04086-3.014302zm-17.036787 1.28805-5.550566.305414 1.779368.969357-.597549 1.261493c-1.928445 4.122859.510856 6.133329 3.39939 10.145055-.412768-.995932-.387976-2.061775-.02656-3.093977l2.562821-5.484172 1.606743.836569-3.17365-4.939739zm10.901951 5.909096-2.735447 5.218595 2.735447 5.152201.01328-2.124619h1.341165c4.327579-.002 4.925474-3.21434 7.011242-7.754859-.65353.83734-1.560062 1.278175-2.589379 1.394281l-5.763028.01328zm-4.315632 1.699695-5.962212.199183-.92952 1.925436c-.544174 1.13139.08162 3.755299 1.181819 4.249238h5.670076l.03984-6.373857z" fill="#fff" fill-rule="evenodd"/></svg>