<svg height="48" width="48" xmlns="http://www.w3.org/2000/svg" xmlns:xlink="http://www.w3.org/1999/xlink"><linearGradient id="a" gradientTransform="matrix(.30902336 0 0 .30380027 -64.017299 1.993676)" gradientUnits="userSpaceOnUse" x1="288.11157" x2="287.57547" y1="141.78452" y2="79.007812"><stop offset="0" stop-opacity=".046875"/><stop offset="1" stop-opacity="0"/></linearGradient><path d="m2.7498407 26.220541v1.668528c0 9.574276 5.6792096 17.282199 17.4405083 17.282199h7.049592c15.392533 0 18.143072-11.322632 18.143072-17.282199v-1.668528c0 5.959567-2.750539 17.282198-18.143072 17.282198h-7.049592c-11.7612987 0-17.4405083-7.707923-17.4405083-17.282198z" fill="url(#a)"/><path d="m19.648602 2.7423187h8.641122c14.146859 0 17.09331 11.2468653 17.09331 17.2820843v7.123176c0 5.959564-2.750662 17.282082-18.143195 17.282082h-7.049246c-11.7612986 0-17.4407218-7.707808-17.4407218-17.282082v-7.123176c0-9.574274 5.5642262-17.2820843 16.8987308-17.2820843z" style="fill:#00a441;stroke:#000;stroke-width:.337041;stroke-linecap:square;stroke-linejoin:bevel;stroke-opacity:.078125"/><g fill="none" fill-rule="evenodd" stroke="#fff" transform="matrix(1.0017792 0 0 1 16.332125 6.089583)"><path d="m16.004397 8.5506469c-.939324-1.261425-2.465485-2.0818969-4.18854-2.0818969-2.8550016 0-5.1694376 2.2525674-5.1694376 5.03125 0 2.778683 2.314436 5.03125 5.1694376 5.03125h2.953964"/><path d="m14.769821 16.5h14.230179"/><path d="m13.483814 3.8668243c-.538347-.1093444-1.096255-.1668235-1.667957-.1668235-4.486431 0-8.1234018 3.5397487-8.1234018 7.9062502 0 4.366501 3.6369708 7.90625 8.1234018 7.90625h4.641943"/><path d="m15 19.503876 14-.0078"/><path d="m11.815857.95000076c-6.1178604 0-11.07736595 4.82693004-11.07736595 10.78125024 0 5.95432 4.95950555 10.78125 11.07736595 10.78125h6.329923"/><path d="m15 22.5h14"/></g></svg>