<svg height="48" width="48" xmlns="http://www.w3.org/2000/svg" xmlns:xlink="http://www.w3.org/1999/xlink"><linearGradient id="a" gradientTransform="matrix(.30902336 0 0 .30380027 -64.017299 1.993676)" gradientUnits="userSpaceOnUse" x1="288.11157" x2="287.57547" y1="141.78452" y2="79.007812"><stop offset="0" stop-opacity=".046875"/><stop offset="1" stop-opacity="0"/></linearGradient><path d="m2.7498407 26.220541v1.668528c0 9.574276 5.6792096 17.282199 17.4405083 17.282199h7.049592c15.392533 0 18.143072-11.322632 18.143072-17.282199v-1.668528c0 5.959567-2.750539 17.282198-18.143072 17.282198h-7.049592c-11.7612987 0-17.4405083-7.707923-17.4405083-17.282198z" fill="url(#a)"/><path d="m19.648602 2.7423187h8.641122c14.146859 0 17.09331 11.2468653 17.09331 17.2820843v7.123176c0 5.959564-2.750662 17.282082-18.143195 17.282082h-7.049246c-11.7612986 0-17.4407218-7.707808-17.4407218-17.282082v-7.123176c0-9.574274 5.5642262-17.2820843 16.8987308-17.2820843z" style="fill:#d0021b;stroke:#000;stroke-width:.337041;stroke-linecap:square;stroke-linejoin:bevel;stroke-opacity:.078125"/><g fill="#fff" fill-rule="evenodd" transform="matrix(1.0856378 0 0 1.0321142 13.752893 13.780905)"><path d="m3 8h3v3h-3z"/><path d="m8 8h3v3h-3z"/><path d="m13 8h3v3h-3z"/><path d="m8 13h3v3h-3z"/><path d="m3 13h3v3h-3z"/><path d="m13 13h3v3h-3z"/><rect height="3" rx=".5" width="1" x="4"/><rect height="3" rx=".5" width="1" x="15"/><path d="m14 2v.4991673c0 .8222872.671573 1.5008327 1.5 1.5008327.834203 0 1.5-.6719457 1.5-1.5008327v-.4991673h1.006602c.548639 0 .993398.4446309.993398 1.0008717v14.9982563c0 .552766-.444946 1.000872-.993398 1.000872h-17.01320432c-.54863839 0-.99339768-.444631-.99339768-1.000872v-14.9982563c0-.5527662.44494629-1.0008717.99339768-1.0008717h2.00660232v.4991673c0 .8222872.6715729 1.5008327 1.5 1.5008327.8342028 0 1.5-.6719457 1.5-1.5008327v-.4991673zm4 4v12h-17v-12z"/></g></svg>