<svg height="48" width="48" xmlns="http://www.w3.org/2000/svg" xmlns:xlink="http://www.w3.org/1999/xlink"><linearGradient id="a" gradientTransform="matrix(.30902336 0 0 .30380027 -64.017299 1.993676)" gradientUnits="userSpaceOnUse" x1="288.11157" x2="287.57547" y1="141.78452" y2="79.007812"><stop offset="0" stop-opacity=".046875"/><stop offset="1" stop-opacity="0"/></linearGradient><path d="m2.7498407 26.220541v1.668528c0 9.574276 5.6792096 17.282199 17.4405083 17.282199h7.049592c15.392533 0 18.143072-11.322632 18.143072-17.282199v-1.668528c0 5.959567-2.750539 17.282198-18.143072 17.282198h-7.049592c-11.7612987 0-17.4405083-7.707923-17.4405083-17.282198z" fill="url(#a)"/><path d="m19.648602 2.7423187h8.641122c14.146859 0 17.09331 11.2468653 17.09331 17.2820843v7.123176c0 5.959564-2.750662 17.282082-18.143195 17.282082h-7.049246c-11.7612986 0-17.4407218-7.707808-17.4407218-17.282082v-7.123176c0-9.574274 5.5642262-17.2820843 16.8987308-17.2820843z" style="fill:#1c99fb;stroke:#000;stroke-width:.337041;stroke-linecap:square;stroke-linejoin:bevel;stroke-opacity:.078125"/><g fill="#fff"><path d="m12.975567 14.390878a.63869174.63869174 0 0 0 -.640037.640036v.696511c0 .354978.285059.640036.640037.640036h.699199a.63869174.63869174 0 0 0 .641381-.640036v-.696511a.63869174.63869174 0 0 0 -.641381-.640036zm23.42049 0a.63869174.63869174 0 0 0 -.640036.640036v.696511c0 .354978.285058.640036.640036.640036h.696509a.63869174.63869174 0 0 0 .641382-.640036v-.696511a.63869174.63869174 0 0 0 -.641382-.640036zm-16.480937 1.371506-.412796.715335c-.228584.393972-.404729.735504-.391283.757018.01345.02151 2.603173 1.526136 5.754949 3.342711 3.237831 1.869014 5.750915 3.350778 5.78453 3.411286a1.0649345 1.0649345 0 0 1 .06051.380526c.0014.529778.172111.404728-4.609337 3.409942-2.386691 1.499244-4.402268 2.732256-4.477566 2.743012-.09009.01345-.185557-.02017-.286403-.107569l-.151941-.130428-.04168-3.32523c-.02285-1.828676-.04706-3.330609-.05513-3.334644a26.394777 26.394777 0 0 0 -.848452.01345l-.835005.01748.02824 3.213629c.01614 1.769511.05244 3.369602.08068 3.556504a2.1218012 2.1218012 0 0 0 1.534205 1.723795c.345566.09681.92106.0753 1.263937-.04706.31195-.112948 8.901346-5.506196 9.225398-5.795287.69651-.615834 1.029975-1.60547.826938-2.464679-.102191-.435655-.295816-.841728-.5244-1.107961-.127738-.149253-1.625638-1.035353-6.048074-3.584742l-5.877309-3.388428zm-6.938208 4.423781a.63869174.63869174 0 0 0 -.641382.641381v.695166c0 .356322.285059.64138.640037.64138h.699199a.63869174.63869174 0 0 0 .641381-.64138v-.695166a.63869174.63869174 0 0 0 -.641381-.641381h-.699199zm23.419145 0a.63869174.63869174 0 0 0 -.640036.641381v.695166c0 .356322.285058.64138.640036.64138h.696509a.63869174.63869174 0 0 0 .641382-.64138v-.695166a.63869174.63869174 0 0 0 -.641382-.641381zm-23.42049 5.230549a.63869174.63869174 0 0 0 -.640037.641381v.696511c0 .354978.285059.640036.640037.640036h.699199a.63869174.63869174 0 0 0 .641381-.640036v-.696511a.63869174.63869174 0 0 0 -.641381-.640036h-.699199zm23.42049 0a.63869174.63869174 0 0 0 -.640036.641381v.696511c0 .354978.285058.640036.640036.640036h.696509a.63869174.63869174 0 0 0 .641382-.640036v-.696511a.63869174.63869174 0 0 0 -.641382-.640036h-.696509zm-23.42049 5.465857a.63869174.63869174 0 0 0 -.640037.64138v.695166c0 .356323.285059.641381.640037.641381h.699199a.63869174.63869174 0 0 0 .641381-.641381v-.695166a.63869174.63869174 0 0 0 -.641381-.64138zm23.42049 0a.63869174.63869174 0 0 0 -.640036.64138v.695166c0 .356323.285058.641381.640036.641381h.696509a.63869174.63869174 0 0 0 .641382-.641381v-.695166a.63869174.63869174 0 0 0 -.641382-.64138z" stroke-width="1.344614"/><g fill-rule="evenodd" transform="translate(-45.820242 -8.743754)"><g transform="matrix(.91702788 0 0 .89490199 49.940173 -.152144)"><path d="m-28.763667 37.83852c-7.1682 0-13-5.8318-13-13s5.8318-13 13-13 13 5.8318 13 13-5.8318 13-13 13zm0-24.7c-6.4506 0-11.7 5.2481-11.7 11.7s5.2494 11.7 11.7 11.7 11.7-5.2481 11.7-11.7-5.2481-11.7-11.7-11.7z"/><path d="m-28.763667 37.83852c-7.1682 0-13-5.8318-13-13s5.8318-13 13-13 13 5.8318 13 13-5.8318 13-13 13zm0-24.7c-6.4506 0-11.7 5.2481-11.7 11.7s5.2494 11.7 11.7 11.7 11.7-5.2481 11.7-11.7-5.2481-11.7-11.7-11.7z"/><path d="m-20.973 24.482405c.270666.159701.270666.566593 0 .724906l-5.573334 3.275965-5.668 3.302351c-.266666.154147-.549333-.04722-.549333-.363841v-6.583872-6.582482c0-.318015.282667-.517989.549333-.363842l5.690667 3.302351z"/></g><g transform="matrix(.92010093 0 0 .85694461 62.674213 42.236812)"><path d="m9 1v2h2c.556088 0 1-.4450961 1-1 0-.5560877-.445096-1-1-1zm2-1c1.380712 0 2 1 2 2s-.609662 2-2 2h-1.9988439v3h-1.0011561v-7z"/><path d="m7 7h-1v-4.5l-2 3.5h-.5-.5l-2-3.5v4.5h-1v-7h.5.5l2.5 4.75 2.5-4.75h.5.5z"/></g><path d="m78.315928 46.553527v-4.284723h-.9201l-2.760303 4.284723v.856945h2.760303v.856944h.9201v-.856944h.920102v-.856945zm-.9201 0v-2.42801l-1.564173 2.42801z"/></g></g></svg>