<svg height="48" width="48" xmlns="http://www.w3.org/2000/svg" xmlns:xlink="http://www.w3.org/1999/xlink"><linearGradient id="a" gradientTransform="matrix(.30902336 0 0 .30380027 -64.017299 1.993676)" gradientUnits="userSpaceOnUse" x1="288.11157" x2="287.57547" y1="141.78452" y2="79.007812"><stop offset="0" stop-opacity=".046875"/><stop offset="1" stop-opacity="0"/></linearGradient><path d="m2.7498407 26.220541v1.668528c0 9.574276 5.6792096 17.282199 17.4405083 17.282199h7.049592c15.392533 0 18.143072-11.322632 18.143072-17.282199v-1.668528c0 5.959567-2.750539 17.282198-18.143072 17.282198h-7.049592c-11.7612987 0-17.4405083-7.707923-17.4405083-17.282198z" fill="url(#a)"/><path d="m19.648602 2.7423187h8.641122c14.146859 0 17.09331 11.2468653 17.09331 17.2820843v7.123176c0 5.959564-2.750662 17.282082-18.143195 17.282082h-7.049246c-11.7612986 0-17.4407218-7.707808-17.4407218-17.282082v-7.123176c0-9.574274 5.5642262-17.2820843 16.8987308-17.2820843z" style="fill:#1c99fb;stroke:#000;stroke-width:.337041;stroke-linecap:square;stroke-linejoin:bevel;stroke-opacity:.078125"/><g fill-rule="evenodd"><g fill="#fff" transform="matrix(.91702788 0 0 .89490199 50.540121 -.558923)"><path d="m-28.763667 37.83852c-7.1682 0-13-5.8318-13-13s5.8318-13 13-13 13 5.8318 13 13-5.8318 13-13 13zm0-24.7c-6.4506 0-11.7 5.2481-11.7 11.7s5.2494 11.7 11.7 11.7 11.7-5.2481 11.7-11.7-5.2481-11.7-11.7-11.7z"/><path d="m-28.763667 37.83852c-7.1682 0-13-5.8318-13-13s5.8318-13 13-13 13 5.8318 13 13-5.8318 13-13 13zm0-24.7c-6.4506 0-11.7 5.2481-11.7 11.7s5.2494 11.7 11.7 11.7 11.7-5.2481 11.7-11.7-5.2481-11.7-11.7-11.7z"/><path d="m-20.973 24.482405c.270666.159701.270666.566593 0 .724906l-5.573334 3.275965-5.668 3.302351c-.266666.154147-.549333-.04722-.549333-.363841v-6.583872-6.582482c0-.318015.282667-.517989.549333-.363842l5.690667 3.302351z"/></g><g fill="none" transform="matrix(.79197318 0 0 .86924939 14.41385510849 35.61483349753)"><path d="m21.5 3.5h2.499167c.828887 0 1.500833.6657972 1.500833 1.5 0 .8284271-.678545 1.5-1.500833 1.5h-2.499167z" stroke="#fff"/><path d="m21.5.5h2.499167c.828887 0 1.500833.6657972 1.500833 1.5 0 .8284271-.678545 1.5-1.500833 1.5h-2.499167z" stroke="#fff"/><path d="m12 2.5-2 3.5h-.5-.5l-2-3.5v4.5h-1v-7h.5.5l2.5 4.75 2.5-4.75h.5.5v7h-1z" fill="#fff"/><path d="m.5.5h2.4991673c.828887 0 1.5008327.6657972 1.5008327 1.5 0 .8284271-.6785455 1.5-1.5008327 1.5h-2.4991673z" stroke="#fff"/><g fill="#fff"><path d="m0 4h1v3h-1z"/><path d="m3 4 1.7999992 3h-1.2999992l-1.7000008-3z"/><path d="m16.5 0-2.5 7h1.049999l1.950001-5.5 1.950001 5.5h1.049999l-2.461363-7z" transform="matrix(1 0 0 -1 0 7)"/></g></g></g></svg>