<?xml version="1.0" encoding="UTF-8" standalone="no"?>
<svg
   xmlns:dc="http://purl.org/dc/elements/1.1/"
   xmlns:cc="http://creativecommons.org/ns#"
   xmlns:rdf="http://www.w3.org/1999/02/22-rdf-syntax-ns#"
   xmlns:svg="http://www.w3.org/2000/svg"
   xmlns="http://www.w3.org/2000/svg"
   xmlns:sodipodi="http://sodipodi.sourceforge.net/DTD/sodipodi-0.dtd"
   xmlns:inkscape="http://www.inkscape.org/namespaces/inkscape"
   height="48"
   width="48"
   version="1.1"
   id="svg19"
   sodipodi:docname="video-x-mkv.svg"
   inkscape:version="0.92.4 5da689c313, 2019-01-14">
  <metadata
     id="metadata25">
    <rdf:RDF>
      <cc:Work
         rdf:about="">
        <dc:format>image/svg+xml</dc:format>
        <dc:type
           rdf:resource="http://purl.org/dc/dcmitype/StillImage" />
      </cc:Work>
    </rdf:RDF>
  </metadata>
  <defs
     id="defs23" />
  <sodipodi:namedview
     pagecolor="#ffffff"
     bordercolor="#666666"
     borderopacity="1"
     objecttolerance="10"
     gridtolerance="10"
     guidetolerance="10"
     inkscape:pageopacity="0"
     inkscape:pageshadow="2"
     inkscape:window-width="1366"
     inkscape:window-height="672"
     id="namedview21"
     showgrid="false"
     inkscape:zoom="6.9532167"
     inkscape:cx="11.435975"
     inkscape:cy="13.122753"
     inkscape:window-x="0"
     inkscape:window-y="26"
     inkscape:window-maximized="1"
     inkscape:current-layer="g840" />
  <linearGradient
     id="a"
     gradientTransform="matrix(.30902336 0 0 .30380027 -64.017299 1.993676)"
     gradientUnits="userSpaceOnUse"
     x1="288.11157"
     x2="287.57547"
     y1="141.78452"
     y2="79.007812">
    <stop
       offset="0"
       stop-opacity=".046875"
       id="stop2" />
    <stop
       offset="1"
       stop-opacity="0"
       id="stop4" />
  </linearGradient>
  <path
     d="m2.7498407 26.220541v1.668528c0 9.574276 5.6792096 17.282199 17.4405083 17.282199h7.049592c15.392533 0 18.143072-11.322632 18.143072-17.282199v-1.668528c0 5.959567-2.750539 17.282198-18.143072 17.282198h-7.049592c-11.7612987 0-17.4405083-7.707923-17.4405083-17.282198z"
     fill="url(#a)"
     id="path7" />
  <path
     d="m19.648602 2.7423187h8.641122c14.146859 0 17.09331 11.2468653 17.09331 17.2820843v7.123176c0 5.959564-2.750662 17.282082-18.143195 17.282082h-7.049246c-11.7612986 0-17.4407218-7.707808-17.4407218-17.282082v-7.123176c0-9.574274 5.5642262-17.2820843 16.8987308-17.2820843z"
     style="fill:#1c99fb;stroke:#000;stroke-width:.337041;stroke-linecap:square;stroke-linejoin:bevel;stroke-opacity:.078125"
     id="path9" />
  <path
     id="path832"
     d="m 12.975567,14.390878 a 0.63869174,0.63869174 0 0 0 -0.640037,0.640036 v 0.696511 c 0,0.354978 0.285059,0.640036 0.640037,0.640036 h 0.699199 a 0.63869174,0.63869174 0 0 0 0.641381,-0.640036 v -0.696511 a 0.63869174,0.63869174 0 0 0 -0.641381,-0.640036 z m 23.42049,0 a 0.63869174,0.63869174 0 0 0 -0.640036,0.640036 v 0.696511 c 0,0.354978 0.285058,0.640036 0.640036,0.640036 h 0.696509 a 0.63869174,0.63869174 0 0 0 0.641382,-0.640036 v -0.696511 a 0.63869174,0.63869174 0 0 0 -0.641382,-0.640036 z m -16.480937,1.371506 -0.412796,0.715335 c -0.228584,0.393972 -0.404729,0.735504 -0.391283,0.757018 0.01345,0.02151 2.603173,1.526136 5.754949,3.342711 3.237831,1.869014 5.750915,3.350778 5.78453,3.411286 a 1.0649345,1.0649345 0 0 1 0.06051,0.380526 c 0.0014,0.529778 0.172111,0.404728 -4.609337,3.409942 -2.386691,1.499244 -4.402268,2.732256 -4.477566,2.743012 -0.09009,0.01345 -0.185557,-0.02017 -0.286403,-0.107569 l -0.151941,-0.130428 -0.04168,-3.32523 c -0.02285,-1.828676 -0.04706,-3.330609 -0.05513,-3.334644 a 26.394777,26.394777 0 0 0 -0.848452,0.01345 l -0.835005,0.01748 0.02824,3.213629 c 0.01614,1.769511 0.05244,3.369602 0.08068,3.556504 a 2.1218012,2.1218012 0 0 0 1.534205,1.723795 c 0.345566,0.09681 0.92106,0.0753 1.263937,-0.04706 0.31195,-0.112948 8.901346,-5.506196 9.225398,-5.795287 0.69651,-0.615834 1.029975,-1.60547 0.826938,-2.464679 -0.102191,-0.435655 -0.295816,-0.841728 -0.5244,-1.107961 -0.127738,-0.149253 -1.625638,-1.035353 -6.048074,-3.584742 l -5.877309,-3.388428 z m -6.938208,4.423781 a 0.63869174,0.63869174 0 0 0 -0.641382,0.641381 v 0.695166 c 0,0.356322 0.285059,0.64138 0.640037,0.64138 h 0.699199 a 0.63869174,0.63869174 0 0 0 0.641381,-0.64138 v -0.695166 a 0.63869174,0.63869174 0 0 0 -0.641381,-0.641381 h -0.699199 z m 23.419145,0 a 0.63869174,0.63869174 0 0 0 -0.640036,0.641381 v 0.695166 c 0,0.356322 0.285058,0.64138 0.640036,0.64138 h 0.696509 a 0.63869174,0.63869174 0 0 0 0.641382,-0.64138 v -0.695166 a 0.63869174,0.63869174 0 0 0 -0.641382,-0.641381 z m -23.42049,5.230549 a 0.63869174,0.63869174 0 0 0 -0.640037,0.641381 v 0.696511 c 0,0.354978 0.285059,0.640036 0.640037,0.640036 h 0.699199 a 0.63869174,0.63869174 0 0 0 0.641381,-0.640036 v -0.696511 a 0.63869174,0.63869174 0 0 0 -0.641381,-0.640036 h -0.699199 z m 23.42049,0 a 0.63869174,0.63869174 0 0 0 -0.640036,0.641381 v 0.696511 c 0,0.354978 0.285058,0.640036 0.640036,0.640036 h 0.696509 a 0.63869174,0.63869174 0 0 0 0.641382,-0.640036 v -0.696511 a 0.63869174,0.63869174 0 0 0 -0.641382,-0.640036 h -0.696509 z m -23.42049,5.465857 a 0.63869174,0.63869174 0 0 0 -0.640037,0.64138 v 0.695166 c 0,0.356323 0.285059,0.641381 0.640037,0.641381 h 0.699199 a 0.63869174,0.63869174 0 0 0 0.641381,-0.641381 v -0.695166 a 0.63869174,0.63869174 0 0 0 -0.641381,-0.64138 z m 23.42049,0 a 0.63869174,0.63869174 0 0 0 -0.640036,0.64138 v 0.695166 c 0,0.356323 0.285058,0.641381 0.640036,0.641381 h 0.696509 a 0.63869174,0.63869174 0 0 0 0.641382,-0.641381 v -0.695166 a 0.63869174,0.63869174 0 0 0 -0.641382,-0.64138 z"
     inkscape:connector-curvature="0"
     style="fill:#ffffff;fill-opacity:1;stroke-width:1.34461427" />
  <g
     id="g860"
     transform="translate(-47.863063,-1.8047366)">
    <g
       id="g840"
       style="fill:#ffffff;fill-rule:evenodd"
       transform="translate(0.81355932,0.20338983)">
      <path
         id="path834"
         d="m 72.071608,35.340397 v 2.557196 l 2.29483,-2.557196 h 1.376898 l -2.753796,2.983395 2.753796,2.983395 h -1.376898 l -2.29483,-2.486163 v 2.486163 h -0.917932 v -5.96679 z"
         inkscape:connector-curvature="0"
         style="stroke-width:0.88455856" />
      <path
         id="path836"
         d="m 76.707163,35.340398 1.789968,4.688191 1.789969,-4.688191 h 0.963827 l -2.259363,5.966789 h -0.953399 l -2.294829,-5.966789 z"
         inkscape:connector-curvature="0"
         style="stroke-width:0.88455856" />
      <path
         id="path838"
         d="M 67.022982,40.422965 H 66.564016 L 64.728152,37.43957 v 3.835794 H 63.81022 v -5.96679 h 0.458966 0.458966 l 2.29483,4.048893 2.29483,-4.048893 h 0.458966 0.458966 v 5.96679 H 69.317812 V 37.43957 l -1.835864,2.983395 z"
         inkscape:connector-curvature="0"
         style="stroke-width:0.88455856" />
    </g>
  </g>
</svg>
