<svg height="48" width="48" xmlns="http://www.w3.org/2000/svg" xmlns:xlink="http://www.w3.org/1999/xlink"><linearGradient id="a" gradientTransform="matrix(.30902336 0 0 .30380027 -64.017299 1.993676)" gradientUnits="userSpaceOnUse" x1="288.11157" x2="287.57547" y1="141.78452" y2="79.007812"><stop offset="0" stop-opacity=".046875"/><stop offset="1" stop-opacity="0"/></linearGradient><path d="m2.7498407 26.220541v1.668528c0 9.574276 5.6792096 17.282199 17.4405083 17.282199h7.049592c15.392533 0 18.143072-11.322632 18.143072-17.282199v-1.668528c0 5.959567-2.750539 17.282198-18.143072 17.282198h-7.049592c-11.7612987 0-17.4405083-7.707923-17.4405083-17.282198z" fill="url(#a)"/><path d="m19.648602 2.7423187h8.641122c14.146859 0 17.09331 11.2468653 17.09331 17.2820843v7.123176c0 5.959564-2.750662 17.282082-18.143195 17.282082h-7.049246c-11.7612986 0-17.4407218-7.707808-17.4407218-17.282082v-7.123176c0-9.574274 5.5642262-17.2820843 16.8987308-17.2820843z" style="fill:#1c99fb;stroke:#000;stroke-width:.337041;stroke-linecap:square;stroke-linejoin:bevel;stroke-opacity:.078125"/><g fill="#fff" fill-rule="evenodd"><g transform="matrix(.91702788 0 0 .89490199 49.940173 -.152144)"><path d="m-28.763667 37.83852c-7.1682 0-13-5.8318-13-13s5.8318-13 13-13 13 5.8318 13 13-5.8318 13-13 13zm0-24.7c-6.4506 0-11.7 5.2481-11.7 11.7s5.2494 11.7 11.7 11.7 11.7-5.2481 11.7-11.7-5.2481-11.7-11.7-11.7z"/><path d="m-28.763667 37.83852c-7.1682 0-13-5.8318-13-13s5.8318-13 13-13 13 5.8318 13 13-5.8318 13-13 13zm0-24.7c-6.4506 0-11.7 5.2481-11.7 11.7s5.2494 11.7 11.7 11.7 11.7-5.2481 11.7-11.7-5.2481-11.7-11.7-11.7z"/><path d="m-20.973 24.482405c.270666.159701.270666.566593 0 .724906l-5.573334 3.275965-5.668 3.302351c-.266666.154147-.549333-.04722-.549333-.363841v-6.583872-6.582482c0-.318015.282667-.517989.549333-.363842l5.690667 3.302351z"/></g><g transform="matrix(.73014679 0 0 .86258098 16.08824987285 35.80533057367)"><path d="m4 6h-.5-.5l-2-3.5v4.5h-1v-7h.5.5l2.5 4.75 2.5-4.75h.5.5v7h-1v-4.5z"/><path d="m15 7h1.049999l1.950001-5.5 1.950001 5.5h1.049999l-2.461363-7h-1.038637z" transform="matrix(1 0 0 -1 0 7)"/><path d="m11 1c1.106106 0 2 .8389953 2 1.8811019v1.2377962c0 1.0429571-.889472 1.8811019-2 1.8811019-1.1061061 0-2-.8389954-2-1.8811019v-1.2377962c0-1.0429571.8894723-1.8811019 2-1.8811019zm-3 3.0776382c0 1.6166631 1.3414519 2.9223618 3 2.9223618 1.663591 0 3-1.3059313 3-2.9223618v-1.1552764c0-1.6166631-1.341452-2.9223618-3-2.9223618-1.6635907 0-3 1.3059313-3 2.9223618z"/></g></g></svg>