<svg height="48" width="48" xmlns="http://www.w3.org/2000/svg" xmlns:xlink="http://www.w3.org/1999/xlink"><linearGradient id="a" gradientTransform="matrix(.30902336 0 0 .30380027 -64.017299 1.993676)" gradientUnits="userSpaceOnUse" x1="288.11157" x2="287.57547" y1="141.78452" y2="79.007812"><stop offset="0" stop-opacity=".046875"/><stop offset="1" stop-opacity="0"/></linearGradient><path d="m2.7498407 26.220541v1.668528c0 9.574276 5.6792096 17.282199 17.4405083 17.282199h7.049592c15.392533 0 18.143072-11.322632 18.143072-17.282199v-1.668528c0 5.959567-2.750539 17.282198-18.143072 17.282198h-7.049592c-11.7612987 0-17.4405083-7.707923-17.4405083-17.282198z" fill="url(#a)"/><path d="m19.648602 2.7423187h8.641122c14.146859 0 17.09331 11.2468653 17.09331 17.2820843v7.123176c0 5.959564-2.750662 17.282082-18.143195 17.282082h-7.049246c-11.7612986 0-17.4407218-7.707808-17.4407218-17.282082v-7.123176c0-9.574274 5.5642262-17.2820843 16.8987308-17.2820843z" style="fill:#639;stroke:#000;stroke-width:.337041;stroke-linecap:square;stroke-linejoin:bevel;stroke-opacity:.078125"/><path d="m24.066453 11.536185c-5.901203 0-10.651991 4.750788-10.651991 10.651991 0 3.95637 2.140169 7.387051 5.325995 9.22427v-1.570752c-2.416052-1.68076-3.994496-4.474575-3.994496-7.653518 0-5.163553 4.156939-9.320492 9.320492-9.320492s9.320492 4.156939 9.320492 9.320492c0 3.178943-1.578444 5.972758-3.994497 7.653518v1.570752c3.185827-1.837219 5.325996-5.2679 5.325996-9.22427 0-5.901203-4.750788-10.651991-10.651991-10.651991zm0 3.861866c-3.688252 0-6.657494 2.969242-6.657494 6.657494 0 1.80144.715329 3.425048 1.869819 4.621237.20293-.422901.462242-.808422.764572-1.159859-.801478-.931664-1.302893-2.130378-1.302893-3.461378 0-2.950601 2.375394-5.325995 5.325996-5.325995 2.950601 0 5.325995 2.375394 5.325995 5.325995 0 1.331-.501414 2.529714-1.302893 3.461378.302331.351437.561643.736958.764573 1.159859 1.15449-1.196189 1.869819-2.819797 1.869819-4.621237 0-3.688252-2.969242-6.657494-6.657494-6.657494zm-.000685 4.138134c-1.385 0-2.5 1.115-2.5 2.5s1.115 2.5 2.5 2.5 2.5-1.115 2.5-2.5-1.115-2.5-2.5-2.5zm.000685 6c-2.950602 0-4.420721 2.266097-4.127126 5.049804l.533119 5.049805h7.143804l.4447-5.049805c.245034-2.787927-1.043896-5.049804-3.994497-5.049804z" fill="#fff" fill-rule="evenodd"/></svg>