<svg height="48" width="48" xmlns="http://www.w3.org/2000/svg" xmlns:xlink="http://www.w3.org/1999/xlink"><linearGradient id="a" gradientTransform="matrix(.30902336 0 0 .30380027 -64.017299 1.993676)" gradientUnits="userSpaceOnUse" x1="288.11157" x2="287.57547" y1="141.78452" y2="79.007812"><stop offset="0" stop-opacity=".046875"/><stop offset="1" stop-opacity="0"/></linearGradient><path d="m2.7498407 26.220541v1.668528c0 9.574276 5.6792096 17.282199 17.4405083 17.282199h7.049592c15.392533 0 18.143072-11.322632 18.143072-17.282199v-1.668528c0 5.959567-2.750539 17.282198-18.143072 17.282198h-7.049592c-11.7612987 0-17.4405083-7.707923-17.4405083-17.282198z" fill="url(#a)"/><path d="m19.648602 2.7423187h8.641122c14.146859 0 17.09331 11.2468653 17.09331 17.2820843v7.123176c0 5.959564-2.750662 17.282082-18.143195 17.282082h-7.049246c-11.7612986 0-17.4407218-7.707808-17.4407218-17.282082v-7.123176c0-9.574274 5.5642262-17.2820843 16.8987308-17.2820843z" style="fill:#f89406;stroke:#000;stroke-width:.337041;stroke-linecap:square;stroke-linejoin:bevel;stroke-opacity:.078125"/><path d="m21.066453 11.58599c-.5 0-1 .5-1 1h-8v22h11v1h2v-1h11v-22h-8c0-.5-.333333-1-1-1zm14 3.166667v17.833333h-22v-17.833333zm-20 2.833333h18v-1h-18zm0 13h7v-4h-1v3h-1.833333v-5h-1.166667v5h-2v-10h-1zm8 0h10v-10h-10zm9-9v5.5l-1.5-1.5-3 2-1-1-2.5 2v-7zm-7 2.5c0 .831.669 1.5 1.5 1.5s1.5-.669 1.5-1.5-.669-1.5-1.5-1.5-1.5.669-1.5 1.5z" fill="#fff" fill-rule="evenodd"/></svg>