<svg height="48" width="48" xmlns="http://www.w3.org/2000/svg" xmlns:xlink="http://www.w3.org/1999/xlink"><linearGradient id="a" gradientTransform="matrix(.30902336 0 0 .30380027 -64.017299 1.993676)" gradientUnits="userSpaceOnUse" x1="288.11157" x2="287.57547" y1="141.78452" y2="79.007812"><stop offset="0" stop-opacity=".046875"/><stop offset="1" stop-opacity="0"/></linearGradient><path d="m2.7498407 26.220541v1.668528c0 9.574276 5.6792096 17.282199 17.4405083 17.282199h7.049592c15.392533 0 18.143072-11.322632 18.143072-17.282199v-1.668528c0 5.959567-2.750539 17.282198-18.143072 17.282198h-7.049592c-11.7612987 0-17.4405083-7.707923-17.4405083-17.282198z" fill="url(#a)"/><path d="m19.648602 2.7423187h8.641122c14.146859 0 17.09331 11.2468653 17.09331 17.2820843v7.123176c0 5.959564-2.750662 17.282082-18.143195 17.282082h-7.049246c-11.7612986 0-17.4407218-7.707808-17.4407218-17.282082v-7.123176c0-9.574274 5.5642262-17.2820843 16.8987308-17.2820843z" style="fill:#9d0013;stroke:#000;stroke-width:.337041;stroke-linecap:square;stroke-linejoin:bevel;stroke-opacity:.078125"/><path d="m28.653734 33.387857-.942401-1.968691c-1.053274.720929-2.854925 1.247762-4.601141 1.247762-5.155495 0-7.954984-2.661893-7.954984-7.791583 0-5.57334 4.240811-10.342566 9.922941-10.342566 4.989189 0 7.927267 2.495525 7.927267 6.959742 0 2.939174-1.33045 5.795165-3.63102 5.795165-.831532 0-1.164144-.415921-1.164144-1.220036 0-.41592.08315-1.192305.194023-1.830051l.859249-5.57334c-.886966-.554561-2.356006-.887297-3.686456-.887297-3.381561 0-6.79084 2.301428-6.79084 7.292478 0 2.412341 1.191863 4.353306 4.074504 4.353306 1.302733 0 2.466877-.499105 3.242973-1.469587h.110871c.388048.859569 1.275014 1.469587 2.827207 1.469587 3.88048 0 6.402792-3.521464 6.402792-8.235233 0-5.379243-3.963634-8.872978-10.006095-8.872978-7.317477 0-12.750149 5.684251-12.750149 12.83809 0 5.933804 3.492432 9.70482 10.006095 9.70482 2.328288 0 4.545705-.582289 5.959308-1.469588zm-5.294083-6.072444c-1.441321 0-2.134263-.831842-2.134263-2.689621 0-2.772806 1.746216-4.71377 4.046786-4.71377.526636 0 1.025555.110912 1.358168.221825l-.637508 4.353304c-.05543.305009-.138588 1.081394-.138588 1.414131-.415766.748658-1.358169 1.414131-2.494595 1.414131z" fill="#fff" fill-rule="evenodd"/></svg>