<svg height="48" width="48" xmlns="http://www.w3.org/2000/svg" xmlns:xlink="http://www.w3.org/1999/xlink"><linearGradient id="a" gradientTransform="matrix(.30381461 0 0 .29870907 -63.115237 2.530369)" gradientUnits="userSpaceOnUse" x1="288.11157" x2="287.57547" y1="141.78452" y2="79.007812"><stop offset="0" stop-opacity=".046875"/><stop offset="1" stop-opacity="0"/></linearGradient><g transform="translate(.508475 -.101695)"><path d="m52.635215 62.585614c-1.268695.03913-1.779222 1.654506-.76344 2.415627l1.52572 1.174167h-7.416279c-1.83017-.04155-1.83017 2.725191 0 2.683644h3.363548l-5.494914 3.992399c-1.526898 1.037905.117539 3.301883 1.57677 2.170817l2.80779-2.039709c-.0087.116638-.01447.233471-.01741.350393-.000026 3.953014 3.204532 7.157572 7.157546 7.157546 3.953014.000025 7.157575-3.204532 7.157545-7.157546.00029-2.360703-1.163475-4.569727-3.110614-5.90448-.03119-.02859-.06371-.0557-.09746-.08122l-5.815139-4.472737c-.248079-.196241-.557497-.298559-.873663-.288901zm2.739335 6.273438c2.470971-.000252 4.474153 2.002929 4.473901 4.4739-.000389 2.470519-2.003382 4.472993-4.473901 4.472741-2.470065-.000389-4.472352-2.002676-4.47274-4.472741-.000252-2.470518 2.002222-4.473511 4.47274-4.4739z" fill="#fff" fill-rule="evenodd" stroke="#f59d6c" stroke-width="1.317072" transform="matrix(1.354584 0 0 1.3318205 -49.041312 -72.049066)"/><path d="m2.5265151 26.35123v1.640567c0 9.413826 5.5834834 16.992578 17.1465399 16.992578h6.930767c15.133074 0 17.837252-11.132884 17.837252-16.992578v-1.640567c0 5.859695-2.704178 16.992577-17.837252 16.992577h-6.930767c-11.5630565 0-17.1465399-7.578751-17.1465399-16.992577z" fill="url(#a)"/><path d="m19.14044 3.2664653h8.495471c13.908396 0 16.805183 11.0583857 16.805183 16.9924647v7.003803c0 5.859691-2.704298 16.992462-17.837372 16.992462h-6.930427c-11.5630565 0-17.1467499-7.578638-17.1467499-16.992462v-7.003803c0-9.413825 5.4704381-16.9924647 16.6138949-16.9924647z" style="fill:#ececec;stroke:#000;stroke-width:.331376;stroke-linecap:square;stroke-linejoin:bevel;stroke-opacity:.078125"/><path d="m4.1318994 12.158373c-1.0713442 2.405517-1.6055444 5.162885-1.6055444 8.100221v7.003676c0 2.936437.5440697 5.695224 1.6426556 8.100221h38.5428344c1.328317-2.86042 1.728597-5.863914 1.728597-8.100221v-7.003676c0-2.256511-.423159-5.251583-1.707112-8.100221z" fill="#b3b3b3"/><path d="m23.484375 10.864028a13.118205 12.897756 0 0 0 -13.117806 12.897365 13.118205 12.897756 0 0 0 13.117806 12.897364 13.118205 12.897756 0 0 0 13.117806-12.897364 13.118205 12.897756 0 0 0 -13.117806-12.897365zm0 3.522001a9.5343483 9.3741256 0 0 1 9.533653 9.375364 9.5343483 9.3741256 0 0 1 -9.533653 9.373441 9.5343483 9.3741256 0 0 1 -9.535606-9.373441 9.5343483 9.3741256 0 0 1 9.535606-9.375364z" style="fill:#fff;stroke:#000;stroke-width:.099161;stroke-linecap:square;stroke-linejoin:bevel;stroke-opacity:.146875"/><g fill="#5c6698" transform="matrix(1.0000472 0 0 .98324161 .471801 .746028)"><circle cx="23.010933" cy="23.407066" fill="#5c6698" fill-opacity=".73913" r="9.533898"/><circle cx="23.010933" cy="23.407066" fill="#4b5279" r="4.5"/><path d="m23.484375 13.662109a9.5338984 9.5338984 0 0 0 -9.324219 7.560547 13.805085 7.7288136 0 0 0 9.31836 2.039063 13.805085 7.7288136 0 0 0 9.320312-2.03711 9.5338984 9.5338984 0 0 0 -9.314453-7.5625z" fill="#fff" fill-opacity=".1" transform="translate(-.472887 .210373)"/><g fill="#f4664a"><circle cx="11.859532" cy="9.07381" r="1.132569" stroke="#252525" stroke-linecap="square" stroke-linejoin="bevel" stroke-opacity=".06875" stroke-width=".4"/><circle cx="11.859532" cy="9.07381" r="1.132569"/></g></g><ellipse cx="23.48382" cy="23.76083" rx="13.118205" ry="12.897757" style="fill:none;stroke:#000;stroke-width:.396644;stroke-linecap:square;stroke-linejoin:bevel;stroke-opacity:.03125"/></g></svg>