<svg height="48" width="48" xmlns="http://www.w3.org/2000/svg" xmlns:xlink="http://www.w3.org/1999/xlink"><linearGradient id="a" gradientTransform="matrix(.3038078 0 0 .30219948 -62.677523 2.720667)" gradientUnits="userSpaceOnUse" x1="288.11157" x2="287.57547" y1="141.78452" y2="79.007812"><stop offset="0" stop-opacity=".046875"/><stop offset="1" stop-opacity="0"/></linearGradient><path d="m2.9627512 26.819877v1.659735c0 9.523828 5.5833583 17.191135 17.1461548 17.191135h6.930611c15.132735 0 17.836852-11.262971 17.836852-17.191135v-1.659735c0 5.928163-2.704117 17.191133-17.836852 17.191133h-6.930611c-11.5627965 0-17.1461548-7.667307-17.1461548-17.191133z" fill="url(#a)"/><path d="m19.576302 3.4653654h8.495281c13.908084 0 16.804806 11.1876026 16.804806 17.1910206v7.085643c0 5.928162-2.704237 17.191018-17.836972 17.191018h-6.930271c-11.5627965 0-17.1463648-7.667192-17.1463648-17.191018v-7.085643c0-9.523825 5.4703155-17.1910206 16.6135208-17.1910206z" style="fill:#808080;stroke:#000;stroke-width:.333303;stroke-linecap:square;stroke-linejoin:bevel;stroke-opacity:.078125"/><path d="m31.54579 13.048271-4.855606 4.532338 3.888904 3.678903 4.855214-4.532336zm-14.991638.271002-4.335042 4.16263 1.388032 1.276676 4.335047-4.162985zm3.048562 2.803249-4.335431 4.162992 1.388035 1.276321 4.335433-4.162984zm4.144727 3.535025c-2.608535 0-4.746301 1.979326-4.746301 4.38773s2.137557 4.38409 4.746301 4.38409c2.608741 0 4.742421-1.975495 4.742421-4.38409 0-2.408588-2.133887-4.38773-4.742421-4.38773zm0 1.862762c1.513005 0 2.726458 1.120681 2.726457 2.524968 0 1.404295-1.213855 2.521321-2.726457 2.521321-1.512603 0-2.726456-1.117054-2.726456-2.521321 0-1.404265 1.21345-2.524968 2.726456-2.524968zm-3.178024 9.116031v1.82488h6.197903v-1.82488zm0 4.008188v1.824881h6.197903v-1.824881z" fill="#fff"/><path d="m19.576302 3.4653654h8.495281c13.908084 0 16.804806 11.1876026 16.804806 17.1910206v7.085643c0 5.928162-2.704237 17.191015-17.836972 17.191015h-6.930271c-11.562797 0-17.146365-7.667189-17.146365-17.191015v-7.085643c0-9.523825 5.470315-17.1910206 16.613521-17.1910206z" style="fill:#b3b3b3;fill-opacity:.072539;stroke:#000;stroke-width:.333303;stroke-linecap:square;stroke-linejoin:bevel;stroke-opacity:.078125"/></svg>