<svg height="48" width="48" xmlns="http://www.w3.org/2000/svg" xmlns:xlink="http://www.w3.org/1999/xlink"><linearGradient id="a" gradientTransform="matrix(.3038078 0 0 .30219948 -62.677523 2.720667)" gradientUnits="userSpaceOnUse" x1="288.11157" x2="287.57547" y1="141.78452" y2="79.007812"><stop offset="0" stop-opacity=".046875"/><stop offset="1" stop-opacity="0"/></linearGradient><path d="m2.9627512 26.819877v1.659735c0 9.523828 5.5833583 17.191135 17.1461548 17.191135h6.930611c15.132735 0 17.836852-11.262971 17.836852-17.191135v-1.659735c0 5.928163-2.704117 17.191133-17.836852 17.191133h-6.930611c-11.5627965 0-17.1461548-7.667307-17.1461548-17.191133z" fill="url(#a)"/><path d="m19.576302 3.4653654h8.495281c13.908084 0 16.804806 11.1876026 16.804806 17.1910206v7.085643c0 5.928162-2.704237 17.191018-17.836972 17.191018h-6.930271c-11.5627965 0-17.1463648-7.667192-17.1463648-17.191018v-7.085643c0-9.523825 5.4703155-17.1910206 16.6135208-17.1910206z" style="fill:#808080;stroke:#000;stroke-width:.333303;stroke-linecap:square;stroke-linejoin:bevel;stroke-opacity:.078125"/><path d="m19.576302 3.4653654h8.495281c13.908084 0 16.804806 11.1876026 16.804806 17.1910206v7.085643c0 5.928162-2.704237 17.191015-17.836972 17.191015h-6.930271c-11.562797 0-17.146365-7.667189-17.146365-17.191015v-7.085643c0-9.523825 5.470315-17.1910206 16.613521-17.1910206z" style="fill:#b3b3b3;fill-opacity:.072539;stroke:#000;stroke-width:.333303;stroke-linecap:square;stroke-linejoin:bevel;stroke-opacity:.078125"/><g fill="#fff" fill-rule="evenodd" transform="matrix(1.110011 0 0 1.0871841 13.82448 14.49864)"><path d="m8.262999 9.014h1.482v8.149h-1.482z"/><path d="m3.282 9.014 5.745-5.765 5.712 5.765-3.513 3.459v2.306l5.808-5.765-8.049-8.072-8.02 8.072 5.817 5.765v-2.306z"/></g></svg>