<svg height="48" width="48" xmlns="http://www.w3.org/2000/svg" xmlns:xlink="http://www.w3.org/1999/xlink"><linearGradient id="a" gradientTransform="matrix(.3038078 0 0 .30219948 -62.677523 2.720667)" gradientUnits="userSpaceOnUse" x1="288.11157" x2="287.57547" y1="141.78452" y2="79.007812"><stop offset="0" stop-opacity=".046875"/><stop offset="1" stop-opacity="0"/></linearGradient><filter id="b" color-interpolation-filters="sRGB" height="1.083142" width="1.113562" x="-.056781" y="-.041571"><feGaussianBlur stdDeviation=".57286445"/></filter><path d="m2.9627512 26.819877v1.659735c0 9.523828 5.5833583 17.191135 17.1461548 17.191135h6.930611c15.132735 0 17.836852-11.262971 17.836852-17.191135v-1.659735c0 5.928163-2.704117 17.191133-17.836852 17.191133h-6.930611c-11.5627965 0-17.1461548-7.667307-17.1461548-17.191133z" fill="url(#a)"/><path d="m19.576302 3.4653654h8.495281c13.908084 0 16.804806 11.1876026 16.804806 17.1910206v7.085643c0 5.928162-2.704237 17.191018-17.836972 17.191018h-6.930271c-11.5627965 0-17.1463648-7.667192-17.1463648-17.191018v-7.085643c0-9.523825 5.4703155-17.1910206 16.6135208-17.1910206z" style="fill:#ccc;stroke:#000;stroke-width:.333303;stroke-linecap:square;stroke-linejoin:bevel;stroke-opacity:.078125"/><path d="m19.576302 3.4653654h8.495281c13.908084 0 16.804806 11.1876026 16.804806 17.1910206v7.085643c0 5.928162-2.704237 17.191015-17.836972 17.191015h-6.930271c-11.562797 0-17.146365-7.667189-17.146365-17.191015v-7.085643c0-9.523825 5.470315-17.1910206 16.613521-17.1910206z" style="fill:#b3b3b3;fill-opacity:.072539;stroke:#000;stroke-width:.333303;stroke-linecap:square;stroke-linejoin:bevel;stroke-opacity:.078125"/><ellipse cx="24.0252" cy="-24.26016" fill="#5d5d5d" rx="16.242474" ry="16.12726" transform="scale(1 -1)"/><ellipse cx="9.997601" cy="38.188248" fill="#b3b3b3" rx=".738294" ry=".733057"/><path d="m9.9976059 9.5990109a.73829421.73305726 0 0 0 -.7382968.7330551.73829421.73305726 0 0 0 .7382968.733055.73829421.73305726 0 0 0 .7382871-.733055.73829421.73305726 0 0 0 -.7382871-.7330551zm28.0551741 0a.73829421.73305726 0 0 0 -.738297.7330551.73829421.73305726 0 0 0 .738297.733055.73829421.73305726 0 0 0 .738296-.733055.73829421.73305726 0 0 0 -.738296-.7330551zm0 27.8561791a.73829421.73305726 0 0 0 -.738297.733056.73829421.73305726 0 0 0 .738297.733054.73829421.73305726 0 0 0 .738296-.733054.73829421.73305726 0 0 0 -.738296-.733056z" opacity=".1"/><g fill="#fff" stroke-width=".064669" transform="matrix(.55203036 0 0 .56412611 5.500706 -123.77811)"><path d="m32.027724 279.04353c-1.271162-.36592-2.315197-1.42808-2.652095-2.69816-.131489-.4957-.131489-1.49712 0-1.99281.271274-1.02268 1.066291-2.00778 1.963094-2.43245l.475036-.22495-.03335-.33465c-.112106-1.12498-.786466-1.59723-3.362239-2.35455-1.711318-.50316-2.020236-.61474-2.889681-1.04375-.719043-.35481-.869886-.46-1.365143-.95206-.44805-.44516-.609296-.66052-.825706-1.10287-.396384-.81021-.460299-1.25598-.462111-3.22296l-.0015-1.65955-.263023-.194c-1.207617-.89076-1.331958-2.77327-.254345-3.85089 1.164841-1.16485 3.101916-.95395 3.99003.4344.661897 1.03471.470992 2.46466-.438175 3.28208-.181122.16284-.358094.29608-.393272.29608-.04118 0-.05505.60467-.03897 1.69756.02386 1.62062.03183 1.71156.17591 2.00651.296291.60652.980165 1.00697 2.560103 1.49907 2.007225.62521 2.984192.95267 3.281954 1.10007l.307177.15206v-7.49579-7.49579h-1.261042c-.725081 0-1.261045-.0253-1.261045-.0595 0-.10897 3.749584-6.31037 3.815474-6.31037s3.815475 6.2014 3.815475 6.31037c0 .0343-.535964.0595-1.261046.0595h-1.261052v5.65963 5.65963l.307178-.15539c.498801-.25233 1.566189-.59183 3.159502-1.00492 2.757321-.71488 3.603263-1.10902 3.942053-1.83667.150449-.32313.156303-.38936.156913-1.77454l.000619-1.43889h-.614382-.614357v-2.58677-2.58675h2.554426 2.554428v2.58675 2.58677h-.606617-.606595l-.03244 1.63289c-.02453 1.23467-.05829 1.72556-.138399 2.01289-.345793 1.24015-1.263113 2.24276-2.635567 2.8806-.769485.35761-1.493407.59134-3.217063 1.03863-2.761755.71666-3.577797 1.0829-3.995256 1.79311l-.182163.30989-.0193 2.2311-.0193 2.23107.471979.22495c.894913.42652 1.689527 1.41266 1.960035 2.43245.131488.49569.131488 1.49711 0 1.99281-.343786 1.29604-1.435042 2.38347-2.7261 2.71655-.530716.13692-1.552207.1278-2.060073-.0184z" filter="url(#b)" opacity=".3"/><path d="m32.027724 279.04353c-1.271162-.36592-2.315197-1.42808-2.652095-2.69816-.131489-.4957-.131489-1.49712 0-1.99281.271274-1.02268 1.066291-2.00778 1.963094-2.43245l.475036-.22495-.03335-.33465c-.112106-1.12498-.786466-1.59723-3.362239-2.35455-1.711318-.50316-2.020236-.61474-2.889681-1.04375-.719043-.35481-.869886-.46-1.365143-.95206-.44805-.44516-.609296-.66052-.825706-1.10287-.396384-.81021-.460299-1.25598-.462111-3.22296l-.0015-1.65955-.263023-.194c-1.207617-.89076-1.331958-2.77327-.254345-3.85089 1.164841-1.16485 3.101916-.95395 3.99003.4344.661897 1.03471.470992 2.46466-.438175 3.28208-.181122.16284-.358094.29608-.393272.29608-.04118 0-.05505.60467-.03897 1.69756.02386 1.62062.03183 1.71156.17591 2.00651.296291.60652.980165 1.00697 2.560103 1.49907 2.007225.62521 2.984192.95267 3.281954 1.10007l.307177.15206v-7.49579-7.49579h-1.261042c-.725081 0-1.261045-.0253-1.261045-.0595 0-.10897 3.749584-6.31037 3.815474-6.31037s3.815475 6.2014 3.815475 6.31037c0 .0343-.535964.0595-1.261046.0595h-1.261052v5.65963 5.65963l.307178-.15539c.498801-.25233 1.566189-.59183 3.159502-1.00492 2.757321-.71488 3.603263-1.10902 3.942053-1.83667.150449-.32313.156303-.38936.156913-1.77454l.000619-1.43889h-.614382-.614357v-2.58677-2.58675h2.554426 2.554428v2.58675 2.58677h-.606617-.606595l-.03244 1.63289c-.02453 1.23467-.05829 1.72556-.138399 2.01289-.345793 1.24015-1.263113 2.24276-2.635567 2.8806-.769485.35761-1.493407.59134-3.217063 1.03863-2.761755.71666-3.577797 1.0829-3.995256 1.79311l-.182163.30989-.0193 2.2311-.0193 2.23107.471979.22495c.894913.42652 1.689527 1.41266 1.960035 2.43245.131488.49569.131488 1.49711 0 1.99281-.343786 1.29604-1.435042 2.38347-2.7261 2.71655-.530716.13692-1.552207.1278-2.060073-.0184z"/></g></svg>