<svg height="48" width="48" xmlns="http://www.w3.org/2000/svg" xmlns:xlink="http://www.w3.org/1999/xlink"><linearGradient id="a" gradientTransform="matrix(.3038078 0 0 .30219948 -62.677523 2.720667)" gradientUnits="userSpaceOnUse" x1="288.11157" x2="287.57547" y1="141.78452" y2="79.007812"><stop offset="0" stop-opacity=".046875"/><stop offset="1" stop-opacity="0"/></linearGradient><filter id="b" color-interpolation-filters="sRGB" height="1.12" width="1.12" x="-.06" y="-.06"><feGaussianBlur stdDeviation="3.75"/></filter><linearGradient id="c" gradientUnits="userSpaceOnUse" x1="152" x2="152" y1="124" y2="236"><stop offset="0"/><stop offset="1" stop-opacity="0"/></linearGradient><clipPath id="d"><path d="m152 68c-48.60106 0-88 39.39894-88 88s39.39894 88 88 88 88-39.39894 88-88-39.39894-88-88-88z"/></clipPath><filter id="e" color-interpolation-filters="sRGB" height="1.12" width="1.12" x="-.06" y="-.06"><feGaussianBlur stdDeviation="4.4"/></filter><path d="m2.9627512 26.819877v1.659735c0 9.523828 5.5833583 17.191135 17.1461548 17.191135h6.930611c15.132735 0 17.836852-11.262971 17.836852-17.191135v-1.659735c0 5.928163-2.704117 17.191133-17.836852 17.191133h-6.930611c-11.5627965 0-17.1461548-7.667307-17.1461548-17.191133z" fill="url(#a)"/><path d="m19.576302 3.4653654h8.495281c13.908084 0 16.804806 11.1876026 16.804806 17.1910206v7.085643c0 5.928162-2.704237 17.191018-17.836972 17.191018h-6.930271c-11.5627965 0-17.1463648-7.667192-17.1463648-17.191018v-7.085643c0-9.523825 5.4703155-17.1910206 16.6135208-17.1910206z" style="fill:#ccc;stroke:#000;stroke-width:.333303;stroke-linecap:square;stroke-linejoin:bevel;stroke-opacity:.078125"/><path d="m19.576302 3.4653654h8.495281c13.908084 0 16.804806 11.1876026 16.804806 17.1910206v7.085643c0 5.928162-2.704237 17.191015-17.836972 17.191015h-6.930271c-11.562797 0-17.146365-7.667189-17.146365-17.191015v-7.085643c0-9.523825 5.470315-17.1910206 16.613521-17.1910206z" style="fill:#b3b3b3;fill-opacity:.072539;stroke:#000;stroke-width:.333303;stroke-linecap:square;stroke-linejoin:bevel;stroke-opacity:.078125"/><ellipse cx="24.0252" cy="-24.26016" fill="#5d5d5d" rx="16.242474" ry="16.12726" transform="scale(1 -1)"/><path d="m7.7827156 24.260159a16.242473 16.12726 0 0 1 16.2424724-16.1272647 16.242473 16.12726 0 0 1 16.242473 16.1272647z" opacity=".05"/><path d="m152 70c-48.60106 0-88 39.39894-88 88s39.39894 88 88 88 88-39.39894 88-88-39.39894-88-88-88z" style="opacity:.2;fill:none;stroke-width:54.793667;stroke-linejoin:round;clip-path:url(#d);stroke:url(#c);filter:url(#e)" transform="matrix(.18457355 0 0 .18326432 -4.029986 -4.329082)"/><path d="m125.56816 192.56785c-41.421346 0-74.999996-33.57864-74.999996-75 0-41.421365 33.57865-75.000009 74.999996-75.000009 41.42135 0 75 33.578644 75 75.000009 0 41.42136-33.57865 75-75 75z" filter="url(#b)" opacity=".2" transform="matrix(.18457355 0 0 .18326432 .848628 3.080694)"/><ellipse cx="11.901485" cy="35.867027" fill="#b3b3b3" rx=".627014" ry=".612338"/><path d="m9.9976059 9.5990109a.73829421.73305726 0 0 0 -.7382968.7330551.73829421.73305726 0 0 0 .7382968.733055.73829421.73305726 0 0 0 .7382871-.733055.73829421.73305726 0 0 0 -.7382871-.7330551zm28.0551741 0a.73829421.73305726 0 0 0 -.738297.7330551.73829421.73305726 0 0 0 .738297.733055.73829421.73305726 0 0 0 .738296-.733055.73829421.73305726 0 0 0 -.738296-.7330551zm0 27.8561791a.73829421.73305726 0 0 0 -.738297.733056.73829421.73305726 0 0 0 .738297.733054.73829421.73305726 0 0 0 .738296-.733054.73829421.73305726 0 0 0 -.738296-.733056z" opacity=".1"/><path d="m24.116491 32.371117c-.523332 0-1.035555-.05117-1.530495-.148557 2.080979-.589237 4.553222-2.04485 5.728246-4.381818 0 0 2.409296-3.993573-1.667499-7.587661 0 0 1.047896 1.667838 1.079987 3.345662 0 0 .249321 2.20589-1.679841 3.584103-2.844993 2.031115-7.277258 1.11605-9.163221.589235-.506052-1.063623-.789934-2.255825-.789934-3.515441 0-1.885055.635648-3.619058 1.70206-4.99727.525798 2.567919 1.611956 4.712639 2.342643 5.509106.973839 1.059874 2.408062 2.185914 4.249593 1.721518 1.840294-.465647 2.215515-2.501757 2.215515-2.501757.407308-1.731504-.172798-3.788838-.203654-3.83253-.03086-.04369-.307335-.09113-.307335-.09113.288819 2.727712-.420885 3.934897-.420885 3.934897-1.031849 2.138476-2.547534 1.476834-2.547534 1.476834-1.684779-.868873-1.605785-3.316948-1.605785-3.316948-.04938-1.641616.568997-4.315651 1.761305-5.973501.275239-.02871.554185-.04369.836834-.04369 1.073815 0 2.098258.213474 3.035069.601719-.994821.845155-2.527786 2.426851-2.527786 2.426851-2.483352 2.328235-2.001985 4.286943-2.001985 4.286943.394965 2.057332 1.626769.671632 1.626769.671632 1.294747-1.353248 1.198475-4.048504 1.198475-4.048504-.524564.08614-.856582.378263-.856582.378263-.06419 1.797666-1.113314 2.91247-1.113314 2.91247-.406074.454411-.694893.02122-.694893.02122-.21353-.324579.213529-.551786.213529-.551786.599856-.53056.778825-1.435635.771418-1.775196-.0086-.340807.17033-.433189.17033-.433189.846709-.660397 1.692185-1.049892 1.692185-1.049892 1.134292-.585491 3.157261-.682866 3.157261-.682866.478897.01622.938044-.0026 1.326843-.03245 1.260193 1.433141 2.025437 3.320693 2.025437 5.389262 0 4.481689-3.591729 8.114477-8.022756 8.114477m-9.168864-8.114493c0 5.121727 4.10503 9.27369 9.168864 9.27369 5.063832 0 9.168862-4.151963 9.168862-9.27369 0-5.121725-4.10503-9.273688-9.168862-9.273688-5.063834 0-9.168864 4.151963-9.168864 9.273688z" fill="#fff" fill-rule="evenodd"/></svg>