<svg height="48" width="48" xmlns="http://www.w3.org/2000/svg" xmlns:xlink="http://www.w3.org/1999/xlink"><linearGradient id="a" gradientTransform="matrix(.3038078 0 0 .30219948 -62.677523 2.720667)" gradientUnits="userSpaceOnUse" x1="288.11157" x2="287.57547" y1="141.78452" y2="79.007812"><stop offset="0" stop-opacity=".046875"/><stop offset="1" stop-opacity="0"/></linearGradient><linearGradient id="b" gradientUnits="userSpaceOnUse" x1="152" x2="152" y1="124" y2="236"><stop offset="0"/><stop offset="1" stop-opacity="0"/></linearGradient><clipPath id="c"><path d="m152 68c-48.60106 0-88 39.39894-88 88s39.39894 88 88 88 88-39.39894 88-88-39.39894-88-88-88z"/></clipPath><filter id="d" color-interpolation-filters="sRGB" height="1.12" width="1.12" x="-.06" y="-.06"><feGaussianBlur stdDeviation="4.4"/></filter><path d="m2.9627512 26.819877v1.659735c0 9.523828 5.5833583 17.191135 17.1461548 17.191135h6.930611c15.132735 0 17.836852-11.262971 17.836852-17.191135v-1.659735c0 5.928163-2.704117 17.191133-17.836852 17.191133h-6.930611c-11.5627965 0-17.1461548-7.667307-17.1461548-17.191133z" fill="url(#a)"/><path d="m19.576302 3.4653654h8.495281c13.908084 0 16.804806 11.1876026 16.804806 17.1910206v7.085643c0 5.928162-2.704237 17.191018-17.836972 17.191018h-6.930271c-11.5627965 0-17.1463648-7.667192-17.1463648-17.191018v-7.085643c0-9.523825 5.4703155-17.1910206 16.6135208-17.1910206z" style="fill:#ccc;stroke:#000;stroke-width:.333303;stroke-linecap:square;stroke-linejoin:bevel;stroke-opacity:.078125"/><path d="m19.576302 3.4653654h8.495281c13.908084 0 16.804806 11.1876026 16.804806 17.1910206v7.085643c0 5.928162-2.704237 17.191015-17.836972 17.191015h-6.930271c-11.562797 0-17.146365-7.667189-17.146365-17.191015v-7.085643c0-9.523825 5.470315-17.1910206 16.613521-17.1910206z" style="fill:#b3b3b3;fill-opacity:.072539;stroke:#000;stroke-width:.333303;stroke-linecap:square;stroke-linejoin:bevel;stroke-opacity:.078125"/><ellipse cx="24.0252" cy="-24.26016" fill="#5d5d5d" rx="16.242474" ry="16.12726" transform="scale(1 -1)"/><path d="m152 70c-48.60106 0-88 39.39894-88 88s39.39894 88 88 88 88-39.39894 88-88-39.39894-88-88-88z" style="opacity:.2;stroke-width:54.793667;stroke-linejoin:round;clip-path:url(#c);stroke:url(#b);filter:url(#d)" transform="matrix(.18457355 0 0 .18326432 -4.029986 -4.329082)"/><ellipse cx="9.997601" cy="38.188248" fill="#b3b3b3" rx=".738294" ry=".733057"/><path d="m9.9976059 9.5990109a.73829421.73305726 0 0 0 -.7382968.7330551.73829421.73305726 0 0 0 .7382968.733055.73829421.73305726 0 0 0 .7382871-.733055.73829421.73305726 0 0 0 -.7382871-.7330551zm28.0551741 0a.73829421.73305726 0 0 0 -.738297.7330551.73829421.73305726 0 0 0 .738297.733055.73829421.73305726 0 0 0 .738296-.733055.73829421.73305726 0 0 0 -.738296-.7330551zm0 27.8561791a.73829421.73305726 0 0 0 -.738297.733056.73829421.73305726 0 0 0 .738297.733054.73829421.73305726 0 0 0 .738296-.733054.73829421.73305726 0 0 0 -.738296-.733056z" opacity=".1"/><path d="m28.812038 27.377869c0-.115315-.185121-.249845-.555373-.403597.02693-.09609.05217-.18418.07573-.264259.02356-.08008.04039-.163359.05049-.249845.0101-.08648.02019-.155353.03029-.206602.0101-.05126.01178-.123321.005-.216214-.0067-.09289-.0101-.155351-.0101-.187382 0-.03203-.01178-.102501-.03534-.21141-.02356-.108906-.03702-.17457-.04039-.196991-.0034-.02242-.02019-.102501-.05049-.240237-.03029-.137735-.0488-.222618-.05554-.254649-.06732-.307504-.225511-.637424-.47459-.989773-.249078-.352347-.491418-.59258-.727034-.720707.161564.128127.353419.393986.57557.797584.585668 1.037824.767424 1.928288.545273 2.671421-.07405.256252-.242342.390785-.504883.403597-.208688.02563-.338273-.03363-.388761-.177775-.05049-.144142-.07742-.411601-.08078-.802387-.0034-.390787-.04207-.733519-.116125-1.028211-.06059-.249846-.12622-.47086-.196904-.663049-.07068-.192189-.136319-.337931-.196905-.437229-.06059-.0993-.112757-.177775-.156513-.235431-.04376-.05766-.08751-.105703-.131271-.144143-.04376-.03844-.069-.06086-.07573-.06726-.09425-.39719-.198589-.727112-.313029-.989771-.114439-.262657-.213733-.442033-.29788-.538128-.08415-.09609-.163247-.201798-.237296-.31711-.07405-.115315-.124539-.243438-.151465-.384379-.02693-.134533-.0067-.305899.06058-.514105.06732-.208205.08247-.366759.04544-.475666-.03703-.108908-.186806-.188986-.449347-.240235-.100977-.01922-.250759-.07687-.449348-.172971-.198588-.09609-.318077-.147344-.358467-.15375-.05385-.0064-.09088-.08968-.111074-.249848-.0202-.160158.0067-.323515.08078-.490079.07405-.166564.19522-.25305.363515-.259455.249079-.01921.420737.07687.514983.288283.09425.211408.107708.397188.04039.557346-.07405.12172-.08078.206602-.02019.254651.06058.04805.161562.04965.302929.0048.08751-.02563.131271-.140937.131271-.345938v-.355552c-.03366-.192189-.0791-.352344-.136319-.480471-.05722-.128126-.127903-.225822-.212051-.293088-.08415-.06726-.163245-.115312-.237296-.144141-.07405-.02883-.164928-.05285-.272636-.07207-.720305.05125-1.019868.480467-.898695 1.287663 0 .09609-.0034.144141-.0101.144141-.06059-.05766-.159879-.09129-.297883-.100899-.138001-.0096-.249073-.008-.333222.0048-.08415.01282-.136319-.0032-.156513-.04805.0067-.36516-.04712-.65344-.161564-.864849-.11444-.211407-.265904-.320314-.454396-.32672-.181758-.0064-.321442.08168-.419054.264259-.09761.18258-.153147.373165-.16661.571761-.0067.0961.005.21461.03534.355549.03029.14094.07405.261057.131268.360355.05722.0993.109392.142538.156516.129726.06732-.01922.121171-.06406.161561-.134531.02693-.05766.0034-.08328-.07068-.07687-.04712 0-.09929-.04644-.156513-.139337-.05722-.09289-.0892-.200196-.09593-.321915-.0067-.14094.02356-.259455.09088-.35555.06732-.09609.181755-.140938.343319-.134532.114442 0 .20532.06726.272638.201799.06732.134531.09929.259452.09593.374767-.0034.115314-.0084.185784-.01515.211407-.148099.0961-.252442.188987-.313026.278675-.05385.07687-.146416.152148-.277687.22582-.13127.07368-.200271.113713-.207002.120119-.08751.08969-.139685.176173-.156515.259455-.01683.08328.0084.140938.07573.17297.09424.05126.17839.11371.252442.187382.07405.07368.127902.134533.161561.182582.03366.04805.09593.08968.186809.124922.09088.03523.210366.05605.358467.06246.316394.01282.659714-.03523 1.029963-.14414.01346-.0064.09088-.02883.232245-.06726.14137-.03844.257493-.07207.34837-.100899.09088-.02883.190173-.07047.297883-.124923.107709-.05445.178392-.110508.212052-.168166.06059-.08968.127902-.115312.201951-.07687.03366.01922.05554.04644.06564.08168.0101.03523 0 .07368-.03029.115312-.03029.04164-.08583.07207-.16661.09129-.134636.03844-.324808.107305-.570518.206602-.245713.0993-.39886.16176-.459445.187383-.2962.12172-.531811.195392-.706837.221018-.168298.03203-.4342.02563-.797718-.01922-.06732-.01281-.09761-.0064-.09088.01922.0067.02563.06395.08649.171661.182578.168295.147346.393809.217815.676544.211409.114442-.0064.235614-.02883.363518-.06726.127905-.03844.249076-.08328.363516-.134532.11444-.05126.227197-.107305.338273-.168166.111074-.06086.212049-.115314.302929-.16336.09088-.04805.173344-.08648.247393-.115315.07405-.02882.132954-.03684.17671-.02402.04376.01281.07237.04805.08583.105703 0 .01281-.0034.02723-.0101.04324-.0067.01602-.02019.03203-.04039.04805-.02019.01602-.04039.03042-.06059.04324-.02019.01281-.04881.02882-.08583.04805-.03702.01922-.06732.03363-.09088.04324-.02356.0096-.05722.02563-.100975.04805-.04376.02242-.07574.03684-.09593.04324-.188491.08969-.415686.230627-.681592.422816-.265909.192189-.489738.329922-.671496.413205-.18176.08328-.346687.08648-.494786.0096-.14137-.07047-.353419-.304295-.636154-.701485-.148101-.198598-.232248-.269066-.252444-.21141-.0067.01922-.0101.05126-.0101.09609 0 .160158-.05049.341134-.151464.542933-.100978.2018-.200272.379572-.297883.533323-.09761.153753-.168293.339534-.212052.557349-.04376.217815-.005.419611.116125.605394-.154832.03844-.365198.326718-.631105.864848-.265906.538132-.425785.989771-.47964 1.354931-.01346.115312-.01851.336329-.01515.66305.0034.326723-.01515.515707-.05554.566957-.05385.153751-.151465.16336-.292832.02883-.215419-.198596-.336588-.499689-.363516-.903287-.01347-.179376 0-.358752.04039-.538129.02693-.12172.02356-.179375-.0101-.172969l-.04039.04805c-.242345.41641-.208686.948126.100977 1.595165.03366.07687.117805.166564.252441.269064.134639.102501.215417.166564.242345.19219.134636.147344.484687.437227 1.050159.869654.565472.432425.878498.677465.939085.735119.107709.0961.16661.217815.17671.365159.0101.147346-.03702.285079-.141368.413207-.104345.128126-.25749.201798-.459444.221016.05385.09609.151464.238634.292832.427621.141367.188986.235611.361954.282735.518909.04712.156955.07068.382774.07068.677464.309663-.153751.333225-.448437.07068-.884067-.02693-.05125-.06227-.1025-.106025-.153751-.04376-.05125-.07573-.08968-.09593-.115313-.02019-.02563-.02693-.04484-.02019-.05766.02019-.03203.06395-.06246.131268-.09129.06732-.02883.134636-.02082.201954.02402.309663.33313.868397.448443 1.676214.345941.895333-.09609 1.49109-.374765 1.78729-.83602.154832-.243441.26927-.339534.343322-.288284.08078.03844.11444.205.100977.499691-.0067.160157-.08415.454844-.232248.884068-.06059.147346-.08078.267463-.06059.360354.0202.09289.100977.14254.242344.148946.0202-.12172.069-.36836.146416-.739926.07742-.371566.122856-.659848.136319-.864849.01347-.134533-.0084-.369962-.06564-.706294-.05722-.336332-.08246-.647034-.07573-.932115.0067-.285082.08415-.510901.232247-.677465.100977-.115314.272636-.17297.51498-.17297.0067-.237034.122855-.406799.348371-.509299.225516-.102503.469541-.136134.732082-.100899.262541.03523.464493.107305.60586.216211zm-6.341341-7.947001c.02019-.108909.01178-.205001-.02524-.288284-.03702-.08328-.07573-.13133-.116123-.144141-.06059-.01281-.09088.0096-.09088.06726.01346.03203.03029.05126.05049.05766.06732 0 .09088.04805.07068.144141-.02019.128127.0067.19219.08078.19219.02019 0 .03029-.0096.03029-.02883zm2.433539-.153752c0-.07047-.01683-.132931-.05049-.187383-.03366-.05445-.07068-.09449-.111075-.120119-.04039-.02563-.07068-.03523-.09088-.02883-.09424.0064-.117805.02883-.07068.06726.01347.0064.02693.01282.04039.01922.09425.02563.154832.124921.18176.297893 0 .01921.02693.01281.08078-.01922zm6.563491 10.882684c.07405.08008.11444.156952.121174.230627.0067.07367-.0017.145742-.02524.216212-.02356.07047-.07573.140937-.156515.211407-.08078.07047-.159879.132931-.237294.187385-.07742.05445-.178392.11371-.302931.177774-.12454.06406-.230563.116915-.318077.158555-.08751.04164-.195221.09129-.323126.148946-.127904.05766-.218782.0993-.272638.124923-.255809.121721-.543588.301095-.86335.538129-.319762.237033-.573884.442032-.762376.615003-.11444.102502-.343319.164962-.686641.187384-.343324.02242-.642885-.02402-.898695-.139336-.121171-.05766-.220465-.13293-.29788-.225823-.07742-.09289-.132953-.17457-.166612-.245039-.03366-.07047-.107709-.132931-.222149-.187385-.11444-.05445-.272635-.08489-.47459-.09129-.2962-.0064-.733762-.0096-1.3127-.0096-.127902 0-.319757.0048-.575567.01442-.255809.0096-.451028.01761-.585664.02402-.2962.0064-.563787.05445-.802766.144142-.238979.08969-.419054.185781-.540225.288283-.121173.102501-.267589.19379-.43925.273868-.171661.08008-.351734.116916-.540225.110509-.195223-.0064-.568834-.105703-1.120843-.297892-.55201-.19219-1.043424-.329924-1.474261-.413205-.127905-.02563-.299564-.05605-.514982-.09129-.215418-.03523-.383711-.06406-.504884-.08649-.121172-.02242-.254124-.05285-.398858-.09129s-.25749-.08489-.338272-.139338c-.08078-.05445-.138002-.116914-.171661-.187383-.06732-.147346-.04376-.360353.07068-.639028.114441-.278675.175026-.453244.181758-.523714.0067-.102501-.0067-.230626-.04039-.384377-.03366-.153752-.06732-.289883-.100977-.4084-.03366-.118519-.04881-.235432-.04544-.350746.0034-.115312.03871-.201798.106026-.259454.09425-.07687.286099-.121719.575568-.134531.289468-.01282.491419-.05126.60586-.115315.201955-.115314.343321-.227421.424103-.33633.08078-.108906.121172-.272265.121172-.49008 0 .182579.178392-.288284.151465-.442036-.0202-.1025-.02693-.224219-.02019-.365157.0067-.185782.04039-.352346.100976-.49969.06059-.147347.141368-.297893.242345-.451645s.175026-.288281.222148-.403596c.05385-.134532.14305-.365157.267589-.691878.12454-.326723.223832-.576566.297881-.749538.07405-.172969.175027-.368359.302931-.586174.127905-.217815.259173-.390782.393809-.518909.740502-.916105 1.157868-1.540711 1.252112-1.87384-.08078-.717508-.134634-1.710473-.161562-2.978925-.01347-.576568.06732-1.061839.242345-1.455829.175026-.393989.531808-.728714 1.070353-1.004185.262541-.134533.612589-.201799 1.050159-.201799.356787-.0064.713567.03684 1.070353.129727.356787.09289.656348.225821.898693.398792.383714.269064.691689.658244.923939 1.167548.232248.509301.33154.98176.297881 1.41739-.03366.6086.06732 1.294065.302931 2.056419.228882.723914.67654 1.422193 1.342991 2.094856.37025.377973.705153.90008 1.004718 1.566339.299566.666256.499835 1.27805.600812 1.8354.05385.31391.07068.584574.05049.811997-.0202.227426-.06058.405198-.121172.533324-.06059.128126.08751.643834.181758.566957.0067.198597.03366.379572.08078.542933.04712.163363.09593.293087.146418.389183.05049.09609.119489.187382.207001.273868.08751.08649.158198.147344.212051.182578.05385.03524.126222.07687.217102.124923.09088.04805.146416.07847.16661.09129.134636.07687.238979.155351.313028.235431z" fill="#fff" fill-rule="evenodd"/></svg>