<svg height="48" width="48" xmlns="http://www.w3.org/2000/svg" xmlns:xlink="http://www.w3.org/1999/xlink"><linearGradient id="a" gradientTransform="matrix(.3038078 0 0 .30219948 -62.677523 2.720667)" gradientUnits="userSpaceOnUse" x1="288.11157" x2="287.57547" y1="141.78452" y2="79.007812"><stop offset="0" stop-opacity=".046875"/><stop offset="1" stop-opacity="0"/></linearGradient><linearGradient id="b" gradientUnits="userSpaceOnUse" x1="152" x2="152" y1="124" y2="236"><stop offset="0"/><stop offset="1" stop-opacity="0"/></linearGradient><clipPath id="c"><path d="m152 68c-48.60106 0-88 39.39894-88 88s39.39894 88 88 88 88-39.39894 88-88-39.39894-88-88-88z"/></clipPath><filter id="d" color-interpolation-filters="sRGB" height="1.12" width="1.12" x="-.06" y="-.06"><feGaussianBlur stdDeviation="4.4"/></filter><path d="m2.9627512 26.819877v1.659735c0 9.523828 5.5833583 17.191135 17.1461548 17.191135h6.930611c15.132735 0 17.836852-11.262971 17.836852-17.191135v-1.659735c0 5.928163-2.704117 17.191133-17.836852 17.191133h-6.930611c-11.5627965 0-17.1461548-7.667307-17.1461548-17.191133z" fill="url(#a)"/><path d="m19.576302 3.4653654h8.495281c13.908084 0 16.804806 11.1876026 16.804806 17.1910206v7.085643c0 5.928162-2.704237 17.191018-17.836972 17.191018h-6.930271c-11.5627965 0-17.1463648-7.667192-17.1463648-17.191018v-7.085643c0-9.523825 5.4703155-17.1910206 16.6135208-17.1910206z" style="fill:#ccc;stroke:#000;stroke-width:.333303;stroke-linecap:square;stroke-linejoin:bevel;stroke-opacity:.078125"/><path d="m19.576302 3.4653654h8.495281c13.908084 0 16.804806 11.1876026 16.804806 17.1910206v7.085643c0 5.928162-2.704237 17.191015-17.836972 17.191015h-6.930271c-11.562797 0-17.146365-7.667189-17.146365-17.191015v-7.085643c0-9.523825 5.470315-17.1910206 16.613521-17.1910206z" style="fill:#b3b3b3;fill-opacity:.072539;stroke:#000;stroke-width:.333303;stroke-linecap:square;stroke-linejoin:bevel;stroke-opacity:.078125"/><ellipse cx="24.0252" cy="-24.26016" fill="#5d5d5d" rx="16.242474" ry="16.12726" transform="scale(1 -1)"/><path d="m152 70c-48.60106 0-88 39.39894-88 88s39.39894 88 88 88 88-39.39894 88-88-39.39894-88-88-88z" style="opacity:.2;stroke-width:54.793667;stroke-linejoin:round;clip-path:url(#c);stroke:url(#b);filter:url(#d)" transform="matrix(.18457355 0 0 .18326432 -4.029986 -4.329082)"/><ellipse cx="9.997601" cy="38.188248" fill="#b3b3b3" rx=".738294" ry=".733057"/><path d="m9.9976059 9.5990109a.73829421.73305726 0 0 0 -.7382968.7330551.73829421.73305726 0 0 0 .7382968.733055.73829421.73305726 0 0 0 .7382871-.733055.73829421.73305726 0 0 0 -.7382871-.7330551zm28.0551741 0a.73829421.73305726 0 0 0 -.738297.7330551.73829421.73305726 0 0 0 .738297.733055.73829421.73305726 0 0 0 .738296-.733055.73829421.73305726 0 0 0 -.738296-.7330551zm0 27.8561791a.73829421.73305726 0 0 0 -.738297.733056.73829421.73305726 0 0 0 .738297.733054.73829421.73305726 0 0 0 .738296-.733054.73829421.73305726 0 0 0 -.738296-.733056z" opacity=".1"/><path d="m30.296528 20.051777v-3.5l-6.994751 1.2v5.8h6.994751zm-12.994751-1.308562v4.823381h5v-5.634507zm6 5.808562v5.812479l6.994751 1.187521v-7zm-6 0v4.867436l5 .76707-.0114-5.634506z" fill="#fff" fill-rule="evenodd"/></svg>