<svg height="48" width="48" xmlns="http://www.w3.org/2000/svg" xmlns:xlink="http://www.w3.org/1999/xlink"><linearGradient id="a" gradientTransform="matrix(.3038078 0 0 .30219948 -62.677523 2.720667)" gradientUnits="userSpaceOnUse" x1="288.11157" x2="287.57547" y1="141.78452" y2="79.007812"><stop offset="0" stop-opacity=".046875"/><stop offset="1" stop-opacity="0"/></linearGradient><path d="m2.9627512 26.819877v1.659735c0 9.523828 5.5833583 17.191135 17.1461548 17.191135h6.930611c15.132735 0 17.836852-11.262971 17.836852-17.191135v-1.659735c0 5.928163-2.704117 17.191133-17.836852 17.191133h-6.930611c-11.5627965 0-17.1461548-7.667307-17.1461548-17.191133z" fill="url(#a)"/><path d="m19.576302 3.4653654h8.495281c13.908084 0 16.804806 11.1876026 16.804806 17.1910206v7.085643c0 5.928162-2.704237 17.191018-17.836972 17.191018h-6.930271c-11.5627965 0-17.1463648-7.667192-17.1463648-17.191018v-7.085643c0-9.523825 5.4703155-17.1910206 16.6135208-17.1910206z" style="fill:#999;stroke:#000;stroke-width:.333303;stroke-linecap:square;stroke-linejoin:bevel;stroke-opacity:.078125"/><path d="m19.576302 3.4653654h8.495281c13.908087 0 16.804807 11.1876026 16.804807 17.1910206v7.085643c0 5.928162-2.70424 17.191015-17.836973 17.191015h-6.930271c-11.562797 0-17.146365-7.667189-17.146365-17.191015v-7.085643c0-9.523825 5.470315-17.1910206 16.613521-17.1910206z" style="fill:#b3b3b3;fill-opacity:.072539;stroke:#000;stroke-width:.333303;stroke-linecap:square;stroke-linejoin:bevel;stroke-opacity:.078125"/><path d="m-33.642738 24.684014c0-7.661997-6.239298-13.823064-13.998581-13.823064-7.759286 0-13.998582 6.161067-13.998582 13.823064 0 7.66199 6.239297 13.823058 13.998582 13.823058 7.759281 0 13.998581-6.161068 13.998581-13.823058zm-8.877149 0c0 2.783575-2.246103 5.057216-5.121432 5.057216-2.931734 0-5.121433-2.329902-5.121433-5.057216 0-2.783027 2.076889-5.057223 5.121433-5.057223 3.044542 0 5.121432 2.329334 5.121432 5.057223z" fill="#e6e6e6" transform="matrix(1.2928778 0 0 1.287875 85.526308 -7.455024)"/><g fill-rule="evenodd"><path d="m23.910252 30.993621c3.76244 0 6.8125-2.98675 6.8125-6.67109 0-3.684341-3.05006-6.67109-6.8125-6.67109s-6.8125 2.986749-6.8125 6.67109c0 3.68434 3.05006 6.67109 6.8125 6.67109zm0-3.812052c1.612474 0 2.919643-1.280035 2.919643-2.859038s-1.307169-2.859039-2.919643-2.859039-2.919643 1.280036-2.919643 2.859039 1.307169 2.859038 2.919643 2.859038z" fill="#cbd4e6" opacity=".8"/><path d="m14.519626 8.9572421c-1.616715.9294414-3.043025 2.0611559-4.265308 3.3445069 0 0 11.150859 10.258522 11.180529 10.309694.226015-.174919.466711-.336539.721605-.483076.275034-.158115.557076-.293195.84387-.405842-.022713-.039176-3.392814-14.797885-3.384819-14.7840977-1.746068.4113425-3.462186 1.0796133-5.095877 2.0188148zm17.973081 30.9979149c-1.616714.929442-3.314148 1.593553-5.041451 2.005904.000001.000001-3.387594-14.797783-3.384754-14.792885.268041-.108167.531783-.236052.789379-.384143.269538-.154956.523202-.326777.760418-.513357.252928-.198938 11.188151 10.313282 11.180157 10.299494-1.230787 1.30004-2.670058 2.445786-4.303749 3.384987z" fill="#fff" opacity=".25"/><path d="m18.327183 33.790487v4.284h1.488c.672 0 1.188-.198 1.548-.588.342-.372.516-.894.516-1.554 0-.672-.162-1.194-.48-1.554-.348-.396-.858-.588-1.536-.588zm.492.426h.966c.564 0 .972.144 1.236.438.246.276.372.702.372 1.278 0 .558-.138.984-.402 1.272-.282.294-.702.444-1.26.444h-.912zm3.342-.426 1.584 4.284h.606l1.584-4.284h-.54l-1.338 3.75h-.018l-1.338-3.75zm4.236 0v4.284h1.488c.672 0 1.188-.198 1.548-.588.342-.372.516-.894.516-1.554 0-.672-.162-1.194-.48-1.554-.348-.396-.858-.588-1.536-.588zm.492.426h.966c.564 0 .972.144 1.236.438.246.276.372.702.372 1.278 0 .558-.138.984-.402 1.272-.282.294-.702.444-1.26.444h-.912z" fill="#666"/></g></svg>